<?xml version="1.0" encoding="utf-8"?>
<!-- Generator: Adobe Illustrator 24.3.0, SVG Export Plug-In . SVG Version: 6.00 Build 0)  -->
<svg version="1.1" id="Layer_1" xmlns="http://www.w3.org/2000/svg" xmlns:xlink="http://www.w3.org/1999/xlink" x="0px" y="0px"
	 viewBox="0 0 321 270" style="enable-background:new 0 0 321 270;" xml:space="preserve">
<style type="text/css">
	.st0{opacity:0.41;}
	.st1{fill:#C8D8EF;}
	.st2{opacity:0.88;}
	.st3{opacity:0.31;fill:#C8D8EF;}
	.st4{fill:#AF9CCB;}
	.st5{fill:#253863;}
	.st6{fill:#FFFFFF;}
	.st7{fill:#EDF1F7;}
	.st8{opacity:0.33;fill:#AF9CCB;}
	.st9{fill:#F7A9B4;}
	.st10{opacity:0.29;fill:#253863;}
	.st11{opacity:0.35;fill:#EDF1F7;}
</style>
<g>
	<g>
		<g class="st0">
			<g>
				<path class="st1" d="M319.2,172c0.3-5.2,0.2-10.4-0.4-15.6c-2.8-24.3-15.2-47.2-33.6-63.4c-6.5-5.8-14-10.9-18.3-18.6
					c-7.2-12.8-6.6-27.6-15.5-40.2c-8.9-12.7-21.9-22.6-36.6-27.6C171.1-8.6,110,16.1,115.5,68.7c0,0.2,0,0.5,0.1,0.8
					c0.7,10.9-7.8,20.1-18.8,20.4c-40.3,1-75,32-82.4,71.4c-4.8,25.3,3,53.1,21.6,71c13.8,13.4,32.4,20.7,50.9,25.8
					c37.2,10.1,76.4,12.2,114.7,8.4c35.9-3.6,73.8-13.9,97-41.6C311,210.1,318.1,191.2,319.2,172z"/>
			</g>
		</g>
		<g class="st2">
			<g>
				<path class="st1" d="M286,174.5c0.2-4.1,0.1-8.2-0.3-12.2c-2.2-19-11.9-37-26.3-49.7c-5.1-4.5-11-8.6-14.3-14.5
					c-5.6-10-5.2-21.6-12.2-31.5c-7-9.9-17.2-17.7-28.6-21.7c-34.2-11.9-82.1,7.5-77.8,48.7c0,0.1,0,0.4,0.1,0.6
					c0.6,8.6-6.1,15.8-14.7,16c-31.6,0.7-58.8,25.1-64.6,55.9c-3.7,19.8,2.4,41.6,16.9,55.6c10.8,10.5,25.4,16.2,39.9,20.2
					c29.1,7.9,59.8,9.6,89.9,6.6c28.1-2.8,57.8-10.9,76-32.6C279.6,204.3,285.2,189.5,286,174.5z"/>
			</g>
		</g>
		<ellipse transform="matrix(0.2307 -0.973 0.973 0.2307 190.9878 324.444)" class="st3" cx="300.7" cy="41.4" rx="9.9" ry="9.9"/>
		<ellipse transform="matrix(0.7071 -0.7071 0.7071 0.7071 3.4311 68.2914)" class="st3" cx="84.2" cy="30" rx="11.4" ry="11.4"/>
		<circle class="st3" cx="15.7" cy="249.6" r="14.8"/>
	</g>
	<g>
		<g>
			<circle class="st4" cx="132.2" cy="80.8" r="52.3"/>
			<path class="st5" d="M168.5,118.5c-0.1,0-0.3,0-0.4-0.1c-0.2-0.2-0.2-0.5,0-0.7c9.8-9.8,15.2-22.8,15.2-36.6
				c0-13.8-5.4-26.9-15.2-36.6c-9.8-9.8-22.8-15.2-36.6-15.2s-26.9,5.4-36.6,15.2c-0.2,0.2-0.5,0.2-0.7,0c-0.2-0.2-0.2-0.5,0-0.7
				c10-10,23.2-15.5,37.4-15.5s27.4,5.5,37.4,15.5c10,10,15.5,23.2,15.5,37.4s-5.5,27.4-15.5,37.4
				C168.8,118.4,168.7,118.5,168.5,118.5z"/>
			<circle class="st6" cx="132.2" cy="80.8" r="39.8"/>
			<path class="st5" d="M132.2,121.1c-22.2,0-40.3-18.1-40.3-40.3s18.1-40.3,40.3-40.3c0.3,0,0.5,0.2,0.5,0.5c0,0.3-0.2,0.5-0.5,0.5
				c-21.7,0-39.3,17.6-39.3,39.3c0,21.7,17.6,39.3,39.3,39.3c0.3,0,0.5,0.2,0.5,0.5C132.7,120.9,132.5,121.1,132.2,121.1z"/>
			<path class="st5" d="M142.5,88.4h-10.8c-2.2,0-4-1.8-4-4v-15c0-1.9,1.6-3.5,3.5-3.5c1.9,0,3.5,1.6,3.5,3.5v12h7.9
				c1.9,0,3.5,1.6,3.5,3.5C146,86.8,144.4,88.4,142.5,88.4z"/>
		</g>
	</g>
	<g>
		<path class="st5" d="M50.9,98.9l56.4,56.4c11,11,28.9,11,39.9,0l6.7-6.7c2.5-2.5,2.5-6.7,0-9.2l-23-23c-2.5-2.5-6.7-2.5-9.2,0
			l-11.5,11.5c-0.9,0.9-2.4,0.9-3.3,0L79.1,100c-0.9-0.9-0.9-2.3,0-3.2l11.3-11.3c2.5-2.5,2.5-6.7,0-9.2L66.8,52.6
			c-2.5-2.5-6.6-2.5-9.1-0.1l-6.4,6.2C39.9,69.6,39.8,87.8,50.9,98.9z"/>
		<g>
			<path class="st7" d="M52.7,59.8l31.7,31.7l1.1-1.1l5-5c2.5-2.5,2.5-6.7,0-9.2L66.8,52.6c-2.5-2.5-6.6-2.5-9.1-0.1l-6.4,6.2
				L52.7,59.8z"/>
			<path class="st5" d="M84.4,92.2l-32-32l-1.8-1.5l6.8-6.6c2.7-2.6,7.1-2.6,9.8,0.1l23.6,23.6c2.7,2.7,2.7,7.2,0,9.9L84.4,92.2z
				 M52,58.6l1,0.8l31.3,31.3l5.7-5.7c1.1-1.1,1.8-2.6,1.8-4.3c0-1.6-0.6-3.1-1.8-4.3L66.5,52.9c-2.3-2.3-6.1-2.3-8.4-0.1L52,58.6z"
				/>
		</g>
		<g>
			<path class="st7" d="M117.1,123.2l31.7,31.7l1.1-1.1l5-5c2.5-2.5,2.5-6.7,0-9.2l-23.6-23.6c-2.5-2.5-6.6-2.5-9.1-0.1l-6.4,6.2
				L117.1,123.2z"/>
			<path class="st5" d="M148.8,155.5l-32-32l-1.8-1.5l6.8-6.6c2.7-2.6,7.1-2.6,9.8,0.1l23.6,23.6c1.3,1.3,2.1,3.1,2.1,5
				c0,1.9-0.7,3.6-2.1,5L148.8,155.5z M116.5,122l1,0.8l31.3,31.3l5.7-5.7c1.1-1.1,1.8-2.6,1.8-4.3c0-1.6-0.6-3.1-1.8-4.3
				l-23.6-23.6c-2.3-2.3-6.1-2.3-8.4-0.1L116.5,122z"/>
		</g>
		<g>
			<line class="st7" x1="55.1" y1="56.1" x2="74.4" y2="75.4"/>
			<path class="st5" d="M74.4,75.9c-0.1,0-0.3,0-0.4-0.1L54.8,56.4c-0.2-0.2-0.2-0.5,0-0.7c0.2-0.2,0.5-0.2,0.7,0L74.8,75
				c0.2,0.2,0.2,0.5,0,0.7C74.7,75.8,74.6,75.9,74.4,75.9z"/>
		</g>
		<g>
			<line class="st7" x1="131.9" y1="132.8" x2="151.2" y2="152.1"/>
			<path class="st5" d="M151.2,152.6c-0.1,0-0.3,0-0.4-0.1l-19.3-19.3c-0.2-0.2-0.2-0.5,0-0.7c0.2-0.2,0.5-0.2,0.7,0l19.3,19.3
				c0.2,0.2,0.2,0.5,0,0.7C151.5,152.6,151.3,152.6,151.2,152.6z"/>
		</g>
	</g>
	<g>
		<path class="st5" d="M235.9,251.3L162,240.4c-8.4-1.2-14.1-9-12.9-17.4l26.5-179.2c1.2-8.4,9-14.1,17.4-12.9l73.9,10.9
			c8.4,1.2,14.1,9,12.9,17.4l-26.5,179.2C252,246.8,244.3,252.5,235.9,251.3z"/>
		
			<rect x="129.2" y="92.7" transform="matrix(0.1463 -0.9892 0.9892 0.1463 45.7705 331.1393)" class="st7" width="171" height="92.7"/>
		
			<rect x="219.9" y="14.4" transform="matrix(0.1463 -0.9892 0.9892 0.1463 133.0649 275.7845)" class="st4" width="12.8" height="92.7"/>
		<path class="st7" d="M200.7,240.1c-0.3,0-0.6,0-0.9-0.1c-1.6-0.2-3-1.1-3.9-2.4c-1-1.3-1.3-2.9-1.1-4.4c0.2-1.6,1.1-3,2.4-3.9
			c1.3-1,2.9-1.4,4.4-1.1c1.6,0.2,3,1.1,3.9,2.4c1,1.3,1.3,2.9,1.1,4.4C206.2,238,203.6,240.1,200.7,240.1z M200.7,229.2
			c-1.1,0-2.1,0.3-3,1c-1.1,0.8-1.8,2-2,3.3c-0.2,1.3,0.1,2.6,0.9,3.7c0.8,1.1,2,1.8,3.3,2c2.7,0.4,5.3-1.5,5.7-4.2
			c0.2-1.3-0.1-2.6-0.9-3.7c-0.8-1.1-2-1.8-3.3-2C201.2,229.2,200.9,229.2,200.7,229.2z"/>
		<path class="st7" d="M213.9,46c-0.1,0-0.2,0-0.3,0c-0.5-0.1-1-0.3-1.3-0.8c-0.3-0.4-0.4-0.9-0.4-1.4c0.1-0.5,0.3-1,0.8-1.3
			c0.4-0.3,0.9-0.4,1.4-0.4c0.5,0.1,1,0.3,1.3,0.8c0.3,0.4,0.4,0.9,0.4,1.4v0C215.7,45.4,214.9,46,213.9,46z M213.9,43.2
			c-0.2,0-0.4,0.1-0.5,0.2c-0.2,0.1-0.3,0.4-0.4,0.6c0,0.2,0,0.5,0.2,0.7c0.1,0.2,0.4,0.3,0.6,0.4c0.2,0,0.5,0,0.7-0.2
			c0.2-0.1,0.3-0.4,0.4-0.6l0,0c0-0.2,0-0.5-0.2-0.7c-0.1-0.2-0.4-0.3-0.6-0.4C214,43.2,214,43.2,213.9,43.2z"/>
		<path class="st7" d="M243.7,50.5c-0.1,0-0.2,0-0.3,0L220,47c-0.5-0.1-1-0.3-1.3-0.8c-0.3-0.4-0.4-0.9-0.4-1.4
			c0.1-0.5,0.3-1,0.8-1.3c0.4-0.3,0.9-0.4,1.4-0.4l23.4,3.5c0.5,0.1,1,0.3,1.3,0.8c0.3,0.4,0.4,0.9,0.4,1.4c-0.1,0.5-0.3,1-0.8,1.3
			C244.5,50.3,244.2,50.5,243.7,50.5z M220.3,44.1c-0.5,0-0.8,0.3-0.9,0.8c0,0.2,0,0.5,0.2,0.7c0.1,0.2,0.4,0.3,0.6,0.4l23.4,3.5
			c0.5,0.1,1-0.3,1.1-0.8c0-0.2,0-0.5-0.2-0.7c-0.1-0.2-0.4-0.3-0.6-0.4l-23.4-3.5C220.4,44.1,220.4,44.1,220.3,44.1z"/>
		<path class="st1" d="M248.5,178.7l-64-9.5c-1-0.2-2,0.6-2.2,1.6l-2.5,16.6c-0.2,1,0.6,2,1.6,2.2l54.7,8.1l5.6,7.8l1-6.8l2.6,0.4
			c1,0.2,2-0.6,2.2-1.6l2.5-16.6C250.2,179.8,249.5,178.8,248.5,178.7z"/>
		<path class="st5" d="M236.2,198.2C236.2,198.2,236.1,198.2,236.2,198.2l-54.8-8.1c-0.6-0.1-1.2-0.4-1.6-0.9
			c-0.4-0.5-0.5-1.2-0.4-1.8l2.5-16.6c0.2-1.3,1.4-2.2,2.7-2l14.8,2.2c0.3,0,0.5,0.3,0.4,0.6c0,0.3-0.3,0.5-0.6,0.4l-14.8-2.2
			c-0.8-0.1-1.5,0.4-1.6,1.2l-2.5,16.6c-0.1,0.4,0,0.7,0.3,1c0.2,0.3,0.6,0.5,0.9,0.6l54.7,8.1c0.3,0,0.5,0.3,0.4,0.6
			C236.6,198,236.4,198.2,236.2,198.2z"/>
		<path class="st1" d="M258.7,109.9l-64-9.5c-1-0.2-2,0.6-2.2,1.6l-2.5,16.6c-0.2,1,0.6,2,1.6,2.2l54.7,8.1l5.6,7.8l1-6.8l2.6,0.4
			c1,0.2,2-0.6,2.2-1.6l2.5-16.6C260.4,111,259.7,110,258.7,109.9z"/>
		<path class="st5" d="M252.3,137.9l-6.2-8.6l-54.5-8.1c-1.3-0.2-2.2-1.4-2-2.7c0-0.3,0.3-0.5,0.6-0.4c0.3,0,0.5,0.3,0.4,0.6
			c-0.1,0.4,0,0.7,0.3,1c0.2,0.3,0.6,0.5,0.9,0.6l54.9,8.1l5,7l0.9-6.1l3.1,0.5c0.4,0.1,0.7,0,1-0.3c0.3-0.2,0.5-0.6,0.6-0.9l1.6-11
			c0-0.3,0.3-0.5,0.6-0.4c0.3,0,0.5,0.3,0.4,0.6l-1.6,11c-0.1,0.6-0.4,1.2-0.9,1.6c-0.5,0.4-1.2,0.5-1.8,0.4l-2.1-0.3L252.3,137.9z"
			/>
		<path class="st4" d="M177.6,131.3l64,9.5c1,0.2,1.8,1.1,1.6,2.2l-2.5,16.6c-0.2,1-1.1,1.8-2.2,1.6l-54.7-8.1l-7.6,5.8l1-6.8
			l-2.6-0.4c-1-0.2-1.8-1.1-1.6-2.2l2.5-16.6C175.6,131.8,176.6,131.1,177.6,131.3z"/>
		<path class="st5" d="M238.9,161.6c-0.1,0-0.2,0-0.4,0l-34.2-5.1c-0.3,0-0.5-0.3-0.4-0.6c0-0.3,0.3-0.5,0.6-0.4l34.2,5.1
			c0.4,0.1,0.7,0,1-0.3c0.3-0.2,0.5-0.6,0.6-0.9l2.5-16.6c0.1-0.8-0.4-1.5-1.2-1.6c-0.3,0-0.5-0.3-0.4-0.6c0-0.3,0.3-0.5,0.6-0.4
			c1.3,0.2,2.2,1.4,2,2.7l-2.5,16.6c-0.1,0.6-0.4,1.2-0.9,1.6C239.9,161.5,239.4,161.6,238.9,161.6z"/>
		
			<rect x="195.5" y="169.5" transform="matrix(0.1463 -0.9892 0.9892 0.1463 -39.9223 385.4785)" class="st6" width="15.7" height="92.7"/>
		<path class="st1" d="M172.2,211.1c-0.5,3-3.3,5.2-6.3,4.7c-3-0.5-5.2-3.3-4.7-6.3c0.5-3,3.3-5.2,6.3-4.7
			C170.5,205.2,172.7,208.1,172.2,211.1z"/>
		<path class="st8" d="M239.9,226.2c-0.2,0-0.5,0-0.7-0.1l-59.5-8.8c-1.3-0.2-2.5-0.9-3.3-2c-0.8-1.1-1.1-2.4-0.9-3.7
			c0.4-2.7,2.9-4.6,5.7-4.2l59.5,8.8c2.7,0.4,4.6,2.9,4.2,5.6C244.4,224.5,242.3,226.2,239.9,226.2z M239.3,225.2
			c2.2,0.3,4.2-1.2,4.5-3.4c0.2-1.1-0.1-2.1-0.7-3c-0.6-0.9-1.6-1.4-2.6-1.6l-59.5-8.8c-2.2-0.3-4.2,1.2-4.5,3.4
			c-0.2,1.1,0.1,2.1,0.7,3c0.6,0.9,1.6,1.4,2.6,1.6L239.3,225.2z"/>
		<path class="st6" d="M187.1,56.8c-0.1,0-0.2,0-0.3,0c-1.1-0.2-1.8-1.2-1.7-2.2c0.1-0.5,0.4-1,0.8-1.3c0.4-0.3,0.9-0.4,1.5-0.4
			c1.1,0.2,1.8,1.2,1.7,2.2l0,0C188.9,56.1,188,56.8,187.1,56.8z M187.1,53.9c-0.2,0-0.4,0.1-0.6,0.2c-0.2,0.2-0.3,0.4-0.4,0.6
			c0,0.3,0,0.5,0.2,0.7c0.2,0.2,0.4,0.3,0.6,0.4c0.5,0.1,1-0.3,1.1-0.8l0,0c0-0.3,0-0.5-0.2-0.7c-0.2-0.2-0.4-0.3-0.6-0.4
			C187.2,53.9,187.1,53.9,187.1,53.9z"/>
		<path class="st6" d="M192.5,57.6c-0.1,0-0.2,0-0.3,0c-1.1-0.2-1.8-1.2-1.7-2.2c0.2-1.1,1.2-1.8,2.2-1.7c0.5,0.1,1,0.3,1.3,0.8
			c0.3,0.4,0.4,0.9,0.4,1.5c-0.1,0.5-0.4,1-0.8,1.3C193.3,57.5,192.9,57.6,192.5,57.6z M192.5,54.7c-0.5,0-0.9,0.3-0.9,0.8
			c0,0.3,0,0.5,0.2,0.7c0.2,0.2,0.4,0.3,0.6,0.4c0.3,0,0.5,0,0.7-0.2c0.2-0.2,0.3-0.4,0.4-0.6l0,0c0-0.3,0-0.5-0.2-0.7
			c-0.2-0.2-0.4-0.3-0.6-0.4C192.6,54.7,192.5,54.7,192.5,54.7z"/>
		<path class="st6" d="M197.8,58.4c-0.1,0-0.2,0-0.3,0c-1.1-0.2-1.8-1.2-1.6-2.2c0.2-1.1,1.2-1.8,2.2-1.7c1.1,0.2,1.8,1.2,1.7,2.2
			C199.6,57.7,198.8,58.4,197.8,58.4z M197.8,55.5c-0.2,0-0.4,0.1-0.6,0.2c-0.2,0.2-0.3,0.4-0.4,0.6c0,0.3,0,0.5,0.2,0.7
			c0.2,0.2,0.4,0.3,0.6,0.4c0.5,0.1,1-0.3,1.1-0.8c0.1-0.5-0.3-1-0.8-1.1C197.9,55.5,197.9,55.5,197.8,55.5z"/>
		<path class="st5" d="M272.5,74.6C272.5,74.6,272.5,74.6,272.5,74.6l-85-12.6c-0.3,0-0.5-0.3-0.4-0.6c0-0.3,0.3-0.5,0.6-0.4
			l84.9,12.6c0.3,0,0.5,0.3,0.4,0.6C273,74.4,272.7,74.6,272.5,74.6z"/>
		<path class="st6" d="M237.1,182.5C237.1,182.5,237,182.5,237.1,182.5l-45.4-6.7c-0.3,0-0.5-0.3-0.4-0.6c0-0.3,0.3-0.5,0.6-0.4
			l45.3,6.7c0.3,0,0.5,0.3,0.4,0.6C237.6,182.3,237.3,182.5,237.1,182.5z"/>
		<path class="st6" d="M210.3,184C210.2,184,210.2,184,210.3,184l-19.4-2.9c-0.3,0-0.5-0.3-0.4-0.6c0-0.3,0.3-0.5,0.6-0.4l19.3,2.9
			c0.3,0,0.5,0.3,0.4,0.6C210.7,183.9,210.5,184,210.3,184z"/>
		<path class="st6" d="M203.8,188.3C203.7,188.3,203.7,188.3,203.8,188.3l-13.6-2c-0.3,0-0.5-0.3-0.4-0.6c0-0.3,0.3-0.5,0.6-0.4
			l13.5,2c0.3,0,0.5,0.3,0.4,0.6C204.2,188.1,204,188.3,203.8,188.3z"/>
		<path class="st6" d="M236.3,187.9C236.3,187.9,236.2,187.9,236.3,187.9l-20-3c-0.3,0-0.5-0.3-0.4-0.6c0-0.3,0.3-0.5,0.6-0.4
			l19.9,2.9c0.3,0,0.5,0.3,0.4,0.6C236.8,187.7,236.5,187.9,236.3,187.9z"/>
		<g>
			<path class="st6" d="M231.6,144.9C231.5,144.9,231.5,144.9,231.6,144.9l-45.4-6.7c-0.3,0-0.5-0.3-0.4-0.6c0-0.3,0.3-0.5,0.6-0.4
				l45.3,6.7c0.3,0,0.5,0.3,0.4,0.6C232,144.7,231.8,144.9,231.6,144.9z"/>
			<path class="st6" d="M204.7,146.4C204.7,146.4,204.7,146.4,204.7,146.4l-19.4-2.9c-0.3,0-0.5-0.3-0.4-0.6c0-0.3,0.3-0.5,0.6-0.4
				l19.3,2.9c0.3,0,0.5,0.3,0.4,0.6C205.2,146.3,205,146.4,204.7,146.4z"/>
			<path class="st6" d="M224.8,154.6C224.7,154.6,224.7,154.6,224.8,154.6l-39.2-6.1c-0.3,0-0.5-0.3-0.4-0.6c0-0.3,0.3-0.5,0.6-0.4
				l39.1,6.1c0.3,0,0.5,0.3,0.4,0.6C225.2,154.4,225,154.6,224.8,154.6z"/>
			<path class="st6" d="M230.8,150.3C230.7,150.3,230.7,150.3,230.8,150.3l-20-3c-0.3,0-0.5-0.3-0.4-0.6c0-0.3,0.3-0.5,0.6-0.4
				l19.9,2.9c0.3,0,0.5,0.3,0.4,0.6C231.2,150.1,231,150.3,230.8,150.3z"/>
		</g>
		<path class="st4" d="M185.9,68.8l64,9.5c1,0.2,1.8,1.1,1.6,2.2L249,97.1c-0.2,1-1.1,1.8-2.2,1.6l-54.7-8.1l-7.6,5.8l1-6.8
			l-2.6-0.4c-1-0.2-1.8-1.1-1.6-2.2l2.5-16.6C183.9,69.4,184.8,68.7,185.9,68.8z"/>
		<path class="st5" d="M249,97.6C249,97.6,249,97.6,249,97.6c-0.3,0-0.5-0.3-0.5-0.6l2.5-16.6c0.1-0.4,0-0.7-0.3-1
			c-0.2-0.3-0.6-0.5-0.9-0.6l-39.7-5.9c-0.3,0-0.5-0.3-0.4-0.6c0-0.3,0.3-0.5,0.6-0.4l39.7,5.9c0.6,0.1,1.2,0.4,1.6,0.9
			c0.4,0.5,0.5,1.2,0.4,1.8l-2.5,16.6C249.5,97.4,249.3,97.6,249,97.6z"/>
		<g>
			<path class="st6" d="M239.8,82.5C239.8,82.5,239.7,82.5,239.8,82.5l-45.4-6.7c-0.3,0-0.5-0.3-0.4-0.6c0-0.3,0.3-0.5,0.6-0.4
				l45.3,6.7c0.3,0,0.5,0.3,0.4,0.6C240.2,82.3,240,82.5,239.8,82.5z"/>
			<path class="st6" d="M213,84C212.9,84,212.9,84,213,84l-19.4-2.9c-0.3,0-0.5-0.3-0.4-0.6c0-0.3,0.3-0.5,0.6-0.4L213,83
				c0.3,0,0.5,0.3,0.4,0.6C213.4,83.8,213.2,84,213,84z"/>
			<path class="st6" d="M233,92.2C233,92.2,232.9,92.2,233,92.2l-39.2-6.1c-0.3,0-0.5-0.3-0.4-0.6c0-0.3,0.3-0.5,0.6-0.4l39.1,6.1
				c0.3,0,0.5,0.3,0.4,0.6C233.4,92,233.2,92.2,233,92.2z"/>
			<path class="st6" d="M239,87.9C239,87.9,238.9,87.9,239,87.9l-20-3c-0.3,0-0.5-0.3-0.4-0.6c0-0.3,0.3-0.5,0.6-0.4l19.9,2.9
				c0.3,0,0.5,0.3,0.4,0.6C239.4,87.7,239.2,87.9,239,87.9z"/>
		</g>
		<path class="st6" d="M247.3,114.3C247.3,114.3,247.3,114.3,247.3,114.3l-45.4-6.7c-0.3,0-0.5-0.3-0.4-0.6c0-0.3,0.3-0.5,0.6-0.4
			l45.3,6.7c0.3,0,0.5,0.3,0.4,0.6C247.8,114.1,247.6,114.3,247.3,114.3z"/>
		<path class="st6" d="M220.5,115.9C220.5,115.9,220.4,115.9,220.5,115.9l-19.4-2.9c-0.3,0-0.5-0.3-0.4-0.6c0-0.3,0.3-0.5,0.6-0.4
			l19.3,2.9c0.3,0,0.5,0.3,0.4,0.6C220.9,115.7,220.7,115.9,220.5,115.9z"/>
		<path class="st6" d="M214,120.1C214,120.1,213.9,120.1,214,120.1l-13.6-2c-0.3,0-0.5-0.3-0.4-0.6c0-0.3,0.3-0.5,0.6-0.4l13.5,2
			c0.3,0,0.5,0.3,0.4,0.6C214.4,119.9,214.2,120.1,214,120.1z"/>
		<path class="st6" d="M246.5,119.7C246.5,119.7,246.5,119.7,246.5,119.7l-20-3c-0.3,0-0.5-0.3-0.4-0.6c0-0.3,0.3-0.5,0.6-0.4
			l19.9,2.9c0.3,0,0.5,0.3,0.4,0.6C247,119.6,246.8,119.7,246.5,119.7z"/>
	</g>
	<g>
		<g>
			<path class="st9" d="M155.2,235.9L52.5,247.5c-2,0.2-3.8-1.2-4-3.2l-7.4-65.8c0-0.1,0.1-0.2,0.2-0.2L150.7,166
				c0.1,0,0.2,0.1,0.2,0.2l7.4,65.8C158.5,233.9,157.1,235.7,155.2,235.9z"/>
			<path class="st5" d="M52.1,248c-2.1,0-3.8-1.5-4.1-3.6l-7.4-65.8c0-0.4,0.2-0.7,0.6-0.8l109.4-12.3c0.4,0,0.7,0.2,0.8,0.6
				l7.4,65.8c0.1,1.1-0.2,2.1-0.9,3c-0.7,0.8-1.6,1.4-2.7,1.5L52.6,248C52.4,248,52.3,248,52.1,248z M41.7,178.8l7.4,65.5
				c0.2,1.7,1.7,2.9,3.4,2.7l102.7-11.6l0.1,0.5l-0.1-0.5c0.8-0.1,1.5-0.5,2.1-1.1c0.5-0.6,0.7-1.4,0.6-2.3l-7.4-65.5L41.7,178.8z"
				/>
		</g>
		<path class="st10" d="M150.4,235.9l-92.8,11.6c-2,0.2,28.8-39.2,28.5-41.2l-44.9-27.8c0-0.1,0.1-0.2,0.2-0.2L150.7,166
			c0.1,0,0.2,0.1,0.2,0.2l-37.4,37C113.7,205.2,152.3,235.7,150.4,235.9z"/>
		<g>
			<path class="st9" d="M41.3,178.4l45.2-44.7c2.7-2.7,6.9-3.2,10.1-1.2l53.8,33.4c0.1,0.1,0.1,0.2,0,0.2L41.1,178.4"/>
			<path class="st5" d="M41.2,178.9l-0.1-0.7l-0.1-0.1l0.1-0.1l0,0l0,0l45.1-44.6c2.9-2.8,7.3-3.4,10.7-1.2l53.8,33.4
				c0.2,0.1,0.3,0.4,0.3,0.7c-0.1,0.3-0.3,0.4-0.5,0.5L41.2,178.9z M92.3,131.7c-2,0-3.9,0.8-5.4,2.2l-44.2,43.7l106.5-12
				l-52.8-32.8C95.1,132.1,93.7,131.7,92.3,131.7z"/>
		</g>
		<path class="st10" d="M41.3,178.4l45.2-44.7c2.7-2.7,6.9-3.2,10.1-1.2l53.8,33.4c0.1,0.1,0.1,0.2,0,0.2L41.1,178.4"/>
		<g>
			<path class="st9" d="M91.5,199.4l-34,47.3l92.8-10.5l-43.7-38.6C102.1,193.7,95.1,194.5,91.5,199.4z"/>
			<path class="st5" d="M56.5,247.4l34.7-48.2l0.4,0.3l-0.4-0.3c1.8-2.5,4.5-4.1,7.5-4.4c3-0.3,6.1,0.6,8.3,2.6l44.5,39.3
				L56.5,247.4z M99.9,195.7c-0.4,0-0.7,0-1.1,0.1c-2.7,0.3-5.2,1.8-6.8,4l-33.3,46.4l90.6-10.2l-42.8-37.8
				C104.6,196.5,102.2,195.7,99.9,195.7z"/>
		</g>
		<g>
			<path class="st6" d="M46.8,146l71.5-8.1c4.7-0.5,8.9,2.3,9.3,6.4l4.6,40.8l-19.9,18.3l-26.3,3l-26-16.2l-4.5-39.5L46.8,146z"/>
			<path class="st5" d="M86,206.8l-26.3-16.5l-4.4-39.5l-6.8-5.6l69.9-7.9c2.4-0.3,4.7,0.3,6.6,1.6c1.9,1.3,3,3.2,3.3,5.3l4.6,41
				l-20.2,18.6L86,206.8z M60.6,189.8l25.6,16l25.9-2.9l19.6-18l-4.6-40.5c-0.2-1.8-1.2-3.4-2.9-4.6c-1.7-1.1-3.8-1.6-5.9-1.4
				l-69.9,7.9l7.6,4L60.6,189.8z"/>
		</g>
		<path class="st10" d="M91.5,195.4l-34,51.4l92.8-10.5l-43.7-42.6C102.1,189.6,95.1,190.4,91.5,195.4z"/>
		<g>
			<path class="st9" d="M91.5,199.4l-34,47.3l92.8-10.5l-43.7-38.6C102.1,193.7,95.1,194.5,91.5,199.4z"/>
			<path class="st5" d="M56.5,247.4l34.7-48.2l0.4,0.3l-0.4-0.3c1.8-2.5,4.5-4.1,7.5-4.4c3-0.3,6.1,0.6,8.3,2.6l44.5,39.3
				L56.5,247.4z M99.9,195.7c-0.4,0-0.7,0-1.1,0.1c-2.7,0.3-5.2,1.8-6.8,4l-33.3,46.4l90.6-10.2l-42.8-37.8
				C104.6,196.5,102.2,195.7,99.9,195.7z"/>
		</g>
		<path class="st11" d="M94.8,209.9l-25,34.7L138,237L106,208.7C102.6,205.7,97.4,206.3,94.8,209.9z"/>
		<g>
			<line class="st9" x1="41.3" y1="178.5" x2="86.1" y2="206.3"/>
			
				<rect x="63.2" y="166" transform="matrix(0.5289 -0.8487 0.8487 0.5289 -133.2679 144.7123)" class="st5" width="1" height="52.7"/>
		</g>
		<g>
			<line class="st9" x1="150.9" y1="166.1" x2="113.5" y2="203.2"/>
			
				<rect x="105.8" y="184.2" transform="matrix(0.7096 -0.7047 0.7047 0.7096 -91.7379 146.7831)" class="st5" width="52.7" height="1"/>
		</g>
		<g>
			<path class="st7" d="M57.7,168.8l-12.5,1.4l-2-17.8c-0.4-3.3,2-6.3,5.3-6.6l0.6-0.1c3.3-0.4,6.3,2,6.6,5.3L57.7,168.8z"/>
			<path class="st5" d="M44.7,170.7l-2.1-18.3c-0.2-1.7,0.3-3.4,1.4-4.8c1.1-1.4,2.6-2.2,4.3-2.4l0.6-0.1c1.7-0.2,3.4,0.3,4.8,1.4
				c1.4,1.1,2.2,2.6,2.4,4.3l2.1,18.3L44.7,170.7z M49.7,146.2c-0.2,0-0.4,0-0.6,0l-0.6,0.1c-1.5,0.2-2.8,0.9-3.7,2
				c-0.9,1.1-1.3,2.6-1.2,4l1.9,17.3l11.5-1.3l-2-17.3c-0.2-1.5-0.9-2.8-2-3.7C52.1,146.6,50.9,146.2,49.7,146.2z"/>
		</g>
		<path class="st5" d="M66.1,159.5c-0.3,0-0.5-0.2-0.5-0.4c0-0.3,0.2-0.5,0.4-0.6l51.8-5.8c0.3,0,0.5,0.2,0.6,0.4
			c0,0.3-0.2,0.5-0.4,0.6L66.1,159.5C66.2,159.5,66.1,159.5,66.1,159.5z"/>
		<path class="st5" d="M68.1,177.1c-0.3,0-0.5-0.2-0.5-0.4c0-0.3,0.2-0.5,0.4-0.6l51.8-5.8c0.3,0,0.5,0.2,0.6,0.4
			c0,0.3-0.2,0.5-0.4,0.6L68.1,177.1C68.1,177.1,68.1,177.1,68.1,177.1z"/>
		<path class="st5" d="M67.1,168.2c-0.3,0-0.5-0.2-0.5-0.4c0-0.3,0.2-0.5,0.4-0.6l22.4-2.5c0.3,0,0.5,0.2,0.6,0.4
			c0,0.3-0.2,0.5-0.4,0.6L67.1,168.2C67.1,168.2,67.1,168.2,67.1,168.2z"/>
		<path class="st5" d="M95.4,165c-0.3,0-0.5-0.2-0.5-0.4c0-0.3,0.2-0.5,0.4-0.6l23.6-2.7c0.3,0,0.5,0.2,0.6,0.4
			c0,0.3-0.2,0.5-0.4,0.6L95.4,165C95.4,165,95.4,165,95.4,165z"/>
		<path class="st5" d="M69.2,187.1c-0.3,0-0.5-0.2-0.5-0.4c0-0.3,0.2-0.5,0.4-0.6l22.4-2.5c0.3,0,0.5,0.2,0.6,0.4
			c0,0.3-0.2,0.5-0.4,0.6L69.2,187.1C69.3,187.1,69.3,187.1,69.2,187.1z"/>
	</g>
</g>
</svg>
