<?xml version="1.0" encoding="utf-8"?>
<!-- Generator: Adobe Illustrator 24.3.0, SVG Export Plug-In . SVG Version: 6.00 Build 0)  -->
<svg version="1.1" id="Layer_1" xmlns="http://www.w3.org/2000/svg" xmlns:xlink="http://www.w3.org/1999/xlink" x="0px" y="0px"
	 viewBox="0 0 425.2 526.7" style="enable-background:new 0 0 425.2 526.7;" xml:space="preserve">
<style type="text/css">
	.st0{fill:url(#SVGID_1_);}
	.st1{fill:url(#SVGID_2_);}
	.st2{fill:#F5F1F7;}
	.st3{fill:#2E587D;}
	.st4{fill:url(#SVGID_3_);}
	.st5{fill:url(#SVGID_4_);}
	.st6{fill:url(#SVGID_5_);}
	.st7{fill:url(#SVGID_6_);}
	.st8{fill:url(#SVGID_7_);}
	.st9{fill:url(#SVGID_8_);}
	.st10{fill:url(#SVGID_9_);}
	.st11{fill:url(#SVGID_10_);}
	.st12{fill:url(#SVGID_11_);}
	.st13{fill:url(#SVGID_12_);}
	.st14{fill:url(#SVGID_13_);}
	.st15{fill:url(#SVGID_14_);}
	.st16{fill:url(#SVGID_15_);}
	.st17{fill:url(#SVGID_16_);}
	.st18{fill:url(#SVGID_17_);}
	.st19{fill:url(#SVGID_18_);}
	.st20{fill:url(#SVGID_19_);}
	.st21{fill:url(#SVGID_20_);}
	.st22{fill:url(#SVGID_21_);}
	.st23{fill:url(#SVGID_22_);}
	.st24{fill:url(#SVGID_23_);}
	.st25{fill:url(#SVGID_24_);}
	.st26{fill:url(#SVGID_25_);}
	.st27{fill:url(#SVGID_26_);}
	.st28{fill:url(#SVGID_27_);}
	.st29{fill:url(#SVGID_28_);}
	.st30{fill:url(#SVGID_29_);}
	.st31{fill:url(#SVGID_30_);}
	.st32{fill:url(#SVGID_31_);}
	.st33{fill:url(#SVGID_32_);}
	.st34{fill:url(#SVGID_33_);}
	.st35{fill:url(#SVGID_34_);}
	.st36{fill:url(#SVGID_35_);}
	.st37{fill:url(#SVGID_36_);}
	.st38{fill:url(#SVGID_37_);}
	.st39{fill:url(#SVGID_38_);}
	.st40{fill:url(#SVGID_39_);}
	.st41{fill:url(#SVGID_40_);}
	.st42{fill:#F0C59E;}
	.st43{fill:url(#SVGID_41_);}
	.st44{fill:url(#SVGID_42_);}
	.st45{fill:url(#SVGID_43_);}
	.st46{fill:url(#SVGID_44_);}
	.st47{fill:url(#SVGID_45_);}
	.st48{fill:url(#SVGID_46_);}
	.st49{fill:url(#SVGID_47_);}
	.st50{fill:url(#SVGID_48_);}
	.st51{fill:url(#SVGID_49_);}
	.st52{fill:url(#SVGID_50_);}
	.st53{fill:url(#SVGID_51_);}
	.st54{fill:url(#SVGID_52_);}
	.st55{fill:url(#SVGID_53_);}
	.st56{fill:url(#SVGID_54_);}
	.st57{fill:url(#SVGID_55_);}
	.st58{fill:url(#SVGID_56_);}
	.st59{fill:url(#SVGID_57_);}
	.st60{fill:url(#SVGID_58_);}
	.st61{fill:url(#SVGID_59_);}
	.st62{fill:url(#SVGID_60_);}
	.st63{fill:url(#SVGID_61_);}
	.st64{fill:url(#SVGID_62_);}
	.st65{fill:none;stroke:#FDE5D7;stroke-width:8.0985;stroke-miterlimit:10;}
	.st66{fill:url(#SVGID_63_);}
	.st67{fill:url(#SVGID_64_);}
	.st68{fill:#5BC2CD;}
	.st69{fill:url(#SVGID_65_);}
	.st70{fill:url(#SVGID_66_);}
	.st71{fill:#F15938;}
	.st72{fill:url(#SVGID_67_);}
	.st73{fill:#FFFFFF;}
	.st74{fill:url(#SVGID_68_);}
	.st75{fill:url(#SVGID_69_);}
	.st76{fill:url(#SVGID_70_);}
	.st77{fill:url(#SVGID_71_);}
	.st78{fill:#33BCCA;}
	.st79{fill:url(#SVGID_72_);}
	.st80{fill:url(#SVGID_73_);}
	.st81{fill:url(#SVGID_74_);}
</style>
<linearGradient id="SVGID_1_" gradientUnits="userSpaceOnUse" x1="214.8039" y1="-23.4351" x2="214.8039" y2="244.592">
	<stop  offset="0" style="stop-color:#E97F4E"/>
	<stop  offset="1" style="stop-color:#F4F4BD"/>
</linearGradient>
<circle class="st0" cx="214.8" cy="182.1" r="172.9"/>
<linearGradient id="SVGID_2_" gradientUnits="userSpaceOnUse" x1="211.8705" y1="373.4439" x2="211.8705" y2="166.636">
	<stop  offset="0" style="stop-color:#0095AF"/>
	<stop  offset="1" style="stop-color:#1F709E"/>
</linearGradient>
<rect x="3.5" y="163.2" class="st1" width="416.7" height="325.4"/>
<g>
	<g>
		<g>
			<path class="st2" d="M374.5,96.7"/>
			<g>
				<g>
					<path class="st3" d="M261.6,117.2h-2.5c-12.8,0-23.2-10.4-23.2-23.2V52.6c0-12.8,10.4-23.2,23.2-23.2h2.5
						c12.8,0,23.2,10.4,23.2,23.2V94C284.8,106.7,274.4,117.2,261.6,117.2z"/>
					<linearGradient id="SVGID_3_" gradientUnits="userSpaceOnUse" x1="267.3475" y1="119.6351" x2="246.9471" y2="32.2046">
						<stop  offset="0" style="stop-color:#004864"/>
						<stop  offset="1" style="stop-color:#10223F"/>
					</linearGradient>
					<path class="st4" d="M261.6,133.6h-2.5c-12.8,0-23.2-10.4-23.2-23.2V69c0-12.8,10.4-23.2,23.2-23.2h2.5
						c12.8,0,23.2,10.4,23.2,23.2v41.4C284.8,123.2,274.4,133.6,261.6,133.6z"/>
				</g>
				<g>
					<path class="st3" d="M181.4,141.1h-2.3c-11.6,0-21.1-9.5-21.1-21.1V82.4c0-11.6,9.5-21.1,21.1-21.1h2.3
						c11.6,0,21.1,9.5,21.1,21.1V120C202.4,131.6,192.9,141.1,181.4,141.1z"/>
					<linearGradient id="SVGID_4_" gradientUnits="userSpaceOnUse" x1="185.504" y1="138.7483" x2="165.1035" y2="51.3174">
						<stop  offset="0" style="stop-color:#004864"/>
						<stop  offset="1" style="stop-color:#10223F"/>
					</linearGradient>
					<path class="st5" d="M181.4,156h-2.3c-11.6,0-21.1-9.5-21.1-21.1V97.3c0-11.6,9.5-21.1,21.1-21.1h2.3
						c11.6,0,21.1,9.5,21.1,21.1v37.6C202.4,146.5,192.9,156,181.4,156z"/>
				</g>
				<g>
					<path class="st3" d="M113,182.1h-2.3c-11.6,0-21.1-9.5-21.1-21.1v-37.6c0-11.6,9.5-21.1,21.1-21.1h2.3
						c11.6,0,21.1,9.5,21.1,21.1V161C134.1,172.6,124.6,182.1,113,182.1z"/>
					<linearGradient id="SVGID_5_" gradientUnits="userSpaceOnUse" x1="111.6355" y1="156.0378" x2="91.235" y2="68.6069">
						<stop  offset="0" style="stop-color:#004864"/>
						<stop  offset="1" style="stop-color:#10223F"/>
					</linearGradient>
					<path class="st6" d="M113,197h-2.3c-11.6,0-21.1-9.5-21.1-21.1v-37.6c0-11.6,9.5-21.1,21.1-21.1h2.3c11.6,0,21.1,9.5,21.1,21.1
						v37.6C134.1,187.5,124.6,197,113,197z"/>
				</g>
				<g>
					<linearGradient id="SVGID_6_" gradientUnits="userSpaceOnUse" x1="276.2619" y1="137.1613" x2="229.8997" y2="29.9965">
						<stop  offset="0" style="stop-color:#E1CBB0"/>
						<stop  offset="1" style="stop-color:#FFFFFF"/>
					</linearGradient>
					<polygon class="st7" points="325.7,77.1 212.2,77.9 212.2,163.2 325.7,121.5 					"/>
					<linearGradient id="SVGID_7_" gradientUnits="userSpaceOnUse" x1="162.0258" y1="187.4942" x2="115.1776" y2="79.206">
						<stop  offset="0" style="stop-color:#E1CBB0"/>
						<stop  offset="1" style="stop-color:#FFFFFF"/>
					</linearGradient>
					<polygon class="st8" points="72.9,173 72.6,206.2 212.2,163.2 212.2,77.9 					"/>
				</g>
				<g>
					<linearGradient id="SVGID_8_" gradientUnits="userSpaceOnUse" x1="172.9948" y1="214.4682" x2="336.5165" y2="68.0553">
						<stop  offset="0" style="stop-color:#E1CBB0"/>
						<stop  offset="1" style="stop-color:#FFFFFF"/>
					</linearGradient>
					<polygon class="st9" points="344.3,93.5 214.1,94.4 214.1,192.2 344.3,144.4 					"/>
					<linearGradient id="SVGID_9_" gradientUnits="userSpaceOnUse" x1="110.6004" y1="297.1261" x2="146.5506" y2="145.6766">
						<stop  offset="0" style="stop-color:#E1CBB0"/>
						<stop  offset="1" style="stop-color:#FFFFFF"/>
					</linearGradient>
					<polygon class="st10" points="54.3,203.4 53.9,241.5 214.1,192.2 214.1,94.4 					"/>
				</g>
				<g>
					<g>
						<linearGradient id="SVGID_10_" gradientUnits="userSpaceOnUse" x1="110.0564" y1="183.1412" x2="114.8191" y2="183.1412">
							<stop  offset="0" style="stop-color:#004864"/>
							<stop  offset="1" style="stop-color:#10223F"/>
						</linearGradient>
						<polygon class="st11" points="110.1,180.8 110.1,188.5 114.8,185.8 114.8,177.8 						"/>
						<linearGradient id="SVGID_11_" gradientUnits="userSpaceOnUse" x1="137.1717" y1="166.6351" x2="141.9366" y2="166.6351">
							<stop  offset="0" style="stop-color:#004864"/>
							<stop  offset="1" style="stop-color:#10223F"/>
						</linearGradient>
						<polygon class="st12" points="137.2,163.4 137.2,172.9 141.9,170.2 141.9,160.4 						"/>
						<linearGradient id="SVGID_12_" gradientUnits="userSpaceOnUse" x1="116.8347" y1="179.015" x2="121.598" y2="179.015">
							<stop  offset="0" style="stop-color:#004864"/>
							<stop  offset="1" style="stop-color:#10223F"/>
						</linearGradient>
						<polygon class="st13" points="116.8,176.5 116.8,184.6 121.6,181.9 121.6,173.4 						"/>
						<linearGradient id="SVGID_13_" gradientUnits="userSpaceOnUse" x1="123.613" y1="174.8881" x2="128.3788" y2="174.8881">
							<stop  offset="0" style="stop-color:#004864"/>
							<stop  offset="1" style="stop-color:#10223F"/>
						</linearGradient>
						<polygon class="st14" points="123.6,172.1 123.6,180.7 128.4,178 128.4,169.1 						"/>
						<linearGradient id="SVGID_14_" gradientUnits="userSpaceOnUse" x1="164.2869" y1="150.129" x2="169.0542" y2="150.129">
							<stop  offset="0" style="stop-color:#004864"/>
							<stop  offset="1" style="stop-color:#10223F"/>
						</linearGradient>
						<polygon class="st15" points="164.3,146 164.3,157.3 169.1,154.5 169,143 						"/>
						<linearGradient id="SVGID_15_" gradientUnits="userSpaceOnUse" x1="150.7303" y1="158.3814" x2="155.4964" y2="158.3814">
							<stop  offset="0" style="stop-color:#004864"/>
							<stop  offset="1" style="stop-color:#10223F"/>
						</linearGradient>
						<polygon class="st16" points="150.7,154.7 150.7,165.1 155.5,162.3 155.5,151.7 						"/>
						<linearGradient id="SVGID_16_" gradientUnits="userSpaceOnUse" x1="143.95" y1="162.5083" x2="148.7175" y2="162.5083">
							<stop  offset="0" style="stop-color:#004864"/>
							<stop  offset="1" style="stop-color:#10223F"/>
						</linearGradient>
						<polygon class="st17" points="143.9,159.1 144,169 148.7,166.2 148.7,156 						"/>
						<linearGradient id="SVGID_17_" gradientUnits="userSpaceOnUse" x1="157.5086" y1="154.2552" x2="162.2753" y2="154.2552">
							<stop  offset="0" style="stop-color:#004864"/>
							<stop  offset="1" style="stop-color:#10223F"/>
						</linearGradient>
						<polygon class="st18" points="157.5,150.4 157.5,161.2 162.3,158.4 162.3,147.3 						"/>
						<linearGradient id="SVGID_18_" gradientUnits="userSpaceOnUse" x1="69.3826" y1="207.9003" x2="74.1436" y2="207.9003">
							<stop  offset="0" style="stop-color:#004864"/>
							<stop  offset="1" style="stop-color:#10223F"/>
						</linearGradient>
						<polygon class="st19" points="69.4,206.9 69.4,211.9 74.1,209.2 74.1,203.9 						"/>
						<linearGradient id="SVGID_19_" gradientUnits="userSpaceOnUse" x1="62.6042" y1="212.0272" x2="67.3628" y2="212.0272">
							<stop  offset="0" style="stop-color:#004864"/>
							<stop  offset="1" style="stop-color:#10223F"/>
						</linearGradient>
						<polygon class="st20" points="62.6,211.3 62.6,215.8 67.4,213.1 67.4,208.2 						"/>
						<linearGradient id="SVGID_20_" gradientUnits="userSpaceOnUse" x1="103.278" y1="187.2674" x2="108.0401" y2="187.2674">
							<stop  offset="0" style="stop-color:#004864"/>
							<stop  offset="1" style="stop-color:#10223F"/>
						</linearGradient>
						<polygon class="st21" points="103.3,185.2 103.3,192.4 108,189.7 108,182.1 						"/>
						<linearGradient id="SVGID_21_" gradientUnits="userSpaceOnUse" x1="76.1628" y1="203.7735" x2="80.9226" y2="203.7735">
							<stop  offset="0" style="stop-color:#004864"/>
							<stop  offset="1" style="stop-color:#10223F"/>
						</linearGradient>
						<polygon class="st22" points="76.2,202.6 76.2,208 80.9,205.3 80.9,199.5 						"/>
						<linearGradient id="SVGID_22_" gradientUnits="userSpaceOnUse" x1="96.4978" y1="191.3942" x2="101.2612" y2="191.3942">
							<stop  offset="0" style="stop-color:#004864"/>
							<stop  offset="1" style="stop-color:#10223F"/>
						</linearGradient>
						<polygon class="st23" points="96.5,189.5 96.5,196.3 101.3,193.6 101.3,186.5 						"/>
						<linearGradient id="SVGID_23_" gradientUnits="userSpaceOnUse" x1="82.9411" y1="199.6473" x2="87.7015" y2="199.6473">
							<stop  offset="0" style="stop-color:#004864"/>
							<stop  offset="1" style="stop-color:#10223F"/>
						</linearGradient>
						<polygon class="st24" points="82.9,198.2 82.9,204.1 87.7,201.4 87.7,195.2 						"/>
						<linearGradient id="SVGID_24_" gradientUnits="userSpaceOnUse" x1="89.7195" y1="195.5211" x2="94.4804" y2="195.5211">
							<stop  offset="0" style="stop-color:#004864"/>
							<stop  offset="1" style="stop-color:#10223F"/>
						</linearGradient>
						<polygon class="st25" points="89.7,193.9 89.7,200.2 94.5,197.5 94.5,190.8 						"/>
						<linearGradient id="SVGID_25_" gradientUnits="userSpaceOnUse" x1="130.3934" y1="170.7613" x2="135.1577" y2="170.7613">
							<stop  offset="0" style="stop-color:#004864"/>
							<stop  offset="1" style="stop-color:#10223F"/>
						</linearGradient>
						<polygon class="st26" points="130.4,167.8 130.4,176.8 135.2,174.1 135.1,164.7 						"/>
						<linearGradient id="SVGID_26_" gradientUnits="userSpaceOnUse" x1="177.8455" y1="141.8754" x2="182.614" y2="141.8754">
							<stop  offset="0" style="stop-color:#004864"/>
							<stop  offset="1" style="stop-color:#10223F"/>
						</linearGradient>
						<polygon class="st27" points="177.8,137.3 177.9,149.5 182.6,146.7 182.6,134.3 						"/>
						<linearGradient id="SVGID_27_" gradientUnits="userSpaceOnUse" x1="184.6238" y1="137.7491" x2="189.3929" y2="137.7491">
							<stop  offset="0" style="stop-color:#004864"/>
							<stop  offset="1" style="stop-color:#10223F"/>
						</linearGradient>
						<polygon class="st28" points="184.6,133 184.6,145.6 189.4,142.8 189.4,129.9 						"/>
						<linearGradient id="SVGID_28_" gradientUnits="userSpaceOnUse" x1="171.0653" y1="146.0021" x2="175.8351" y2="146.0021">
							<stop  offset="0" style="stop-color:#004864"/>
							<stop  offset="1" style="stop-color:#10223F"/>
						</linearGradient>
						<polygon class="st29" points="171.1,141.7 171.1,153.4 175.8,150.6 175.8,138.6 						"/>
						<linearGradient id="SVGID_29_" gradientUnits="userSpaceOnUse" x1="198.1805" y1="129.1713" x2="203.9649" y2="129.1713">
							<stop  offset="0" style="stop-color:#004864"/>
							<stop  offset="1" style="stop-color:#10223F"/>
						</linearGradient>
						<polygon class="st30" points="203.9,120.6 198.2,124.3 198.2,137.8 204,134.4 						"/>
						<linearGradient id="SVGID_30_" gradientUnits="userSpaceOnUse" x1="191.4022" y1="133.6229" x2="196.1717" y2="133.6229">
							<stop  offset="0" style="stop-color:#004864"/>
							<stop  offset="1" style="stop-color:#10223F"/>
						</linearGradient>
						<polygon class="st31" points="191.4,128.6 191.4,141.7 196.2,138.9 196.2,125.6 						"/>
					</g>
				</g>
				<g>
					<linearGradient id="SVGID_31_" gradientUnits="userSpaceOnUse" x1="227.741" y1="118.5874" x2="237.0487" y2="118.5874">
						<stop  offset="0" style="stop-color:#004864"/>
						<stop  offset="1" style="stop-color:#10223F"/>
					</linearGradient>
					<rect x="227.7" y="111.8" class="st32" width="9.3" height="13.6"/>
					<linearGradient id="SVGID_32_" gradientUnits="userSpaceOnUse" x1="241.7283" y1="118.5874" x2="251.0359" y2="118.5874">
						<stop  offset="0" style="stop-color:#004864"/>
						<stop  offset="1" style="stop-color:#10223F"/>
					</linearGradient>
					<rect x="241.7" y="111.8" class="st33" width="9.3" height="13.6"/>
					<linearGradient id="SVGID_33_" gradientUnits="userSpaceOnUse" x1="255.7156" y1="118.5874" x2="265.0232" y2="118.5874">
						<stop  offset="0" style="stop-color:#004864"/>
						<stop  offset="1" style="stop-color:#10223F"/>
					</linearGradient>
					<rect x="255.7" y="111.8" class="st34" width="9.3" height="13.6"/>
					<linearGradient id="SVGID_34_" gradientUnits="userSpaceOnUse" x1="269.7029" y1="118.5874" x2="279.0104" y2="118.5874">
						<stop  offset="0" style="stop-color:#004864"/>
						<stop  offset="1" style="stop-color:#10223F"/>
					</linearGradient>
					<rect x="269.7" y="111.8" class="st35" width="9.3" height="13.6"/>
					<linearGradient id="SVGID_35_" gradientUnits="userSpaceOnUse" x1="283.6902" y1="118.5874" x2="292.9977" y2="118.5874">
						<stop  offset="0" style="stop-color:#004864"/>
						<stop  offset="1" style="stop-color:#10223F"/>
					</linearGradient>
					<rect x="283.7" y="111.8" class="st36" width="9.3" height="13.6"/>
					<linearGradient id="SVGID_36_" gradientUnits="userSpaceOnUse" x1="297.6774" y1="118.5874" x2="306.985" y2="118.5874">
						<stop  offset="0" style="stop-color:#004864"/>
						<stop  offset="1" style="stop-color:#10223F"/>
					</linearGradient>
					<rect x="297.7" y="111.8" class="st37" width="9.3" height="13.6"/>
					<linearGradient id="SVGID_37_" gradientUnits="userSpaceOnUse" x1="311.6647" y1="118.5874" x2="320.9723" y2="118.5874">
						<stop  offset="0" style="stop-color:#004864"/>
						<stop  offset="1" style="stop-color:#10223F"/>
					</linearGradient>
					<rect x="311.7" y="111.8" class="st38" width="9.3" height="13.6"/>
					<linearGradient id="SVGID_38_" gradientUnits="userSpaceOnUse" x1="325.652" y1="118.5874" x2="334.9595" y2="118.5874">
						<stop  offset="0" style="stop-color:#004864"/>
						<stop  offset="1" style="stop-color:#10223F"/>
					</linearGradient>
					<rect x="325.7" y="111.8" class="st39" width="9.3" height="13.6"/>
				</g>
			</g>
			<g>
				<linearGradient id="SVGID_39_" gradientUnits="userSpaceOnUse" x1="34.3118" y1="261.3342" x2="375.4667" y2="261.3342">
					<stop  offset="0" style="stop-color:#004864"/>
					<stop  offset="1" style="stop-color:#10223F"/>
				</linearGradient>
				<path class="st40" d="M374.5,96.7C279.6,109.1,34.3,243.5,34.3,243.5s-0.8,37.9,33.1,101.8c13.2,22.4,6.9,80.7,6.9,80.7h196.6
					c0.6-43.5,21.8-67.6,53.8-139.8C386.8,145.6,374.5,96.7,374.5,96.7z"/>
				<linearGradient id="SVGID_40_" gradientUnits="userSpaceOnUse" x1="270.8139" y1="261.3342" x2="394.1712" y2="261.3342">
					<stop  offset="0" style="stop-color:#004864"/>
					<stop  offset="1" style="stop-color:#10223F"/>
				</linearGradient>
				<path class="st41" d="M379.7,102.3c-1.7-1.9-3.5-3.8-5.2-5.6c0,0,1.6,53.1-61.4,189.5c-33.1,71.7-41.6,96.4-42.2,139.8h49.1
					C299.9,204.1,438,166.9,379.7,102.3z"/>
			</g>
			<path class="st42" d="M379.9,118.7c-2.1-3.3-4.3-6.6-6.3-9.6c0,0,0,0,0,0C264.4,145.7,120.9,214.4,35.9,259.3
				c0.2,1.5,0.5,3.1,0.9,4.8c22.8-11.4,197.9-97.7,335-144.1c0,0,0,0,0,0c1.8,2.8,4.8,7.7,8.4,13.8c3.6,6.2,6.6,11.4,10.6,19.6
				c1.6-3.3,2.6-7.1,2.9-11.5C389.2,133.8,384.7,126.2,379.9,118.7z"/>
			<g>
				<linearGradient id="SVGID_41_" gradientUnits="userSpaceOnUse" x1="57.0411" y1="275.2969" x2="64.9499" y2="275.2969">
					<stop  offset="0" style="stop-color:#E1CBB0"/>
					<stop  offset="1" style="stop-color:#FFFFFF"/>
				</linearGradient>
				<path class="st43" d="M57,275.3c0,2.9,1.8,5.3,4,5.3c2.2,0,4-2.4,4-5.3s-1.8-5.3-4-5.3C58.8,270,57,272.4,57,275.3z"/>
				<linearGradient id="SVGID_42_" gradientUnits="userSpaceOnUse" x1="253.9737" y1="194.0838" x2="261.8825" y2="194.0838">
					<stop  offset="0" style="stop-color:#E1CBB0"/>
					<stop  offset="1" style="stop-color:#FFFFFF"/>
				</linearGradient>
				<path class="st44" d="M254,194.1c0,2.9,1.8,5.3,4,5.3c2.2,0,4-2.4,4-5.3c0-2.9-1.8-5.3-4-5.3C255.7,188.8,254,191.2,254,194.1z"
					/>
				<linearGradient id="SVGID_43_" gradientUnits="userSpaceOnUse" x1="83.2987" y1="264.4685" x2="91.2076" y2="264.4685">
					<stop  offset="0" style="stop-color:#E1CBB0"/>
					<stop  offset="1" style="stop-color:#FFFFFF"/>
				</linearGradient>
				<ellipse class="st45" cx="87.3" cy="264.5" rx="4" ry="5.3"/>
				<linearGradient id="SVGID_44_" gradientUnits="userSpaceOnUse" x1="109.5564" y1="253.6401" x2="117.4652" y2="253.6401">
					<stop  offset="0" style="stop-color:#E1CBB0"/>
					<stop  offset="1" style="stop-color:#FFFFFF"/>
				</linearGradient>
				<path class="st46" d="M109.6,253.6c0,2.9,1.8,5.3,4,5.3c2.2,0,4-2.4,4-5.3c0-2.9-1.8-5.3-4-5.3
					C111.3,248.4,109.6,250.7,109.6,253.6z"/>
				<linearGradient id="SVGID_45_" gradientUnits="userSpaceOnUse" x1="135.8141" y1="242.8117" x2="143.7229" y2="242.8117">
					<stop  offset="0" style="stop-color:#E1CBB0"/>
					<stop  offset="1" style="stop-color:#FFFFFF"/>
				</linearGradient>
				<path class="st47" d="M135.8,242.8c0,2.9,1.8,5.3,4,5.3c2.2,0,4-2.4,4-5.3c0-2.9-1.8-5.3-4-5.3
					C137.6,237.5,135.8,239.9,135.8,242.8z"/>
				<linearGradient id="SVGID_46_" gradientUnits="userSpaceOnUse" x1="70.1699" y1="269.8827" x2="78.0787" y2="269.8827">
					<stop  offset="0" style="stop-color:#E1CBB0"/>
					<stop  offset="1" style="stop-color:#FFFFFF"/>
				</linearGradient>
				<path class="st48" d="M70.2,269.9c0,2.9,1.8,5.3,4,5.3c2.2,0,4-2.4,4-5.3c0-2.9-1.8-5.3-4-5.3C71.9,264.6,70.2,267,70.2,269.9z"
					/>
				<linearGradient id="SVGID_47_" gradientUnits="userSpaceOnUse" x1="96.4275" y1="259.0543" x2="104.3364" y2="259.0543">
					<stop  offset="0" style="stop-color:#E1CBB0"/>
					<stop  offset="1" style="stop-color:#FFFFFF"/>
				</linearGradient>
				<ellipse class="st49" cx="100.4" cy="259.1" rx="4" ry="5.3"/>
				<linearGradient id="SVGID_48_" gradientUnits="userSpaceOnUse" x1="122.6853" y1="248.2259" x2="130.5941" y2="248.2259">
					<stop  offset="0" style="stop-color:#E1CBB0"/>
					<stop  offset="1" style="stop-color:#FFFFFF"/>
				</linearGradient>
				<path class="st50" d="M122.7,248.2c0,2.9,1.8,5.3,4,5.3c2.2,0,4-2.4,4-5.3s-1.8-5.3-4-5.3C124.5,242.9,122.7,245.3,122.7,248.2z
					"/>
				<linearGradient id="SVGID_49_" gradientUnits="userSpaceOnUse" x1="148.9429" y1="237.3975" x2="156.8518" y2="237.3975">
					<stop  offset="0" style="stop-color:#E1CBB0"/>
					<stop  offset="1" style="stop-color:#FFFFFF"/>
				</linearGradient>
				<ellipse class="st51" cx="152.9" cy="237.4" rx="4" ry="5.3"/>
				<linearGradient id="SVGID_50_" gradientUnits="userSpaceOnUse" x1="162.0717" y1="231.9832" x2="169.9806" y2="231.9832">
					<stop  offset="0" style="stop-color:#E1CBB0"/>
					<stop  offset="1" style="stop-color:#FFFFFF"/>
				</linearGradient>
				<ellipse class="st52" cx="166" cy="232" rx="4" ry="5.3"/>
				<linearGradient id="SVGID_51_" gradientUnits="userSpaceOnUse" x1="175.2007" y1="226.5691" x2="183.1095" y2="226.5691">
					<stop  offset="0" style="stop-color:#E1CBB0"/>
					<stop  offset="1" style="stop-color:#FFFFFF"/>
				</linearGradient>
				<path class="st53" d="M175.2,226.6c0,2.9,1.8,5.3,4,5.3c2.2,0,4-2.4,4-5.3s-1.8-5.3-4-5.3C177,221.3,175.2,223.7,175.2,226.6z"
					/>
				<linearGradient id="SVGID_52_" gradientUnits="userSpaceOnUse" x1="188.3295" y1="221.1548" x2="196.2383" y2="221.1548">
					<stop  offset="0" style="stop-color:#E1CBB0"/>
					<stop  offset="1" style="stop-color:#FFFFFF"/>
				</linearGradient>
				<path class="st54" d="M188.3,221.2c0,2.9,1.8,5.3,4,5.3c2.2,0,4-2.4,4-5.3c0-2.9-1.8-5.3-4-5.3
					C190.1,215.9,188.3,218.2,188.3,221.2z"/>
				<linearGradient id="SVGID_53_" gradientUnits="userSpaceOnUse" x1="201.4583" y1="215.7407" x2="209.3671" y2="215.7407">
					<stop  offset="0" style="stop-color:#E1CBB0"/>
					<stop  offset="1" style="stop-color:#FFFFFF"/>
				</linearGradient>
				<path class="st55" d="M201.5,215.7c0,2.9,1.8,5.3,4,5.3c2.2,0,4-2.4,4-5.3c0-2.9-1.8-5.3-4-5.3
					C203.2,210.5,201.5,212.8,201.5,215.7z"/>
				<linearGradient id="SVGID_54_" gradientUnits="userSpaceOnUse" x1="214.5871" y1="210.3264" x2="222.4959" y2="210.3264">
					<stop  offset="0" style="stop-color:#E1CBB0"/>
					<stop  offset="1" style="stop-color:#FFFFFF"/>
				</linearGradient>
				<path class="st56" d="M214.6,210.3c0,2.9,1.8,5.3,4,5.3c2.2,0,4-2.4,4-5.3s-1.8-5.3-4-5.3C216.4,205,214.6,207.4,214.6,210.3z"
					/>
				<linearGradient id="SVGID_55_" gradientUnits="userSpaceOnUse" x1="227.7159" y1="204.9122" x2="235.6248" y2="204.9122">
					<stop  offset="0" style="stop-color:#E1CBB0"/>
					<stop  offset="1" style="stop-color:#FFFFFF"/>
				</linearGradient>
				<path class="st57" d="M227.7,204.9c0,2.9,1.8,5.3,4,5.3s4-2.4,4-5.3c0-2.9-1.8-5.3-4-5.3S227.7,202,227.7,204.9z"/>
				<linearGradient id="SVGID_56_" gradientUnits="userSpaceOnUse" x1="280.2313" y1="183.2554" x2="288.1401" y2="183.2554">
					<stop  offset="0" style="stop-color:#E1CBB0"/>
					<stop  offset="1" style="stop-color:#FFFFFF"/>
				</linearGradient>
				<path class="st58" d="M280.2,183.3c0,2.9,1.8,5.3,4,5.3c2.2,0,4-2.4,4-5.3c0-2.9-1.8-5.3-4-5.3C282,178,280.2,180.3,280.2,183.3
					z"/>
				<linearGradient id="SVGID_57_" gradientUnits="userSpaceOnUse" x1="240.8449" y1="199.4981" x2="248.7537" y2="199.4981">
					<stop  offset="0" style="stop-color:#E1CBB0"/>
					<stop  offset="1" style="stop-color:#FFFFFF"/>
				</linearGradient>
				<path class="st59" d="M240.8,199.5c0,2.9,1.8,5.3,4,5.3c2.2,0,4-2.4,4-5.3s-1.8-5.3-4-5.3C242.6,194.2,240.8,196.6,240.8,199.5z
					"/>
				<linearGradient id="SVGID_58_" gradientUnits="userSpaceOnUse" x1="267.1025" y1="188.6697" x2="275.0113" y2="188.6697">
					<stop  offset="0" style="stop-color:#E1CBB0"/>
					<stop  offset="1" style="stop-color:#FFFFFF"/>
				</linearGradient>
				<path class="st60" d="M267.1,188.7c0,2.9,1.8,5.3,4,5.3c2.2,0,4-2.4,4-5.3s-1.8-5.3-4-5.3C268.9,183.4,267.1,185.8,267.1,188.7z
					"/>
			</g>
		</g>
	</g>
	<linearGradient id="SVGID_59_" gradientUnits="userSpaceOnUse" x1="34.2802" y1="402.6778" x2="275.9853" y2="402.6778">
		<stop  offset="0" style="stop-color:#FFFFFF"/>
		<stop  offset="1" style="stop-color:#BCE0E3"/>
	</linearGradient>
	<path class="st61" d="M276,428.5c0,0-78.4-51.7-168.4-51.7s-81.1,51.7-57,51.7S276,428.5,276,428.5"/>
	
		<linearGradient id="SVGID_60_" gradientUnits="userSpaceOnUse" x1="265.4494" y1="411.1747" x2="368.3136" y2="411.1747" gradientTransform="matrix(-1 0 0 1 623.8665 0)">
		<stop  offset="0" style="stop-color:#FFFFFF"/>
		<stop  offset="1" style="stop-color:#BCE0E3"/>
	</linearGradient>
	<path class="st62" d="M255.6,426.9c0,0,33.4-31.5,71.7-31.5c38.3,0,34.5,31.5,24.3,31.5C341.3,426.9,255.6,426.9,255.6,426.9"/>
</g>
<linearGradient id="SVGID_61_" gradientUnits="userSpaceOnUse" x1="320.0173" y1="526.6227" x2="320.0173" y2="315.3218">
	<stop  offset="0" style="stop-color:#FFFFFF"/>
	<stop  offset="1" style="stop-color:#BCE0E3"/>
</linearGradient>
<path class="st63" d="M219.8,431.6c0,0,114.2-16.9,200.4-16.9c0,37.7,0,57,0,57S292.7,465.7,219.8,431.6z"/>
<linearGradient id="SVGID_62_" gradientUnits="userSpaceOnUse" x1="211.8705" y1="583.3416" x2="211.8705" y2="321.7705">
	<stop  offset="0" style="stop-color:#E97F4E"/>
	<stop  offset="1" style="stop-color:#F4F4BD"/>
</linearGradient>
<path class="st64" d="M420.2,466.5c0,0-100-9.7-187.3-42.2C145.7,391.7,3.5,393.3,3.5,393.3v95.2h416.7V466.5z"/>
<g>
	<g>
		<g>
			<g>
				<path class="st65" d="M208.7,366.3"/>
			</g>
		</g>
		
			<ellipse transform="matrix(0.6598 -0.7514 0.7514 0.6598 -209.2752 277.4239)" class="st3" cx="201.8" cy="369.9" rx="37.1" ry="141.9"/>
		<linearGradient id="SVGID_63_" gradientUnits="userSpaceOnUse" x1="153.6381" y1="385.6784" x2="283.7503" y2="385.6784">
			<stop  offset="0" style="stop-color:#E97F4E"/>
			<stop  offset="1" style="stop-color:#F2694A"/>
		</linearGradient>
		<path class="st66" d="M156.7,389.8c0,0-2.1-73.4,3.3-87.8c5.5-14.4,25.5-5.5,25.5-25.4H199c0,0-1.7,8.2,7,11.9
			c8.7,3.7,22.7,1.7,29.9,33.8c6.8,30.6,5.7,33.6,5.7,33.6l-9.2-8.6l-14.5-31l-1.4,37c0,0,17.9,44.3,17.9,65.7s-13.8,64.7-13.8,64.7
			s11.5,4.5,8,8c-3.5,3.5-15.1-1.7-14.7-8l4-63.2l-19.1-40.3l-11.3,103.5c0,0-7.5,12.3-11,11c-7.9-3.1-1.1-8.7,2.9-11.5
			c-0.9-7.5-11.4-97.5,0.1-131.4l-4.7-32.4l-11.2,70.2c0.3,0.5,4.8,8.2,2.4,9.4c-2.1,1.1-3-3.2-3.2-4.4c0.2,1.6,1.2,9.3-2.9,9.3
			C155.5,403.9,156.7,389.8,156.7,389.8z"/>
		<linearGradient id="SVGID_64_" gradientUnits="userSpaceOnUse" x1="191.534" y1="285.8611" x2="191.534" y2="253.053">
			<stop  offset="0" style="stop-color:#E97F4E"/>
			<stop  offset="1" style="stop-color:#F2694A"/>
		</linearGradient>
		<path class="st67" d="M179.5,269.7c0.4-1.8,1.5-1.6,2.1-1.3c0.1-7.7,5-14,11.1-14c6.1,0,11.1,6.4,11.1,14.3s0,17.2-9.5,17.4
			c-6.8,0.2-12.1-6.2-11.6-11.3C180.3,274.3,179,272,179.5,269.7z"/>
		<path class="st68" d="M216.4,351.5c0,0-18.6,7.4-36.8,0.3c-8.3,24.1-8.3,53.5-8.3,53.5s13.5,7.7,28.2,2.6c0-12-0.6-27.7-0.6-27.7
			l7.9,28.2c0,0,14,2.4,24.9-8.4C229,378.8,216.4,351.5,216.4,351.5z"/>
		<linearGradient id="SVGID_65_" gradientUnits="userSpaceOnUse" x1="193.2582" y1="248.7851" x2="193.2582" y2="270.7928">
			<stop  offset="0" style="stop-color:#DE582D"/>
			<stop  offset="1" style="stop-color:#9A3927"/>
		</linearGradient>
		<path class="st69" d="M182.1,269.2c0,0,0.3-5,0.7-7c11.5,3.6,19.9,5.4,23.8-0.7c4-6.1-7.4-13.8-20-8.5
			C179.3,250.2,176.4,265.8,182.1,269.2z"/>
		<linearGradient id="SVGID_66_" gradientUnits="userSpaceOnUse" x1="179.2545" y1="352.4421" x2="216.395" y2="352.4421">
			<stop  offset="0" style="stop-color:#FFFFFF"/>
			<stop  offset="1" style="stop-color:#BCE0E3"/>
		</linearGradient>
		<path class="st70" d="M179.6,351.8l-0.3-2.1c0,0,18.2,8.2,37.1-0.4v2.2C216.4,351.5,198.8,360.7,179.6,351.8z"/>
	</g>
	<path class="st71" d="M194.5,270.1c0,0,6.5,6.9-0.1,6.9"/>
	<g>
		<linearGradient id="SVGID_67_" gradientUnits="userSpaceOnUse" x1="196.6998" y1="278.5916" x2="198.2433" y2="278.5916">
			<stop  offset="0" style="stop-color:#F48681"/>
			<stop  offset="1" style="stop-color:#BF5757"/>
		</linearGradient>
		<path class="st72" d="M198.2,277.8c-0.4,0.1-0.8,0.3-1.2,0.3l-0.3,0.8l0.3,0.4C197.4,278.9,197.8,278.4,198.2,277.8z"/>
		<path class="st73" d="M197,278.2c-2.7,0.5-6.4-0.1-6.4-0.1c1.4,1.5,2.4,2,4.2,2c1,0,1.6-0.3,2.1-0.7l-0.3-0.4L197,278.2z"/>
	</g>
</g>
<g>
	<g>
		<linearGradient id="SVGID_68_" gradientUnits="userSpaceOnUse" x1="111.9582" y1="286.9112" x2="111.9582" y2="218.5054">
			<stop  offset="0" style="stop-color:#DE582D"/>
			<stop  offset="1" style="stop-color:#9A3927"/>
		</linearGradient>
		<path class="st74" d="M113.6,198c0,0-19.1-1.1-20.4,21c-1.3,22.1-17.3,14.9-19.2,36.9c-1.9,22,39.6,22,39.6,22s35.4-1.7,36.4-27.1
			c1-25.4-14-19.2-17.2-34.9C129.5,200.3,120.8,198,113.6,198z"/>
		<linearGradient id="SVGID_69_" gradientUnits="userSpaceOnUse" x1="110.1706" y1="286.9113" x2="110.1706" y2="218.5055">
			<stop  offset="0" style="stop-color:#9A3927"/>
			<stop  offset="1" style="stop-color:#DE582D"/>
		</linearGradient>
		<path class="st75" d="M130,218.1l-35.2,0.7c0,0,9,19.8-4.2,29.8c-13.2,10-3.5,27.2,27.2,18.5C148.5,258.4,130,218.1,130,218.1z"/>
		
			<radialGradient id="SVGID_70_" cx="117.7809" cy="379.6007" r="81.4018" gradientTransform="matrix(1 5.259124e-03 -1.033123e-02 1.9644 3.9234 -366.7112)" gradientUnits="userSpaceOnUse">
			<stop  offset="0" style="stop-color:#E97F4E"/>
			<stop  offset="1" style="stop-color:#F2694A"/>
		</radialGradient>
		<path class="st76" d="M66.8,372.4L66.8,372.4c2-0.1,3.6-1.6,3.7-3.6c0.1-4.6,2-7,2-7s0.1,6.3,2.6,5.6c2.7-0.7-1.7-13.8-1.7-13.8
			l17.8-68.2c0,0,2,16.8,5.6,31.5c-19.6,22.4-14.5,81.3,9.2,127.9v64.6c0,0-13.9,12.5-6.9,16.7c6.9,4.2,15-14.6,15-14.6l6.3-50.7
			l14.1,24.3c0,0-11.1,13.9-6.9,18.1c4.2,4.2,15.3-14.6,15.3-14.6L127.1,434c0,0,21.4-49.6,17.6-90.2c2.1,3.1,4.9,5.5,8.6,4.9
			c1.1-0.2,1.8-1.3,1.5-2.4c-1.2-3.9-7.6-9.3-7.6-9.3l22.5-17.8c3.3-3.1,4.2-7.9,2.2-12l-22.6-45.3c-2.5-5.3-6.9-9.4-12.3-11.6
			l-10.5-4.2c-2.7-1.1-4.4-3.7-4.4-6.6v-7.1h-14.9v7.5c0,2.5-1.3,4.8-3.4,6l-14.3,8.7c-5.5,3.3-9.4,8.9-10.6,15.2l-12.7,82.7
			c-3.3,8-4,12.4-3.1,16.7C63.3,371.2,64.9,372.5,66.8,372.4z M142.4,331c-1.7-6.3-4.4-11.6-8.2-15.5l5.6-37.5l19.1,31.8L142.4,331z
			"/>
		<linearGradient id="SVGID_71_" gradientUnits="userSpaceOnUse" x1="113.8115" y1="236.7507" x2="113.8115" y2="195.2872">
			<stop  offset="0" style="stop-color:#E97F4E"/>
			<stop  offset="1" style="stop-color:#F2694A"/>
		</linearGradient>
		<ellipse class="st77" cx="113.8" cy="218.2" rx="14" ry="18.1"/>
		<polygon class="st73" points="90.6,289.9 93.8,303.7 136.2,302.5 140.8,285.2 		"/>
		<path class="st78" d="M80.4,264.9c0,0,30.9,12.6,66.8-6.4c11.7,11.7,15.3,23.2,15.3,23.2s-35.7,20-91.7,6.3
			C70.8,278.6,80.4,264.9,80.4,264.9z"/>
		<g>
			<path class="st73" d="M150.5,262c-0.2-0.2-0.4-0.5-0.6-0.7c-33.2,16.6-60.5,9.9-71.1,6.1c-0.2,0.2-0.3,0.5-0.5,0.8
				c5.4,2,15.3,4.7,28.1,4.7C118.8,272.9,133.9,270.3,150.5,262z"/>
			<path class="st73" d="M154.5,267c-0.2-0.2-0.4-0.5-0.6-0.7c-34.2,18-68.1,9.6-78.2,6.4c-0.1,0.3-0.3,0.5-0.4,0.8
				c5.3,1.7,17.2,4.8,32.4,4.8C121.5,278.3,138,275.7,154.5,267z"/>
			<path class="st73" d="M158.7,273.4c-0.1-0.3-0.3-0.5-0.5-0.8c-36.9,18.4-76.3,8.9-85.4,6.3c-0.1,0.3-0.2,0.6-0.3,0.9
				c4.8,1.4,18.5,4.8,35.9,4.8C123.5,284.6,141.4,282,158.7,273.4z"/>
			<path class="st73" d="M162.1,280.5c-0.1-0.2-0.2-0.5-0.3-0.8c-43.4,17.3-82.5,7.7-90.7,5.4c-0.1,0.3-0.1,0.6-0.1,0.9
				c4.7,1.3,18.5,4.7,37.2,4.7C123.6,290.7,142.4,288.4,162.1,280.5z"/>
		</g>
		<linearGradient id="SVGID_72_" gradientUnits="userSpaceOnUse" x1="105.7747" y1="425.3886" x2="145.6241" y2="425.3886">
			<stop  offset="0" style="stop-color:#F2694A"/>
			<stop  offset="1" style="stop-color:#E97F4E"/>
		</linearGradient>
		<path class="st79" d="M113.8,356.3l-8,88.5v64.6h8.3l9.2-61.5c0,0,14.1-33.7,18.1-53.2c8.3-39.9,1.9-53.5,1.9-53.5L113.8,356.3z"
			/>
		<path class="st68" d="M96.6,317c0,0,15.9,9.1,37.7-1.4c13.7,10.5,10.7,33.3,10.7,33.3l-31.2,7.4l-28.6-8.9
			C85.3,347.4,83.6,329.9,96.6,317z"/>
		<linearGradient id="SVGID_73_" gradientUnits="userSpaceOnUse" x1="112.6127" y1="237.6022" x2="112.6127" y2="182.3011">
			<stop  offset="0" style="stop-color:#9A3927"/>
			<stop  offset="1" style="stop-color:#DE582D"/>
		</linearGradient>
		<path class="st80" d="M95.8,222.1c0,0,23.4-1.8,26.7-16.5c3.5,18.1,8.3,15.2,8.3,15.2s6.2-25.3-16.1-25.3
			C92.4,195.5,91.2,216.6,95.8,222.1z"/>
	</g>
	<path class="st71" d="M112.7,218.2c0,0-6,9,0,9"/>
	<linearGradient id="SVGID_74_" gradientUnits="userSpaceOnUse" x1="109.3725" y1="230.2387" x2="116.7611" y2="230.2387">
		<stop  offset="0" style="stop-color:#004864"/>
		<stop  offset="1" style="stop-color:#10223F"/>
	</linearGradient>
	<path class="st81" d="M109.4,229.5c0,0,1.5-1.3,3.1-0.5c1.7-1.2,4.3,0.3,4.3,0.3s-1.1,2.5-4,2.5
		C110.3,231.9,109.4,229.5,109.4,229.5z"/>
</g>
</svg>
