<?xml version="1.0" encoding="utf-8"?>
<!-- Generator: Adobe Illustrator 24.3.0, SVG Export Plug-In . SVG Version: 6.00 Build 0)  -->
<svg version="1.1" id="Layer_1" xmlns="http://www.w3.org/2000/svg" xmlns:xlink="http://www.w3.org/1999/xlink" x="0px" y="0px"
	 viewBox="0 0 459 379" style="enable-background:new 0 0 459 379;" xml:space="preserve">
<style type="text/css">
	.st0{fill:#DCECF8;}
	.st1{fill:#3C74BA;}
	.st2{fill:#3560AC;}
	.st3{fill:#4784C5;}
	.st4{fill:#FBAA19;}
	.st5{fill:#F6891F;}
	.st6{fill:#FDCC51;}
	.st7{fill:#F9B08C;}
	.st8{fill:#FFFFFF;}
	.st9{fill:#2E3052;}
	.st10{fill:#0A162F;}
	.st11{fill:#534F85;}
	.st12{fill:#1F2232;}
	.st13{fill:#F58666;}
	.st14{fill:#F26750;}
	.st15{fill:#0C1428;}
</style>
<g>
	<g>
		<path class="st0" d="M407.4,360.1c-22.7-17.3-61.6-60.1-10.4-127.3c63.3-83.2-12.5-117.3-85.1-113.7
			c-58.4,2.9-124.2-70.6-189.8-57.5C35,79,91.5,154,32.5,194.4c-50.4,34.5-28.7,139.5,36.8,165.7H407.4z"/>
	</g>
	<path class="st0" d="M448.4,207.6c-0.4-12.3-11.8-17.1-19.5-8.2c-4.4,5.1-8.6,12.5-9.4,22.3c-1.8,22,17.5,15.6,24.7,3.8
		C447.3,220.6,448.6,213.9,448.4,207.6z"/>
	<path class="st0" d="M236.8,57.3c-12.1-2.3-19.2,7.9-12.2,17.3c4.1,5.4,10.3,11.1,19.8,13.9c21.1,6.4,19-13.7,9-23.3
		C249.2,61.1,242.9,58.4,236.8,57.3z"/>
	<path class="st0" d="M36.4,170.2c4.8-11.3-3.6-20.5-14.3-15.6c-6.1,2.8-13,7.7-17.9,16.3c-10.8,19.2,9.3,21.5,20.8,13.8
		C30,181.5,34,176,36.4,170.2z"/>
</g>
<g>
	<ellipse class="st0" cx="229.6" cy="363.5" rx="207.8" ry="13.7"/>
</g>
<g>
	<g>
		<g>
			<g>
				<path class="st1" d="M431.8,251.3c-12.7,12.7,1.5,13.8-7.9,23.4c-8.5,8.8-21.1,0.2-20.2,21.6c0.2,4.7-3.2,8.1-8,9.9
					c-7.9,2.9-15.5,0.2-20.3-5.2c-0.4-0.4-0.8-0.9-1.1-1.4c-3.6-4.9-4.9-11.5-2.2-18.1c2.2-5.3,6-10.6,12.8-12.7
					c15.9-4.9,7.1-26,20.5-26.9c16.2-1.1,16.8-7.1,28.3-15.1C445.8,218.4,449,234.1,431.8,251.3z"/>
			</g>
			<g>
				<g>
					<path class="st2" d="M426.1,244.4c-0.4,0.4-29.9,30.8-50.7,56.7c-0.4-0.4-0.8-0.9-1.1-1.4c20.9-26,50.2-56.2,50.5-56.6
						c0.3-0.3,0.9-0.3,1.2,0C426.4,243.5,426.4,244,426.1,244.4z"/>
				</g>
			</g>
		</g>
		<g>
			<g>
				<path class="st3" d="M435,293.7c-19.9,11.7-2.6,17.6-17.3,26.6c-13.4,8.2-26.3-6.5-32.1,20.4c-1.3,5.9-6.6,9.1-13.1,9.8
					c-10.7,1.1-19.4-4.7-23.6-12.9c-0.3-0.7-0.6-1.3-0.9-2c-2.9-7.3-2.4-16,3.1-23.3c4.4-6,10.9-11.3,20-11.7
					c21.4-1,17.2-30.1,34.2-26.9c20.5,3.8,23.2-3.4,40.1-9.7C463.1,257.3,462,277.9,435,293.7z"/>
			</g>
			<g>
				<g>
					<path class="st1" d="M430.2,283.3c-0.6,0.3-47.1,28.7-81.3,54.3c-0.3-0.7-0.6-1.3-0.9-2c34.3-25.6,80.6-53.8,81.1-54.1
						c0.5-0.3,1.2-0.1,1.5,0.4S430.7,282.9,430.2,283.3z"/>
				</g>
			</g>
		</g>
	</g>
	<g>
		<g>
			<g>
				<path class="st1" d="M46.4,106c6.8,16.6-6.7,12.2-1.8,24.6c4.5,11.4,19.3,8.3,10.3,27.7c-2,4.2-0.2,8.8,3.6,12.2
					c6.1,5.7,14.3,6.2,20.7,3.1c0.5-0.3,1-0.5,1.5-0.8c5.2-3.1,9-8.8,9.1-15.9c0.1-5.8-1.4-12.1-6.9-16.6
					c-12.8-10.7,3.5-26.7-8.6-32.7c-14.5-7.3-12.8-13-20.3-24.8C46,70.3,37.1,83.5,46.4,106z"/>
			</g>
			<g>
				<g>
					<path class="st2" d="M54.3,101.8c0.2,0.5,15.7,39.9,24.9,71.9c0.5-0.3,1-0.5,1.5-0.8c-9.3-32-24.6-71.2-24.8-71.7
						c-0.2-0.4-0.7-0.7-1.1-0.5S54.1,101.4,54.3,101.8z"/>
				</g>
			</g>
		</g>
		<g>
			<g>
				<path class="st3" d="M26.9,149.5c14.4,18.1-3.9,17.4,6.7,31c9.6,12.4,26.9,3.3,22.7,30.5c-0.9,5.9,2.9,10.9,8.8,13.8
					c9.6,4.9,19.8,2.5,26.7-3.7c0.6-0.5,1.1-1,1.6-1.6c5.3-5.7,7.9-14,5.5-22.8c-2-7.1-6.1-14.4-14.5-18.1
					c-19.6-8.6-5.3-34.2-22.3-37.3c-20.6-3.8-20.4-11.4-34-23.3C13.6,105.4,7.3,125,26.9,149.5z"/>
			</g>
			<g>
				<g>
					<path class="st1" d="M35.2,141.4c0.4,0.5,33.7,43.6,56.6,79.8c0.6-0.5,1.1-1,1.6-1.6c-22.9-36.2-56-79-56.4-79.5
						c-0.4-0.5-1.1-0.6-1.5-0.2C34.9,140.3,34.8,141,35.2,141.4z"/>
				</g>
			</g>
		</g>
	</g>
	<g>
		<path class="st3" d="M124.2,133.7c5.8-4,20.4,5.8,28,17.8l-6.7-18.9c-2.4-2.1-6.7-5.1-13.4-7.5c-10.4-3.7-20.8-9.5-15-13.4
			c5.5-3.7,18.6,4.7,26.5,15.6l-8.7-24.3c-1.6-1.2-4.1-2.7-7.6-4c-6.6-2.3-13.1-6-9.4-8.5c3.2-2.2,10.5,2.2,15.5,8.3l-2.8-7.9
			c-1.3-2.3-3.1-5.6-6-8.5c-6.7-6.9-11.7-14.7-6.6-15.8c5.2-1.1,13.6,12.4,14.9,24.6l1.4,4c-1.1-8.9,2.1-19.7,6.5-20
			c4.4-0.4,1.7,6.6-1.9,12.5c-2.7,4.5-3.5,8.1-3.7,10l6.8,19.1c-1.7-14.1,3.3-31.1,10.4-31.7c7-0.6,2.6,10.5-3.1,19.9
			c-4.3,7.1-5.5,12.8-5.9,15.8l8.2,22.9c-1.5-13.9,3.5-30.8,10.5-30.9c5.4,0,3.7,7.5-2.7,18.2c-4.3,7.3-5.7,13.8-6.2,17.2l3.9,10.8
			c-0.6,0.5-1.3,0.7-2,0.7l-1.5-4.3c-2.2-2.1-6.7-5.7-14.4-8.4C128.8,143.5,118.3,137.7,124.2,133.7z"/>
	</g>
	<g>
		<path class="st3" d="M73,294c-6,3.7-2.7,21,5.2,32.7L63.5,313c-1-3.1-2-8.2-1.5-15.3c0.8-11-0.4-22.9-6.4-19.1
			c-5.6,3.5-3.1,18.9,3.8,30.5l-18.8-17.6c-0.5-2-0.9-4.8-0.7-8.5c0.5-6.9-0.3-14.4-4-12c-3.3,2.1-2.2,10.5,1.5,17.6l-6.1-5.7
			c-1.6-2.1-3.9-5.1-5.4-8.9c-3.7-8.9-8.8-16.6-11.9-12.3c-3.1,4.3,6,17.4,16.7,23.5l3.1,2.9c-7.7-4.6-18.9-5.9-21-2
			c-2.1,3.9,5.4,4.1,12.3,3.2c5.2-0.7,8.8,0,10.6,0.6l14.8,13.9c-12.2-7.2-29.8-9.3-33.2-3.1c-3.3,6.2,8.6,6.6,19.5,5.1
			c8.3-1.1,13.9,0,16.8,0.9l17.8,16.6c-12.2-6.9-29.7-9-32.5-2.7c-2.2,4.9,5.4,6.4,17.8,4.8c8.4-1.1,14.9,0.2,18.2,1.2l8.4,7.8
			c0.7-0.4,1.2-0.9,1.4-1.5l-3.3-3.1c-1.1-2.8-2.5-8.4-2-16.6C80.2,302.1,79,290.2,73,294z"/>
	</g>
</g>
<g>
	<rect x="55.7" y="139.4" class="st4" width="318.1" height="219.7"/>
	<polygon class="st5" points="373.8,139.4 373.8,153.5 214.8,294.5 55.7,153.5 55.7,139.4 214.8,280.9 	"/>
	<g>
		<polygon class="st5" points="184.1,253.1 64.9,359.1 55.7,359.1 55.7,353.5 177.3,245.4 		"/>
	</g>
	<g>
		<g>
			<polygon class="st5" points="373.8,354.3 373.8,359.1 363.8,359.1 244.6,253.1 251.4,245.4 			"/>
		</g>
	</g>
	<polygon class="st6" points="55.7,139.4 214.8,280.9 373.8,139.4 	"/>
</g>
<g>
	<g>
		<g>
			<polygon class="st7" points="286.1,119.6 290.1,128.3 281.5,128.4 278.2,120.5 			"/>
			<g>
				<g>
					<g>
						<path class="st3" d="M287.4,127.8c0,0,1.8-2.4,3.2-2.3c1.4,0.1,12.2,8.7,15.9,9.4c3.7,0.7,3.4,4.5,1.8,4.5
							c-4.5,0-29.1,0-29.1,0s-0.7-8.8,0.2-11.4C280.4,125.4,284.5,128.4,287.4,127.8z"/>
					</g>
					<g>
						<g>
							<path class="st8" d="M293.4,133.8c-0.1,0-0.3,0-0.4,0c-0.2-0.1-0.3-0.5-0.2-0.7c0-0.1,1.2-2,2.7-2.8c2-1,3.6,0.1,3.7,0.2
								c0.2,0.2,0.3,0.5,0.1,0.7c-0.2,0.2-0.5,0.3-0.7,0.1c0,0-1.1-0.8-2.6-0.1c-1.2,0.6-2.3,2.4-2.3,2.4
								C293.6,133.6,293.5,133.7,293.4,133.8z"/>
						</g>
						<g>
							<path class="st8" d="M291.8,132.3c-0.1,0-0.3,0-0.4,0c-0.2-0.1-0.3-0.5-0.2-0.7c0-0.1,1.2-2,2.7-2.8c2-1,3.6,0.1,3.7,0.2
								c0.2,0.2,0.3,0.5,0.1,0.7c-0.2,0.2-0.5,0.3-0.7,0.1c0,0-1.1-0.8-2.6-0.1c-1.2,0.6-2.3,2.4-2.3,2.4
								C292.1,132.2,292,132.3,291.8,132.3z"/>
						</g>
						<g>
							<path class="st8" d="M295.5,134.9c-0.1,0-0.3,0-0.4,0c-0.2-0.1-0.3-0.5-0.2-0.7c0-0.1,1.2-2,2.7-2.8c2-1,3.6,0.1,3.7,0.2
								c0.2,0.2,0.3,0.5,0.1,0.7c-0.2,0.2-0.5,0.3-0.7,0.1c0,0-1.1-0.8-2.6-0.1c-1.2,0.6-2.3,2.4-2.3,2.4
								C295.7,134.8,295.6,134.9,295.5,134.9z"/>
						</g>
					</g>
				</g>
			</g>
		</g>
		<g>
			<g>
				<g>
					<g>
						<g>
							<path class="st9" d="M288.5,122.4l-3.8,1.2l-2.1,0.1L279,124c-4.8-3.8-17.7-15.2-20.3-22c0,0-16.7,38.7-39.7,38.7
								c-1.5,0,2.5-19.3,6.2-23.3c0,0,21.2-39.6,35-35.4C266.4,84,272.6,93,288.5,122.4z"/>
						</g>
					</g>
				</g>
			</g>
			<g>
				<path class="st10" d="M284.7,123.7l-2.1,0.1c-14.1-10.7-20.7-19.8-23.7-25.6c-0.1-0.2-0.3-0.3-0.4-0.3c-0.1,0-0.2,0.1-0.2,0.2
					c-6.8,15.9-14.9,25.5-20.5,30.7c-6.1,5.7-10.6,7.6-10.8,7.6l-0.3-0.6l-0.3-0.6c0,0,4.5-1.9,10.4-7.4
					c5.5-5.1,13.5-14.5,20.1-30.2c0.3-0.6,0.8-1,1.4-1c0.7,0,1.3,0.4,1.6,1C263.2,103.5,269.9,112.7,284.7,123.7z"/>
			</g>
			<path class="st11" d="M275.2,121.4c0.6,1.1,1.6,2.7,2.6,3.5c0,0,8.1-0.4,12.1-2.4l-1.8-4.1C288.1,118.4,281.6,120.8,275.2,121.4z
				"/>
		</g>
	</g>
	<g>
		<g>
			<g>
				<path class="st1" d="M285.8,65.9C274.2,70.6,265,73,257.1,74c0,0,0,0,0,0c-0.1,0-2,0.2-2.7,0.1c-2.1-0.1-5-0.6-7.9-1.9
					c-2.1-1-5-3.5-8.1-6.4c-3.8-3.7-7.9-8.1-10.7-11.3c-2.2-2.5-3.6-4.2-3.6-4.2c1.9-2.9,6.2-5.5,9.9-6.9c0,0,7.8,12.9,19.5,19.3
					c0.6,0.3,1.3,0.7,2,1c2.7-0.4,9.9-0.8,13.1-1c8.5-0.6,15.5-2.1,15.5-2.1L285.8,65.9z"/>
			</g>
		</g>
		<g>
			<g>
				<g>
					<path class="st7" d="M283.8,60.1c0,0,1.6-4.1,3.8-5.2c2.2-1.2,8.4-5.2,9.8-4c1.3,1.2,1.1,7.1-4.5,12c-3.6,3.1-7.1,3-7.1,3
						L283.8,60.1z"/>
				</g>
				<g>
					<g>
						<path class="st10" d="M297.7,54.6l-9.2,8.6c-0.3,0.3-1,0.4-1.4,0.2l-5.6-2.7c-0.2-0.1-0.3-0.2-0.3-0.3l0,0l-0.3-0.9l1.5-0.6
							l14.5-5.5l0.8-0.3l0.3,1l0,0.1c0,0,0,0,0,0C298,54.3,297.9,54.5,297.7,54.6z"/>
					</g>
					<g>
						<path class="st12" d="M296.8,53.3l-14.5,5.5l8.2-7.7c0.3-0.3,1-0.4,1.4-0.2L296.8,53.3z"/>
					</g>
					<g>
						<g>
							<path class="st9" d="M286.9,62.5l-5.6-2.7c-0.4-0.2-0.5-0.6-0.1-1l9.2-8.6c0.3-0.3,1-0.4,1.4-0.2l5.6,2.7
								c0.4,0.2,0.5,0.6,0.1,1l-9.2,8.6C287.9,62.6,287.3,62.7,286.9,62.5z"/>
						</g>
					</g>
					<g>
						<path class="st9" d="M287.5,60.9l-4.4-2.1c-0.4-0.2-0.5-0.6-0.1-1l7.2-6.7c0.3-0.3,1-0.4,1.4-0.2l4.4,2.1
							c0.4,0.2,0.5,0.6,0.1,1l-7.2,6.7C288.6,61,288,61.1,287.5,60.9z"/>
					</g>
					<g>
						<path class="st12" d="M298,54.1L298,54.1C298,54.1,298,54.1,298,54.1L298,54.1z"/>
					</g>
				</g>
				<g>
					<path class="st7" d="M287.4,52.8c0,0,1.3,0.2,1.4,1.3c0.1,1.1-1.1,0.7-1.9,0.4c-0.8-0.2-1.5,0-1.6,0.1
						C285.1,55.1,285.1,52.5,287.4,52.8z"/>
				</g>
				<g>
					<path class="st7" d="M293.3,59c0,0,2.1-3.4,3.6-5.2c1.1-1.2,1.6,0.6,0.9,1.8C297.1,56.8,295.7,59.3,293.3,59z"/>
				</g>
			</g>
		</g>
	</g>
	<g>
		<g>
			<g>
				<g>
					<g>
						<path class="st3" d="M197.4,119.9l-4.6-29.4l-0.3-1.7l0-1.3l1-41.6l11.6-3.9l0.6-0.2l2.6-0.9l2.1-0.7l12.2,1.7l2,0.3l0.7,0.1
							l8.7,1.2c0.1,27.6-2.6,33.6,2.5,56C239.2,107.9,229.8,137.9,197.4,119.9z"/>
					</g>
				</g>
			</g>
		</g>
		<g>
			<g>
				<path class="st1" d="M203.9,112.4C203.9,112.4,203.9,112.4,203.9,112.4c9.1-2.6,15.8-8.9,19.8-13.7c4.3-5.2,6.5-9.9,6.5-10
					c0.1-0.2,0-0.5-0.2-0.6c-0.2-0.1-0.5,0-0.6,0.2c0,0-2.2,4.7-6.4,9.8c-3.9,4.7-10.4,10.9-19.3,13.4c-0.2,0.1-0.4,0.3-0.3,0.6
					C203.4,112.3,203.7,112.5,203.9,112.4z"/>
			</g>
		</g>
		<g>
			<g>
				<path class="st1" d="M214.3,112.9c7.9-2.2,14.6-8.9,14.9-9.2c0.2-0.2,0.2-0.5,0-0.6c-0.2-0.2-0.5-0.2-0.6,0
					c-0.1,0.1-7.9,8-16.4,9.4c-0.3,0-0.4,0.3-0.4,0.5c0,0.2,0.3,0.4,0.5,0.4C213,113.2,213.6,113.1,214.3,112.9z"/>
			</g>
		</g>
		<g>
			<g>
				<path class="st1" d="M208.7,54.2c7.9-2.2,14.6-8.9,14.9-9.2c0.2-0.2,0.2-0.5,0-0.6c-0.2-0.2-0.5-0.2-0.6,0
					c-0.1,0.1-7.9,8-16.4,9.4c-0.3,0-0.4,0.3-0.4,0.5c0,0.2,0.3,0.4,0.5,0.4C207.4,54.5,208,54.4,208.7,54.2z"/>
			</g>
		</g>
	</g>
	<g>
		<g>
			<polygon class="st7" points="278.3,196 281.5,203.1 274.9,205.9 271.1,198.6 			"/>
			<g>
				<g>
					<g>
						<path class="st3" d="M280.1,203c0,0,0.7-2.9,2-3.3c1.3-0.5,14.7,3.1,18.3,2.3c3.7-0.8,4.1,2,4,3.5
							c-0.1,1.5-27.3,11.3-27.3,11.3s-4.2-7.6-4.3-10.3C272.6,203.6,277.6,204.7,280.1,203z"/>
					</g>
					<g>
						<g>
							<path class="st8" d="M287.9,206.1c-0.1,0.1-0.2,0.1-0.4,0.1c-0.3,0-0.5-0.3-0.5-0.6c0-0.1,0.3-2.3,1.4-3.7
								c1.4-1.7,3.3-1.3,3.4-1.3c0.3,0.1,0.5,0.3,0.4,0.6c-0.1,0.3-0.3,0.5-0.6,0.4c-0.1,0-1.4-0.3-2.4,1c-0.9,1.1-1.1,3.1-1.1,3.1
								C288.1,205.9,288,206,287.9,206.1z"/>
						</g>
						<g>
							<path class="st8" d="M285.9,205.4c-0.1,0.1-0.2,0.1-0.4,0.1c-0.3,0-0.5-0.3-0.5-0.6c0-0.1,0.3-2.3,1.4-3.7
								c1.4-1.7,3.3-1.3,3.4-1.3c0.3,0.1,0.5,0.3,0.4,0.6c-0.1,0.3-0.3,0.5-0.6,0.4c-0.1,0-1.4-0.3-2.4,1c-0.9,1.1-1.1,3.1-1.1,3.1
								C286.1,205.2,286,205.3,285.9,205.4z"/>
						</g>
						<g>
							<path class="st8" d="M290.3,206.3c-0.1,0.1-0.2,0.1-0.4,0.1c-0.3,0-0.5-0.3-0.5-0.6c0-0.1,0.3-2.3,1.4-3.7
								c1.4-1.7,3.3-1.3,3.4-1.3c0.3,0.1,0.5,0.3,0.4,0.6c-0.1,0.3-0.3,0.5-0.6,0.4c-0.1,0-1.4-0.3-2.4,1c-0.9,1.1-1.1,3.1-1.1,3.1
								C290.5,206.1,290.4,206.2,290.3,206.3z"/>
						</g>
					</g>
				</g>
			</g>
		</g>
		<g>
			<g>
				<g>
					<g>
						<g>
							<path class="st9" d="M279.9,197.4c-0.7,0.8-2.8,1.9-5.1,3c-0.4,0.2-0.8,0.4-1.3,0.5c-0.7,0.3-1.5,0.6-2.2,0.8
								c0,0-15.5-28.6-21.5-49.4c0,0-52.6-6.5-54.4-24.9c-0.1-0.6-0.1-1.2,0-1.9c0.2-1.8,0.8-3.6,1.9-5.6c1.2-2.1,19.2-0.1,28.9,2.7
								c0,0,26.4,10.3,36.1,20.9C267.4,148.8,279.9,197.4,279.9,197.4z"/>
						</g>
					</g>
				</g>
				<g>
					<path class="st10" d="M274.9,200.4c-0.4,0.2-0.8,0.4-1.3,0.5c-7.9-13-18.8-43.4-21.2-50.7c-0.2-0.5-0.6-0.9-1.1-1
						c-25.6-4.8-40.3-11.5-48.1-16.3c-3.5-2.1-5.9-4-7.7-5.6c-0.1-0.6-0.1-1.2,0-1.9c1.7,1.6,4.4,3.9,8.5,6.4
						c7.8,4.7,22.3,11.3,47.5,16c1,0.2,1.8,0.9,2.1,1.9C256.1,157.1,267.1,187.6,274.9,200.4z"/>
				</g>
			</g>
			<path class="st11" d="M268.6,198.7l2.5,4c0,0,6.2-1.1,10.4-5.3l-1.5-3.5C279.9,193.8,272.4,197.6,268.6,198.7z"/>
		</g>
	</g>
	<g>
		<path class="st7" d="M184.9,130.8c0,0,3.6,4.9,3.3,7.4c-0.3,2.5-3.5,7.2-6.1,7.5c-2.6,0.2,3-6.1,1.7-5.9
			c-1.6,0.2-12.3,9.1-14.6,9.1c-2.3,0,2.7-4.1,4.6-5.1c0,0-5.1,2.3-6.3,3.5c-1.2,1.2-2-1.4,3.9-4.9c0,0-5.4,3.1-5.8,3.1
			c-1.2,0.2,2.2-3.9,5.2-5.3c0,0-4.3,2.1-4.8,2.1c-0.6,0,0.7-1.4,3.9-3.2c2.9-1.6,7.7-9,7.7-9L184.9,130.8z"/>
		<g>
			<path class="st1" d="M193.6,45.8c0,0-12,23.1-14.8,47.3l-1.3,36.8c0,0,1.2,2.6,7.4,0.9l5.9-36.7l4.5-16.8
				C195.4,77.2,197.5,56.6,193.6,45.8z"/>
		</g>
	</g>
	<g>
		
			<ellipse transform="matrix(0.2837 -0.9589 0.9589 0.2837 138.0733 221.8431)" class="st9" cx="217.5" cy="18.5" rx="13.3" ry="13.3"/>
		<path class="st9" d="M230.8,18.4c0,0,3.9-0.4,4-4.1c0.1-3.1-3.8-1.8-3.1-4.1c0.7-2.3,1.8-4.4-1.2-5.5c-2.6-1-3,0.8-6.1-2.5
			c-3.6-3.9-8.2,2.9-12,2.4C207,4,205.7,7,204.7,9.4c-1,2.4,0.8,4.5,0.8,4.5L230.8,18.4z"/>
		<g>
			<path class="st13" d="M227.8,24.1c0,0,2.6-2.4,3.7,0.2c1.1,2.6-2.2,8.9-5.7,6.6L227.8,24.1z"/>
			<g>
				<path class="st14" d="M227,28.9c0.1,0,0.3,0,0.3-0.2c1-2,3.3-2.4,3.3-2.5c0.2,0,0.3-0.2,0.3-0.4c0-0.2-0.2-0.3-0.4-0.3
					c-0.1,0-2.7,0.5-3.8,2.8C226.7,28.6,226.7,28.8,227,28.9C226.9,28.9,226.9,28.9,227,28.9z"/>
			</g>
			<g>
				<g>
					<path class="st14" d="M229.3,28.3c0.1,0,0.1,0,0.2,0c0.2-0.1,0.2-0.3,0.2-0.4c0,0-0.3-0.7-1-1.2c-0.1-0.1-0.3-0.1-0.5,0.1
						c-0.1,0.1-0.1,0.3,0.1,0.5c0.6,0.4,0.8,0.9,0.8,0.9C229.1,28.2,229.2,28.2,229.3,28.3z"/>
				</g>
			</g>
		</g>
		<path class="st7" d="M210.5,34.1l-1.2,6.7c0,0,2.2,3.5,4.9,4.2c2.7,0.7,4.9-2.2,4.9-2.2l1.1-6.5L210.5,34.1z"/>
		<path class="st13" d="M210.5,34.1l-0.5,3c1.5,2.3,4.6,3.4,9.5,3.6l0.8-4.3L210.5,34.1z"/>
		<path class="st7" d="M206.5,15.6c-0.3,2.6-0.7,5.9-0.6,8.6c0,0.7,0,1.3,0.1,1.9c0.5,5.2,2.6,14.3,13.1,12.5
			c4.7-0.8,7.5-5.3,9.3-10.1c1.2-3.3,1.9-6.6,2.3-9.1c0.4-2.5-0.6-5-2.5-6.6c-5.3-4.3-11.7-4.2-16-3.4
			C209.1,10.1,206.8,12.5,206.5,15.6z"/>
		<path class="st9" d="M222.7,24.1c-0.1,0.7,0.1,1.4,0.6,1.4c0.5,0.1,0.9-0.4,1.1-1.2c0.1-0.7-0.1-1.4-0.6-1.4
			C223.3,22.9,222.8,23.4,222.7,24.1z"/>
		<path class="st9" d="M213,22.4c-0.1,0.7,0.1,1.4,0.6,1.4c0.5,0.1,0.9-0.4,1.1-1.2c0.1-0.7-0.1-1.4-0.6-1.4
			C213.6,21.1,213.1,21.7,213,22.4z"/>
		<path class="st9" d="M226.9,20.7c0,0-3.2-2-6-1.3l0,1.3c0,0,3-0.1,5.6,1.4C226.7,21.6,227,21.3,226.9,20.7z"/>
		<path class="st9" d="M211.1,17.9c0,0,3.7-0.8,6.1,0.9l-0.4,1.2c0,0-2.8-1.1-5.7-0.6C211,18.8,210.8,18.5,211.1,17.9z"/>
		<g>
			<g>
				<path class="st13" d="M217.2,28.4c-0.5-0.1-1-0.4-1.1-0.4c-0.2-0.1-0.2-0.3-0.1-0.4c0.1-0.2,0.3-0.2,0.4-0.1
					c0.3,0.2,0.9,0.5,1.3,0.3c0.1,0,0.2-0.1,0.2-0.3c0.3-1.1,0.7-4.9,0.7-4.9c0-0.2,0.2-0.3,0.4-0.3c0.2,0,0.3,0.2,0.3,0.4
					c0,0.2-0.4,3.9-0.7,5c-0.1,0.4-0.4,0.6-0.6,0.7C217.7,28.4,217.4,28.4,217.2,28.4z"/>
			</g>
		</g>
		<path class="st8" d="M220.8,31.1c-0.5,1.3-1.8,3.5-4.7,3c-2.9-0.5-3.4-2.9-3.4-4.4L220.8,31.1z"/>
		<g>
			<path class="st13" d="M215.9,35.7c-0.8-0.1-1.5-0.7-1.5-0.7c-0.1-0.1-0.1-0.3,0-0.5c0.1-0.1,0.3-0.1,0.5,0c0,0,0.5,0.4,1.2,0.6
				c0.6,0.1,1.2-0.1,1.2-0.1c0.2-0.1,0.4,0,0.4,0.2c0.1,0.2,0,0.4-0.2,0.4C217.4,35.6,216.7,35.9,215.9,35.7z"/>
		</g>
		<path class="st9" d="M227.7,26.3c0.5-1.3,1-2.9,1-3.8c0-1.6-1.2-2.7-0.5-4.1c0.7-1.4-0.6-3.3-1.7-3.8c-1.1-0.5-3.9-0.4-6.4-2.1
			c-2.3-1.7-6.9-1.6-7.9-0.1c-1.2,1.8-0.1,2.2-2.8,3.9c-1.1,0.7-0.4,3.1-0.5,4.6c0,0.7-0.1,1-0.2,1.7l-0.1,0.4l-2.8-0.5
			c0.1-2.3,0.3-4.8,0.6-6.8c0.4-3,2.7-5.5,5.7-6.1c4.3-0.8,10.7-1,16,3.4c1.9,1.6,2.9,4.1,2.5,6.6c-0.3,1.9-0.8,4.5-1.6,7.1
			L227.7,26.3z"/>
		<g>
			<path class="st7" d="M206.9,23.9c0.1-0.7,0.2-1.5,0.2-2.3c0-1-0.1-2-1.1-2.6c-0.8-0.5-1.6-0.6-2.4,0.2c-1.9,2-1.5,9.4,2.6,8.5
				L206.9,23.9z"/>
			<g>
				<g>
					<path class="st13" d="M205.8,25.5c-0.1-0.1-0.2-0.2-0.2-0.3c0.2-2.2-1.5-3.8-1.5-3.8c-0.1-0.1-0.1-0.3,0-0.5
						c0.1-0.1,0.3-0.1,0.5,0c0.1,0.1,2,1.8,1.7,4.4C206.2,25.4,206.1,25.5,205.8,25.5C205.9,25.5,205.8,25.5,205.8,25.5z"/>
				</g>
			</g>
			<g>
				<path class="st13" d="M204.1,23.7c-0.1,0-0.1-0.1-0.1-0.1c-0.1-0.1-0.1-0.3,0.1-0.5c0,0,0.6-0.4,1.5-0.5c0.2,0,0.3,0.1,0.3,0.3
					c0,0.2-0.1,0.3-0.3,0.3c-0.7,0-1.1,0.3-1.1,0.3C204.4,23.7,204.2,23.7,204.1,23.7z"/>
			</g>
		</g>
	</g>
</g>
<g>
	<g>
		<path class="st7" d="M357.2,177.6c0,0-4.4,8.3-9.5,14.9c-1.5,1.9-3.1,3.7-4.7,5.1c-2.5,2.2-5,3.4-7,2.4
			c-7.5-3.7-24.1-33.1-24.1-33.1l4.1-4.8c0,0,7.4,8.4,12.8,13.4c5,4.6,8.8,8.1,8.8,8.1c0.7-1,1.4-2.2,2.2-3.4c0.8-1.3,1.7-2.6,2.5-4
			c6.2-10,13.8-21,13.8-21L357.2,177.6z"/>
		<path class="st7" d="M317,165.1c0,0,1.7-2.8,1-5.3c-0.7-2.5-1.3-8.1-4-8c-1,0.1,0.5,2.4-0.2,4.6c0,0-2.9-1.4-4.9-2.8
			c-1.7-1.3-5.3-3.3-6.9-4.3c-0.5-0.3-1,0.2-0.7,0.7c0.4,0.7,1.5,1.8,3.8,3.3c0,0-5.9-3.3-6.9-2.6c-1,0.7,6.5,4.8,6.5,4.8
			s-6.1-2.4-6.6-1.6c-0.3,0.5,5.6,4,5.6,4s-5.9-1.8-4.8-0.4c0.3,0.4,11.5,5.5,13.9,11.4C312.9,168.9,316.2,167.1,317,165.1z"/>
		<path class="st13" d="M347.6,192.5c-1.5,1.9-3.1,3.7-4.7,5.1l-3.2-17.3c0.8-1.3,1.7-2.6,2.5-4L347.6,192.5z"/>
		<g>
			<path class="st3" d="M356.3,154.5l-15.8,22.8l5,20.3l12.4-19.8C357.9,177.8,360.2,164.6,356.3,154.5z"/>
		</g>
	</g>
	<g>
		<polygon class="st7" points="364.4,349.4 364.4,356.6 371.1,356.5 371.5,348.9 		"/>
		<g>
			<path class="st9" d="M381.4,244.3c0,0.9-0.3,5-0.6,10.7c-0.9,15.7-2.7,43.6-3.8,49.9c-1.1,6.4-0.6,27.5-0.2,38.6
				c0.1,1.9-0.7,3.6-1.9,4.8c-0.5,0.5-1,0.9-1.6,1.2c-1,0.6-2.2,0.9-3.4,0.9h-5.1c-3.9,0-7-3.1-6.8-6.9c0.3-9.3,0.6-26.4,0-39.6
				c-0.6-12.5,0.3-34.7,1-48.5h0c0.3-5.5,0.5-9.7,0.6-11.4L381.4,244.3z"/>
		</g>
		<path class="st10" d="M359.6,244.1l21.8,0.3c0,0.9-0.3,5-0.6,10.7c-7.4,0.9-15.1,1.3-21.8,0.4
			C359.3,249.9,359.5,245.8,359.6,244.1z"/>
		<g>
			<path class="st10" d="M374.8,323.8c0.2,7.1,0.4,14.4,0.3,20.3c0,1.7-0.1,3.1-0.2,4.3c-0.5,0.5-1,0.9-1.6,1.2
				c0.1-1.4,0.2-3.2,0.3-5.5c0.1-5.9-0.1-13.1-0.3-20.2c-0.2-8.6-0.5-16.8,0-20.2c1-7.6,3.4-48.7,4-59.7l1.5,0.1
				c-0.6,11-3,52.1-4,59.8C374.4,307.2,374.6,315.3,374.8,323.8z"/>
		</g>
		<g>
			<g>
				<g>
					<g>
						<path class="st3" d="M366.1,356.3c0,0-1.4-1.9-2.5-1.9c-1.1,0.1-10.1,6.7-13.1,7.2c-3,0.5-2.5,2.7-2,3.8
							c0.5,1.1,24,0.1,24,0.1s0.8-6.8,0.1-8.9C371.9,354.5,368.4,356.9,366.1,356.3z"/>
					</g>
					<g>
						<g>
							<path class="st8" d="M361.1,361c0.1,0,0.2,0,0.3,0c0.2-0.1,0.3-0.4,0.2-0.6c0-0.1-0.9-1.6-2.1-2.3c-1.6-0.8-2.9,0-3,0.1
								c-0.2,0.1-0.2,0.4-0.1,0.6c0.1,0.2,0.4,0.2,0.6,0.1c0,0,0.9-0.6,2.1,0c1,0.5,1.8,1.9,1.8,1.9C361,360.9,361,360.9,361.1,361z
								"/>
						</g>
						<g>
							<path class="st8" d="M362.4,359.8c0.1,0,0.2,0,0.3,0c0.2-0.1,0.3-0.4,0.2-0.6c0-0.1-0.9-1.6-2.1-2.3c-1.6-0.8-2.9,0-3,0.1
								c-0.2,0.1-0.2,0.4-0.1,0.6c0.1,0.2,0.4,0.2,0.6,0.1c0,0,0.9-0.6,2.1,0c1,0.5,1.8,1.9,1.8,1.9
								C362.2,359.7,362.3,359.8,362.4,359.8z"/>
						</g>
						<g>
							<path class="st8" d="M359.4,361.9c0.1,0,0.2,0,0.3,0c0.2-0.1,0.3-0.4,0.2-0.6c0-0.1-0.9-1.6-2.1-2.3c-1.6-0.8-2.9,0-3,0.1
								c-0.2,0.1-0.2,0.4-0.1,0.6c0.1,0.2,0.4,0.2,0.6,0.1c0,0,0.9-0.6,2.1,0c1,0.5,1.8,1.9,1.8,1.9
								C359.2,361.8,359.3,361.8,359.4,361.9z"/>
						</g>
					</g>
				</g>
			</g>
		</g>
	</g>
	<g>
		<polygon class="st7" points="397.1,349.4 397.8,356.6 403.8,356.5 404.2,348.9 		"/>
		<g>
			<path class="st9" d="M409.4,304c-0.7,13.2-0.3,30.2,0,39.6c0.1,3.8-3,6.9-6.8,6.9h-5.1c-1.1,0-2.2-0.3-3.1-0.7
				c-0.6-0.3-1.1-0.7-1.5-1.1c-1.4-1.3-2.2-3.1-2.1-5.1c0.3-11,0.8-32.2-0.2-38.6c-1.1-6.4-2.9-35.2-3.8-50.7
				c-0.3-5.2-0.5-8.9-0.6-9.8l21.8,0.3c0.1,1.1,0.2,2.8,0.3,5C408.8,262.1,410.1,289.5,409.4,304z"/>
		</g>
		<path class="st10" d="M408.1,249.7c-4.1,1.1-12.3,3.1-21.5,4.6c-0.3-5.2-0.5-8.9-0.6-9.8l21.8,0.3
			C407.8,245.8,407.9,247.5,408.1,249.7z"/>
		<g>
			<path class="st10" d="M394,344.1c0.1,2.4,0.2,4.2,0.3,5.6c-0.6-0.3-1.1-0.7-1.6-1.1c-0.1-1.3-0.2-2.8-0.2-4.5
				c-0.1-5.9,0.1-13.2,0.3-20.3c0.2-8.6,0.4-16.6,0-20c-1.1-7.6-3.4-48.8-4-59.8l1.5-0.1c0.6,11,2.9,52.1,4,59.7
				c0.5,3.5,0.3,11.6,0,20.2C394.1,330.9,393.9,338.2,394,344.1z"/>
		</g>
		<g>
			<g>
				<path class="st3" d="M400.1,355.5c0,0,3.1-0.8,3.9-0.8c0.8,0,6.5,6.2,8.4,6.6c3.5,0.7,3.5,5.9,1.4,6.2
					c-6.1,0.8-16.5-1.8-16.5-1.8s-1-6.8-0.5-8.9C397.2,354.7,398.4,356.1,400.1,355.5z"/>
			</g>
			<g>
				<g>
					<path class="st8" d="M405.2,361.3c-0.1,0-0.2,0-0.3-0.1c-0.2-0.1-0.2-0.4-0.1-0.6c0-0.1,1.1-1.6,2.4-2.1c1.7-0.7,2.9,0.3,3,0.4
						c0.2,0.1,0.2,0.4,0,0.6c-0.2,0.2-0.4,0.2-0.6,0c0,0-0.9-0.7-2.1-0.2c-1,0.4-2,1.8-2,1.8C405.4,361.2,405.3,361.2,405.2,361.3z"
						/>
				</g>
				<g>
					<path class="st8" d="M404,360c-0.1,0-0.2,0-0.3-0.1c-0.2-0.1-0.2-0.4-0.1-0.6c0-0.1,1.1-1.6,2.4-2.1c1.7-0.7,2.9,0.3,3,0.4
						c0.2,0.1,0.2,0.4,0,0.6c-0.2,0.2-0.4,0.2-0.6,0c0,0-0.9-0.7-2.1-0.2c-1,0.4-2,1.8-2,1.8C404.2,359.9,404.1,360,404,360z"/>
				</g>
				<g>
					<path class="st8" d="M406.8,362.3c-0.1,0-0.2,0-0.3-0.1c-0.2-0.1-0.2-0.4-0.1-0.6c0-0.1,1.1-1.6,2.4-2.1c1.7-0.7,2.9,0.3,3,0.4
						c0.2,0.1,0.2,0.4,0,0.6c-0.2,0.2-0.4,0.2-0.6,0c0,0-0.9-0.7-2.1-0.2c-1,0.4-2,1.8-2,1.8C407,362.2,406.9,362.3,406.8,362.3z"/>
				</g>
			</g>
		</g>
	</g>
	<g>
		<g>
			<g>
				<path class="st3" d="M412.7,246.5c-19.7,4.9-39.4,4.9-59,0c-0.1-7.2-0.2-36,0.4-59.6c0-0.5,0-0.9,0-1.4c0-0.2,0-0.5,0-0.7v0
					c0-0.3,0-0.6,0-0.9c0.4-15.6,1.2-28.3,2.4-30c0,0,0,0,0,0c2.9-3.9,17.7-10.3,21.8-13.1c0.3,0.5,2.3,3.5,5,3.7
					c2.9,0.2,5.5-3.1,5.5-3.1v-0.6c4.1,2.8,17.5,8.7,20.4,12.6C412.3,157.8,412.9,234.3,412.7,246.5z"/>
			</g>
		</g>
		<g>
			<g>
				<path class="st1" d="M360.1,175.9c-1.7,2.2-4.2,7.3-5.3,9.7c-0.2,0.3-0.3,0.6-0.4,0.8c-0.1,0.3-0.2,0.4-0.2,0.4
					c0,0.1-0.1,0.1-0.2,0.2c0-0.5,0-0.9,0-1.4c0-0.2,0-0.5,0-0.7v0c0.2-0.5,0.5-1,0.8-1.7c1.3-2.6,3.1-6.1,4.4-7.9
					c0.1-0.2,0.4-0.2,0.6-0.1C360.2,175.4,360.2,175.7,360.1,175.9z"/>
			</g>
		</g>
		<g>
			<g>
				<path class="st1" d="M397.8,158.5C397.8,158.5,397.8,158.5,397.8,158.5c-7.8-0.2-13.9-3.4-17.6-6.1c-4-2.9-6.1-5.6-6.2-5.7
					c-0.2-0.2-0.1-0.5,0.1-0.6c0.2-0.1,0.5-0.1,0.6,0.1c0.1,0.1,8.5,11,23.1,11.4c0.3,0,0.4,0.2,0.4,0.5
					C398.2,158.3,398,158.5,397.8,158.5z"/>
			</g>
		</g>
		<g>
			<g>
				<path class="st1" d="M371.4,231.5c-0.2,0-0.4-0.2-0.5-0.4c0-0.2,0.2-0.5,0.4-0.5c12.8-0.8,20.5-7.2,24.7-12.4
					c4.5-5.7,6-11.2,6-11.3c0.1-0.2,0.3-0.4,0.6-0.3c0.2,0.1,0.4,0.3,0.3,0.5c-0.1,0.2-1.6,5.8-6.2,11.6
					C392.5,224.1,384.6,230.7,371.4,231.5C371.4,231.5,371.4,231.5,371.4,231.5z"/>
			</g>
		</g>
		<g>
			<g>
				<path class="st1" d="M378.3,223.5c-0.2,0-0.4-0.1-0.4-0.3c-0.1-0.2,0.1-0.5,0.3-0.5c11.2-3,13.3-12.1,13.3-12.2
					c0.1-0.2,0.3-0.4,0.5-0.3c0.2,0.1,0.4,0.3,0.3,0.5c0,0.1-0.6,2.5-2.6,5.3c-1.8,2.6-5.3,6-11.4,7.6
					C378.4,223.5,378.3,223.5,378.3,223.5z"/>
			</g>
		</g>
	</g>
	<g>
		<path class="st7" d="M427.2,245.8c-0.3,3.9-2.7,6.8-2.7,9.4c0,2.6-3,0.9-1.6-4.2c1.4-5.1-0.7-10-1.8-10c-1.1,0,0.4,5.7-0.8,7.6
			c-1.2,1.9-2.1-2.1-3.1-4.5c-1.1-2.5-0.5-7.8,0.5-11.6c1-3.7-3.8-27.3-3.1-34l-1.7-8.6l-1-5l-0.2-5.3l9.1-3.5
			c0.3,1.7,0.7,3.4,1,5.2c0.2,0.8,0.3,1.6,0.5,2.3c1.2,6.3,2.3,12.5,2.8,16.5c1.2,11-0.8,33.4-0.8,33.4S427.5,242.1,427.2,245.8z"/>
		<path class="st13" d="M422.2,183.6c-2.1,2.3-5.3,5.2-9.4,6.3l-1-5l-0.2-5.3l9.1-3.5c0.3,1.7,0.7,3.4,1,5.2
			C421.9,182.1,422.1,182.8,422.2,183.6z"/>
		<g>
			<path class="st3" d="M424.8,178.6c0,0-1.1,1.3-3,2.7c-2.3,1.7-5.8,3.6-10,3.6c-0.5-14.6-1.2-26.9-2.3-30.5
				C411.4,156.7,420.7,168.2,424.8,178.6z"/>
		</g>
	</g>
	<g>
		<g>
			<path class="st1" d="M405.6,174.4c1.7,2.2,4.2,7.3,5.3,9.7c0.2,0.3,0.3,0.6,0.4,0.8c0.1,0.3,0.2,0.4,0.2,0.4
				c0.1,0.2,0.2,0.3,0.4,0.3h0c0-0.2,0-0.5,0-0.7c0.1,0,0.3,0,0.4,0c-0.1-0.1-0.2-0.5-0.4-0.9c-0.3-0.6-0.6-1.4-1.1-2.2
				c-1.3-2.6-3.1-6.1-4.4-7.9c-0.2-0.2-0.4-0.2-0.6-0.1C405.4,173.9,405.4,174.2,405.6,174.4z"/>
		</g>
	</g>
	<g>
		<path class="st9" d="M397.3,117.5c0,7.9-5,13.3-13,13.3c-8.1,0-13.7-5.8-13.7-13.7s4.8-13.9,12.8-13.9
			C393.1,103.2,397.3,109.6,397.3,117.5z"/>
		<g>
			<path class="st13" d="M395.5,120.9c0,0,2.2-2.9,3.9-0.5c1.7,2.4-0.7,9.6-4.8,7.8L395.5,120.9z"/>
			<g>
				<g>
					<g>
						<path class="st14" d="M395.5,126c0.2,0,0.3-0.1,0.3-0.2c0.6-2.2,3-3.1,3-3.1c0.2-0.1,0.3-0.3,0.2-0.4
							c-0.1-0.2-0.3-0.3-0.4-0.2c-0.1,0-2.7,1-3.4,3.6C395.1,125.8,395.2,125.9,395.5,126C395.5,126,395.5,126,395.5,126z"/>
					</g>
				</g>
			</g>
			<g>
				<g>
					<g>
						<path class="st14" d="M397.9,124.9c0.1,0,0.1,0,0.2-0.1c0.2-0.1,0.2-0.3,0.1-0.5c0,0-0.4-0.6-1.3-1c-0.2-0.1-0.4,0-0.5,0.2
							c-0.1,0.2,0,0.4,0.2,0.4c0.7,0.3,1,0.8,1,0.8C397.7,124.8,397.8,124.9,397.9,124.9z"/>
					</g>
				</g>
			</g>
		</g>
		<g>
			<path class="st13" d="M372.4,120.9c0,0-2.2-2.9-3.9-0.5c-1.7,2.4,0.7,9.6,4.8,7.8L372.4,120.9z"/>
			<g>
				<path class="st14" d="M372.4,126c-0.2,0-0.3-0.1-0.3-0.2c-0.6-2.2-3-3.1-3-3.1c-0.2-0.1-0.3-0.3-0.2-0.4
					c0.1-0.2,0.3-0.3,0.4-0.2c0.1,0,2.7,1,3.4,3.6C372.8,125.8,372.7,125.9,372.4,126C372.5,126,372.4,126,372.4,126z"/>
			</g>
			<g>
				<g>
					<g>
						<path class="st14" d="M370.1,124.9c-0.1,0-0.1,0-0.2-0.1c-0.2-0.1-0.2-0.3-0.1-0.5c0,0,0.4-0.6,1.3-1c0.2-0.1,0.4,0,0.5,0.2
							c0.1,0.2,0,0.4-0.2,0.4c-0.7,0.3-1,0.8-1,0.8C370.3,124.8,370.2,124.9,370.1,124.9z"/>
					</g>
				</g>
			</g>
		</g>
		<path class="st7" d="M378.5,134.3v7.1c0,0,2.2,3.6,5.1,3.9c2.9,0.2,5.5-3.1,5.5-3.1v-7.3L378.5,134.3z"/>
		<path class="st13" d="M378.5,134.3v3.1c2,2.1,5.4,2.7,10.6,1.9v-4.6L378.5,134.3z"/>
		<path class="st7" d="M396.7,120.7c-0.1,1.5-0.3,3.1-0.6,4.7c-1,5.2-3.2,10.4-7.9,12c-10.7,3.7-14.5-5.2-16-10.5
			c-0.2-0.6-0.3-1.2-0.5-1.9c-0.2-1.2-0.4-2.6-0.6-4c-0.2-1.7-0.3-3.4-0.4-4.9c-0.2-3.2,1.8-6.1,4.8-7.2c4.4-1.6,11-3,17.3,0.5
			c2.3,1.3,3.8,3.7,3.8,6.3C396.8,117.1,396.8,118.8,396.7,120.7z"/>
		<path class="st9" d="M395.4,121c-0.4,0.6-2.4,6.7-2.9,7.5c-1.3-2.7-7.4-0.7-7.4-0.7c-0.4,0.1-0.8,0.2-1.2,0.2
			c-0.4,0-0.8-0.1-1.1-0.2l0,0c0,0-6.2-1.9-7.4,1c-0.6-0.8-2.3-6.8-2.6-7.8h-1.6c0.1,1.4,0.3,2.8,0.6,4c0.1,0.7,0.3,1.3,0.5,1.9
			c1.5,5.2,5.3,14.2,16,10.5c4.7-1.7,6.9-6.8,7.9-12c0.3-1.6,0.5-3.2,0.6-4.7L395.4,121z M389.6,132L389.6,132
			C389.6,132,389.6,132,389.6,132c-0.5,0.4-1,0.8-1.4,1.1c-2.7,1.4-3,1.2-4.1,1.3c-1.1,0.1-2.6-0.3-4.1-1.1c-0.5-0.3-1.2-0.8-2-1.5
			c0,0-1.1-3.7,5.9-2.8C390.9,127.9,389.7,131.3,389.6,132z"/>
		<path class="st9" d="M388.5,121.8c0,0.8,0.4,1.4,0.9,1.4c0.5,0,0.9-0.6,0.9-1.4s-0.4-1.4-0.9-1.4
			C388.9,120.5,388.5,121.1,388.5,121.8z"/>
		<path class="st9" d="M378.1,121.8c0,0.8,0.4,1.4,0.9,1.4c0.5,0,0.9-0.6,0.9-1.4c0-0.8-0.4-1.4-0.9-1.4
			C378.5,120.4,378.1,121.1,378.1,121.8z"/>
		<path class="st9" d="M393,118c0,0-3.4-1.3-6-0.2l0.3,1.4c0,0,3.9-0.3,5.8,0.5C393.2,119.1,393.2,118.5,393,118z"/>
		<path class="st9" d="M376,118c0,0,3.4-1.3,6-0.2l-0.3,1.4c0,0-3.9-0.3-5.8,0.5C375.8,119.1,375.8,118.5,376,118z"/>
		<g>
			<path class="st13" d="M383.9,127.1c-0.6,0-1.2-0.2-1.2-0.3c-0.2-0.1-0.3-0.3-0.2-0.4c0.1-0.2,0.3-0.3,0.4-0.2
				c0.3,0.1,1.1,0.3,1.4,0.1c0.1,0,0.1-0.1,0.2-0.3c0.1-1.2-0.2-5.1-0.2-5.2c0-0.2,0.1-0.3,0.3-0.4c0.2,0,0.4,0.1,0.4,0.3
				c0,0.2,0.3,4,0.2,5.3c0,0.5-0.3,0.7-0.5,0.8C384.4,127.1,384.1,127.1,383.9,127.1z"/>
		</g>
		<path class="st8" d="M388.5,129.6c-0.3,1.4-1.2,3.9-4.4,3.9c-3.2,0-4-2.3-4.3-3.9H388.5z"/>
		<path class="st9" d="M371.2,121h1.6c-0.2-1.5-0.4-4.2,0.9-4.6c4.1-1.2-1.2-4,0.6-5.4c1.8-1.4,6.4-0.8,9.6-0.9
			c3.2-0.1,8.3-0.1,9.6,0.2c1.2,0.3,0.6,2.3,0.1,3.9c-0.5,1.6,1.5,3.3,1.9,4.9c0.1,0.5,0.1,1.2,0,1.9h1.3c0.2-2,0.2-3.8,0.1-5.3
			c-0.1-2.6-1.5-5-3.8-6.3c-6.3-3.5-12.9-2.2-17.3-0.5c-3,1.1-5,4.1-4.8,7.2C370.9,117.6,371,119.3,371.2,121z"/>
	</g>
</g>
<g>
	<g>
		<g>
			<g>
				<path class="st8" d="M142.5,293.7H63.4c1.3-7.9,7.6-13.7,15-13.7l24.6,0.1l24.6-0.1C134.9,280,141.2,285.7,142.5,293.7z"/>
			</g>
			<g>
				<rect x="69.6" y="292.5" class="st8" width="4.3" height="73.8"/>
				<rect x="132" y="292.5" class="st8" width="4.3" height="73.8"/>
				<rect x="73.9" y="313.2" class="st0" width="58.1" height="4.2"/>
			</g>
		</g>
		<g>
			<g>
				<path class="st1" d="M83.6,194.3c0,0-13.2,17.6-15,33c-1.2,10.9,15,27.1,15,27.1l5.6-2.8l-5.6-12.6c-2-6.1-4.4-8.5-2.6-14.7
					l4-8.7L83.6,194.3z"/>
			</g>
			<g>
				<path class="st1" d="M125.2,194.1c0,0,13,18.8,14.1,34.2c0.9,13.3-15,26.1-15,26.1l-4.6-2.3l6.4-12.7c2-6.1,2.9-9.8,0.2-16.5
					l-3.4-7.3L125.2,194.1z"/>
			</g>
			<g>
				<g>
					<path class="st3" d="M86.2,234.5l-8.8,27.9c0,0,37.9,4.8,49.5,1.7l-5.9-30.4l4.1-39.6c-5.7-2.4-11.7-3.9-17.8-4.4
						c-9-0.6-14.6,0.8-23.8,4.6L86.2,234.5z"/>
				</g>
				<g>
					<g>
						<path class="st1" d="M95.7,202.7c8.4-1,16.2-6.7,16.5-7c0.2-0.2,0.2-0.4,0.1-0.7c-0.2-0.2-0.4-0.2-0.7-0.1
							c-0.1,0.1-9.3,6.8-18.1,6.9c-0.3,0-0.5,0.2-0.5,0.5c0,0.3,0.2,0.5,0.5,0.5C94.3,202.9,95,202.8,95.7,202.7z"/>
					</g>
				</g>
			</g>
			<g>
				<polygon class="st7" points="102.5,352.1 103.2,358.2 109.7,358.4 110.3,353.3 				"/>
				<g>
					<path class="st10" d="M101.4,254.5c0,0-17-0.9-22.7,3.8c-5.7,4.7-4.6,18.2,1.3,21.9c5.9,3.7,15.8,10.9,15.8,10.9l6.3,63.1
						l8.4,0.3c0,0,7.7-63.3,3.8-75.6C110.5,266.5,101.4,254.5,101.4,254.5z"/>
					<path class="st9" d="M111.3,351.3c0.5,1.5,0.2,2.9-0.2,4.3l-9.6-0.2c-0.3-1.4-0.4-2.8-0.2-4.2L111.3,351.3z"/>
				</g>
			</g>
			<g>
				<path class="st8" d="M125.4,254H80.9l-4.1-24c-0.4-2.1,1.2-4,3.4-4h46c2.1,0,3.7,1.9,3.4,4L125.4,254z"/>
				<g>
					<path class="st0" d="M121.9,259.2H84.6c-2,0-3.6-1.6-3.6-3.6V254h44.5v1.6C125.5,257.6,123.9,259.2,121.9,259.2z"/>
				</g>
				<g>
					<path class="st0" d="M107.2,241c0,2.1-1.7,3.9-3.9,3.9c-2.1,0-3.9-1.7-3.9-3.9c0-2.1,1.7-3.9,3.9-3.9
						C105.4,237.1,107.2,238.9,107.2,241z"/>
				</g>
			</g>
			<g>
				<polygon class="st7" points="74.7,334.8 73.2,340.9 79.1,342 81.5,336.6 				"/>
				<g>
					<path class="st9" d="M110.1,253.5c0,0-11.4-3.9-18,4.3c-6.7,8.2-17.8,77.6-17.8,77.6l7.6,3.2l24.6-61.6c0,0,20,11.4,22.4-4.8
						C130.8,259.2,110.1,253.5,110.1,253.5z"/>
					<path class="st11" d="M83.6,335.4c0,1.6-0.7,2.9-1.6,4.2l-9.4-3.3c0.1-1.5,0.5-2.9,1.2-4.2L83.6,335.4z"/>
				</g>
			</g>
			<g>
				<g>
					<path class="st3" d="M77.7,339.9c0,0-3.6-1.8-4.6-2c-1-0.2-9.7,5.9-12.2,5.9c-4.4-0.1-5.9,6.4-3.3,7.3
						c7.3,2.6,20.8,2.3,20.8,2.3s3-8.1,3.1-10.9C81.6,339.7,79.6,341.1,77.7,339.9z"/>
				</g>
				<g>
					<g>
						<path class="st8" d="M69.9,345.7c0.1,0.1,0.3,0.1,0.4,0c0.3-0.1,0.4-0.4,0.3-0.7c0-0.1-0.9-2.2-2.4-3.2
							c-1.9-1.3-3.7-0.4-3.8-0.4c-0.3,0.1-0.4,0.5-0.2,0.7c0.1,0.3,0.5,0.3,0.7,0.2c0,0,1.3-0.6,2.6,0.3c1.2,0.8,2,2.7,2,2.7
							C69.7,345.5,69.8,345.6,69.9,345.7z"/>
					</g>
					<g>
						<path class="st8" d="M71.7,344.4c0.1,0.1,0.3,0.1,0.4,0c0.3-0.1,0.4-0.4,0.3-0.7c0-0.1-0.9-2.2-2.4-3.2
							c-1.9-1.3-3.7-0.4-3.8-0.4c-0.3,0.1-0.4,0.5-0.2,0.7c0.1,0.3,0.5,0.3,0.7,0.2c0,0,1.3-0.6,2.6,0.3c1.2,0.8,2,2.7,2,2.7
							C71.5,344.3,71.6,344.4,71.7,344.4z"/>
					</g>
					<g>
						<path class="st8" d="M67.6,346.5c0.1,0.1,0.3,0.1,0.4,0c0.3-0.1,0.4-0.4,0.3-0.7c0-0.1-0.9-2.2-2.4-3.2
							c-1.9-1.3-3.7-0.4-3.8-0.4c-0.3,0.1-0.4,0.5-0.2,0.7c0.1,0.3,0.5,0.3,0.7,0.2c0,0,1.3-0.6,2.6,0.3c1.2,0.8,2,2.7,2,2.7
							C67.4,346.4,67.5,346.5,67.6,346.5z"/>
					</g>
				</g>
			</g>
			<g>
				<g>
					<path class="st3" d="M105.7,358c0,0,3.6-1.1,4.7-1.1c1,0,8.1,7.2,10.4,7.5c4.2,0.6,4.4,7,1.9,7.4c-7.3,1.2-20-1.3-20-1.3
						s-1.5-8.1-1.1-10.7C102.1,357.2,103.7,358.8,105.7,358z"/>
				</g>
				<g>
					<g>
						<path class="st8" d="M112,364.7c-0.1,0-0.3,0-0.4-0.1c-0.2-0.1-0.3-0.5-0.2-0.7c0-0.1,1.2-1.9,2.7-2.6c2-0.9,3.5,0.2,3.6,0.3
							c0.2,0.2,0.3,0.5,0.1,0.7c-0.2,0.2-0.5,0.3-0.7,0.1c0,0-1.1-0.8-2.5-0.2c-1.2,0.6-2.3,2.2-2.3,2.2
							C112.3,364.6,112.1,364.7,112,364.7z"/>
					</g>
					<g>
						<path class="st8" d="M110.6,363.3c-0.1,0-0.3,0-0.4-0.1c-0.2-0.1-0.3-0.5-0.2-0.7c0-0.1,1.2-1.9,2.7-2.6
							c2-0.9,3.5,0.2,3.6,0.3c0.2,0.2,0.3,0.5,0.1,0.7c-0.2,0.2-0.5,0.3-0.7,0.1c0,0-1.1-0.8-2.5-0.2c-1.2,0.6-2.3,2.2-2.3,2.2
							C110.8,363.2,110.7,363.2,110.6,363.3z"/>
					</g>
					<g>
						<path class="st8" d="M114,365.9c-0.1,0-0.3,0-0.4-0.1c-0.2-0.1-0.3-0.5-0.2-0.7c0-0.1,1.2-1.9,2.7-2.6c2-0.9,3.5,0.2,3.6,0.3
							c0.2,0.2,0.3,0.5,0.1,0.7c-0.2,0.2-0.5,0.3-0.7,0.1c0,0-1.1-0.8-2.5-0.2c-1.2,0.6-2.3,2.2-2.3,2.2
							C114.3,365.8,114.2,365.9,114,365.9z"/>
					</g>
				</g>
			</g>
			<g>
				<path class="st9" d="M115.6,154.6c0,0,5.4,8.4,4.8,17.1c-0.6,8.7,0.8,18.8-7,18.3c-7.8-0.4-21.7,3.1-26.1-3.7
					C82.9,179.5,115.6,154.6,115.6,154.6z"/>
				<path class="st15" d="M117.6,169.9c0,0,1.4,12.6-4.6,16.1c-6,3.5-10.3-0.4-10.3-0.4S115.3,168,117.6,169.9z"/>
				<g>
					<g>
						<path class="st13" d="M92.7,169.9c0,0-2.1-2.9-3.7-0.5c-1.6,2.4,0.7,9.4,4.6,7.7L92.7,169.9z"/>
						<g>
							<path class="st14" d="M92.7,174.9c-0.1,0-0.3-0.1-0.3-0.2c-0.6-2.2-2.8-3-2.9-3c-0.2-0.1-0.3-0.3-0.2-0.4
								c0.1-0.2,0.3-0.3,0.4-0.2c0.1,0,2.6,1,3.3,3.5C93.1,174.6,92.9,174.8,92.7,174.9C92.7,174.9,92.7,174.9,92.7,174.9z"/>
						</g>
						<g>
							<path class="st14" d="M90.4,173.8c-0.1,0-0.1,0-0.2-0.1c-0.2-0.1-0.2-0.3-0.1-0.5c0,0,0.4-0.6,1.2-1c0.2-0.1,0.4,0,0.4,0.2
								c0.1,0.2,0,0.4-0.2,0.4c-0.6,0.3-1,0.8-1,0.8C90.6,173.7,90.5,173.8,90.4,173.8z"/>
						</g>
					</g>
					<g>
						<path class="st13" d="M114.9,169.9c0,0,2.1-2.9,3.7-0.5c1.6,2.4-0.7,9.4-4.6,7.7L114.9,169.9z"/>
						<g>
							<path class="st14" d="M114.9,174.9c0.1,0,0.3-0.1,0.3-0.2c0.6-2.2,2.8-3,2.9-3c0.2-0.1,0.3-0.3,0.2-0.4
								c-0.1-0.2-0.3-0.3-0.4-0.2c-0.1,0-2.6,1-3.3,3.5C114.5,174.6,114.6,174.8,114.9,174.9C114.8,174.9,114.9,174.9,114.9,174.9z"
								/>
						</g>
						<g>
							<path class="st14" d="M117.2,173.8c0.1,0,0.1,0,0.2-0.1c0.2-0.1,0.2-0.3,0.1-0.5c0,0-0.4-0.6-1.2-1c-0.2-0.1-0.4,0-0.4,0.2
								c-0.1,0.2,0,0.4,0.2,0.4c0.6,0.3,1,0.8,1,0.8C116.9,173.7,117,173.8,117.2,173.8z"/>
						</g>
					</g>
					<path class="st7" d="M109.1,183v7c0,0-2.1,3.5-4.9,3.8c-2.8,0.2-5.3-3.1-5.3-3.1v-7.2L109.1,183z"/>
					<path class="st13" d="M109.1,183v3.1c-1.9,2.1-5.2,2.8-10.2,2.1l0-4.7L109.1,183z"/>
					<path class="st7" d="M116.4,165.1c-0.1,2.7-0.4,6.1-0.9,8.8c-0.1,0.7-0.3,1.3-0.4,1.9c-1.5,5.1-5.1,13.9-15.4,10.3
						c-4.5-1.6-6.6-6.7-7.6-11.8c-0.6-3.5-0.7-7-0.7-9.5c0-2.6,1.5-4.9,3.7-6.2c6.1-3.4,12.4-2.2,16.7-0.5
						C114.7,159.1,116.6,162,116.4,165.1z"/>
					<path class="st9" d="M99.3,170.9c0,0.7-0.4,1.3-0.9,1.3c-0.5,0-0.9-0.6-0.9-1.3c0-0.7,0.4-1.3,0.9-1.3
						C98.9,169.6,99.3,170.2,99.3,170.9z"/>
					<path class="st9" d="M109.8,170.9c0,0.7-0.4,1.3-0.9,1.3c-0.5,0-0.9-0.6-0.9-1.3c0-0.7,0.4-1.3,0.9-1.3
						C109.5,169.6,109.8,170.2,109.8,170.9z"/>
					<path class="st9" d="M96.7,166.5c0.7-0.2,2.1-0.5,3.7-0.5c0.4,0,0.7,0.4,0.6,0.7l0,0c-0.1,0.3-0.3,0.5-0.7,0.5
						c-1,0-3.7,0.1-5,0.6c0-0.2,0.1-0.5,0.3-0.7C95.9,166.8,96.3,166.6,96.7,166.5z"/>
					<path class="st9" d="M110.5,166.5c-0.7-0.2-2.1-0.5-3.7-0.5c-0.4,0-0.7,0.4-0.6,0.7l0,0c0.1,0.3,0.3,0.5,0.7,0.5
						c1,0,3.7,0.1,5,0.6c0-0.2-0.1-0.5-0.3-0.7C111.3,166.8,111,166.6,110.5,166.5z"/>
					<g>
						<path class="st13" d="M103.9,176.4c-0.3,0-0.5,0-0.7-0.2c-0.2-0.1-0.4-0.3-0.5-0.8c-0.1-1.2,0.2-5,0.2-5.2
							c0-0.2,0.2-0.3,0.4-0.3c0.2,0,0.3,0.2,0.3,0.4c0,0-0.3,3.9-0.2,5.1c0,0.2,0.1,0.3,0.2,0.3c0.3,0.2,1,0,1.3-0.1
							c0.2-0.1,0.4,0,0.4,0.2c0.1,0.2,0,0.4-0.2,0.4C105,176.2,104.5,176.4,103.9,176.4z"/>
					</g>
					<path class="st8" d="M99.7,178.5c0.2,1.3,1.1,3.6,3.9,3.6c2.8,0,3.6-2.1,3.9-3.6H99.7z"/>
					<g>
						<path class="st13" d="M103.5,184c-0.8,0-1.5-0.4-1.6-0.5c-0.2-0.1-0.2-0.3-0.1-0.5c0.1-0.2,0.3-0.2,0.5-0.1l0,0
							c0,0,0.6,0.4,1.2,0.4c0.7,0,1.3-0.4,1.3-0.4c0.2-0.1,0.4,0,0.5,0.1c0.1,0.2,0,0.4-0.1,0.5C105.1,183.6,104.4,184,103.5,184z"
							/>
					</g>
				</g>
				<path class="st9" d="M117.8,164.5c-0.1,0.3-0.4,0.5-0.8,0.6c0,0.7,0,1.6-0.1,2.4c-0.4,4.8-1.6,5.6-1.9,4.4
					c-0.2-0.8-0.2-5.3-0.1-6.8c-0.9-0.1-1.8-0.2-1.8-0.2l-1.1-4.6l-0.4,4.6c-1.7,0.6-5.5-0.3-5.5-0.3l-1.3-4.6l-0.8,4.4
					c-2.5,1.2-5.6,0.4-5.6,0.4l-0.7-4.7l-1.7,4.7c0,0-5.3,1.9-5.4,0c0-1.1,0.8-4.2,1.5-6.7c0.7-2.6,2.5-4.9,4.8-6.1
					c6.6-3.5,13.6-1.7,16-0.2C118,154.9,117.8,164.5,117.8,164.5z"/>
				<path class="st9" d="M93.5,154.9c0,0-4.4,5.2-5.8,14.5c-1.4,9.3-3.4,16.2,2.2,19.3c6.1,3.3,5.5-3.5,5.5-5.3
					c-0.1-1.9-5.3-6.9-1.8-21.2C94.6,157.5,93.5,154.9,93.5,154.9z"/>
				<path class="st15" d="M92.5,174.1C92.5,174.1,92.5,174.1,92.5,174.1c0,0.1,0,0.5,0,1c0,0.4,0,0.8,0.1,1.3
					c0.2,3.1,0.8,8.6,2.6,10.4c0.7,0.7,2.1,1.1,3.7,1.3v-2.5c-1.7-0.8-3-2.1-4-3.7c-0.6-1.4-1.7-3.5-2.2-6.9L92.5,174.1z"/>
				<path class="st8" d="M116.5,177.2c0,0.4-0.3,0.8-0.8,0.8c-0.4,0-0.8-0.3-0.8-0.8c0-0.4,0.3-0.8,0.8-0.8
					C116.2,176.4,116.5,176.8,116.5,177.2z"/>
			</g>
		</g>
	</g>
</g>
<g>
	<g>
		<g>
			<g>
				<path class="st4" d="M350,110.5h-19c-1.5,0-2.6-1.2-2.6-2.6v-19c0-1.5,1.2-2.6,2.6-2.6h19c1.5,0,2.6,1.2,2.6,2.6v19
					C352.6,109.3,351.4,110.5,350,110.5z"/>
			</g>
		</g>
		<g>
			<path class="st6" d="M348.8,98.3c0,2-0.7,3.8-1.9,5.3c-1.5,1.8-3.8,3-6.4,3c-2.6,0-4.9-1.2-6.4-3c-1.2-1.4-1.9-3.3-1.9-5.3
				c0-4.6,3.7-8.3,8.3-8.3C345,90,348.8,93.7,348.8,98.3z"/>
			<path class="st8" d="M346.9,103.6c-1.5,1.8-3.8,3-6.4,3c-2.6,0-4.9-1.2-6.4-3l0.1-0.2c0.2-0.4,0.4-0.7,0.7-0.9
				c0.3-0.3,0.6-0.4,1-0.6c1.3-0.4,2.6-0.8,3.3-2c-0.9-0.4-1.4-1.2-1.7-1.8c-0.9,0.2-1.6-1.5-1.1-2c0.2-0.2,0.4-0.2,0.6-0.2
				c0.2-1.8,1.6-3.3,3.4-3.3c1.8,0,3.3,1.6,3.4,3.3c0.2,0,0.4,0,0.6,0.2c0.5,0.5-0.2,2.2-1.1,2c-0.2,0.6-0.9,1.4-1.5,1.7
				c0.7,1.2,1.8,1.7,3.2,2.1c0.4,0.1,0.7,0.3,1,0.6c0.3,0.3,0.5,0.6,0.7,0.9L346.9,103.6z"/>
		</g>
	</g>
	<g>
		<g>
			<g>
				<path class="st4" d="M34.4,239.6h-19c-1.5,0-2.6-1.2-2.6-2.6v-19c0-1.5,1.2-2.6,2.6-2.6h19c1.5,0,2.6,1.2,2.6,2.6v19
					C37,238.4,35.8,239.6,34.4,239.6z"/>
			</g>
		</g>
		<path class="st8" d="M25.2,219.4c-3.1-0.2-5.7,2.3-5.7,5.3c0,1,0.3,1.9,0.7,2.7c0.7,1.2,1.4,2.4,2.1,3.6l2.5,4.5l3.8-6.9
			c0.2-0.4,0.5-0.8,0.7-1.2c0.5-0.8,0.8-1.8,0.7-2.8C30.1,221.9,27.9,219.6,25.2,219.4z M24.9,226.3c-1.2,0-2.2-1-2.2-2.2
			s1-2.2,2.2-2.2c1.2,0,2.2,1,2.2,2.2S26.1,226.3,24.9,226.3z"/>
	</g>
	<g>
		<g>
			<g>
				<g>
					<path class="st3" d="M433.5,118.5c3,0,5.4,2.4,5.4,5.4c0,3-2.4,5.4-5.4,5.4c-3,0-5.4-2.4-5.4-5.4
						C428.1,120.9,430.5,118.5,433.5,118.5z M433.5,127.6c2.1,0,3.7-1.7,3.7-3.7s-1.7-3.7-3.7-3.7c-2.1,0-3.7,1.7-3.7,3.7
						S431.4,127.6,433.5,127.6z"/>
				</g>
			</g>
		</g>
		<g>
			<path class="st4" d="M414,99.4c3,0,5.4,2.4,5.4,5.4c0,3-2.4,5.4-5.4,5.4c-3,0-5.4-2.4-5.4-5.4C408.6,101.9,411,99.4,414,99.4z
				 M414,108.6c2.1,0,3.7-1.7,3.7-3.7c0-2.1-1.7-3.7-3.7-3.7c-2.1,0-3.7,1.7-3.7,3.7C410.3,106.9,411.9,108.6,414,108.6z"/>
		</g>
		<g>
			<g>
				<g>
					<g>
						<path class="st3" d="M407.3,81.8c0.5,0,0.9,0.4,0.9,0.9v3.8c0,0.5-0.4,0.9-0.9,0.9c-0.5,0-0.9-0.4-0.9-0.9v-3.8
							C406.4,82.2,406.8,81.8,407.3,81.8z"/>
					</g>
				</g>
				<g>
					<g>
						<path class="st3" d="M407.3,75.2c0.5,0,0.9,0.4,0.9,0.9v3.8c0,0.5-0.4,0.9-0.9,0.9c-0.5,0-0.9-0.4-0.9-0.9v-3.8
							C406.4,75.6,406.8,75.2,407.3,75.2z"/>
					</g>
				</g>
			</g>
			<g>
				<g>
					<g>
						<path class="st3" d="M402,80.4h3.4c0.5,0,0.9,0.4,0.9,0.9s-0.4,0.9-0.9,0.9H402c-0.5,0-0.9-0.4-0.9-0.9S401.5,80.4,402,80.4z"
							/>
					</g>
				</g>
				<g>
					<g>
						<path class="st3" d="M409.2,80.4h3.4c0.5,0,0.9,0.4,0.9,0.9s-0.4,0.9-0.9,0.9h-3.4c-0.5,0-0.9-0.4-0.9-0.9
							S408.7,80.4,409.2,80.4z"/>
					</g>
				</g>
			</g>
		</g>
		<g>
			<g>
				<g>
					<g>
						<g>
							<path class="st4" d="M437.2,102.8c0.5,0,0.9,0.4,0.9,0.9v3.8c0,0.5-0.4,0.9-0.9,0.9c-0.5,0-0.9-0.4-0.9-0.9v-3.8
								C436.4,103.2,436.8,102.8,437.2,102.8z"/>
						</g>
					</g>
					<g>
						<g>
							<path class="st4" d="M437.2,96.3c0.5,0,0.9,0.4,0.9,0.9v3.8c0,0.5-0.4,0.9-0.9,0.9c-0.5,0-0.9-0.4-0.9-0.9v-3.8
								C436.4,96.6,436.8,96.3,437.2,96.3z"/>
						</g>
					</g>
				</g>
				<g>
					<g>
						<g>
							<path class="st4" d="M432,101.4h3.4c0.5,0,0.9,0.4,0.9,0.9s-0.4,0.9-0.9,0.9H432c-0.5,0-0.9-0.4-0.9-0.9
								S431.5,101.4,432,101.4z"/>
						</g>
					</g>
					<g>
						<g>
							<path class="st4" d="M439.1,101.4h3.4c0.5,0,0.9,0.4,0.9,0.9s-0.4,0.9-0.9,0.9h-3.4c-0.5,0-0.9-0.4-0.9-0.9
								S438.6,101.4,439.1,101.4z"/>
						</g>
					</g>
				</g>
			</g>
		</g>
	</g>
	<g>
		<g>
			<g>
				<g>
					<path class="st3" d="M97.7,49.2c3,0,5.4,2.4,5.4,5.4s-2.4,5.4-5.4,5.4s-5.4-2.4-5.4-5.4S94.7,49.2,97.7,49.2z M97.7,50.9
						c-2.1,0-3.7,1.7-3.7,3.7c0,2.1,1.7,3.7,3.7,3.7s3.7-1.7,3.7-3.7C101.4,52.6,99.7,50.9,97.7,50.9z"/>
				</g>
			</g>
		</g>
		<g>
			<g>
				<g>
					<g>
						<path class="st4" d="M77.9,31.3c3,0,5.4,2.4,5.4,5.4c0,3-2.4,5.4-5.4,5.4c-3,0-5.4-2.4-5.4-5.4C72.5,33.7,75,31.3,77.9,31.3z
							 M77.9,33c-2.1,0-3.7,1.7-3.7,3.7c0,2.1,1.7,3.7,3.7,3.7s3.7-1.7,3.7-3.7C81.7,34.7,80,33,77.9,33z"/>
					</g>
				</g>
			</g>
		</g>
		<g>
			<g>
				<g>
					<g>
						<path class="st3" d="M70.8,62.3c0,0.5,0.4,0.9,0.9,0.9h3.8c0.5,0,0.9-0.4,0.9-0.9c0-0.5-0.4-0.9-0.9-0.9h-3.8
							C71.2,61.4,70.8,61.8,70.8,62.3z"/>
					</g>
				</g>
				<g>
					<g>
						<path class="st3" d="M64.2,62.3c0,0.5,0.4,0.9,0.9,0.9h3.8c0.5,0,0.9-0.4,0.9-0.9c0-0.5-0.4-0.9-0.9-0.9h-3.8
							C64.6,61.4,64.2,61.8,64.2,62.3z"/>
					</g>
				</g>
			</g>
			<g>
				<g>
					<g>
						<path class="st3" d="M69.4,57v3.4c0,0.5,0.4,0.9,0.9,0.9c0.5,0,0.9-0.4,0.9-0.9V57c0-0.5-0.4-0.9-0.9-0.9
							C69.8,56.2,69.4,56.6,69.4,57z"/>
					</g>
				</g>
				<g>
					<g>
						<path class="st3" d="M69.4,64.2v3.4c0,0.5,0.4,0.9,0.9,0.9c0.5,0,0.9-0.4,0.9-0.9v-3.4c0-0.5-0.4-0.9-0.9-0.9
							C69.8,63.3,69.4,63.7,69.4,64.2z"/>
					</g>
				</g>
			</g>
		</g>
		<g>
			<g>
				<g>
					<g>
						<g>
							<path class="st4" d="M110.5,33c0,0.5,0.4,0.9,0.9,0.9h3.8c0.5,0,0.9-0.4,0.9-0.9c0-0.5-0.4-0.9-0.9-0.9h-3.8
								C110.9,32.2,110.5,32.5,110.5,33z"/>
						</g>
					</g>
					<g>
						<g>
							<g>
								<path class="st4" d="M103.9,33c0,0.5,0.4,0.9,0.9,0.9h3.8c0.5,0,0.9-0.4,0.9-0.9c0-0.5-0.4-0.9-0.9-0.9h-3.8
									C104.3,32.2,103.9,32.5,103.9,33z"/>
							</g>
						</g>
					</g>
				</g>
				<g>
					<g>
						<g>
							<path class="st4" d="M109.1,27.7v3.4c0,0.5,0.4,0.9,0.9,0.9s0.9-0.4,0.9-0.9v-3.4c0-0.5-0.4-0.9-0.9-0.9
								S109.1,27.3,109.1,27.7z"/>
						</g>
					</g>
					<g>
						<g>
							<path class="st4" d="M109.1,34.9v3.4c0,0.5,0.4,0.9,0.9,0.9s0.9-0.4,0.9-0.9v-3.4c0-0.5-0.4-0.9-0.9-0.9
								S109.1,34.4,109.1,34.9z"/>
						</g>
					</g>
				</g>
			</g>
		</g>
	</g>
	<g>
		<g>
			<g>
				<g>
					<path class="st0" d="M336.6,59.2c0.1,0,0.2,0,0.4,0c1.3-0.3,2-0.4,2-0.4c0.4-0.1,0.6-0.4,0.6-0.8c-0.1-0.4-0.4-0.6-0.8-0.5
						c0,0-0.8,0.1-2.1,0.5c-0.4,0.1-0.6,0.5-0.5,0.8C336.2,58.9,336.4,59.1,336.6,59.2z"/>
				</g>
			</g>
			<g>
				<g>
					<path class="st0" d="M294.9,90c-0.7,1.1-1.3,2.3-1.9,3.5c-0.1,0.3-0.5,0.4-0.8,0.4c0,0-0.1,0-0.1,0c-0.4-0.2-0.5-0.6-0.3-0.9
						c0.6-1.2,1.3-2.4,2-3.6c0.2-0.3,0.6-0.4,1-0.3C295,89.3,295.1,89.7,294.9,90z"/>
				</g>
				<g>
					<path class="st0" d="M291.3,97.2c-0.5,1.2-1,2.5-1.5,3.7c-0.1,0.3-0.5,0.5-0.9,0.4c0,0,0,0-0.1,0c-0.4-0.1-0.6-0.5-0.4-0.9
						c0.5-1.3,1-2.6,1.5-3.8c0.1-0.3,0.6-0.5,0.9-0.4C291.3,96.5,291.5,96.9,291.3,97.2z"/>
				</g>
				<g>
					<path class="st0" d="M285.3,116.9c-0.3-0.1-0.6-0.4-0.5-0.7c0.2-1.3,0.4-2.7,0.6-4c0.1-0.4,0.4-0.6,0.8-0.5
						c0.4,0.1,0.7,0.4,0.6,0.8c-0.2,1.3-0.5,2.6-0.6,3.9C286.1,116.7,285.7,117,285.3,116.9C285.3,116.9,285.3,116.9,285.3,116.9z"
						/>
				</g>
				<g>
					<path class="st0" d="M288.1,103.9c0.4,0.1,0.6,0.5,0.5,0.8c-0.2,0.6-0.3,1.2-0.5,1.8c-0.2,0.7-0.4,1.4-0.5,2.1
						c-0.1,0.4-0.5,0.6-0.9,0.5c0,0,0,0,0,0c-0.4-0.1-0.6-0.4-0.5-0.8c0.2-0.7,0.3-1.4,0.5-2.1c0.2-0.6,0.3-1.2,0.5-1.8
						C287.4,104,287.7,103.8,288.1,103.9C288.1,103.9,288.1,103.9,288.1,103.9z"/>
				</g>
				<g>
					<path class="st0" d="M297.1,86.6c-0.2,0.3-0.5,0.4-0.8,0.3c-0.1,0-0.1,0-0.2-0.1c-0.3-0.2-0.4-0.6-0.2-0.9
						c0.8-1.1,1.6-2.3,2.4-3.3c0.2-0.3,0.7-0.4,1-0.2c0.3,0.2,0.4,0.6,0.2,0.9C298.6,84.4,297.8,85.5,297.1,86.6z"/>
				</g>
				<g>
					<path class="st0" d="M332.9,60.3c-1.3,0.4-2.6,0.9-3.9,1.4c-0.1,0.1-0.3,0.1-0.4,0c-0.2-0.1-0.4-0.2-0.5-0.4
						c-0.2-0.3,0-0.7,0.4-0.9c1.3-0.5,2.7-1,4-1.4c0.4-0.1,0.8,0.1,0.9,0.4C333.5,59.8,333.3,60.2,332.9,60.3z"/>
				</g>
				<g>
					<path class="st0" d="M321.4,65.2c-0.2,0.1-0.4,0.1-0.5,0.1c-0.2,0-0.4-0.2-0.5-0.3c-0.2-0.3-0.1-0.7,0.3-0.9
						c1.2-0.7,2.5-1.3,3.8-1.9c0.4-0.2,0.8,0,1,0.3c0.2,0.3,0,0.7-0.3,0.9C323.9,63.9,322.6,64.5,321.4,65.2z"/>
				</g>
				<g>
					<path class="st0" d="M307.8,74.5c-0.2,0.2-0.4,0.2-0.7,0.2c-0.1,0-0.2-0.1-0.3-0.2c-0.3-0.3-0.3-0.7,0-1c1-0.9,2.1-1.8,3.2-2.7
						c0.3-0.2,0.8-0.2,1,0.1c0.3,0.3,0.2,0.7-0.1,0.9C309.9,72.7,308.8,73.6,307.8,74.5z"/>
				</g>
				<g>
					<path class="st0" d="M314.3,69.4c-0.2,0.1-0.4,0.2-0.6,0.1c-0.2,0-0.3-0.1-0.4-0.3c-0.2-0.3-0.2-0.7,0.2-0.9
						c1.2-0.8,2.3-1.6,3.6-2.3c0.3-0.2,0.8-0.1,1,0.2c0.2,0.3,0.1,0.7-0.2,0.9C316.6,67.9,315.4,68.7,314.3,69.4z"/>
				</g>
				<g>
					<path class="st0" d="M302,80.2c-0.2,0.2-0.5,0.3-0.7,0.2c-0.1,0-0.2-0.1-0.3-0.1c-0.3-0.2-0.3-0.7-0.1-0.9c0.9-1,1.9-2.1,2.8-3
						c0.3-0.3,0.7-0.3,1,0c0.3,0.3,0.3,0.7,0,1C303.9,78.2,302.9,79.2,302,80.2z"/>
				</g>
			</g>
		</g>
		<g>
			<g>
				<g>
					<polygon class="st3" points="337.3,54.6 335.9,43.4 373.9,48.8 					"/>
				</g>
				<g>
					<polygon class="st1" points="373.9,48.8 338.8,57.5 338.7,57.5 336.9,59.5 337.3,54.6 					"/>
				</g>
				<g>
					<polygon class="st2" points="336.9,59.5 340.1,59.5 338.7,57.5 					"/>
				</g>
				<g>
					<polygon class="st3" points="343.1,56.4 338.7,57.5 345.9,67.7 373.9,48.8 					"/>
				</g>
			</g>
		</g>
	</g>
</g>
</svg>
