<?xml version="1.0" encoding="utf-8"?>
<!-- Generator: Adobe Illustrator 24.3.0, SVG Export Plug-In . SVG Version: 6.00 Build 0)  -->
<svg version="1.1" id="Layer_1" xmlns="http://www.w3.org/2000/svg" xmlns:xlink="http://www.w3.org/1999/xlink" x="0px" y="0px"
	 viewBox="0 0 431 446" style="enable-background:new 0 0 431 446;" xml:space="preserve">
<style type="text/css">
	.st0{fill:#F5F5F5;}
	.st1{fill:#E0E0E0;}
	.st2{fill:#37474F;}
	.st3{fill:#455B64;}
	.st4{fill:#263238;}
	.st5{fill:#AB6CAD;}
	.st6{opacity:0.5;}
	.st7{opacity:0.3;}
	.st8{opacity:0.2;fill:#FFFFFF;}
	.st9{opacity:0.2;}
	.st10{fill:#FFFFFF;}
	.st11{opacity:0.4;}
	.st12{fill:#945A59;}
	.st13{fill:#FAFBFB;}
	.st14{fill:#EBEBEB;}
	.st15{opacity:0.3;fill:#FFFFFF;}
	.st16{fill:#713939;}
	.st17{fill:#253239;}
	.st18{fill:#E6E6E6;}
</style>
<ellipse class="st0" cx="220" cy="322.1" rx="205.9" ry="118.9"/>
<ellipse class="st1" cx="187.3" cy="335.8" rx="48.3" ry="27.9"/>
<ellipse class="st1" cx="269.2" cy="355.9" rx="58.5" ry="33.8"/>
<g>
	<g>
		<g>
			<path class="st2" d="M199,326c6.5,3.7,6.5,9.8,0,13.5c-6.5,3.7-17,3.7-23.4,0c-6.5-3.7-6.5-9.8,0-13.5
				C182.1,322.2,192.6,322.2,199,326z"/>
			<rect x="170.7" y="325.2" class="st2" width="33.1" height="7.6"/>
		</g>
		<path class="st3" d="M199,318.4c6.5,3.7,6.5,9.8,0,13.5c-6.5,3.7-17,3.7-23.4,0c-6.5-3.7-6.5-9.8,0-13.5
			C182.1,314.7,192.6,314.7,199,318.4z"/>
	</g>
	<g>
		<path class="st4" d="M192.8,320.1c3,1.8,3,4.6,0,6.4c-3,1.8-8,1.8-11,0c-3-1.8-3-4.6,0-6.4C184.8,318.4,189.8,318.4,192.8,320.1z"
			/>
		<rect x="179.5" y="180.4" class="st4" width="15.6" height="142.9"/>
	</g>
	<g>
		<g>
			<polygon class="st5" points="112.2,178.8 112.2,127.2 166.9,95.9 171.8,143.6 			"/>
			<polygon class="st6" points="112.2,178.8 112.2,127.2 166.9,95.9 171.8,143.6 			"/>
			<polygon class="st5" points="112.2,178.8 171.8,143.6 171.8,199.9 159.5,206.1 			"/>
			<polygon class="st7" points="112.2,178.8 171.8,143.6 171.8,199.9 159.5,206.1 			"/>
			<g>
				<path class="st5" d="M251.1,114.4l-5.7,3.1L211,136.4l-6.2,3.4l-43,23.6c-2.7-4.6-9.8-26.1-13.6-30c-3.8-3.9-7.9-7.3-12.3-9.8
					c-5.4-3.1-10.5-4.6-14.8-4.6c-2.8,0-5.3,0.6-7.4,1.8l85-49.1l0,0l1.7-1l0,0c0.2-0.1,0.5-0.2,0.7-0.3c0.3-0.1,0.5-0.2,0.8-0.3
					c0,0,0,0,0.1,0c0.3-0.1,0.5-0.2,0.8-0.2c0.3-0.1,0.6-0.1,0.8-0.2c0.2-0.1,0.4-0.1,0.7-0.1c0.1,0,0.2,0,0.4-0.1
					c0.4-0.1,0.8-0.1,1.2-0.1c0.2,0,0.3,0,0.5,0c0.3,0,0.5,0,0.8,0c2.2,0,4.5,0.4,7,1.1c2.5,0.8,5.1,1.9,7.8,3.5
					c0.1,0.1,0.3,0.2,0.4,0.3C236.6,82.4,248.4,99.4,251.1,114.4z"/>
				<path class="st5" d="M113.6,120.7L113.6,120.7L113.6,120.7C113.5,120.7,113.6,120.7,113.6,120.7z"/>
			</g>
			<g class="st7">
				<path d="M251.1,114.4l-5.7,3.1L211,136.4l-6.2,3.4l-43,23.6c-2.7-4.6-9.8-26.1-13.6-30c-3.8-3.9-7.9-7.3-12.3-9.8
					c-5.4-3.1-10.5-4.6-14.8-4.6c-2.8,0-5.3,0.6-7.4,1.8l85-49.1l0,0l1.7-1l0,0c0.2-0.1,0.5-0.2,0.7-0.3c0.3-0.1,0.5-0.2,0.8-0.3
					c0,0,0,0,0.1,0c0.3-0.1,0.5-0.2,0.8-0.2c0.3-0.1,0.6-0.1,0.8-0.2c0.2-0.1,0.4-0.1,0.7-0.1c0.1,0,0.2,0,0.4-0.1
					c0.4-0.1,0.8-0.1,1.2-0.1c0.2,0,0.3,0,0.5,0c0.3,0,0.5,0,0.8,0c2.2,0,4.5,0.4,7,1.1c2.5,0.8,5.1,1.9,7.8,3.5
					c0.1,0.1,0.3,0.2,0.4,0.3C236.6,82.4,248.4,99.4,251.1,114.4z"/>
				<path d="M113.6,120.7L113.6,120.7L113.6,120.7C113.5,120.7,113.6,120.7,113.6,120.7z"/>
			</g>
			<g>
				<path class="st5" d="M244.1,96.5L244.1,96.5c0.1,0.1,0.1,0.3,0.2,0.4C244.3,96.8,244.2,96.7,244.1,96.5z"/>
				<path class="st5" d="M248.7,105.9c1.1,2.9,1.9,5.7,2.4,8.5l-5.7,3.1L211,136.4l-6.2,3.4l-43,23.6c0,0,0,0,0,0l0,0l3.8,53.3
					l86.1-49.8v-46.2C251.6,116,250.6,110.9,248.7,105.9z"/>
				<path class="st5" d="M247.4,102.8c-0.4-0.8-0.7-1.6-1.2-2.4C246.6,101.2,247,102,247.4,102.8z"/>
				<path class="st5" d="M244.7,97.6c0.4,0.7,0.8,1.5,1.2,2.3C245.6,99.1,245.2,98.3,244.7,97.6z"/>
				<path class="st5" d="M248.6,105.8c-0.3-0.9-0.7-1.8-1.1-2.6C247.9,104.1,248.3,104.9,248.6,105.8z"/>
			</g>
			<g class="st6">
				<path d="M244.1,96.5L244.1,96.5c0.1,0.1,0.1,0.3,0.2,0.4C244.3,96.8,244.2,96.7,244.1,96.5z"/>
				<path d="M248.7,105.9c1.1,2.9,1.9,5.7,2.4,8.5l-5.7,3.1L211,136.4l-6.2,3.4l-43,23.6c0,0,0,0,0,0l0,0l3.8,53.3l86.1-49.8v-46.2
					C251.6,116,250.6,110.9,248.7,105.9z"/>
				<path d="M247.4,102.8c-0.4-0.8-0.7-1.6-1.2-2.4C246.6,101.2,247,102,247.4,102.8z"/>
				<path d="M244.7,97.6c0.4,0.7,0.8,1.5,1.2,2.3C245.6,99.1,245.2,98.3,244.7,97.6z"/>
				<path d="M248.6,105.8c-0.3-0.9-0.7-1.8-1.1-2.6C247.9,104.1,248.3,104.9,248.6,105.8z"/>
			</g>
			<path class="st5" d="M161.8,163.4"/>
			<path class="st5" d="M121,125c3.4,0,7.5,1.3,11.8,3.8c14.5,8.3,26.7,27.4,26.7,41.6v35.8l-47.3-27.3v-42.7
				C112.2,126.9,117,125,121,125 M121,118.9c-8.9,0-14.9,6.2-14.9,17.2v46.2l59.4,34.3v-46.2c0-16.4-13.3-37.4-29.7-46.9v0
				C130.4,120.4,125.3,118.9,121,118.9L121,118.9z"/>
		</g>
		<g>
			<path class="st5" d="M106.1,182.3l-32,17.7c-13.9,7.7-14.1,27.6-0.4,35.6l0,0c18.1,10.5,40.5,10.5,58.6,0l33.2-18.9L106.1,182.3z
				"/>
			<path class="st8" d="M106.1,182.3l-32,17.7c-13.9,7.7-14.1,27.6-0.4,35.6l0,0c18.1,10.5,40.5,10.5,58.6,0l33.2-18.9L106.1,182.3z
				"/>
		</g>
	</g>
	<g>
		<g>
			<polygon class="st1" points="185.3,202.5 178.7,206.4 178.7,141.9 185.3,138.1 			"/>
			<polygon class="st1" points="197.9,143.7 178.7,154.8 178.7,141.9 197.9,130.8 			"/>
		</g>
		<g>
			<path class="st5" d="M188.2,200.3c0,4-2.8,8.9-6.3,10.8c-3.5,2-6.3,0.4-6.3-3.6c0-4,2.8-8.9,6.3-10.8
				C185.4,194.7,188.2,196.3,188.2,200.3z"/>
			<path class="st9" d="M188.2,200.3c0,4-2.8,8.9-6.3,10.8c-3.5,2-6.3,0.4-6.3-3.6c0-4,2.8-8.9,6.3-10.8
				C185.4,194.7,188.2,196.3,188.2,200.3z"/>
			<path class="st5" d="M190.3,201.5c0,4-2.8,8.9-6.3,10.8c-3.5,2-6.3,0.4-6.3-3.6c0-4,2.8-8.9,6.3-10.8
				C187.5,195.9,190.3,197.5,190.3,201.5z"/>
		</g>
	</g>
</g>
<g>
	<g>
		<path class="st5" d="M330.2,307.6l11.1,6.4c0,0-5.6-17.9-2.5-35.8c1.2-6.8,3.6-10.1,4.5-12c0.9-1.8,7.6-13,1.7-18.2
			c-5.9-5.2-19.7,5.1-19.1,32.8C326.2,295.1,330.2,307.6,330.2,307.6z"/>
		<path class="st7" d="M330.2,307.6l11.1,6.4c0,0-5.6-17.9-2.5-35.8c1.2-6.8,3.6-10.1,4.5-12c0.9-1.8,7.6-13,1.7-18.2
			c-5.9-5.2-19.7,5.1-19.1,32.8C326.2,295.1,330.2,307.6,330.2,307.6z"/>
		<path class="st10" d="M335.4,311.1c-0.2,0-0.4-0.1-0.5-0.3c0-0.1-4.2-11.8-4-30.4c0.2-18.8,10.1-28.8,10.2-28.9
			c0.2-0.2,0.5-0.2,0.7,0c0.2,0.2,0.2,0.5,0,0.7c-0.1,0.1-9.7,9.8-9.9,28.2c-0.2,18.5,3.9,29.9,4,30.1c0.1,0.3,0,0.5-0.3,0.6
			C335.5,311.1,335.4,311.1,335.4,311.1z"/>
	</g>
	<g>
		<path class="st5" d="M338.8,312.6l18.3,10.8c0,0,8.4-1.2,7.7-9.1c-0.6-7.9-4-9.8,0.2-13.2c4.2-3.5,5.3-3.7,5.1-7.1
			c-0.2-3.4-2.5-4.9-3.6-6.2c-1.1-1.3-4.1-4.2-2-8.3c2.1-4.1,5-8.1,0.7-9.9c-2.5-1.1-6.8,0.3-9.6,3.3c-2.8,3-5.2,5.2-7.8,5.9
			c-2.7,0.7-8.3,0.8-8.1,5.4c0.2,4.6,1.4,6.2,0.3,8.3C338,296.1,329,298.2,338.8,312.6z"/>
		<path class="st10" d="M346.3,317.5c-0.3,0-0.5-0.2-0.5-0.5c0-0.3-2-27.6,17-45.5c0.2-0.2,0.5-0.2,0.7,0c0.2,0.2,0.2,0.5,0,0.7
			c-18.6,17.6-16.7,44.4-16.6,44.7C346.8,317.3,346.6,317.5,346.3,317.5C346.3,317.5,346.3,317.5,346.3,317.5z"/>
		<path class="st10" d="M349.5,294.1c-0.3,0-0.5-0.2-0.5-0.5c-0.5-7.2-5.5-10.9-5.6-10.9c-0.2-0.2-0.3-0.5-0.1-0.7
			c0.2-0.2,0.5-0.3,0.7-0.1c0.2,0.2,5.4,4,6,11.6C350.1,293.9,349.8,294.1,349.5,294.1C349.6,294.1,349.6,294.1,349.5,294.1z"/>
		<path class="st10" d="M348.2,298.8c-0.1,0-0.2,0-0.3-0.1c-0.2-0.2-0.2-0.5,0-0.7c0.2-0.2,5-5.4,16-3.9c0.3,0,0.5,0.3,0.4,0.6
			c0,0.3-0.3,0.5-0.6,0.4c-10.5-1.4-15.1,3.5-15.1,3.5C348.5,298.7,348.3,298.8,348.2,298.8z"/>
	</g>
</g>
<g>
	<path class="st4" d="M128.6,152.1c-0.9,0-1.8,0-2.6-0.1c-0.5,0-0.9-0.5-0.8-1c0-0.5,0.5-0.9,1-0.8c1.2,0.1,2.3,0.1,3.5,0.1
		c0.5,0,0.9,0.4,0.9,0.9c0,0.5-0.4,0.9-0.9,0.9C129.3,152.1,129,152.1,128.6,152.1z M133.3,151.7c-0.4,0-0.8-0.3-0.9-0.8
		c-0.1-0.5,0.3-1,0.7-1c1.2-0.2,2.3-0.5,3.4-0.8c0.5-0.1,1,0.1,1.1,0.6c0.1,0.5-0.1,1-0.6,1.1c-1.2,0.4-2.4,0.6-3.6,0.9
		C133.4,151.7,133.3,151.7,133.3,151.7z M122.5,151.4c-0.1,0-0.1,0-0.2,0c-1.2-0.2-2.4-0.6-3.6-1c-0.5-0.2-0.7-0.7-0.6-1.1
		c0.2-0.5,0.7-0.7,1.1-0.6c1.1,0.4,2.2,0.7,3.4,0.9c0.5,0.1,0.8,0.6,0.7,1.1C123.3,151.2,122.9,151.4,122.5,151.4z M140.1,149.6
		c-0.3,0-0.7-0.2-0.8-0.5c-0.2-0.5,0-1,0.4-1.2c0.2-0.1,0.4-0.2,0.6-0.3c0.4-0.2,1,0,1.2,0.4c0.2,0.4,0,1-0.4,1.2
		c-0.2,0.1-0.4,0.2-0.7,0.3C140.4,149.5,140.3,149.6,140.1,149.6z M115.6,149.2c-0.1,0-0.3,0-0.4-0.1c-1.1-0.5-2.2-1.1-3.3-1.7
		c-0.4-0.3-0.6-0.8-0.3-1.2c0.3-0.4,0.8-0.6,1.2-0.3c1,0.6,2,1.2,3.1,1.7c0.5,0.2,0.6,0.7,0.4,1.2C116.3,149,116,149.2,115.6,149.2z
		 M109.5,145.5c-0.2,0-0.4-0.1-0.5-0.2c-1-0.7-1.9-1.5-2.8-2.4c-0.4-0.3-0.4-0.9-0.1-1.3c0.3-0.4,0.9-0.4,1.3-0.1
		c0.9,0.8,1.8,1.6,2.7,2.3c0.4,0.3,0.5,0.9,0.2,1.3C110,145.3,109.7,145.5,109.5,145.5z M104.1,140.6c-0.2,0-0.5-0.1-0.7-0.3
		c-0.8-0.9-1.6-1.8-2.4-2.8c-0.3-0.4-0.2-1,0.2-1.3c0.4-0.3,1-0.2,1.3,0.2c0.7,0.9,1.5,1.9,2.3,2.7c0.3,0.4,0.3,0.9-0.1,1.3
		C104.6,140.5,104.3,140.6,104.1,140.6z M99.7,134.9c-0.3,0-0.6-0.1-0.8-0.4c-0.4-0.6-0.8-1.2-1.1-1.9c-0.3-0.4-0.5-0.9-0.7-1.3
		c-0.2-0.4-0.1-1,0.4-1.2c0.4-0.2,1-0.1,1.2,0.4c0.2,0.4,0.5,0.8,0.7,1.3c0.3,0.6,0.7,1.2,1.1,1.8c0.3,0.4,0.1,1-0.3,1.2
		C100.1,134.8,99.9,134.9,99.7,134.9z M96.3,128.5c-0.4,0-0.7-0.2-0.8-0.5c-0.5-1.1-0.9-2.3-1.3-3.5c-0.2-0.5,0.1-1,0.6-1.1
		c0.5-0.2,1,0.1,1.1,0.6c0.4,1.1,0.8,2.2,1.2,3.3c0.2,0.5,0,1-0.5,1.2C96.6,128.5,96.5,128.5,96.3,128.5z M94.1,121.6
		c-0.4,0-0.8-0.3-0.9-0.7c-0.3-1.2-0.5-2.5-0.6-3.7c-0.1-0.5,0.3-0.9,0.8-1c0.1,0,0.3,0,0.4,0c0.1-0.2,0.4-0.4,0.7-0.4
		c1.2-0.2,2.3-0.4,3.4-0.7c0.5-0.1,1,0.1,1.1,0.6c0.1,0.5-0.1,1-0.6,1.1c-1.2,0.4-2.4,0.6-3.7,0.8c-0.1,0-0.2,0-0.2,0
		c0.1,1,0.3,1.9,0.5,2.9c0.1,0.5-0.2,1-0.7,1.1C94.3,121.6,94.2,121.6,94.1,121.6z M91,117.9C91,117.9,91,117.9,91,117.9
		c-1.2,0-2.5-0.1-3.7-0.3c-0.5-0.1-0.8-0.5-0.8-1c0.1-0.5,0.5-0.8,1-0.8c1.2,0.2,2.3,0.3,3.5,0.3c0.5,0,0.9,0.4,0.9,0.9
		C91.9,117.5,91.5,117.9,91,117.9z M83.9,116.8c-0.1,0-0.2,0-0.2,0c-1.2-0.3-2.4-0.8-3.5-1.2c-0.5-0.2-0.7-0.7-0.5-1.2
		c0.2-0.5,0.7-0.7,1.2-0.5c1.1,0.5,2.2,0.9,3.3,1.2c0.5,0.1,0.8,0.6,0.6,1.1C84.7,116.5,84.3,116.8,83.9,116.8z M101.5,115.5
		c-0.3,0-0.6-0.2-0.8-0.5c-0.2-0.4-0.1-1,0.4-1.2c1.1-0.6,2-1.2,2.8-1.9c0.4-0.3,0.9-0.3,1.3,0.1c0.3,0.4,0.3,0.9-0.1,1.3
		c-0.9,0.8-2,1.5-3.2,2.1C101.8,115.5,101.7,115.5,101.5,115.5z M93.4,114.4C93.4,114.4,93.4,114.4,93.4,114.4
		c-0.5,0-0.9-0.4-0.9-0.9c0-1.3,0.1-2.5,0.3-3.7c0.1-0.5,0.5-0.8,1-0.8c0.5,0.1,0.8,0.5,0.8,1c-0.2,1.1-0.3,2.3-0.3,3.5
		C94.3,114,93.9,114.4,93.4,114.4z M77.3,114c-0.2,0-0.3,0-0.5-0.1c-1.1-0.6-2.1-1.3-3.1-2.1c-0.4-0.3-0.5-0.9-0.2-1.3
		c0.3-0.4,0.9-0.5,1.3-0.2c0.9,0.7,1.9,1.3,2.9,1.9c0.4,0.2,0.6,0.8,0.3,1.2C77.9,113.8,77.6,114,77.3,114z M106.8,110.8
		c-0.2,0-0.3,0-0.5-0.1c-0.4-0.3-0.6-0.8-0.3-1.2c0.3-0.5,0.5-0.9,0.7-1.4c0.2-0.5,0.3-1,0.3-1.6c0-0.5,0.4-0.9,1-0.8
		c0.5,0,0.9,0.5,0.8,1c-0.1,0.7-0.2,1.4-0.4,2.1c-0.2,0.6-0.5,1.2-0.8,1.7C107.5,110.6,107.2,110.8,106.8,110.8z M71.5,109.6
		c-0.2,0-0.5-0.1-0.6-0.3c-0.2-0.2-0.4-0.4-0.6-0.6c-0.7-0.7-1.3-1.4-1.9-2.1c-0.3-0.4-0.3-1,0.1-1.3c0.4-0.3,1-0.3,1.3,0.1
		c0.6,0.7,1.2,1.4,1.8,2c0.2,0.2,0.4,0.4,0.6,0.6c0.4,0.3,0.4,0.9,0,1.3C72,109.5,71.8,109.6,71.5,109.6z M94.5,107.3
		c-0.1,0-0.2,0-0.3,0c-0.5-0.1-0.7-0.7-0.6-1.1c0.4-1.3,0.9-2.5,1.6-3.5c0.3-0.4,0.8-0.5,1.2-0.3c0.4,0.3,0.5,0.8,0.3,1.2
		c-0.5,0.9-1,1.9-1.4,3.1C95.2,107.1,94.8,107.3,94.5,107.3z M67,104.1c-0.3,0-0.6-0.1-0.8-0.4c-0.7-1-1.3-2.1-1.9-3.2
		c-0.2-0.4-0.1-1,0.4-1.2c0.4-0.2,1-0.1,1.2,0.4c0.5,1.1,1.1,2.1,1.8,3c0.3,0.4,0.2,1-0.3,1.2C67.3,104,67.1,104.1,67,104.1z
		 M107.4,103.8c-0.4,0-0.7-0.2-0.8-0.6c-0.4-1-1.1-1.9-1.9-2.4c-0.4-0.3-0.5-0.8-0.2-1.3c0.3-0.4,0.8-0.5,1.3-0.2
		c1.1,0.7,2,1.8,2.5,3.2c0.2,0.5,0,1-0.5,1.2C107.6,103.8,107.5,103.8,107.4,103.8z M98.4,101.4c-0.3,0-0.6-0.1-0.7-0.4
		c-0.3-0.4-0.2-1,0.2-1.3c1.2-0.8,2.5-1.3,3.8-1.4c0.5-0.1,0.9,0.3,1,0.8c0,0.5-0.3,0.9-0.8,1c-1,0.1-2,0.5-2.9,1.1
		C98.7,101.4,98.6,101.4,98.4,101.4z M63.7,97.6c-0.4,0-0.7-0.2-0.8-0.6c-0.4-1.1-0.9-2.3-1.2-3.5c-0.1-0.5,0.1-1,0.6-1.1
		c0.5-0.1,1,0.1,1.1,0.6c0.3,1.1,0.7,2.3,1.2,3.3c0.2,0.5,0,1-0.5,1.2C63.9,97.6,63.8,97.6,63.7,97.6z M61.6,90.7
		c-0.4,0-0.8-0.3-0.9-0.7c-0.3-1.2-0.5-2.4-0.6-3.6c-0.1-0.5,0.3-0.9,0.8-1c0.5-0.1,0.9,0.3,1,0.8c0.2,1.2,0.4,2.3,0.6,3.5
		c0.1,0.5-0.2,1-0.7,1.1C61.7,90.7,61.6,90.7,61.6,90.7z M60.6,83.6c-0.5,0-0.9-0.4-0.9-0.9c-0.1-1-0.1-2-0.1-2.9c0-0.3,0-0.5,0-0.8
		c0-0.5,0.4-0.9,0.9-0.9c0.5,0,0.9,0.4,0.9,0.9c0,0.2,0,0.5,0,0.7c0,0.9,0,1.9,0.1,2.8C61.5,83.1,61.2,83.5,60.6,83.6
		C60.6,83.6,60.6,83.6,60.6,83.6z"/>
	<g>
		<polygon class="st5" points="69.6,50.7 64.2,74.2 5.3,61.5 		"/>
		<polygon class="st7" points="69.6,50.7 64.2,74.2 5.3,61.5 		"/>
		<path class="st5" d="M5.3,61.5c0,0,73.4-2,73.4-2l17.3,26.6L5.3,61.5z"/>
		<polygon class="st5" points="5.3,61.5 69.6,50.7 54.5,33.1 		"/>
	</g>
</g>
<g class="st11">
	<path d="M143.3,130L143.3,130L143.3,130C143.3,130.1,143.3,130.1,143.3,130z"/>
</g>
<g>
	<g>
		
			<rect x="245" y="305.8" transform="matrix(0.9997 2.547185e-02 -2.547185e-02 0.9997 8.2722 -6.3347)" class="st12" width="15.5" height="31.5"/>
		<path class="st2" d="M240.5,179.7c0,0-1.1,53.5-0.7,74.7c0.3,16,2.8,63.8,2.8,63.8s10.1,6.6,20.7,1.1c0,0,6.1-48.3,4.6-62.9
			c-0.2-1.8-0.2-3.5,0-5.3l9.4-81L240.5,179.7z"/>
		<path class="st2" d="M250,332.7c0,0,8.6-1,10.4-3.8v-1.8c0,0,1.5,0.8,1.2,3.8c-0.3,2.8,0.9,7.6,1,13.4c0,1-0.4,1.9-1.2,2.5
			c-1.7,1.3-5.2,3.3-11.4,3.5c-2.2,0.1-10.9,5.7-18.1,5.7c-7.3,0-12-3.6-12-8.6c0-5,14.8-9.6,14.8-9.6l7.1-6.9c0,0-1.4-7.5,3.1-5.7
			C249.5,327,250,328.9,250,332.7z"/>
		<path class="st13" d="M248.4,337.1c-0.2,0-0.4-0.1-0.4-0.3c-1.5-4.5-6.2-5.4-6.3-5.4c-0.2,0-0.4-0.3-0.4-0.5
			c0-0.2,0.3-0.4,0.5-0.4c0.2,0,5.3,0.9,7,6c0.1,0.2,0,0.5-0.3,0.6C248.5,337,248.5,337.1,248.4,337.1z"/>
		<path class="st13" d="M245.6,339.9c-0.2,0-0.4-0.1-0.4-0.3c-1.5-4.5-6.2-5.4-6.3-5.4c-0.2,0-0.4-0.3-0.4-0.5
			c0-0.2,0.3-0.4,0.5-0.4c0.2,0,5.3,0.9,7,6c0.1,0.2,0,0.5-0.3,0.6C245.7,339.9,245.6,339.9,245.6,339.9z"/>
		<path class="st13" d="M243.1,342.3c-0.2,0-0.4-0.1-0.4-0.3c-1.5-4.5-6.2-5.4-6.3-5.4c-0.2,0-0.4-0.3-0.4-0.5
			c0-0.2,0.3-0.4,0.5-0.4c0.2,0,5.3,0.9,7,6c0.1,0.2,0,0.5-0.3,0.6C243.2,342.3,243.1,342.3,243.1,342.3z"/>
		<path class="st14" d="M219.9,347.4c0,5,4.6,8.5,11.8,8.6l10.2-4.1c0-10.5-7.1-14.1-7.1-14.1S219.9,342.4,219.9,347.4z"/>
		<g>
			<path class="st4" d="M262.4,344.8c-1.7,1.3-5.4,3.4-11.9,3.7c-2.3,0.1-11.4,5.9-19,5.9c-5.2,0-9.2-1.8-11.2-4.6
				c1.3,3.7,5.6,6.2,11.6,6.2c7.3,0,16-5.6,18.1-5.7c6.2-0.3,9.7-2.2,11.4-3.5c0.7-0.5,1.1-1.4,1.2-2.3
				C262.5,344.6,262.4,344.7,262.4,344.8z"/>
		</g>
	</g>
	<path class="st4" d="M249.5,187.2c0,0,1.4,12.1,10.7,18.5l8.2,41.1l5.3-51.4L249.5,187.2z"/>
	<g>
		
			<rect x="288.6" y="315.2" transform="matrix(0.997 -7.795154e-02 7.795154e-02 0.997 -24.8941 24.1108)" class="st12" width="15.5" height="31.5"/>
		<path class="st2" d="M296.9,181c0,0,1.9,7.1,2.8,36.4c0.7,23.2,1.3,36.6,1.5,41.1c0,1.1,0.2,2.2,0.4,3.4
			c0.7,4.3,2.8,17.2,3.8,35.4c1.3,22.6,1.4,33.3,1.4,33.3s-9.6,7.5-21.1,1.6l-11.2-67.3l-11.8-62.4c0,0-16.2-6.2-17.6-22.6
			L296.9,181z"/>
		<path class="st2" d="M304.8,338.8l0.2,3.1c0,0-1.8,2.6-4,3.4c0,0-1.7-6.1-4.6-6.4c-3-0.3-9.1-0.6-8.3,2.8c0.8,3.4,0.9,5.4,0.9,5.4
			l-5.7,10.6c0,0-11.6,10-6.7,16.3c4.8,6.3,21,3,22.6-7c0.5-3,2.3-5.7,4.8-7.4c2.6-1.7,3.1-4.1,2.8-6.3c-0.3-2.3-1-6.7-0.8-8.6
			C306.3,342.6,306.8,338.8,304.8,338.8z"/>
		<path class="st14" d="M276.6,373.9c4,5.3,15.9,3.8,20.7-2.5c0.2-1,0.3-2,0.3-3.1c0-11.3-14.3-10.7-14.3-10.7
			S271.7,367.6,276.6,373.9z"/>
		<g>
			<path class="st4" d="M306.8,353.2c0-0.2,0-0.4-0.1-0.6c-0.2,1.6-1,3.2-2.9,4.4c-2.6,1.8-4.5,4.5-5,7.6
				c-1.6,10.2-18,13.7-23.2,7.5c0.2,0.6,0.5,1.2,0.9,1.8c4.8,6.3,21,3,22.6-7c0.5-3,2.3-5.7,4.8-7.4
				C306.6,357.8,307.1,355.5,306.8,353.2z"/>
		</g>
		<path class="st13" d="M297.4,349.4c-0.1,0-0.2,0-0.3-0.1c-3.5-3.3-8-1.8-8.1-1.8c-0.2,0.1-0.5,0-0.6-0.3c-0.1-0.2,0-0.5,0.3-0.6
			c0.2-0.1,5.1-1.7,9,2c0.2,0.2,0.2,0.5,0,0.6C297.6,349.3,297.5,349.4,297.4,349.4z"/>
		<path class="st13" d="M295.4,353.3c-0.1,0-0.2,0-0.3-0.1c-3.5-3.3-8-1.8-8.1-1.8c-0.2,0.1-0.5,0-0.6-0.3c-0.1-0.2,0-0.5,0.3-0.6
			c0.2-0.1,5.1-1.7,9,2c0.2,0.2,0.2,0.5,0,0.6C295.6,353.3,295.5,353.3,295.4,353.3z"/>
		<path class="st13" d="M293.4,357.3c-0.1,0-0.2,0-0.3-0.1c-3.5-3.3-8-1.8-8.1-1.8c-0.2,0.1-0.5,0-0.6-0.3c-0.1-0.2,0-0.5,0.3-0.6
			c0.2-0.1,5.1-1.7,9,2c0.2,0.2,0.2,0.5,0,0.6C293.7,357.2,293.5,357.3,293.4,357.3z"/>
	</g>
	<path class="st12" d="M194.1,54c0,0-1.7-7.3-1.9-12c-0.2-4.7-1.6-6.4-4.5-4c-2.9,2.4-9.5,9.3-9.1,14.6c0.5,6.2,1.9,11,5.5,16.7
		l11.8-4.4L194.1,54z"/>
	<path class="st12" d="M230.7,96.9l-16.9-3.7c0,0-7.2-11.7-11.4-17.8c-4.2-6.2-6.5-10.4-6.5-10.4L184,69.3c0,0,13.2,32.7,19.3,38.2
		c3.1,2.8,22.9,8.9,22.9,8.9S234.5,107.7,230.7,96.9z"/>
	<path class="st5" d="M252,101.5l-21.3-4.6c0,0-0.1,9.6-4.5,19.6l21.4,6.6L252,101.5z"/>
	<path class="st15" d="M252,101.5l-21.3-4.6c0,0-0.1,9.6-4.5,19.6l21.4,6.6L252,101.5z"/>
	<path class="st5" d="M281.6,104l9.9,3.1l5.4,29.3l-3.2,14.2c-0.4,1.9-0.5,3.9-0.2,5.9l3.5,24.3c0,0-9.9,6.3-27.9,6.3
		c-18,0-28.5-7.5-28.5-7.5l1.4-55.3c0.5-8.6,4.1-16.7,10.1-22.9l0,0l12.3,1.4L281.6,104z"/>
	<g>
		<g>
			<path class="st4" d="M250.3,57.5c0,0-9.5,8.3-1.2,26.9l9.6-25.1L250.3,57.5z"/>
			<g>
				<g>
					<polygon class="st12" points="281.6,104 264.3,102.9 264.3,80.5 281.6,80.5 					"/>
				</g>
			</g>
			<path class="st16" d="M264.3,101.5c5.8,0,14.7-5.2,14.7-8.8l1.9-12.2h-16.6V101.5z"/>
			<path class="st12" d="M268.9,52.4c-5.8,0-18.2,3.2-19.6,18.5C247.9,86,250.1,99,257.1,99c13.8,0,27-1.7,27.1-24.2
				C284.3,54.9,274.6,52.4,268.9,52.4z"/>
			<path class="st4" d="M281.6,88l-2.2-6.9c-0.7,0.6-1.9,0.1-1.9-0.9V68c0,0-5.7-1.6-5.1-6.4c0,0-2.9,2.6-14.1,2.6
				c-11.2,0-13.9-9.5-12.8-14.8c0,0,2.1,2.1,8,2.1c5.9,0,30.6-7.5,31.3,7.5c0,0,2.1-3.1,5.4,0l-4.3,2.6c0,0,5.1-0.2,4.3,7.4
				c-0.5,5-2.3,13.6-3.5,19c-0.7,3-2.4,5.6-5,7.3l0,0V88z"/>
			<polygon class="st16" points="260.4,75.4 260.4,85.1 254.7,83.4 			"/>
			<g>
				<path class="st4" d="M269.5,76.9c0,1-0.8,1.8-1.8,1.8c-1,0-1.8-0.8-1.8-1.8c0-1,0.8-1.8,1.8-1.8
					C268.7,75.1,269.5,75.9,269.5,76.9z"/>
				<path class="st4" d="M255.8,75.6c0,1-0.8,1.8-1.8,1.8c-1,0-1.8-0.8-1.8-1.8c0-1,0.8-1.8,1.8-1.8C255,73.8,255.8,74.6,255.8,75.6
					z"/>
				<path class="st4" d="M251.8,71.8l3.6-2.1c0,0-1.4-1.4-2.7-0.6C251.2,70,251.8,71.8,251.8,71.8z"/>
				<path class="st4" d="M271.4,73.2l-3.6-2.1c0,0,1.4-1.4,2.7-0.6C271.9,71.3,271.4,73.2,271.4,73.2z"/>
			</g>
			<path class="st16" d="M260.9,89.8c0,0,2.7-1.7,5.2-3.6c0,0,1.5,2.9-0.8,4.4C262.9,92.1,260.9,89.8,260.9,89.8z"/>
			<polygon class="st17" points="279.2,81.3 285.5,74.4 281,71.7 			"/>
			<path class="st12" d="M280.2,78.6c-2.1,3.6-1.5,7.9,1.4,9.4c1.9,1,7.3-1.1,9.4-4.7c2.1-3.6,0.9-6.7-1.9-8.3
				C286.3,73.4,282.3,75,280.2,78.6z"/>
		</g>
		<path class="st12" d="M264.3,102.9l-2.4,3.7c-1.9,3.1-0.8,7.1,2.5,8.7h0c5.9,2.9,13,0,15.2-6.1l1.9-5.2L264.3,102.9z"/>
	</g>
	<path class="st12" d="M195.9,64.9c0,0,2.9-4.4,2.8-8.6c0-4.2,0.5-6.1,1.2-7.1c0.7-1-0.1-2.5-2-1.9c-1.6,0.4-3.6,2.9-4.1,5.3
		c-0.1,0.7-0.6,1.4-1.3,1.7c-2,1.1-5.8,4.2-4,11.8L195.9,64.9z"/>
	<path class="st16" d="M188.2,60.9C188.2,60.9,188.1,60.9,188.2,60.9c-0.2,0-0.4-0.2-0.3-0.4c0.6-3.9,3.1-5.7,4.5-6.5
		c0.6-0.3,1-0.9,1.1-1.5c0-0.2,0.2-0.3,0.4-0.3c0.2,0,0.3,0.2,0.3,0.4c-0.2,0.9-0.7,1.6-1.4,2c-1.3,0.7-3.6,2.4-4.2,6
		C188.5,60.8,188.3,60.9,188.2,60.9z"/>
	<path class="st12" d="M203.4,44.8"/>
	<g>
		<polygon class="st12" points="293,143.3 297.3,152.5 319.7,161.4 310.7,134 		"/>
		<g>
			<path class="st5" d="M290.2,106.8c0,0-7.5,7.7-4.2,18.5c3.2,10.8,7,18.1,7,18.1s12.6,0.4,17.7-9.3l-6.4-16.2
				c-2-5.2-6.4-9-11.7-10.5L290.2,106.8z"/>
			<path class="st15" d="M290.2,106.8c0,0-7.5,7.7-4.2,18.5c3.2,10.8,7,18.1,7,18.1s12.6,0.4,17.7-9.3l-6.4-16.2
				c-2-5.2-6.4-9-11.7-10.5L290.2,106.8z"/>
		</g>
		<path class="st12" d="M296.1,150.8c5.7,1.7,22.3,6.6,22.3,6.6s0.1,0.4,1.3,4c1.8,5.6-3.9,19-24.2,9.2c-20.3-9.7-27.7-15-27.7-15
			l2.2-12.3C269.9,143.3,289.6,148.9,296.1,150.8z"/>
		<polygon class="st16" points="296.7,151.1 307.2,154.1 295.4,148.5 		"/>
		<g>
			<path class="st2" d="M266.8,161.2l-13.2-1.4c-1-0.1-1.8-0.8-2-1.7l-7.2-27.1c-0.2-0.8,0.4-1.6,1.2-1.5l12.8,0.6
				c1,0,1.8,0.7,2.1,1.7l7.7,28C268.4,160.5,267.7,161.3,266.8,161.2z"/>
			<path class="st4" d="M249.5,133.4c0,0.6-0.5,1.1-1.1,1.1c-0.6,0-1.1-0.5-1.1-1.1c0-0.6,0.5-1.1,1.1-1.1
				C249,132.2,249.5,132.8,249.5,133.4z"/>
		</g>
		<path class="st12" d="M269.9,143.3c0,0-3.8-6.6-8.6-8.2l1.9,7.3c0,0-3.6,0.3-7.7,0.3c-4.1,0-8.5-2.7-9.9-3.5
			c-1.3-0.7-2.5,4.2,2.6,13.5c5.1,9.3,19.3,2.9,19.3,2.9L269.9,143.3z"/>
	</g>
</g>
<g>
	<path class="st18" d="M327.6,9.8l7.1,4v-2.5c0-0.2,0-0.4,0-0.5c0-0.2,0-0.3,0-0.5v-0.1l0,0c0.3-3.3,2.8-4.6,5.9-2.8
		c1.3,0.8,2.5,2,3.5,3.4c0.7-4.5,4.4-6.2,8.9-3.6c5,2.9,9,9.8,9,15.6l0,5.4c0,0.9,0.5,1.7,1.2,2.1l4.2,2.5c1.8,1.1,3,3.1,3,5.2
		c0,1.9-2.1,3.1-3.7,2.1l-38.8-22.4c-2.1-1.2-3.4-3.5-3.4-5.9C324.3,10.1,326.1,9,327.6,9.8z"/>
	<path class="st18" d="M358.4,55l5.3,3v-1.9c0-0.1,0-0.3,0-0.4c0-0.1,0-0.3,0-0.4v0l0,0c0.2-2.5,2.1-3.4,4.3-2.1
		c1,0.6,1.9,1.4,2.6,2.5c0.5-3.3,3.2-4.6,6.5-2.7c3.7,2.1,6.6,7.3,6.6,11.5l0,4c0,0.6,0.3,1.2,0.9,1.6l3.1,1.8
		c1.4,0.8,2.2,2.3,2.2,3.8c0,1.4-1.5,2.3-2.8,1.6l-28.7-16.6c-1.6-0.9-2.5-2.6-2.5-4.3C356,55.2,357.3,54.4,358.4,55z"/>
</g>
</svg>
