<?xml version="1.0" encoding="utf-8"?>
<!-- Generator: Adobe Illustrator 24.3.0, SVG Export Plug-In . SVG Version: 6.00 Build 0)  -->
<svg version="1.1" id="Layer_1" xmlns="http://www.w3.org/2000/svg" xmlns:xlink="http://www.w3.org/1999/xlink" x="0px" y="0px"
	 viewBox="0 0 457 337" style="enable-background:new 0 0 457 337;" xml:space="preserve">
<style type="text/css">
	.st0{fill-rule:evenodd;clip-rule:evenodd;fill:#53BA65;}
	.st1{fill-rule:evenodd;clip-rule:evenodd;fill:#8FCA78;}
	.st2{fill-rule:evenodd;clip-rule:evenodd;fill:#FFCD05;}
	.st3{fill-rule:evenodd;clip-rule:evenodd;fill:#FEE35F;}
	.st4{fill-rule:evenodd;clip-rule:evenodd;fill:#333333;}
	.st5{fill-rule:evenodd;clip-rule:evenodd;fill:#CCCCCC;}
	.st6{fill-rule:evenodd;clip-rule:evenodd;fill:#E4E4E4;}
	.st7{fill-rule:evenodd;clip-rule:evenodd;fill:#676767;}
	.st8{fill-rule:evenodd;clip-rule:evenodd;fill:#767676;}
	.st9{fill-rule:evenodd;clip-rule:evenodd;fill:#EE3434;}
	.st10{fill-rule:evenodd;clip-rule:evenodd;fill:#EF4347;}
	.st11{fill-rule:evenodd;clip-rule:evenodd;fill:#484848;}
	.st12{fill-rule:evenodd;clip-rule:evenodd;fill:#FFFFFF;}
	.st13{fill-rule:evenodd;clip-rule:evenodd;fill:#A6BFE4;}
	.st14{fill-rule:evenodd;clip-rule:evenodd;fill:#F58336;}
	.st15{fill-rule:evenodd;clip-rule:evenodd;fill:#F9F06F;}
</style>
<g>
	<polygon class="st0" points="252.1,103.7 312.5,123.3 303.2,151.8 242.9,132 	"/>
	<polygon class="st1" points="252.1,103.7 312.5,123.3 309.6,132.1 249.3,112.4 	"/>
	<polygon class="st2" points="271.1,78.7 333.3,91.7 327.2,121 265,107.8 	"/>
	<polygon class="st3" points="271.1,78.7 333.3,91.7 331.4,100.8 269.3,87.6 	"/>
	<path class="st4" d="M201.3,125.5l32,10.7c1.3,0.5,2.8-0.9,3.5-3l37.9-113.8c0.7-2.1,0.2-4.2-1-4.5l-32-10.7
		c-1.3-0.5-2.8,0.9-3.5,3l-37.9,113.9C199.5,123.1,200,125.2,201.3,125.5L201.3,125.5z"/>
	<path class="st5" d="M170.6,26.6L268,59.1l-31,93.2L107.1,109c-4.4-1.5-5.3-6.3-2-10.7l51.3-66.5C159.6,27.4,166.2,25.1,170.6,26.6
		L170.6,26.6z"/>
	<path class="st6" d="M170.6,26.6l29.6,9.9l-30.9,93.2L107.1,109c-4.4-1.5-5.3-6.3-2-10.7l51.3-66.5
		C159.6,27.4,166.2,25.1,170.6,26.6L170.6,26.6z"/>
	<path class="st7" d="M390.5,180.5c-34.4,52-116.3,72.3-197.1,45.3C101.2,194.9,44.9,114,67.8,45.1l30.6,10.1
		c1.6,15.8,14.2,32.4,27.9,37.1l96.6,32.2l1,0.5L390.5,180.5z"/>
	<path class="st8" d="M120.6,185.6C74.3,147,51.9,93.1,67.8,45.1l30.6,10.1c1.6,15.8,14.2,32.4,27.9,37.1l22.8,7.6L120.6,185.6z"/>
	<path class="st9" d="M375.3,198.6c-39.8,38.1-111.1,50.8-181.8,27.2l0,0l0,0C122.7,202.3,73.2,149.1,64.2,94.6l149.4,50l2.2,0.7
		L375.3,198.6z"/>
	<path class="st10" d="M120.6,185.6c-30.7-25.7-50.9-58-56.4-91l78,26.2L120.6,185.6z"/>
	<path class="st4" d="M366.5,206.2c-40.9,32.2-107.3,41.6-173,19.6c-65.8-22-113.2-69.4-126.8-119.8l144.7,48.4l1.9,0.6L366.5,206.2
		z"/>
	<path class="st11" d="M120.6,185.6c-27.2-22.7-46.2-50.7-53.9-79.5l72.4,24.2L120.6,185.6z"/>
	<path class="st12" d="M84.5,68c4,1.3,6.2,5.7,4.8,9.6c-1.3,4-5.6,6.2-9.6,4.9c-4-1.4-6.2-5.7-4.8-9.8C76.2,68.8,80.5,66.6,84.5,68
		L84.5,68z"/>
	<path class="st13" d="M236.3,68.6l-12.2-4.1c-2.4-0.8-5.2,0.6-6,3l-3.5,10.6c-0.8,2.6,0.6,5.2,3,6l12.2,4.1c2.4,0.8,5.1-0.6,5.9-3
		l3.5-10.6C240.1,72.2,238.7,69.4,236.3,68.6L236.3,68.6z"/>
	<path class="st13" d="M136.9,57.2l13.3-17.3l57.2,19.1c2.4,0.8,3.8,3.6,3,6l-3.6,10.6c-0.8,2.4-3.5,3.8-5.9,3L136.9,57.2z"/>
	<path class="st13" d="M262,77.2l-9.3-3.1c-2.4-0.8-5.2,0.6-6,3l-3.5,10.7c-0.8,2.4,0.6,5.1,3,5.9l9.3,3.1L262,77.2z"/>
	<path class="st9" d="M230.3,38.2l32,10.7c1.2,0.3,2.3,0.2,2.6-0.3l10.6-32c0.2-0.6-0.6-1.4-1.9-1.7l-32-10.7
		c-1.3-0.5-2.4-0.3-2.6,0.2l-10.7,32C228.2,36.9,229.1,37.7,230.3,38.2L230.3,38.2z"/>
	<path class="st7" d="M234.6,25.2l32,10.6c1.3,0.5,2.3,0.5,2.4,0.1l6.6-19.6c0.1-0.3-0.8-1-2.1-1.4l-32-10.7
		c-1.3-0.5-2.3-0.5-2.4-0.1l-6.5,19.6C232.4,24.1,233.4,24.7,234.6,25.2L234.6,25.2z"/>
	<path class="st14" d="M358.9,112.1c9.1,0,16.5,7.4,16.5,16.6c0,9.2-7.4,16.6-16.5,16.6c-9.2,0-16.6-7.4-16.6-16.6
		C342.3,119.6,349.7,112.1,358.9,112.1L358.9,112.1z"/>
	<rect x="357.3" y="111.2" class="st15" width="3.1" height="35.5"/>
	<rect x="341.3" y="127.4" class="st15" width="35.2" height="3.1"/>
	<path class="st12" d="M358.9,122c3.7,0,6.7,3,6.7,6.7s-3,6.7-6.7,6.7c-3.7,0-6.7-3-6.7-6.7S355.2,122,358.9,122L358.9,122z"/>
</g>
<g>
	<path class="st12" d="M67.9,166.6c0,3,3.7,5.5,8.4,5.5c4.7,0,8.4-2.4,8.4-5.5c0-3.1,3.7-5.6,8.3-5.6c4.7,0,8.4,2.4,8.4,5.6
		c0,3,3.7,5.5,8.4,5.5c4.7,0,8.4-2.4,8.4-5.5c0-3.1,3.7-5.6,8.4-5.6c4.5,0,8.4,2.4,8.4,5.6c0,3,3.7,5.5,8.3,5.5
		c4.7,0,8.4-2.4,8.4-5.5c0-3.1,3.7-5.6,8.4-5.6c4.7,0,8.4,2.4,8.4,5.6c0,3,3.7,5.5,8.4,5.5c4.5,0,8.4-2.4,8.4-5.5
		c0-3.1,3.7-5.6,8.3-5.6c4.7,0,8.4,2.4,8.4,5.6c0,3,3.7,5.5,8.4,5.5c4.7,0,8.4-2.4,8.4-5.5c0-3.1,3.7-5.6,8.4-5.6
		c4.5,0,8.4,2.4,8.4,5.6c0,3,3.7,5.5,8.3,5.5c4.7,0,8.4-2.4,8.4-5.5c0-3.1,3.7-5.6,8.4-5.6c4.7,0,8.4,2.4,8.4,5.6
		c0,3,3.7,5.5,8.4,5.5c4.5,0,8.4-2.4,8.4-5.5c0-3.1,3.7-5.6,8.3-5.6c4.7,0,8.4,2.4,8.4,5.6c0,3,3.7,5.5,8.4,5.5s8.4-2.4,8.4-5.5
		c0-3.1,3.7-5.6,8.4-5.6c4.5,0,8.4,2.4,8.4,5.6c0,3,3.7,5.5,8.3,5.5c4.7,0,8.4-2.4,8.4-5.5c0-3.1,3.7-5.6,8.4-5.6s8.4,2.4,8.4,5.6
		c0,3,3.7,5.5,8.4,5.5c4.5,0,8.4-2.4,8.4-5.5c0-3.1,3.7-5.6,8.3-5.6c4.7,0,8.4,2.4,8.4,5.6c0,3,3.7,5.5,8.4,5.5v2.3h30.6v145.6
		h-30.6v13.4H42.9v-13.4H14.2V174.3h28.7V172c4.5,0,8.3-2.4,8.3-5.5c0-3.1,3.7-5.6,8.4-5.6C64.2,161,67.9,163.4,67.9,166.6
		L67.9,166.6z"/>
	<path class="st13" d="M70.4,166.6c0,0.7,0.5,1.3,1.3,1.9c1.2,0.8,2.8,1.3,4.7,1.3s3.4-0.5,4.5-1.3c0.8-0.6,1.4-1.2,1.4-1.9
		c0-2.4,1.4-4.5,3.5-5.9c2-1.3,4.5-2.1,7.2-2.1c2.8,0,5.3,0.8,7.3,2.1c2.1,1.4,3.5,3.5,3.5,5.9c0,0.7,0.6,1.3,1.4,1.9
		c1.2,0.8,2.7,1.3,4.5,1.3c1.9,0,3.5-0.5,4.7-1.3c0.8-0.6,1.3-1.2,1.3-1.9c0-2.4,1.4-4.5,3.6-5.9c1.9-1.3,4.4-2.1,7.2-2.1
		c2.8,0,5.3,0.8,7.2,2.1c2.2,1.4,3.5,3.5,3.5,5.9c0,0.7,0.6,1.3,1.4,1.9c1.2,0.8,2.8,1.3,4.5,1.3c1.9,0,3.5-0.5,4.7-1.3
		c0.8-0.6,1.4-1.2,1.4-1.9c0-2.4,1.3-4.5,3.5-5.9c1.9-1.3,4.4-2.1,7.2-2.1c2.8,0,5.3,0.8,7.2,2.1c2.2,1.4,3.6,3.5,3.6,5.9
		c0,0.7,0.5,1.3,1.3,1.9c1.2,0.8,2.8,1.3,4.7,1.3c1.9,0,3.4-0.5,4.5-1.3c0.8-0.6,1.4-1.2,1.4-1.9c0-2.4,1.4-4.5,3.5-5.9
		c2-1.3,4.5-2.1,7.2-2.1c2.8,0,5.3,0.8,7.3,2.1c2.1,1.4,3.5,3.5,3.5,5.9c0,0.7,0.5,1.3,1.4,1.9c1.2,0.8,2.7,1.3,4.5,1.3
		c1.9,0,3.5-0.5,4.7-1.3c0.8-0.6,1.3-1.2,1.3-1.9c0-2.4,1.4-4.5,3.6-5.9c1.9-1.3,4.4-2.1,7.2-2.1c2.8,0,5.3,0.8,7.2,2.1
		c2.2,1.4,3.5,3.5,3.5,5.9c0,0.7,0.6,1.3,1.4,1.9c1.2,0.8,2.8,1.3,4.5,1.3c1.9,0,3.5-0.5,4.7-1.3c0.8-0.6,1.4-1.2,1.4-1.9
		c0-2.4,1.3-4.5,3.5-5.9c1.9-1.3,4.4-2.1,7.2-2.1c2.8,0,5.3,0.8,7.2,2.1c2.2,1.4,3.6,3.5,3.6,5.9c0,0.7,0.5,1.3,1.3,1.9
		c1.2,0.8,2.8,1.3,4.7,1.3c1.9,0,3.4-0.5,4.5-1.3c0.8-0.6,1.4-1.2,1.4-1.9c0-2.4,1.4-4.5,3.5-5.9c2-1.3,4.5-2.1,7.2-2.1
		c2.8,0,5.3,0.8,7.3,2.1c2.1,1.4,3.5,3.5,3.5,5.9c0,0.7,0.5,1.3,1.4,1.9c1,0.8,2.7,1.3,4.5,1.3c1.9,0,3.5-0.5,4.7-1.3
		c0.8-0.6,1.3-1.2,1.3-1.9c0-2.4,1.4-4.5,3.6-5.9c1.9-1.3,4.4-2.1,7.2-2.1c2.8,0,5.3,0.8,7.2,2.1c2.2,1.4,3.5,3.5,3.5,5.9
		c0,0.7,0.6,1.3,1.4,1.9c1.2,0.8,2.8,1.3,4.5,1.3c1.9,0,3.5-0.5,4.7-1.3c0.8-0.6,1.4-1.2,1.4-1.9c0-2.4,1.3-4.5,3.5-5.9
		c1.9-1.3,4.4-2.1,7.2-2.1c2.8,0,5.3,0.8,7.2,2.1c2.2,1.4,3.6,3.5,3.6,5.9c0,0.7,0.5,1.3,1.3,1.9c1.2,0.8,2.8,1.3,4.7,1.3
		c1.9,0,3.4-0.5,4.5-1.3c0.8-0.6,1.4-1.2,1.4-1.9c0-2.4,1.4-4.5,3.5-5.9c1.9-1.3,4.5-2.1,7.2-2.1c2.8,0,5.3,0.8,7.3,2.1
		c2.1,1.4,3.5,3.5,3.5,5.9c0,0.7,0.5,1.3,1.4,1.9c1,0.8,2.7,1.3,4.5,1.3h2.4v2.3v2.3h-4.9c-1.7-0.3-3.5-1-4.8-1.9
		c-2.2-1.5-3.5-3.6-3.5-5.9c0-0.7-0.6-1.4-1.4-2c-1.2-0.7-2.8-1.2-4.7-1.2c-1.7,0-3.4,0.5-4.5,1.2c-0.8,0.6-1.4,1.3-1.4,2
		c0,2.3-1.3,4.4-3.5,5.9c-1.3,0.8-3,1.5-4.9,1.9h-4.8c-1.9-0.3-3.5-1-4.8-1.9c-2.2-1.5-3.6-3.6-3.6-5.9c0-0.7-0.5-1.4-1.3-2
		c-1.2-0.7-2.8-1.2-4.7-1.2s-3.5,0.5-4.5,1.2c-0.9,0.6-1.4,1.3-1.4,2c0,2.3-1.4,4.4-3.5,5.9c-1.4,0.8-3,1.5-4.9,1.9h-4.8
		c-1.9-0.3-3.5-1-4.9-1.9c-2.1-1.5-3.5-3.6-3.5-5.9c0-0.7-0.6-1.4-1.4-2c-1.2-0.7-2.7-1.2-4.5-1.2c-1.9,0-3.5,0.5-4.7,1.2
		c-0.8,0.6-1.3,1.3-1.3,2c0,2.3-1.4,4.4-3.6,5.9c-1.3,0.8-2.9,1.5-4.8,1.9h-4.9c-1.7-0.3-3.5-1-4.8-1.9c-2.2-1.5-3.5-3.6-3.5-5.9
		c0-0.7-0.6-1.4-1.4-2c-1.2-0.7-2.8-1.2-4.7-1.2c-1.7,0-3.4,0.5-4.5,1.2c-0.8,0.6-1.4,1.3-1.4,2c0,2.3-1.3,4.4-3.5,5.9
		c-1.3,0.8-3,1.5-4.9,1.9h-4.8c-1.9-0.3-3.5-1-4.8-1.9c-2.2-1.5-3.6-3.6-3.6-5.9c0-0.7-0.5-1.4-1.3-2c-1.2-0.7-2.8-1.2-4.7-1.2
		c-1.9,0-3.5,0.5-4.5,1.2c-0.9,0.6-1.4,1.3-1.4,2c0,2.3-1.4,4.4-3.5,5.9c-1.4,0.8-3,1.5-4.9,1.9h-4.8c-1.9-0.3-3.5-1-4.9-1.9
		c-2.1-1.5-3.5-3.6-3.5-5.9c0-0.7-0.6-1.4-1.4-2c-1.2-0.7-2.7-1.2-4.5-1.2s-3.5,0.5-4.7,1.2c-0.8,0.6-1.3,1.3-1.3,2
		c0,2.3-1.4,4.4-3.6,5.9c-1.3,0.8-2.9,1.5-4.8,1.9h-4.9c-1.7-0.3-3.5-1-4.8-1.9c-2.2-1.5-3.5-3.6-3.5-5.9c0-0.7-0.6-1.4-1.4-2
		c-1.2-0.7-2.8-1.2-4.7-1.2c-1.7,0-3.4,0.5-4.5,1.2c-0.8,0.6-1.4,1.3-1.4,2c0,2.3-1.3,4.4-3.5,5.9c-1.3,0.8-3,1.5-4.8,1.9h-4.9
		c-1.9-0.3-3.5-1-4.8-1.9c-2.2-1.5-3.6-3.6-3.6-5.9c0-0.7-0.5-1.4-1.3-2c-1.2-0.7-2.8-1.2-4.7-1.2c-1.9,0-3.4,0.5-4.5,1.2
		c-0.9,0.6-1.4,1.3-1.4,2c0,2.3-1.4,4.4-3.5,5.9c-1.4,0.8-3,1.5-4.9,1.9h-4.8c-1.9-0.3-3.5-1-4.9-1.9c-2.1-1.5-3.5-3.6-3.5-5.9
		c0-0.7-0.6-1.4-1.4-2c-1.2-0.7-2.7-1.2-4.5-1.2s-3.5,0.5-4.7,1.2c-0.8,0.6-1.3,1.3-1.3,2c0,2.3-1.4,4.4-3.6,5.9
		c-1.3,0.8-2.9,1.5-4.8,1.9h-4.9c-1.7-0.3-3.5-1-4.8-1.9c-2.2-1.5-3.5-3.6-3.5-5.9c0-0.7-0.6-1.4-1.4-2c-1.2-0.7-2.8-1.2-4.7-1.2
		c-1.7,0-3.4,0.5-4.5,1.2c-0.8,0.6-1.4,1.3-1.4,2c0,2.3-1.3,4.4-3.5,5.9c-1.3,0.8-3,1.5-4.8,1.9h-4.9c-1.9-0.3-3.5-1-4.8-1.9
		c-2.2-1.5-3.6-3.6-3.6-5.9c0-0.7-0.5-1.4-1.3-2c-1.2-0.7-2.8-1.2-4.7-1.2c-1.9,0-3.4,0.5-4.5,1.2c-0.8,0.6-1.4,1.3-1.4,2
		c0,2.3-1.4,4.4-3.5,5.9c-1.4,0.8-3,1.5-4.9,1.9h-4.8V172v-2.3h2.4c1.7,0,3.4-0.5,4.5-1.3c0.8-0.6,1.4-1.2,1.4-1.9
		c0-2.4,1.3-4.5,3.5-5.9c1.9-1.3,4.4-2.1,7.2-2.1c2.8,0,5.3,0.8,7.2,2.1C69,162,70.4,164.1,70.4,166.6L70.4,166.6z"/>
	<path class="st13" d="M41.8,169.7H5c-1.3,0-2.3,1-2.3,2.3l0,0c0,1.3,1,2.3,2.3,2.3h36.7c1.2,0,2.2-1,2.2-2.3l0,0
		C44,170.7,42.9,169.7,41.8,169.7L41.8,169.7z"/>
	<path class="st13" d="M448.1,169.7h-36.6c-1.3,0-2.3,1-2.3,2.3l0,0c0,1.3,1,2.3,2.3,2.3h36.6c1.3,0,2.3-1,2.3-2.3l0,0
		C450.4,170.7,449.4,169.7,448.1,169.7L448.1,169.7z"/>
	<path class="st13" d="M414.8,198.5h-16c-1.3,0-2.3,1-2.3,2.3l0,0c0,1.3,1,2.2,2.3,2.2h16c1.3,0,2.3-0.9,2.3-2.2l0,0
		C417.2,199.6,416.1,198.5,414.8,198.5L414.8,198.5z"/>
	<path class="st13" d="M334.2,198.5h-71.9c-1.2,0-2.2,1-2.2,2.3l0,0c0,1.3,1,2.2,2.2,2.2h71.9c1.3,0,2.3-0.9,2.3-2.2l0,0
		C336.5,199.6,335.4,198.5,334.2,198.5L334.2,198.5z"/>
	<path class="st13" d="M234.2,198.5h-33.6c-1.3,0-2.3,1-2.3,2.3l0,0c0,1.3,1,2.2,2.3,2.2h33.6c1.3,0,2.3-0.9,2.3-2.2l0,0
		C236.5,199.6,235.5,198.5,234.2,198.5L234.2,198.5z"/>
	<path class="st13" d="M84.1,198.5h-3.7c-1.3,0-2.3,1-2.3,2.3l0,0c0,1.3,1,2.2,2.3,2.2h3.7c1.3,0,2.3-0.9,2.3-2.2l0,0
		C86.4,199.6,85.4,198.5,84.1,198.5L84.1,198.5z"/>
	<path class="st13" d="M114.4,213.5H99.9c-1.3,0-2.3,1-2.3,2.3l0,0c0,1.3,1,2.3,2.3,2.3h14.5c1.3,0,2.3-1,2.3-2.3l0,0
		C116.7,214.6,115.7,213.5,114.4,213.5L114.4,213.5z"/>
	<path class="st13" d="M431.4,220.3h-3c-1.3,0-2.3,1-2.3,2.3l0,0c0,1.3,1,2.3,2.3,2.3h3c1.2,0,2.2-1,2.2-2.3l0,0
		C433.6,221.3,432.5,220.3,431.4,220.3L431.4,220.3z"/>
	<path class="st13" d="M277.1,225.3h-33.6c-1.3,0-2.3,1-2.3,2.3l0,0c0,1.3,1,2.3,2.3,2.3h33.6c1.3,0,2.3-1,2.3-2.3l0,0
		C279.4,226.3,278.4,225.3,277.1,225.3L277.1,225.3z"/>
	<path class="st13" d="M31.4,220.3h-3c-1.3,0-2.3,1-2.3,2.3l0,0c0,1.3,1,2.3,2.3,2.3h3c1.2,0,2.2-1,2.2-2.3l0,0
		C33.6,221.3,32.6,220.3,31.4,220.3L31.4,220.3z"/>
</g>
</svg>
