<svg xmlns="http://www.w3.org/2000/svg" viewBox="0 0 425.5 371.61"><defs><style>.cls-1{isolation:isolate;}.cls-10,.cls-14,.cls-16,.cls-19,.cls-2,.cls-7,.cls-9{mix-blend-mode:multiply;}.cls-3{fill:#bcbec0;}.cls-13,.cls-4{fill:#fff;}.cls-12,.cls-17,.cls-18,.cls-20,.cls-21,.cls-4,.cls-5,.cls-8{stroke:#000;}.cls-17,.cls-18,.cls-20,.cls-21,.cls-4,.cls-5,.cls-8{stroke-linecap:round;stroke-linejoin:round;}.cls-5{fill:#23479c;}.cls-6{fill:#e9e9ea;opacity:0.1;}.cls-7{fill:#b4a5b9;}.cls-8{fill:#a0a4a5;}.cls-9{fill:#cdcfd0;}.cls-10{fill:#cbccce;}.cls-11{fill:#d6dff1;opacity:0.4;}.cls-12{fill:#635aa7;stroke-miterlimit:10;}.cls-13{opacity:0.3;}.cls-14{fill:#b6b8ba;}.cls-15{fill:#231f20;}.cls-16{fill:#babcbe;}.cls-17{fill:#12abe3;}.cls-18{fill:#0087ba;}.cls-19{fill:#d1d3d4;}.cls-20{fill:#dcddde;}.cls-21{fill:none;}</style></defs><g class="cls-1"><g id="Capa_1" data-name="Capa 1"><g class="cls-2"><path class="cls-3" d="M155.44,227.7c-8.58-5.93-5.32-2.38-10.06-3.86s-5-1.17-7.4-5.32-2.36-8.57-6.2-9.16-11.84-5.63-14.22-9.76l-4.73.29-3.25-1.18-3.26,1.18-.59-3-1.18.3v2.66l-.3,2.66-1.78-1.47.3-3,.6-2.07-3.56,1.18-1.48,2.66L95.67,202H93l-3.25-.88s-4.74.59-4.74-5,0-6.51-7.39-6.21c0,0,.58-8,2.66-10.06s-4.74-1.78-5.63.89c0,0-1.18,5.62-6.8,4.73a13.4,13.4,0,0,1-3.26-14.79c3.56-8.87,4.44-7.1,9.17-6.21s1.49-3,5.63-2.36,3.84.59,5,2.66,3.25,6.21,2.07,8,6.51,2.36,3-8.88,5.91-10.35,8-10.05-4.44-10.94,3-12.43,5.62-1.77,5.62-1.77-1.47-5.62,6.22-5.62l1.48,1.48,3.55-2.07,3.26-2.95.88-2.67,4.15-.3,2.06,1.78,4.16-.6-1.49-5s-3.84-.59-4.44-3,4.14-1.47,1.48-5.61-3.85-5.62-7.69-7.69-3.55-7.69-6.81-10.66-2.36,7.7-5.62,4.44-5-9.17-13.91-8.28c0,0,2.37,5.91-.88,8.28,0,0,7.69,6.81-1.19,9.47,0,0,4.44,6.21-.59,7.1s-3.25-5.92-3.55-8.28c0,0-7.69-.6-9.46-2.67s-5.92-1.48-5.92-1.48l-1.19-3.84-2.07-1.19s.59-5.61,1.77-5.61,5.33-3.26,5.33-3.26l2.08-3.84,2.36-3v-3L82.65,84,85,85.44l2.37-5.32L88,76.27,82.65,76l-9.76,2.66-4.73-3L64.9,77.45l-6.8.29H52.47l-4.15-1.17-.87,2.07-3.26,1.77-4.14-1.18H36.79l.29-1.78-2.36-1.77-2.37-.89-2.66-.59-3-1.18-2.36.89s-4.15,1.18-6.52-3.56c0,0-12.42,4.44-14.79,4.15L0,74.14v26.42c2.2,1,4.84,2.59,5.72,4.69a39.35,39.35,0,0,0,4.15,7.1s6.5,9.17,11.83,12.42,0,10.36,2.67,19.52,4.73,10.05,4.73,10.05l3.25,1.48L35,159.37l1.78,4.74,2.07,2.36-3,.89,2.66,2.06,2.38,2.37,2.36,3.26,2.36,2.07-2.95-8.28-4.44-8,1.18-.6s2.67.3,5.33,5a30.39,30.39,0,0,1,3.25,7.4l3.26,4.43s1.47,3.55,0,5.32,12.43,8,14.2,8,4.44-1.19,5.92,1.47,4.14,2.67,7.39,3.55,3.56,3.85,2.67,5.92,5.62,1.78,7.1,4.14S90.35,202,92.42,204s2.66,5,.59,8.28-3.85,6.81-3.55,9.46a16.71,16.71,0,0,1-.59,8.29c-1.19,4.14,5.62,4.14,6.8,14.19s11,.59,9.77,17.45-2.37,9.17-2.07,18.63l-3.56,9.47.3,4.73-1.18,3.55L98,302.22v3.25l-1.18,5.92v8.87s5.32,11.24,15.68,8a36.93,36.93,0,0,1-4.15-5.91s-3-5.32,0-5,.3-4.73,3.26-5.62-4.44-2.66.29-7.09-1.47-4.74,1.78-7.39,4.15-5,8.28-4.75,5-2.94,5-6.2,5.32-1.18,7.1-10.06,9.47-16,13.6-14.79,5.63-13.6,5.63-17.74S164,233.61,155.44,227.7Z" transform="translate(0 -9.17)"/><path class="cls-3" d="M53.36,69.91l1.92,1h1.93l.73,1.18.6.59.15,1.78-2.52-.74-1,1.62-4.44.3-1.19-.74-2.06.74-2.23.59-3.7.44-2.21-1.33-1-.29-3.26-1-1.62-1.49s5.17-1,7-.59-.29-1.92-7.25-1.48L35,69l-2.22-1.18-.14-1.47L34,64.59l3.26-.45,1.47-.89.6,1.34h2.36l2.08,1.33.73-.59,1.78-.3,1,1.19,1.18,1.17v-4H50.1l.45-1.19,3.25.3L54,64.14l-.29,1.33-1.19.45.59,1.33Z" transform="translate(0 -9.17)"/><path class="cls-3" d="M27.42,60.2s3.45,1.38,5.32.7,5.34,2.06,4,2.46-4.93.59-5.92,2.46-1.68.89-1.68.89l-.09,1.48-1.58.59-1.68,1.08L24,68.29l-3.45-.7,2.07-2.75,1-1.09.7-1.68L22.59,60.6Z" transform="translate(0 -9.17)"/><path class="cls-3" d="M59.18,63.85v1.38H57.6l-1.08-.79s-1.38,1.38,1.18,2.37,2.17,1.08,2.86,1.87,1,1.87,2,1.08,1.19-1.38,2.57-1.28,1.18-1.77.49-2.56S63.72,64,64.21,63.25s-.2-3-1.28-2.16-2.27,1.38-3.26.79-2,.49-1.87,1.28S59.18,63.85,59.18,63.85Z" transform="translate(0 -9.17)"/><path class="cls-3" d="M64.5,47.09v1.38H62.93l-1.08-.79S60.46,49.06,63,50.05s2.18,1.08,2.86,1.87,1,1.88,2,1.08,1.18-1.37,2.56-1.28,1.19-1.77.49-2.56S69,47.29,69.54,46.5s-.2-3-1.29-2.17S66,45.7,65,45.12a1.31,1.31,0,0,0-1.88,1.28C63.22,47.19,64.5,47.09,64.5,47.09Z" transform="translate(0 -9.17)"/><path class="cls-3" d="M71.61,73.31s1.77-.59,1.38-1.18-1.09-1.68-1.09-1.68l-1.08-.88L70,68H68.85l.89-1.88s.59-1.38.88-1.19a5.52,5.52,0,0,0,1.87,0l.89-2.06,1.68-1.18s-5.23-1.18-6.9-.39S66.08,62.76,66.58,64a21.42,21.42,0,0,0,1.08,2.37l-.59,1.88L65.88,69l-1.38.79.8,1.58-.7,1.08,1.58.89,2.27.4.4.89,1.37-1Z" transform="translate(0 -9.17)"/><path class="cls-3" d="M56.71,53.55l1.92,1h1.93l.74,1.19.59.59L62,58.13l-2.52-.74-1,1.63-4.44.29-1.18-.74-2.07.74-2.22.6-3.71.45L42.66,59l-1-.3-3.25-1-1.63-1.48s5.17-1,7-.59-.3-1.92-7.25-1.48l1.92-1.48-2.22-1.18L36,50l1.33-1.77,3.26-.44,1.48-.89.59,1.33H45l2.06,1.33.75-.58,1.77-.3,1,1.18L51.83,51V47h1.63l.44-1.18,3.26.3.15,1.62L57,49.11l-1.18.44.59,1.33Z" transform="translate(0 -9.17)"/><path class="cls-3" d="M18.74,44.53V45.9H17.16l-1.08-.78s-1.38,1.38,1.18,2.37,2.17,1.08,2.86,1.87,1,1.87,2,1.08,1.19-1.38,2.56-1.28,1.19-1.78.5-2.56-1.87-1.88-1.38-2.67-.2-3-1.28-2.16-2.27,1.38-3.25.79a1.31,1.31,0,0,0-1.88,1.28C17.46,44.63,18.74,44.53,18.74,44.53Z" transform="translate(0 -9.17)"/><path class="cls-3" d="M31.16,54s1.79-.59,1.39-1.18-1.08-1.68-1.08-1.68l-1.09-.89-.79-1.57H28.41l.88-1.87s.6-1.39.9-1.19a5.79,5.79,0,0,0,1.87,0L33,43.55l1.67-1.19s-5.22-1.18-6.9-.39-2.08,1.47-1.58,2.75a21.42,21.42,0,0,0,1.08,2.37L26.63,49l-1.18.69-1.38.78L24.86,52l-.69,1.09,1.58.89,2.26.39.4.9,1.38-1Z" transform="translate(0 -9.17)"/><path class="cls-3" d="M99.81,84.55l-2.36.4H94.1l-1.19,1.28.39.69,1.19.49,1.38-.2s2.36-.49,2.86,0,.69.5,1.77,1.09a5.81,5.81,0,0,1,2.37,2.26A3.85,3.85,0,0,0,106,92.44a4.44,4.44,0,0,1,3.06.69,3.34,3.34,0,0,0,2.17.69c.69,0-3.55-2.56-4.44-4.14s4.64.49,6.42,2.07.29-2.67.29-2.67l-2.47-3.24-1.77-1.39.78-2.07,1.79.79a8,8,0,0,1,1.67,2.36c.69,1.48,2.27.6,2.76-.29s-.88-1.67,1-2.76,2.37-2.17.69-3-5.13-.3-5.82-1.19-4.54-1.58-3.85-2.07,2.28-.1,1.68-1.38a8.32,8.32,0,0,0-3.16-3.25,15.1,15.1,0,0,0-3-.89l-2.17-2.37H98.93l-1.39-.88-1.18-1.88H94.29l-.88.6-1.49.49-2.36-1.29a4,4,0,0,1-1-1.57c-.49-1.18-2.66-2-3.26-1.09s-3,1.28-3,1.87-.79,1.78.49,3.56,1.88,1.68,2.36,3a3,3,0,0,0,3.16,2.07,7.56,7.56,0,0,1,3.46.1c.49.19.59-1.28,2.27-.2a20.22,20.22,0,0,1,3.15,2.66l-1.88.5,1.39.39,1.78.2,2.16,1.48s1.48.2.49,1.88a4.47,4.47,0,0,1-2.37,2.06Z" transform="translate(0 -9.17)"/><path class="cls-3" d="M425.2,120.52l-.58-1.79-2.28,1.87-3.95-2.71-3.13,1.45s-.41-4.15,4.38-7.69a36.35,36.35,0,0,1,5.56-3.26V69.33a14.39,14.39,0,0,0-1.82.22c-3.12.62-5.93,3.12-6.87,3.43a3.13,3.13,0,0,1-3.74-.93c-1.25-1.57-4.36-.94-5.3,1.24s-6.25,1.56-5.93-.31,1.25-4.06.31-5.62-4.06-2.18-5.93-1.87-1.24,2.81-4.68,2.81S382.5,67.05,380,66.43s-5,2.8-5.61.62,0-3.43,1.56-5.61-5.93-7.18-7.49-7.79a5.57,5.57,0,0,0-5,.3,11.05,11.05,0,0,1-6.87,2.19c-3.43,0-7.8.62-8.11,2.18s-1.25,0-6.24,1.56-10,.94-10,3.74S331.32,68,328.21,68s.62,4.07.62,4.07-5.3-.94-7.5-1.57-3.11-1.87-5.6,1.25-6.25,2.8-8.75,2.18-5,.94-1.56,6.24-7.79-3.73-13.1-4.37,2.81,3.75.93,5S283.58,78,282,79.22s-8.74,5.62-11.23,6.23-1.57-2.8,0-2.8-1.25-3.74-4.37-1.56,0,4.36.62,5.3-2.81-.94-3.74,1.56,0,5.61-1.25,5.93-5-1.56-5-1.56l-2.19,1.24-5.61-8.11s17.47,5.31,13.41-2.49-11.55-5.3-14.66-5.61-5-3.12-6.87-3.44-4.68,1.57-4.68,1.57l-8.11,4.67-3.75-.31L223,82l-1.56,2.81-3.74,2.49A4.35,4.35,0,0,0,216,90.24c-.21,1.87-.62,2.71-1.87,3.32a11,11,0,0,0-2.71,2.51s-2.29-1.26-3.11.19-2.09,2.09-2.09,2.71-.62,2.29-.62,3.54a7.89,7.89,0,0,0,.83,4.16c.83,1.45,3.54,2.28,4.58,1.86s2.91-4.36,3.12-2.91,1,4.37,1,4.37a7.07,7.07,0,0,1,2.29,2.29c.83,1.46,0,2.5-.21,3.54s2.91,0,3.33-.84,3.33-1.87,3.74-6.45,2.92-2.08,3.54-2.08-.62-3.53-1.46-4.77-1-5,1.46-5.83,5.82-9.77,8.32-6.66-.63,4.17-3.74,6.88-1.67,3.94-1,5.19.42,2.08,1.25,2.91,1,1,3.54.41,5-2.9,6.24-1.87,1.46,2.5-.2,2.5-4,.21-5,1.24-2.29-.2-1.25,2.5-.42,2.71-2.08,1.25-2.91,1.46-2.29,3.12.21,2.7-1.66,3.12-1.25,2.08-2.5,1.45-2.49-.41-4.16.42-2.7,1.87-3.53.83a2.39,2.39,0,0,0-2.71-.62,5.23,5.23,0,0,1-3.33.41c-1.46-.41-.83-3.32-.21-3.74s.63-2.5.63-3.12-1.25-3.12-3.33-.63-.62,4.17-.62,6.45-.63,1.45-2.5,1.67-3.12.62-3.12,2.29.62,2.7-.63,2.91a4.05,4.05,0,0,0-2.7,1.66c-.63.83,0,.83-1.88,2.08a9.24,9.24,0,0,1-3.74,1.45L192.45,131,190,132.66l2.92,2.49s5,6.24,2.08,7.7-2.71.83-6.87-.42-2.49.62-3.75,2.29-1.66,7.06-1.66,7.06l2.71,5.83,3.75,1,2.28-.62,4-.84,1.45-2.08,1.25-4.15s2.91-2.49,4.37-2.91-1-5.2,4.58-3.54,2.28-4.58,5-2.91,2.08,3.12,2.08,3.12l4.78,3.53L221,149.7l1.25,1.26a9.41,9.41,0,0,1,0,4.37c-.62,1.65,2.29-1.46,2.29-1.46l.84-1.88-.64-2.07,2.3,1.66.62-1.46-2.28-2.28L223,147l-3.54-2.91L217.64,141l.2-2.07,3.12,1.66,6.25,4.16,1.87,3.53,2.91,6.66.84,2.91,2.9-.84-.83-3.74v-2.49l5.21-1.05-.63,3.34,1.87,3.32,2.91,1.25,1.45-2.28,1.88,1.24,2.91,1.67,3.33.83,1.25.62-.83,3.53L253,166.76l-2.29,2.7-4.16-.83-2.7,1.87-4.58-1.87-1.45.42-1.46-1.46-2.5-.62s-2.71-1.25-4.37.83-1,3.75-1,3.75-2.71-1.88-4.16-2.09a3.34,3.34,0,0,1-2.7-2.49c-.21-1-3.75-1.25-6.66-1.87s-1.25-3.13-.21-3.75,1.25-3.95-.41-4.37-4,.42-6.87.63-10.4,1.67-12.27,3.13-6.94,1.06-6.54-.4c-.88,1.47-3.89,5.91-5.95,5-2.7-1.25-1,4.57-.83,6.85s-4.16,2.5-5.62,3.54-6.24,8.11-5.82,15,2.28,8.11-.42,12.69,1,3.53-.2,5.61,6.86,2.91,6.86,7.9,4.58,2.29,7.9,5.82,6.45-1.66,8.95,0,8.74-7.48,12.07,0,9.15-1.86,6.65,10.61c0,0,4.79,6,5.42,13.52s4,5.61,2.08,8.52-5.41,3.75-1.05,16,2.92,3.94,2.71,10.39,6.65,11.43,5.41,15,3.74,5.41,10.19,2.29,12.69-7.49,12.69-18.09l4.58-2.29-.63-9.15,4.79-4.16s7.29-3.33,2.5-14.76c0,0-2.71-10.6,6.66-21.21,0,0,12.68-11.44,11.64-21.21l-8.73,2.71-1.67.41-1.24-2.91-1.46-1.87-5.2-4.37-2.71-7.27-2.08-2.92L255.5,188l-2.09-2.28-1-7.08,2.08-2.28,3.11,7.27s2.09,3.12,1.88,5.21,3.32,4.15,3.95,7.27,1.87,11.43,8.11,9.57l8.33-4s2.7-4,5-3.34,3.12-3.94,4.37-3.94,1.45-4.79,1.45-4.79l2.08-3.53-4-2.08-1.87-4-3.55,3.12-3.11.83-3.54-3.54-2.7-5.4,3.33-3.53,3.75,5.82,3.12,1.24,3.32-.41,1.88,2.07a15.78,15.78,0,0,0,7.9,1.67c3.95-.41,8.74,1.45,9.16,4.37s6.44,6.44,6.44,6.44L315,204.81s2.29,13.51,6.45,10.61,2.5.62,3.54,3.33,4.58.62,2.29-5.2-2.49-10.61-1.25-13.1,5.41-2.29,11.65-10,10,4.79,10,8.11,7.07,4.37,7.07,14.14,6.24,12.48,3.32,13.11-9.15-7.07-9.77-3.95,7.91,6.44,8.32,9.56,9.57,10,9.57,10l1.67-5.2L366,233.09l-2.91-2.7.83-6.86-3.53-5-1.46-2.29-2.29-4.57.84-4.79a25.79,25.79,0,0,0,3.95,1c.82,0,3.11,4.57,3.11,4.57l-.62,2.29,2.5-1,1.87-4,2.7-2.7s1.25-4.37-4.78-11,5-5.2,5.83-5.41,6.86-2.28,6.86-2.28,10.61-1.67,12.69-18.3c0,0-.62-8.52-2.28-8.32s1.24-4.79,3.11-4.79,0-4.15,1.88-4.15,6.65,1.87,6.65,3.95,0,1-1.45,4.37,5.61.42,5.41-1.25-2.92-9.36.42-12.89,5-3.75,6.66-3.12,6.23-13.52,10.39-18.3-.2,8.52-.2,11c0,1.58,1.58,1.41,3.06.22Z" transform="translate(0 -9.17)"/><polygon class="cls-3" points="379.69 228.29 380.31 230.58 382.39 229.33 383.85 223.71 386.14 221.43 387.18 219.35 386.35 216.02 386.35 212.9 387.6 210.82 386.14 208.12 385.93 204.79 384.27 208.74 381.36 211.86 377.41 212.9 375.95 216.65 372.82 218.51 370.95 219.35 371.57 223.92 373.66 227.66 376.36 228.29 378.86 228.08 379.69 228.29"/><path class="cls-3" d="M425.2,237.47c-1.58-1.16-3.14-2.25-3.48-2.92-.41-.84-2.08-1.25-3.33-.84s-3.95.84-4.78,1.46-1.05,3.74-1.05,3.74,9.78,4.79,5.83,6.45-1.67,3.74.21,3.74,4.78-2.49,5.62-.62a1.48,1.48,0,0,0,1,.87Z" transform="translate(0 -9.17)"/><path class="cls-3" d="M425.2,256.36a1.86,1.86,0,0,1-.36-1,9.22,9.22,0,0,0-1.25-4s-3.54-.21-1.87,14.14l-.68-.35c-1.1-.6-3.23-1.86-3.69-2.77-.63-1.24-4.58-2.29-4.58-2.29l3.12-4.78s-6.86-4.58-9.57-2.7-1,5.41-2.28,6.65-2.3-.2-4.8-.41-6,3.74-6.65,5.41-3.95,5.4-7.07,5.4-7.07,4-7.07,7.7,3.12,9.56,2.7,13.3,3.32,5.41.62,7.07-.41,4.58,5.83.42,7.49-3.53,10.61-3.33,7.91-2.49,9.57,0,2.71,2.29,5.83,3.54,4.78.41,4.78,3.12,4.79,2.5,5.83,4.78a6.08,6.08,0,0,0,1,1.45Z" transform="translate(0 -9.17)"/><polygon class="cls-3" points="369.5 233.7 372.62 234.74 376.99 234.11 379.69 235.57 380.31 237.02 386.35 237.64 389.06 237.02 391.76 238.27 397.38 238.47 395.92 240.56 390.72 241.39 384.06 240.35 380.11 240.35 377.41 239.1 374.07 237.23 370.12 238.06 366.38 236.61 369.5 233.7"/><path class="cls-3" d="M425.2,144.71c-.6-.41-1.09-.69-1.09-.69l-2.5-1.87.21,2.5a3.2,3.2,0,0,1-1.45.62c-.63,0-1.46,1.67-1.05,2.91s.21,2.71.42,4-.21,3.74-2.5,4.37-2.49,0-2.49,0l-1.05,6.23s-4.36,1.87-5.4,1.87-2.5,1.25-4.37,2.71.83,8.31.83,7.27,2.5-3.12,3.33-5,7.08-1.66,9-1.66,3.33-8.53,3.95-10.61,0-4.36-.62-6.65,4.16,1.87,4.16,0a1.56,1.56,0,0,1,.67-1.32Z" transform="translate(0 -9.17)"/><path class="cls-3" d="M107.8,55.11l9.76,4.14,5.63,8,5.91,5.91-1.77,4.73.29,5-4.14,3,7.7,10s3.55,3,4.73,3,5.62-4.15,5.62-5,3.26-8.28,3.26-8.28l11-6.21,7.39-1.19,4.73-2.66,2.37-4.73-2.66-4.43L172,59.84l4.14-2.07.6-10.35,2.36-3.85,1.77-3.84s-8,.59-9.76.88-7.69,3-8.87.3-1.48-5.61-3.86-5.61h-9.46c-1.48,0-3.84.29-5.92.29s-.59-2.37-4.14-1.78-3.85.3-6.51,2.37-3.54,1.78-5.91,2.37-3.85,0-5.92-.3.29-4.14-5.92.89-8.29,3.84-10.06,6.21-9.47,3.25-9.47,3.25S92.71,48,93.9,51s2.66,7.39,5.32,7.68S107.8,55.11,107.8,55.11Z" transform="translate(0 -9.17)"/></g><path class="cls-4" d="M302.11,228.2c-6.07-8.29-7.09-14-7.82-36.14-.63-19.36,2.71-35.94-1.65-60.69-1.05-6-26.23-13.62-25.9,35.26,0,0,2.63,24.09-.44,27.2-3.65,3.71-15.75-47.26-93.31-47.26-23.39,0-20,21.62-19.49,52.33.57,31.94-1,43.54-1,43.54s18.64,32,75.47,36.91c30,2.59,40,14.58,72.89,37.46l31.62-57.2S311.35,240.83,302.11,228.2Z" transform="translate(0 -9.17)"/><polygon class="cls-5" points="425 305.03 310.23 220.32 260.42 286.23 375.41 371.11 425 371.11 425 305.03"/><path class="cls-6" d="M298.4,257.43l-27.16,35.94,34.31,24.39C294.46,299.05,291.66,276.88,298.4,257.43Z" transform="translate(0 -9.17)"/><path class="cls-7" d="M425,314.2,310.23,229.49l-5.87,7.76a114.4,114.4,0,0,1,18,10.44,110.72,110.72,0,0,1,31.17,33.72c15.69,22.21,44,67.31,47.77,98.87H425Z" transform="translate(0 -9.17)"/><rect class="cls-8" x="156.19" y="100.31" width="124.98" height="186.84"/><rect class="cls-4" x="156.19" y="114.05" width="124.98" height="148.37"/><path class="cls-9" d="M156.19,123.22V271.59h125V123.22Zm118.2,140.33H163V131.26H274.39Z" transform="translate(0 -9.17)"/><path class="cls-4" d="M226.68,284a8,8,0,1,1-8-8A8,8,0,0,1,226.68,284Z" transform="translate(0 -9.17)"/><path class="cls-9" d="M218.68,276a8,8,0,1,0,8,8A8,8,0,0,0,218.68,276Zm0,13a5,5,0,1,1,4.95-5A5,5,0,0,1,218.68,289Z" transform="translate(0 -9.17)"/><path class="cls-10" d="M260,109.49a141,141,0,0,1-2.74,70.69A142.13,142.13,0,0,1,156.19,283.66v12.67h125V109.49Z" transform="translate(0 -9.17)"/><path class="cls-11" d="M191,136.77a112.43,112.43,0,0,1,26.63-19.7H162.32v68.39A113.15,113.15,0,0,1,191,136.77Z" transform="translate(0 -9.17)"/><path class="cls-12" d="M414.2,196.86A34.85,34.85,0,1,1,379.36,162,34.84,34.84,0,0,1,414.2,196.86Z" transform="translate(0 -9.17)"/><path class="cls-4" d="M404.34,196.86a25,25,0,1,1-25-25A25,25,0,0,1,404.34,196.86Z" transform="translate(0 -9.17)"/><path class="cls-9" d="M379.36,171.88a25,25,0,1,0,25,25A25,25,0,0,0,379.36,171.88Zm0,46.77a21.79,21.79,0,1,1,21.79-21.79A21.78,21.78,0,0,1,379.36,218.65Z" transform="translate(0 -9.17)"/><path class="cls-13" d="M352.67,191.8c1.4-10.3,8.54-17.19,17.43-21.12-.36-.07-.72-.14-1.09-.19a18,18,0,0,0-20.18,15.62,18.26,18.26,0,0,0,4.05,14.19A42.25,42.25,0,0,1,352.67,191.8Z" transform="translate(0 -9.17)"/><path class="cls-14" d="M390.33,163.78a33.3,33.3,0,0,1,9.38,23,33.74,33.74,0,0,1-33.42,33.43,32.79,32.79,0,0,1-16-4.2,34.85,34.85,0,1,0,40.06-52.27Z" transform="translate(0 -9.17)"/><path d="M388.46,178.62H370.25v5h1.3a27.66,27.66,0,0,1,3.16.21,8.25,8.25,0,0,1,2.68.83,4,4,0,0,1,1.65,1.58h-8.79v5h9.43a4.94,4.94,0,0,1-.54,1.53,4.54,4.54,0,0,1-1.85,1.81,8.41,8.41,0,0,1-2.74.89,23.09,23.09,0,0,1-3.52.24h-.53v4.87l11.18,16.22h6.53l-11.89-16.73a10.32,10.32,0,0,0,6.16-3.24A10.19,10.19,0,0,0,385,191.3h3.45v-5h-3.68a9.45,9.45,0,0,0-.79-2.15c-.08-.16-.17-.31-.27-.47h4.74Z" transform="translate(0 -9.17)"/><path class="cls-8" d="M103.09,196.86A34.85,34.85,0,1,1,68.25,162,34.84,34.84,0,0,1,103.09,196.86Z" transform="translate(0 -9.17)"/><path class="cls-4" d="M93.23,196.86a25,25,0,1,1-25-25A25,25,0,0,1,93.23,196.86Z" transform="translate(0 -9.17)"/><path class="cls-9" d="M68.25,171.88a25,25,0,1,0,25,25A25,25,0,0,0,68.25,171.88Zm0,46.77A21.79,21.79,0,1,1,90,196.86,21.78,21.78,0,0,1,68.25,218.65Z" transform="translate(0 -9.17)"/><path class="cls-13" d="M41.56,191.8C43,181.5,50.1,174.61,59,170.68c-.36-.07-.72-.14-1.09-.19a18,18,0,0,0-20.18,15.62,18.26,18.26,0,0,0,4.05,14.19A43,43,0,0,1,41.56,191.8Z" transform="translate(0 -9.17)"/><path d="M77,211.21H64.64a19.94,19.94,0,0,0-.35-10.78h11v-4.55H62.92c-1-3-1.58-5.2,0-8.29,3.87-7.59,12.41-4.47,12.83-4.33l1.55-4.71c-5-1.64-14.16-2.33-18.8,6.78a14.15,14.15,0,0,0-1,10.55H55.62v4.55h3.16c1.16,3.64,2.15,6.17-.1,10.76v0h-1.6v5H78.9v-5Z" transform="translate(0 -9.17)"/><path class="cls-14" d="M79.22,163.78a33.3,33.3,0,0,1,9.38,23,33.73,33.73,0,0,1-33.42,33.42,32.81,32.81,0,0,1-16-4.18,34.85,34.85,0,1,0,40.05-52.28Z" transform="translate(0 -9.17)"/><path class="cls-8" d="M157.75,74.6a29,29,0,1,1-29-29A29,29,0,0,1,157.75,74.6Z" transform="translate(0 -9.17)"/><circle class="cls-4" cx="128.79" cy="74.6" r="20.77" transform="translate(50.83 192.21) rotate(-88.5)"/><path class="cls-9" d="M128.79,53.82A20.78,20.78,0,1,0,149.56,74.6,20.77,20.77,0,0,0,128.79,53.82Zm0,38.89A18.12,18.12,0,1,1,146.9,74.6,18.11,18.11,0,0,1,128.79,92.71Z" transform="translate(0 -9.17)"/><path class="cls-13" d="M106.6,70.39c1.17-8.57,7.1-14.29,14.5-17.56-.3-.06-.6-.12-.91-.16a15,15,0,0,0-16.78,13,15.2,15.2,0,0,0,3.37,11.8A35.34,35.34,0,0,1,106.6,70.39Z" transform="translate(0 -9.17)"/><path class="cls-14" d="M137.91,47.1a27.66,27.66,0,0,1,7.8,19.15A28,28,0,0,1,117.93,94a27.24,27.24,0,0,1-13.32-3.49,29,29,0,1,0,33.3-43.45Z" transform="translate(0 -9.17)"/><polygon class="cls-15" points="130.84 69.42 140.53 52.56 135.79 52.56 128.79 64.82 121.78 52.56 117.05 52.56 126.74 69.42 126.74 70.94 121.93 70.94 121.93 74.33 126.74 74.33 126.74 82.03 130.84 82.03 130.84 74.33 135.64 74.33 135.64 70.94 130.84 70.94 130.84 69.42"/><path class="cls-12" d="M350.49,76.71a29,29,0,1,1-29-29A29,29,0,0,1,350.49,76.71Z" transform="translate(0 -9.17)"/><path class="cls-4" d="M342.29,76.71A20.79,20.79,0,1,1,321.5,55.92,20.79,20.79,0,0,1,342.29,76.71Z" transform="translate(0 -9.17)"/><polygon points="323.57 71.68 333.35 54.65 328.57 54.65 321.5 67.03 314.42 54.65 309.65 54.65 319.43 71.68 319.43 73.21 314.57 73.21 314.57 76.63 319.43 76.63 319.43 77.99 314.57 77.99 314.57 81.42 319.43 81.42 319.43 84.41 323.57 84.41 323.57 81.42 328.42 81.42 328.42 77.99 323.57 77.99 323.57 76.63 328.42 76.63 328.42 73.21 323.57 73.21 323.57 71.68"/><path class="cls-9" d="M321.5,55.92a20.79,20.79,0,1,0,20.79,20.79A20.79,20.79,0,0,0,321.5,55.92Zm0,38.92a18.13,18.13,0,1,1,18.13-18.13A18.13,18.13,0,0,1,321.5,94.84Z" transform="translate(0 -9.17)"/><path class="cls-13" d="M299.3,72.5c1.16-8.57,7.1-14.3,14.5-17.57-.3-.06-.6-.12-.91-.16a15,15,0,0,0-16.79,13,15.19,15.19,0,0,0,3.38,11.81A34.71,34.71,0,0,1,299.3,72.5Z" transform="translate(0 -9.17)"/><path class="cls-16" d="M330.63,49.19a27.69,27.69,0,0,1,7.81,19.17,28.07,28.07,0,0,1-27.81,27.81,27.24,27.24,0,0,1-13.32-3.49,29,29,0,1,0,33.32-43.49Z" transform="translate(0 -9.17)"/><path class="cls-17" d="M290,38.39A28.72,28.72,0,1,1,261.24,9.67,28.71,28.71,0,0,1,290,38.39Z" transform="translate(0 -9.17)"/><path class="cls-4" d="M281.84,38.39a20.6,20.6,0,1,1-20.6-20.6A20.59,20.59,0,0,1,281.84,38.39Z" transform="translate(0 -9.17)"/><path class="cls-9" d="M261.24,17.79a20.6,20.6,0,1,0,20.6,20.6A20.59,20.59,0,0,0,261.24,17.79Zm0,38.56a18,18,0,1,1,18-18A18,18,0,0,1,261.24,56.35Z" transform="translate(0 -9.17)"/><path class="cls-15" d="M268.32,40.82a6.42,6.42,0,0,0-1.31-2,8.79,8.79,0,0,0-1.85-1.41c-.67-.38-1.49-.79-2.43-1.21l-.05,0V28.57a3.21,3.21,0,0,1,.88.4,5.65,5.65,0,0,1,1.68,1.94l.13.24L268,29.46l-.12-.21a7.21,7.21,0,0,0-5.2-3.84v-.92h-2.9v.94a8,8,0,0,0-1.19.32,7.11,7.11,0,0,0-2.3,1.32,6,6,0,0,0-1.59,2.08,6.32,6.32,0,0,0-.56,2.67,5.89,5.89,0,0,0,.43,2.34,5.54,5.54,0,0,0,1.2,1.78,8.48,8.48,0,0,0,1.68,1.3c.6.35,1.34.72,2.2,1.12l.13.06V48.1A4.17,4.17,0,0,1,257.64,47a5.29,5.29,0,0,1-1.57-3.1l-.05-.29-3.2.9.05.24a8.18,8.18,0,0,0,2.75,4.76,7.62,7.62,0,0,0,4.16,1.75v1.07h2.9V51.06a7.2,7.2,0,0,0,1.22-.38A7.82,7.82,0,0,0,266.46,49a7.71,7.71,0,0,0,1.73-2.52,7.92,7.92,0,0,0,.61-3.09A6.74,6.74,0,0,0,268.32,40.82ZM263,39.93a6.4,6.4,0,0,1,1.25.88,3.62,3.62,0,0,1,.9,1.21,3.65,3.65,0,0,1,.34,1.65,4.28,4.28,0,0,1-.38,1.78,4.63,4.63,0,0,1-1.07,1.45,5,5,0,0,1-1.4.89v-8Zm-3.36-5.08a7.09,7.09,0,0,1-1.13-.74,3.35,3.35,0,0,1-.83-1,2.38,2.38,0,0,1-.31-1.22,3.22,3.22,0,0,1,1.12-2.55,4,4,0,0,1,1.25-.76V34.9Z" transform="translate(0 -9.17)"/><path class="cls-13" d="M239.25,34.21c1.16-8.49,7-14.16,14.37-17.4-.3-.06-.6-.12-.9-.16a14.87,14.87,0,0,0-16.63,12.87,15,15,0,0,0,3.34,11.7A34.84,34.84,0,0,1,239.25,34.21Z" transform="translate(0 -9.17)"/><path class="cls-16" d="M270.29,11.13a27.42,27.42,0,0,1,7.73,19,27.8,27.8,0,0,1-27.54,27.55,27.11,27.11,0,0,1-13.2-3.45,28.72,28.72,0,1,0,33-43.08Z" transform="translate(0 -9.17)"/><path class="cls-5" d="M219,39.1a28,28,0,1,1-28-28A28,28,0,0,1,219,39.1Z" transform="translate(0 -9.17)"/><circle class="cls-4" cx="191.02" cy="39.1" r="20.08" transform="matrix(0.16, -0.99, 0.99, 0.16, 121.64, 212.14)"/><path class="cls-9" d="M191,19A20.09,20.09,0,1,0,211.1,39.1,20.08,20.08,0,0,0,191,19Zm0,37.6A17.52,17.52,0,1,1,208.53,39.1,17.52,17.52,0,0,1,191,56.61Z" transform="translate(0 -9.17)"/><path class="cls-13" d="M169.57,35c1.13-8.29,6.86-13.82,14-17-.29-.06-.58-.11-.88-.15a14.5,14.5,0,0,0-16.22,12.55,14.68,14.68,0,0,0,3.26,11.41A33.81,33.81,0,0,1,169.57,35Z" transform="translate(0 -9.17)"/><path d="M186.8,31.91a11,11,0,0,1,3.26-2.26,9.57,9.57,0,0,1,3.9-.82,10.18,10.18,0,0,1,3.26.54V26a14.2,14.2,0,0,0-3.09-.34,13.73,13.73,0,0,0-5.3,1.05,14,14,0,0,0-4.41,2.93,13.59,13.59,0,0,0-3,4.34,10.72,10.72,0,0,0-.48,1.3h-2.09v3.46h1.51c0,.16,0,.31,0,.47a13.9,13.9,0,0,0,.08,1.44h-2.37v3.45h3.27c0,.09.07.18.11.27a13.4,13.4,0,0,0,3,4.27,14,14,0,0,0,4.4,2.88,13.86,13.86,0,0,0,5.27,1,13.07,13.07,0,0,0,3.09-.38V48.82a9.79,9.79,0,0,1-7.13-.28,10.67,10.67,0,0,1-3.29-2.26,10.07,10.07,0,0,1-1.65-2.19h9.53V40.64H183.93a10,10,0,0,1-.12-1.54c0-.13,0-.25,0-.37H195.3V35.27H184.57l0-.06A10.37,10.37,0,0,1,186.8,31.91Z" transform="translate(0 -9.17)"/><path class="cls-16" d="M199.84,12.51A26.76,26.76,0,0,1,207.38,31a27.11,27.11,0,0,1-26.86,26.86,26.42,26.42,0,0,1-12.88-3.37,28,28,0,1,0,32.2-42Z" transform="translate(0 -9.17)"/><path class="cls-17" d="M115.47,125.31a29,29,0,1,1-29-29A29,29,0,0,1,115.47,125.31Z" transform="translate(0 -9.17)"/><path class="cls-4" d="M107.28,125.31A20.78,20.78,0,1,1,86.5,104.53,20.77,20.77,0,0,1,107.28,125.31Z" transform="translate(0 -9.17)"/><path class="cls-9" d="M86.5,104.53a20.78,20.78,0,1,0,20.78,20.78A20.77,20.77,0,0,0,86.5,104.53Zm0,38.89a18.12,18.12,0,1,1,18.12-18.11A18.11,18.11,0,0,1,86.5,143.42Z" transform="translate(0 -9.17)"/><path class="cls-13" d="M64.32,121.1c1.16-8.57,7.09-14.29,14.49-17.56-.3-.06-.6-.12-.91-.16a15,15,0,0,0-16.78,13,15.2,15.2,0,0,0,3.37,11.8A35.34,35.34,0,0,1,64.32,121.1Z" transform="translate(0 -9.17)"/><path class="cls-14" d="M95.63,97.81a27.66,27.66,0,0,1,7.8,19.15,28,28,0,0,1-27.79,27.78,27.2,27.2,0,0,1-13.31-3.48,29,29,0,1,0,33.3-43.45Z" transform="translate(0 -9.17)"/><path d="M96.37,115.51a7.75,7.75,0,0,0-2.63-3.09,8,8,0,0,0-3.37-1.37,27.24,27.24,0,0,0-4.24-.28H80.79l0,13.74-1.67,0v3.83l1.61,0v1.21H79.17v4h1.61v7.71H85V133.6h8.67v-4H85v-1.23H87a17.21,17.21,0,0,0,4-.43,8,8,0,0,0,3.31-1.64,8.09,8.09,0,0,0,2.24-3,9.48,9.48,0,0,0,.76-3.72A9.23,9.23,0,0,0,96.37,115.51Zm-3.8,6.34a3.47,3.47,0,0,1-1.28,1.45,5.61,5.61,0,0,1-2,.8,12.45,12.45,0,0,1-2.55.25H85v-9.57h.74a25.57,25.57,0,0,1,3,.15,7.21,7.21,0,0,1,2.23.63,3.33,3.33,0,0,1,1.5,1.38,5,5,0,0,1,.56,2.54A5.35,5.35,0,0,1,92.57,121.85Z" transform="translate(0 -9.17)"/><path class="cls-5" d="M391.45,125.31a29,29,0,1,1-29-29A29,29,0,0,1,391.45,125.31Z" transform="translate(0 -9.17)"/><path class="cls-4" d="M383.26,125.31a20.77,20.77,0,1,1-20.77-20.78A20.77,20.77,0,0,1,383.26,125.31Z" transform="translate(0 -9.17)"/><path class="cls-9" d="M362.49,104.53a20.78,20.78,0,1,0,20.77,20.78A20.77,20.77,0,0,0,362.49,104.53Zm0,38.89a18.12,18.12,0,1,1,18.11-18.11A18.11,18.11,0,0,1,362.49,143.42Z" transform="translate(0 -9.17)"/><path class="cls-13" d="M340.31,121.1c1.16-8.57,7.09-14.29,14.49-17.56-.3-.06-.6-.12-.91-.16a15,15,0,0,0-16.78,13,15.2,15.2,0,0,0,3.37,11.8A34.61,34.61,0,0,1,340.31,121.1Z" transform="translate(0 -9.17)"/><path class="cls-14" d="M371.61,97.81a27.66,27.66,0,0,1,7.8,19.15,28,28,0,0,1-27.78,27.78,27.26,27.26,0,0,1-13.32-3.48,29,29,0,1,0,33.3-43.45Z" transform="translate(0 -9.17)"/><polygon points="370.71 105.37 370.71 101.28 356 101.28 356 120.54 353.43 120.54 353.43 124.1 356 124.1 356 132.46 360.33 132.46 360.33 124.1 368.28 124.1 368.28 120.54 360.33 120.54 360.33 117.47 370.38 117.47 370.38 113.38 360.33 113.38 360.33 105.37 370.71 105.37"/><rect class="cls-18" x="183.24" y="174.32" width="15.88" height="60.23"/><rect class="cls-19" x="191.61" y="174.32" width="7.51" height="60.23"/><rect class="cls-12" x="202.66" y="195.69" width="15.88" height="39.87"/><rect class="cls-19" x="210.51" y="195.69" width="8.03" height="39.87"/><rect class="cls-8" x="222.08" y="182.71" width="15.88" height="52.84"/><rect class="cls-19" x="230.06" y="182.71" width="7.9" height="52.84"/><rect class="cls-20" x="241.5" y="204.44" width="15.88" height="31.12"/><rect class="cls-19" x="249.39" y="204.44" width="7.98" height="31.12"/><polygon class="cls-5" points="175.85 232.59 175.85 144.84 171.03 144.84 171.03 237.42 265.99 237.42 265.99 232.59 175.85 232.59"/><polyline class="cls-21" points="181.97 168.36 197.92 159.82 211.44 185.3 229.97 166.9 249.44 192.56 264 176.12"/><path class="cls-5" d="M183.14,179.45a2.59,2.59,0,1,1,.56-3.62A2.6,2.6,0,0,1,183.14,179.45Z" transform="translate(0 -9.17)"/><path class="cls-5" d="M231.29,178.34a2.58,2.58,0,1,1,.56-3.61A2.57,2.57,0,0,1,231.29,178.34Z" transform="translate(0 -9.17)"/><path class="cls-5" d="M213.31,196.67a2.59,2.59,0,1,1,.56-3.62A2.59,2.59,0,0,1,213.31,196.67Z" transform="translate(0 -9.17)"/><path class="cls-5" d="M199.15,171.37a2.58,2.58,0,1,1,.56-3.61A2.57,2.57,0,0,1,199.15,171.37Z" transform="translate(0 -9.17)"/><path class="cls-5" d="M251,203.82a2.59,2.59,0,1,1,.56-3.62A2.58,2.58,0,0,1,251,203.82Z" transform="translate(0 -9.17)"/><path class="cls-5" d="M265.26,187.05a2.59,2.59,0,1,1,.56-3.62A2.6,2.6,0,0,1,265.26,187.05Z" transform="translate(0 -9.17)"/><path class="cls-4" d="M194.59,191.73c-.16,6.32-5.82,11.32-12.63,11.17l-32.4-.71c-6.8-.14-12.2-5.39-12-11.71h0c.16-6.32,5.82-11.32,12.63-11.17l32.39.71c6.82.15,12.21,5.39,12.05,11.71Z" transform="translate(0 -9.17)"/><path class="cls-4" d="M194.69,166.54c.46,6.31-4.67,11.77-11.47,12.2l-32.33,2c-6.8.43-12.69-4.34-13.15-10.65h0c-.46-6.3,4.67-11.77,11.47-12.19l32.33-2c6.8-.43,12.69,4.34,13.15,10.64Z" transform="translate(0 -9.17)"/><path class="cls-4" d="M195.49,217.45c-.87,6.27-7.06,10.69-13.82,9.87l-32.14-3.87c-6.75-.82-11.52-6.56-10.64-12.83h0c.88-6.27,7.07-10.69,13.83-9.88l32.13,3.88c6.76.81,11.52,6.56,10.64,12.83Z" transform="translate(0 -9.17)"/><path class="cls-4" d="M191.52,242c-1.44,6.18-8,10.11-14.66,8.78l-31.68-6.33c-6.66-1.33-10.9-7.42-9.46-13.6h0c1.43-6.18,8-10.11,14.66-8.78l31.67,6.33c6.66,1.33,10.9,7.42,9.47,13.6Z" transform="translate(0 -9.17)"/></g></g></svg>