<svg xmlns="http://www.w3.org/2000/svg" viewBox="0 0 359.59 349.29"><defs><style>.cls-1{isolation:isolate;}.cls-12,.cls-2,.cls-4,.cls-5,.cls-8,.cls-9{fill:#003c58;}.cls-2{opacity:0.3;}.cls-12,.cls-2{mix-blend-mode:multiply;}.cls-3{fill:#009c73;}.cls-12,.cls-13,.cls-5{opacity:0.6;}.cls-13,.cls-14,.cls-5,.cls-9{mix-blend-mode:overlay;}.cls-6{fill:#00877e;}.cls-15,.cls-7{fill:#fff;}.cls-8{opacity:0.2;}.cls-10{fill:#f79039;}.cls-11,.cls-14{fill:#f26735;}.cls-15{font-size:27.55px;font-family:BebasKai, Bebas Kai;}.cls-16{letter-spacing:0em;}.cls-17{letter-spacing:0em;}.cls-18{letter-spacing:-0.01em;}.cls-19{fill:#00a86f;}.cls-20{fill:#00a96d;}.cls-21{fill:#cdcccc;}.cls-22{fill:#e6e6e5;}</style></defs><g class="cls-1"><g id="Layer_1" data-name="Layer 1"><path id="SHADOW" class="cls-2" d="M348,334.84c0,9.38-73.8,17-164.83,17s-164.82-7.61-164.82-17,73.8-17,164.82-17S348,325.46,348,334.84Z" transform="translate(-3.63 -2.54)"/><g id="TREES_BACK" data-name="TREES BACK"><path class="cls-3" d="M328.72,223.27a29.27,29.27,0,1,1-58.53,0c0-16.16,13.1-45.5,29.26-45.5S328.72,207.11,328.72,223.27Z" transform="translate(-3.63 -2.54)"/><path class="cls-4" d="M316.26,224.6a1,1,0,0,0-1.39-.1L300.44,237V216.68l7.69-11.32a1,1,0,0,0-.26-1.37,1,1,0,0,0-1.37.26l-6.06,8.93V194a1,1,0,0,0-2,0v19.65l-6.39-9.41a1,1,0,0,0-1.37-.26,1,1,0,0,0-.26,1.37l7.86,11.57a.93.93,0,0,0,.16.18v20.22L283.71,224.5a1,1,0,0,0-1.39.1,1,1,0,0,0,.1,1.38l16.05,14v65a1,1,0,1,0,2,0V239.65L316.16,226A1,1,0,0,0,316.26,224.6Z" transform="translate(-3.63 -2.54)"/><path class="cls-5" d="M270.19,223.27a29.27,29.27,0,1,0,58.53,0,42.94,42.94,0,0,0-.81-7.76H271A42.06,42.06,0,0,0,270.19,223.27Z" transform="translate(-3.63 -2.54)"/><path class="cls-3" d="M95.36,223.27a29.27,29.27,0,1,1-58.53,0c0-16.16,13.11-45.5,29.27-45.5S95.36,207.11,95.36,223.27Z" transform="translate(-3.63 -2.54)"/><path class="cls-4" d="M82.9,224.6a1,1,0,0,0-1.38-.1L67.08,237V216.68l7.69-11.32a1,1,0,1,0-1.62-1.11l-6.07,8.93V194a1,1,0,0,0-2,0v19.65l-6.39-9.41a1,1,0,1,0-1.63,1.11L65,216.93a.9.9,0,0,0,.15.18v20.22L50.35,224.5A1,1,0,1,0,49.06,226l16,14v65a1,1,0,1,0,2,0V239.65L82.81,226A1,1,0,0,0,82.9,224.6Z" transform="translate(-3.63 -2.54)"/><path class="cls-5" d="M36.83,223.27a29.27,29.27,0,1,0,58.53,0,42.06,42.06,0,0,0-.81-7.76H37.64A42.94,42.94,0,0,0,36.83,223.27Z" transform="translate(-3.63 -2.54)"/></g><g id="HOTEL"><g id="LEFT"><rect class="cls-6" x="51.22" y="80.48" width="89.44" height="250.48" rx="3"/><rect class="cls-7" x="65.31" y="102.92" width="21.11" height="30.7"/><rect class="cls-7" x="63.4" y="99.02" width="24.92" height="3.9" rx="0.82"/><rect class="cls-4" x="68.17" y="105.11" width="6.15" height="17.91"/><rect class="cls-4" x="77.4" y="105.11" width="6.15" height="17.91"/><rect class="cls-4" x="68.17" y="124.83" width="6.15" height="7.11"/><rect class="cls-4" x="77.4" y="124.83" width="6.15" height="7.11"/><rect class="cls-8" x="65.31" y="133.14" width="21.11" height="0.48"/><rect class="cls-8" x="65.31" y="102.92" width="21.11" height="0.48"/><path class="cls-7" d="M68.94,101.56S70.91,96,79.49,96C88.76,96,90,101.56,90,101.56" transform="translate(-3.63 -2.54)"/><path class="cls-8" d="M74.63,101.56s.91-2.39,4.86-2.39c4.27,0,4.86,2.39,4.86,2.39" transform="translate(-3.63 -2.54)"/><rect class="cls-7" x="63.4" y="133.62" width="24.92" height="3.9" rx="0.82"/><rect class="cls-9" x="68.17" y="105.11" width="6.15" height="0.89"/><rect class="cls-9" x="77.4" y="105.11" width="6.15" height="0.89"/><rect class="cls-9" x="68.17" y="124.83" width="6.15" height="0.89"/><rect class="cls-9" x="77.4" y="124.83" width="6.15" height="0.89"/><rect class="cls-7" x="105.48" y="102.92" width="21.11" height="30.7"/><rect class="cls-7" x="103.57" y="99.02" width="24.92" height="3.9" rx="0.82"/><rect class="cls-4" x="108.34" y="105.11" width="6.15" height="17.91"/><rect class="cls-4" x="117.57" y="105.11" width="6.15" height="17.91"/><rect class="cls-4" x="108.34" y="124.83" width="6.15" height="7.11"/><rect class="cls-4" x="117.57" y="124.83" width="6.15" height="7.11"/><rect class="cls-8" x="105.48" y="133.14" width="21.11" height="0.48"/><rect class="cls-8" x="105.48" y="102.92" width="21.11" height="0.48"/><path class="cls-7" d="M109.11,101.56s2-5.61,10.55-5.61c9.27,0,10.56,5.61,10.56,5.61" transform="translate(-3.63 -2.54)"/><path class="cls-8" d="M114.8,101.56s.91-2.39,4.86-2.39c4.27,0,4.87,2.39,4.87,2.39" transform="translate(-3.63 -2.54)"/><rect class="cls-7" x="103.57" y="133.62" width="24.92" height="3.9" rx="0.82"/><rect class="cls-9" x="108.34" y="105.11" width="6.15" height="0.89"/><rect class="cls-9" x="117.57" y="105.11" width="6.15" height="0.89"/><rect class="cls-9" x="108.34" y="124.83" width="6.15" height="0.89"/><rect class="cls-9" x="117.57" y="124.83" width="6.15" height="0.89"/><rect class="cls-7" x="65.31" y="156.11" width="21.11" height="30.7"/><rect class="cls-7" x="63.4" y="152.21" width="24.92" height="3.9" rx="0.82"/><rect class="cls-4" x="68.17" y="158.3" width="6.15" height="17.91"/><rect class="cls-4" x="77.4" y="158.3" width="6.15" height="17.91"/><rect class="cls-4" x="68.17" y="178.02" width="6.15" height="7.11"/><rect class="cls-4" x="77.4" y="178.02" width="6.15" height="7.11"/><rect class="cls-8" x="65.31" y="186.33" width="21.11" height="0.48"/><rect class="cls-8" x="65.31" y="156.11" width="21.11" height="0.48"/><path class="cls-7" d="M68.94,154.75s2-5.6,10.55-5.6c9.27,0,10.55,5.6,10.55,5.6" transform="translate(-3.63 -2.54)"/><path class="cls-8" d="M74.63,154.75s.91-2.39,4.86-2.39c4.27,0,4.86,2.39,4.86,2.39" transform="translate(-3.63 -2.54)"/><rect class="cls-7" x="63.4" y="186.81" width="24.92" height="3.9" rx="0.82"/><rect class="cls-9" x="68.17" y="158.3" width="6.15" height="0.89"/><rect class="cls-9" x="77.4" y="158.3" width="6.15" height="0.89"/><rect class="cls-9" x="68.17" y="178.02" width="6.15" height="0.89"/><rect class="cls-9" x="77.4" y="178.02" width="6.15" height="0.89"/><rect class="cls-7" x="105.48" y="156.11" width="21.11" height="30.7"/><rect class="cls-7" x="103.57" y="152.21" width="24.92" height="3.9" rx="0.82"/><rect class="cls-4" x="108.34" y="158.3" width="6.15" height="17.91"/><rect class="cls-4" x="117.57" y="158.3" width="6.15" height="17.91"/><rect class="cls-4" x="108.34" y="178.02" width="6.15" height="7.11"/><rect class="cls-4" x="117.57" y="178.02" width="6.15" height="7.11"/><rect class="cls-8" x="105.48" y="186.33" width="21.11" height="0.48"/><rect class="cls-8" x="105.48" y="156.11" width="21.11" height="0.48"/><path class="cls-7" d="M109.11,154.75s2-5.6,10.55-5.6c9.27,0,10.56,5.6,10.56,5.6" transform="translate(-3.63 -2.54)"/><path class="cls-8" d="M114.8,154.75s.91-2.39,4.86-2.39c4.27,0,4.87,2.39,4.87,2.39" transform="translate(-3.63 -2.54)"/><rect class="cls-7" x="103.57" y="186.81" width="24.92" height="3.9" rx="0.82"/><rect class="cls-9" x="108.34" y="158.3" width="6.15" height="0.89"/><rect class="cls-9" x="117.57" y="158.3" width="6.15" height="0.89"/><rect class="cls-9" x="108.34" y="178.02" width="6.15" height="0.89"/><rect class="cls-9" x="117.57" y="178.02" width="6.15" height="0.89"/><rect class="cls-7" x="65.31" y="208.86" width="21.11" height="30.7"/><rect class="cls-7" x="63.4" y="204.96" width="24.92" height="3.9" rx="0.82"/><rect class="cls-4" x="68.17" y="211.04" width="6.15" height="17.92"/><rect class="cls-4" x="77.4" y="211.04" width="6.15" height="17.92"/><rect class="cls-4" x="68.17" y="230.77" width="6.15" height="7.11"/><rect class="cls-4" x="77.4" y="230.77" width="6.15" height="7.11"/><rect class="cls-8" x="65.31" y="239.08" width="21.11" height="0.48"/><rect class="cls-8" x="65.31" y="208.86" width="21.11" height="0.48"/><path class="cls-7" d="M68.94,207.5s2-5.61,10.55-5.61c9.27,0,10.55,5.61,10.55,5.61" transform="translate(-3.63 -2.54)"/><path class="cls-8" d="M74.63,207.5s.91-2.39,4.86-2.39c4.27,0,4.86,2.39,4.86,2.39" transform="translate(-3.63 -2.54)"/><rect class="cls-7" x="63.4" y="239.56" width="24.92" height="3.9" rx="0.82"/><rect class="cls-9" x="68.17" y="211.04" width="6.15" height="0.89"/><rect class="cls-9" x="77.4" y="211.04" width="6.15" height="0.89"/><rect class="cls-9" x="68.17" y="230.77" width="6.15" height="0.89"/><rect class="cls-9" x="77.4" y="230.77" width="6.15" height="0.89"/><polygon class="cls-4" points="135.13 42.75 57.39 42.75 51.22 84.77 140.66 84.77 135.13 42.75"/><rect class="cls-5" x="51.22" y="86.89" width="89.44" height="1.44"/><rect class="cls-10" x="48.71" y="76.9" width="95.36" height="7.15" rx="1.79"/><rect class="cls-7" x="51.22" y="84.06" width="89.44" height="2.9"/><rect class="cls-11" x="51.22" y="84.06" width="89.44" height="2.9"/><rect class="cls-10" x="64.44" y="32.4" width="10.08" height="10.36"/><rect class="cls-10" x="63.28" y="29.43" width="12.38" height="3.06" rx="0.89"/><rect class="cls-12" x="64.44" y="32.49" width="10.08" height="1.04"/><rect class="cls-10" x="117.27" y="32.4" width="10.08" height="10.36"/><rect class="cls-10" x="116.11" y="29.43" width="12.38" height="3.06" rx="0.89"/><rect class="cls-12" x="117.27" y="32.49" width="10.08" height="1.04"/><rect class="cls-5" x="65.31" y="137.52" width="21.11" height="1.6"/><rect class="cls-5" x="105.48" y="137.52" width="21.11" height="1.6"/><rect class="cls-5" x="65.31" y="190.71" width="21.11" height="1.6"/><rect class="cls-5" x="105.48" y="190.71" width="21.11" height="1.6"/><rect class="cls-5" x="65.31" y="243.46" width="21.11" height="1.6"/><rect class="cls-5" x="105.48" y="243.46" width="21.11" height="1.6"/><path class="cls-5" d="M110.2,64.73A10.56,10.56,0,1,1,99.64,54.17,10.56,10.56,0,0,1,110.2,64.73Z" transform="translate(-3.63 -2.54)"/><path class="cls-7" d="M110.2,62.76A10.56,10.56,0,1,1,99.64,52.21,10.56,10.56,0,0,1,110.2,62.76Z" transform="translate(-3.63 -2.54)"/><path class="cls-4" d="M100.3,62.11h7.44a8.12,8.12,0,0,0-7.44-7.44Z" transform="translate(-3.63 -2.54)"/><path class="cls-4" d="M99,62.11V54.67a8.1,8.1,0,0,0-7.44,7.44Z" transform="translate(-3.63 -2.54)"/><path class="cls-4" d="M99,63.42H91.55A8.12,8.12,0,0,0,99,70.86Z" transform="translate(-3.63 -2.54)"/><path class="cls-4" d="M100.3,63.42v7.44a8.13,8.13,0,0,0,7.44-7.44Z" transform="translate(-3.63 -2.54)"/><g class="cls-13"><path class="cls-4" d="M107.52,62.11h.22a8.12,8.12,0,0,0-7.44-7.44V56A8.13,8.13,0,0,1,107.52,62.11Z" transform="translate(-3.63 -2.54)"/></g><g class="cls-13"><path class="cls-4" d="M91.55,62.11h.22A8.11,8.11,0,0,1,99,56V54.67A8.1,8.1,0,0,0,91.55,62.11Z" transform="translate(-3.63 -2.54)"/></g><rect class="cls-7" x="105.48" y="208.86" width="21.11" height="30.7"/><rect class="cls-7" x="103.57" y="204.96" width="24.92" height="3.9" rx="0.82"/><rect class="cls-4" x="108.34" y="211.04" width="6.15" height="17.92"/><rect class="cls-4" x="117.57" y="211.04" width="6.15" height="17.92"/><rect class="cls-4" x="108.34" y="230.77" width="6.15" height="7.11"/><rect class="cls-4" x="117.57" y="230.77" width="6.15" height="7.11"/><rect class="cls-8" x="105.48" y="239.08" width="21.11" height="0.48"/><rect class="cls-8" x="105.48" y="208.86" width="21.11" height="0.48"/><path class="cls-7" d="M109.11,207.5s2-5.61,10.55-5.61c9.27,0,10.56,5.61,10.56,5.61" transform="translate(-3.63 -2.54)"/><path class="cls-8" d="M114.8,207.5s.91-2.39,4.86-2.39c4.27,0,4.87,2.39,4.87,2.39" transform="translate(-3.63 -2.54)"/><rect class="cls-7" x="103.57" y="239.56" width="24.92" height="3.9" rx="0.82"/><rect class="cls-9" x="108.34" y="211.04" width="6.15" height="0.89"/><rect class="cls-9" x="117.57" y="211.04" width="6.15" height="0.89"/><rect class="cls-9" x="108.34" y="230.77" width="6.15" height="0.89"/><rect class="cls-9" x="117.57" y="230.77" width="6.15" height="0.89"/><rect class="cls-7" x="64.04" y="285.3" width="57.03" height="30.7"/><rect class="cls-8" x="64.04" y="315.52" width="57.03" height="0.48"/><rect class="cls-8" x="64.04" y="285.3" width="57.03" height="0.48"/><path class="cls-7" d="M67.82,283.94s5.3-6.41,28.35-6.41c24.89,0,28.35,6.41,28.35,6.41" transform="translate(-3.63 -2.54)"/><path class="cls-8" d="M83.11,283.94s2.44-2.73,13.06-2.73c11.47,0,13.06,2.73,13.06,2.73" transform="translate(-3.63 -2.54)"/><path class="cls-7" d="M125.45,283.94H66.92a.82.82,0,0,0-.82.82V287a.82.82,0,0,0,.82.82h58.53a.82.82,0,0,0,.82-.82v-2.26A.82.82,0,0,0,125.45,283.94Z" transform="translate(-3.63 -2.54)"/><rect class="cls-4" x="66.08" y="287.49" width="6.15" height="17.92"/><rect class="cls-4" x="75.31" y="287.49" width="6.15" height="17.92"/><rect class="cls-4" x="66.08" y="307.21" width="6.15" height="7.11"/><rect class="cls-4" x="75.31" y="307.21" width="6.15" height="7.11"/><rect class="cls-9" x="66.08" y="287.49" width="6.15" height="0.89"/><rect class="cls-9" x="75.31" y="287.49" width="6.15" height="0.89"/><rect class="cls-9" x="66.08" y="307.21" width="6.15" height="0.89"/><rect class="cls-9" x="75.31" y="307.21" width="6.15" height="0.89"/><rect class="cls-4" x="85.05" y="287.49" width="6.15" height="17.92"/><rect class="cls-4" x="94.28" y="287.49" width="6.15" height="17.92"/><rect class="cls-4" x="85.05" y="307.21" width="6.15" height="7.11"/><rect class="cls-4" x="94.28" y="307.21" width="6.15" height="7.11"/><rect class="cls-9" x="85.05" y="287.49" width="6.15" height="0.89"/><rect class="cls-9" x="94.28" y="287.49" width="6.15" height="0.89"/><rect class="cls-9" x="85.05" y="307.21" width="6.15" height="0.89"/><rect class="cls-9" x="94.28" y="307.21" width="6.15" height="0.89"/><rect class="cls-4" x="103.65" y="287.49" width="6.15" height="17.92"/><rect class="cls-4" x="112.88" y="287.49" width="6.15" height="17.92"/><rect class="cls-4" x="103.65" y="307.21" width="6.15" height="7.11"/><rect class="cls-4" x="112.88" y="307.21" width="6.15" height="7.11"/><rect class="cls-9" x="103.65" y="287.49" width="6.15" height="0.89"/><rect class="cls-9" x="112.88" y="287.49" width="6.15" height="0.89"/><rect class="cls-9" x="103.65" y="307.21" width="6.15" height="0.89"/><rect class="cls-9" x="112.88" y="307.21" width="6.15" height="0.89"/><path class="cls-7" d="M125.45,318.54H66.92a.82.82,0,0,0-.82.82v2.26a.82.82,0,0,0,.82.82h58.53a.82.82,0,0,0,.82-.82v-2.26A.82.82,0,0,0,125.45,318.54Z" transform="translate(-3.63 -2.54)"/><rect class="cls-5" x="64.04" y="319.9" width="56.84" height="1.59"/><rect class="cls-5" x="51.22" y="265.4" width="89.34" height="1.44"/><rect class="cls-10" x="48.68" y="256.63" width="95.36" height="7.15" rx="1.79"/><rect class="cls-7" x="51.19" y="263.78" width="89.44" height="1.8"/><rect class="cls-11" x="51.19" y="263.78" width="89.44" height="1.8"/><rect class="cls-5" x="51.22" y="297.38" width="89.44" height="33.58"/><rect class="cls-5" x="51.22" y="167.26" width="89.44" height="89.37"/><path class="cls-2" d="M135.42,258.25H144v9.87h-9.55v-.38a.89.89,0,0,1,.89-.89H137V265.4h-1.62a1.79,1.79,0,0,1-1.79-1.79V260A1.79,1.79,0,0,1,135.42,258.25Z" transform="translate(-3.63 -2.54)"/></g><g id="RIGHT"><rect class="cls-6" x="217.52" y="80.48" width="89.44" height="250.48" rx="3"/><rect class="cls-7" x="231.6" y="102.92" width="21.11" height="30.7"/><rect class="cls-7" x="229.69" y="99.02" width="24.92" height="3.9" rx="0.82"/><rect class="cls-4" x="234.46" y="105.11" width="6.15" height="17.91"/><rect class="cls-4" x="243.69" y="105.11" width="6.15" height="17.91"/><rect class="cls-4" x="234.46" y="124.83" width="6.15" height="7.11"/><rect class="cls-4" x="243.69" y="124.83" width="6.15" height="7.11"/><rect class="cls-8" x="231.6" y="133.14" width="21.11" height="0.48"/><rect class="cls-8" x="231.6" y="102.92" width="21.11" height="0.48"/><path class="cls-7" d="M235.23,101.56s2-5.61,10.55-5.61c9.27,0,10.56,5.61,10.56,5.61" transform="translate(-3.63 -2.54)"/><path class="cls-8" d="M240.92,101.56s.91-2.39,4.86-2.39c4.27,0,4.87,2.39,4.87,2.39" transform="translate(-3.63 -2.54)"/><rect class="cls-7" x="229.69" y="133.62" width="24.92" height="3.9" rx="0.82"/><rect class="cls-9" x="234.46" y="105.11" width="6.15" height="0.89"/><rect class="cls-9" x="243.69" y="105.11" width="6.15" height="0.89"/><rect class="cls-9" x="234.46" y="124.83" width="6.15" height="0.89"/><rect class="cls-9" x="243.69" y="124.83" width="6.15" height="0.89"/><rect class="cls-7" x="271.77" y="102.92" width="21.11" height="30.7"/><rect class="cls-7" x="269.86" y="99.02" width="24.92" height="3.9" rx="0.82"/><rect class="cls-4" x="274.63" y="105.11" width="6.15" height="17.91"/><rect class="cls-4" x="283.86" y="105.11" width="6.15" height="17.91"/><rect class="cls-4" x="274.63" y="124.83" width="6.15" height="7.11"/><rect class="cls-4" x="283.86" y="124.83" width="6.15" height="7.11"/><rect class="cls-8" x="271.77" y="133.14" width="21.11" height="0.48"/><rect class="cls-8" x="271.77" y="102.92" width="21.11" height="0.48"/><path class="cls-7" d="M275.4,101.56S277.38,96,286,96c9.26,0,10.55,5.61,10.55,5.61" transform="translate(-3.63 -2.54)"/><path class="cls-8" d="M281.09,101.56s.91-2.39,4.87-2.39c4.27,0,4.86,2.39,4.86,2.39" transform="translate(-3.63 -2.54)"/><rect class="cls-7" x="269.86" y="133.62" width="24.92" height="3.9" rx="0.82"/><rect class="cls-9" x="274.63" y="105.11" width="6.15" height="0.89"/><rect class="cls-9" x="283.86" y="105.11" width="6.15" height="0.89"/><rect class="cls-9" x="274.63" y="124.83" width="6.15" height="0.89"/><rect class="cls-9" x="283.86" y="124.83" width="6.15" height="0.89"/><rect class="cls-7" x="231.6" y="156.11" width="21.11" height="30.7"/><rect class="cls-7" x="229.69" y="152.21" width="24.92" height="3.9" rx="0.82"/><rect class="cls-4" x="234.46" y="158.3" width="6.15" height="17.91"/><rect class="cls-4" x="243.69" y="158.3" width="6.15" height="17.91"/><rect class="cls-4" x="234.46" y="178.02" width="6.15" height="7.11"/><rect class="cls-4" x="243.69" y="178.02" width="6.15" height="7.11"/><rect class="cls-8" x="231.6" y="186.33" width="21.11" height="0.48"/><rect class="cls-8" x="231.6" y="156.11" width="21.11" height="0.48"/><path class="cls-7" d="M235.23,154.75s2-5.6,10.55-5.6c9.27,0,10.56,5.6,10.56,5.6" transform="translate(-3.63 -2.54)"/><path class="cls-8" d="M240.92,154.75s.91-2.39,4.86-2.39c4.27,0,4.87,2.39,4.87,2.39" transform="translate(-3.63 -2.54)"/><rect class="cls-7" x="229.69" y="186.81" width="24.92" height="3.9" rx="0.82"/><rect class="cls-9" x="234.46" y="158.3" width="6.15" height="0.89"/><rect class="cls-9" x="243.69" y="158.3" width="6.15" height="0.89"/><rect class="cls-9" x="234.46" y="178.02" width="6.15" height="0.89"/><rect class="cls-9" x="243.69" y="178.02" width="6.15" height="0.89"/><rect class="cls-7" x="271.77" y="156.11" width="21.11" height="30.7"/><rect class="cls-7" x="269.86" y="152.21" width="24.92" height="3.9" rx="0.82"/><rect class="cls-4" x="274.63" y="158.3" width="6.15" height="17.91"/><rect class="cls-4" x="283.86" y="158.3" width="6.15" height="17.91"/><rect class="cls-4" x="274.63" y="178.02" width="6.15" height="7.11"/><rect class="cls-4" x="283.86" y="178.02" width="6.15" height="7.11"/><rect class="cls-8" x="271.77" y="186.33" width="21.11" height="0.48"/><rect class="cls-8" x="271.77" y="156.11" width="21.11" height="0.48"/><path class="cls-7" d="M275.4,154.75s2-5.6,10.56-5.6c9.26,0,10.55,5.6,10.55,5.6" transform="translate(-3.63 -2.54)"/><path class="cls-8" d="M281.09,154.75s.91-2.39,4.87-2.39c4.27,0,4.86,2.39,4.86,2.39" transform="translate(-3.63 -2.54)"/><rect class="cls-7" x="269.86" y="186.81" width="24.92" height="3.9" rx="0.82"/><rect class="cls-9" x="274.63" y="158.3" width="6.15" height="0.89"/><rect class="cls-9" x="283.86" y="158.3" width="6.15" height="0.89"/><rect class="cls-9" x="274.63" y="178.02" width="6.15" height="0.89"/><rect class="cls-9" x="283.86" y="178.02" width="6.15" height="0.89"/><rect class="cls-7" x="231.6" y="208.86" width="21.11" height="30.7"/><rect class="cls-7" x="229.69" y="204.96" width="24.92" height="3.9" rx="0.82"/><rect class="cls-4" x="234.46" y="211.04" width="6.15" height="17.92"/><rect class="cls-4" x="243.69" y="211.04" width="6.15" height="17.92"/><rect class="cls-4" x="234.46" y="230.77" width="6.15" height="7.11"/><rect class="cls-4" x="243.69" y="230.77" width="6.15" height="7.11"/><rect class="cls-8" x="231.6" y="239.08" width="21.11" height="0.48"/><rect class="cls-8" x="231.6" y="208.86" width="21.11" height="0.48"/><path class="cls-7" d="M235.23,207.5s2-5.61,10.55-5.61c9.27,0,10.56,5.61,10.56,5.61" transform="translate(-3.63 -2.54)"/><path class="cls-8" d="M240.92,207.5s.91-2.39,4.86-2.39c4.27,0,4.87,2.39,4.87,2.39" transform="translate(-3.63 -2.54)"/><rect class="cls-7" x="229.69" y="239.56" width="24.92" height="3.9" rx="0.82"/><rect class="cls-9" x="234.46" y="211.04" width="6.15" height="0.89"/><rect class="cls-9" x="243.69" y="211.04" width="6.15" height="0.89"/><rect class="cls-9" x="234.46" y="230.77" width="6.15" height="0.89"/><rect class="cls-9" x="243.69" y="230.77" width="6.15" height="0.89"/><rect class="cls-5" x="231.6" y="137.52" width="21.11" height="1.6"/><rect class="cls-5" x="271.77" y="137.52" width="21.11" height="1.6"/><rect class="cls-5" x="231.6" y="190.71" width="21.11" height="1.6"/><rect class="cls-5" x="271.77" y="190.71" width="21.11" height="1.6"/><rect class="cls-5" x="231.6" y="243.46" width="21.11" height="1.6"/><rect class="cls-5" x="271.77" y="243.46" width="21.11" height="1.6"/><rect class="cls-7" x="271.77" y="208.86" width="21.11" height="30.7"/><rect class="cls-7" x="269.86" y="204.96" width="24.92" height="3.9" rx="0.82"/><rect class="cls-4" x="274.63" y="211.04" width="6.15" height="17.92"/><rect class="cls-4" x="283.86" y="211.04" width="6.15" height="17.92"/><rect class="cls-4" x="274.63" y="230.77" width="6.15" height="7.11"/><rect class="cls-4" x="283.86" y="230.77" width="6.15" height="7.11"/><rect class="cls-8" x="271.77" y="239.08" width="21.11" height="0.48"/><rect class="cls-8" x="271.77" y="208.86" width="21.11" height="0.48"/><path class="cls-7" d="M275.4,207.5s2-5.61,10.56-5.61c9.26,0,10.55,5.61,10.55,5.61" transform="translate(-3.63 -2.54)"/><path class="cls-8" d="M281.09,207.5s.91-2.39,4.87-2.39c4.27,0,4.86,2.39,4.86,2.39" transform="translate(-3.63 -2.54)"/><rect class="cls-7" x="269.86" y="239.56" width="24.92" height="3.9" rx="0.82"/><rect class="cls-9" x="274.63" y="211.04" width="6.15" height="0.89"/><rect class="cls-9" x="283.86" y="211.04" width="6.15" height="0.89"/><rect class="cls-9" x="274.63" y="230.77" width="6.15" height="0.89"/><rect class="cls-9" x="283.86" y="230.77" width="6.15" height="0.89"/><rect class="cls-7" x="237.22" y="285.3" width="57.03" height="30.7"/><rect class="cls-8" x="237.22" y="315.52" width="57.03" height="0.48"/><rect class="cls-8" x="237.22" y="285.3" width="57.03" height="0.48"/><path class="cls-7" d="M241,283.94s5.29-6.41,28.34-6.41c24.89,0,28.35,6.41,28.35,6.41" transform="translate(-3.63 -2.54)"/><path class="cls-8" d="M256.29,283.94s2.44-2.73,13.06-2.73c11.47,0,13.06,2.73,13.06,2.73" transform="translate(-3.63 -2.54)"/><path class="cls-7" d="M298.63,283.94H240.1a.82.82,0,0,0-.82.82V287a.82.82,0,0,0,.82.82h58.53a.82.82,0,0,0,.82-.82v-2.26A.82.82,0,0,0,298.63,283.94Z" transform="translate(-3.63 -2.54)"/><rect class="cls-4" x="239.26" y="287.49" width="6.15" height="17.92"/><rect class="cls-4" x="248.49" y="287.49" width="6.15" height="17.92"/><rect class="cls-4" x="239.26" y="307.21" width="6.15" height="7.11"/><rect class="cls-4" x="248.49" y="307.21" width="6.15" height="7.11"/><rect class="cls-9" x="239.26" y="287.49" width="6.15" height="0.89"/><rect class="cls-9" x="248.49" y="287.49" width="6.15" height="0.89"/><rect class="cls-9" x="239.26" y="307.21" width="6.15" height="0.89"/><rect class="cls-9" x="248.49" y="307.21" width="6.15" height="0.89"/><rect class="cls-4" x="258.23" y="287.49" width="6.15" height="17.92"/><rect class="cls-4" x="267.46" y="287.49" width="6.15" height="17.92"/><rect class="cls-4" x="258.23" y="307.21" width="6.15" height="7.11"/><rect class="cls-4" x="267.46" y="307.21" width="6.15" height="7.11"/><rect class="cls-9" x="258.23" y="287.49" width="6.15" height="0.89"/><rect class="cls-9" x="267.46" y="287.49" width="6.15" height="0.89"/><rect class="cls-9" x="258.23" y="307.21" width="6.15" height="0.89"/><rect class="cls-9" x="267.46" y="307.21" width="6.15" height="0.89"/><rect class="cls-4" x="276.83" y="287.49" width="6.15" height="17.92"/><rect class="cls-4" x="286.06" y="287.49" width="6.15" height="17.92"/><rect class="cls-4" x="276.83" y="307.21" width="6.15" height="7.11"/><rect class="cls-4" x="286.06" y="307.21" width="6.15" height="7.11"/><rect class="cls-9" x="276.83" y="287.49" width="6.15" height="0.89"/><rect class="cls-9" x="286.06" y="287.49" width="6.15" height="0.89"/><rect class="cls-9" x="276.83" y="307.21" width="6.15" height="0.89"/><rect class="cls-9" x="286.06" y="307.21" width="6.15" height="0.89"/><path class="cls-7" d="M298.63,318.54H240.1a.82.82,0,0,0-.82.82v2.26a.82.82,0,0,0,.82.82h58.53a.82.82,0,0,0,.82-.82v-2.26A.82.82,0,0,0,298.63,318.54Z" transform="translate(-3.63 -2.54)"/><rect class="cls-5" x="237.22" y="319.9" width="56.84" height="1.59"/><rect class="cls-5" x="217.52" y="265.4" width="89.34" height="1.44"/><rect class="cls-10" x="214.97" y="256.63" width="95.36" height="7.15" rx="1.79"/><rect class="cls-7" x="217.48" y="263.78" width="89.44" height="1.8"/><rect class="cls-11" x="217.48" y="263.78" width="89.44" height="1.8"/><rect class="cls-5" x="217.52" y="297.38" width="89.44" height="33.58"/><polygon class="cls-4" points="301.39 42.75 223.65 42.75 217.48 84.77 306.92 84.77 301.39 42.75"/><rect class="cls-5" x="217.48" y="82.62" width="89.44" height="2.12"/><path class="cls-5" d="M276.45,63.74a10.56,10.56,0,1,1-10.56-10.55A10.56,10.56,0,0,1,276.45,63.74Z" transform="translate(-3.63 -2.54)"/><path class="cls-7" d="M276.45,61.78a10.56,10.56,0,1,1-10.56-10.56A10.55,10.55,0,0,1,276.45,61.78Z" transform="translate(-3.63 -2.54)"/><path class="cls-4" d="M266.55,61.12H274a8.13,8.13,0,0,0-7.44-7.44Z" transform="translate(-3.63 -2.54)"/><path class="cls-4" d="M265.24,61.12V53.68a8.13,8.13,0,0,0-7.44,7.44Z" transform="translate(-3.63 -2.54)"/><path class="cls-4" d="M265.24,62.43H257.8a8.12,8.12,0,0,0,7.44,7.44Z" transform="translate(-3.63 -2.54)"/><path class="cls-4" d="M266.55,62.43v7.44A8.13,8.13,0,0,0,274,62.43Z" transform="translate(-3.63 -2.54)"/><g class="cls-13"><path class="cls-4" d="M273.77,61.12H274a8.13,8.13,0,0,0-7.44-7.44V55A8.13,8.13,0,0,1,273.77,61.12Z" transform="translate(-3.63 -2.54)"/></g><g class="cls-13"><path class="cls-4" d="M257.8,61.12H258A8.12,8.12,0,0,1,265.24,55V53.68A8.13,8.13,0,0,0,257.8,61.12Z" transform="translate(-3.63 -2.54)"/></g><rect class="cls-10" x="223.65" y="37.57" width="77.74" height="5.18"/><rect class="cls-4" x="221.85" y="33.53" width="81.67" height="4.04"/><rect class="cls-5" x="217.48" y="86.89" width="89.44" height="1.44"/><rect class="cls-10" x="214.97" y="76.9" width="95.36" height="7.15" rx="1.79"/><rect class="cls-7" x="217.48" y="84.06" width="89.44" height="2.9"/><rect class="cls-11" x="217.48" y="84.06" width="89.44" height="2.9"/><rect class="cls-5" x="217.52" y="167.26" width="89.44" height="89.37"/><path class="cls-2" d="M229.73,258.25h-8.58v9.87h9.55v-.38a.89.89,0,0,0-.9-.89h-1.69V265.4h1.62a1.8,1.8,0,0,0,1.79-1.79V260A1.79,1.79,0,0,0,229.73,258.25Z" transform="translate(-3.63 -2.54)"/></g><g id="MIDDLE"><rect class="cls-7" x="140.66" y="132.66" width="76.86" height="198.3"/><rect class="cls-5" x="140.24" y="167.26" width="77.15" height="89.37"/><rect class="cls-5" x="140.37" y="297.38" width="77.15" height="33.58"/><path class="cls-8" d="M228,332a.89.89,0,0,0-.89-.89h-.57v-1.08h-.2V269h.77a.9.9,0,0,0,.89-.9v-1.45a1,1,0,0,0-.06-.34H210.89a1,1,0,0,0-.07.34v1.45a.91.91,0,0,0,.9.9h.57v62.13h-.57a.9.9,0,0,0-.9.89v1.46H228Z" transform="translate(-3.63 -2.54)"/><path class="cls-8" d="M154.42,332a.89.89,0,0,0-.89-.89H153v-1.08h-.19V269h.77a.9.9,0,0,0,.89-.9v-1.45a.8.8,0,0,0-.07-.34H137.28a1,1,0,0,0-.07.34v1.45a.9.9,0,0,0,.9.9h.57v62.13h-.57a.89.89,0,0,0-.9.89v1.46h17.21Z" transform="translate(-3.63 -2.54)"/><rect class="cls-10" x="168.71" y="208.86" width="21.11" height="30.7"/><rect class="cls-10" x="166.8" y="204.96" width="24.92" height="3.9" rx="0.82"/><rect class="cls-4" x="171.57" y="211.04" width="6.15" height="17.92"/><rect class="cls-4" x="180.8" y="211.04" width="6.15" height="17.92"/><rect class="cls-4" x="171.57" y="230.77" width="6.15" height="7.11"/><rect class="cls-4" x="180.8" y="230.77" width="6.15" height="7.11"/><rect class="cls-11" x="168.71" y="239.08" width="21.11" height="0.48"/><rect class="cls-11" x="168.71" y="208.86" width="21.11" height="0.48"/><path class="cls-10" d="M172.34,207.5s2-5.61,10.55-5.61c9.27,0,10.55,5.61,10.55,5.61" transform="translate(-3.63 -2.54)"/><path class="cls-11" d="M178,207.5s.91-2.39,4.86-2.39c4.27,0,4.86,2.39,4.86,2.39" transform="translate(-3.63 -2.54)"/><rect class="cls-10" x="166.8" y="239.56" width="24.92" height="3.9" rx="0.82"/><rect class="cls-9" x="171.57" y="211.04" width="6.15" height="0.89"/><rect class="cls-9" x="180.8" y="211.04" width="6.15" height="0.89"/><rect class="cls-9" x="171.57" y="230.77" width="6.15" height="0.89"/><rect class="cls-9" x="180.8" y="230.77" width="6.15" height="0.89"/><rect class="cls-8" x="168.71" y="243.46" width="21.11" height="1.6"/><rect class="cls-14" x="168.67" y="323.55" width="21.11" height="1.6"/><rect class="cls-10" x="168.71" y="285.08" width="21.11" height="45.88"/><path class="cls-10" d="M195.35,286.39c0,.67-.37,1.23-.82,1.23H171.25c-.45,0-.82-.56-.82-1.23V283c0-.68.37-1.23.82-1.23h23.28c.45,0,.82.55.82,1.23Z" transform="translate(-3.63 -2.54)"/><rect class="cls-4" x="171.57" y="288.35" width="15.38" height="42.61"/><rect class="cls-11" x="168.71" y="285.08" width="21.11" height="0.71"/><path class="cls-10" d="M172.34,281.79s2-8.38,10.55-8.38a10.23,10.23,0,0,1,10.55,8.38" transform="translate(-3.63 -2.54)"/><path class="cls-11" d="M177.19,281.79a5.82,5.82,0,0,1,5.7-4.19c5,0,5.7,4.19,5.7,4.19" transform="translate(-3.63 -2.54)"/><rect class="cls-9" x="171.57" y="288.35" width="15.38" height="0.89"/><rect class="cls-8" x="148.94" y="263.72" width="61.54" height="1.44"/><rect class="cls-10" x="131.54" y="253.74" width="95.36" height="7.15" rx="1.79"/><rect class="cls-7" x="134.05" y="260.89" width="89.44" height="2.9"/><rect class="cls-11" x="134.05" y="260.89" width="89.44" height="2.9"/><rect class="cls-10" x="210.34" y="263.79" width="14.08" height="65.64"/><rect class="cls-7" x="208.87" y="262.34" width="17.21" height="3.24" rx="0.89"/><rect class="cls-11" x="210.34" y="265.58" width="14.08" height="1.08"/><path class="cls-11" d="M216.83,327.05a.6.6,0,0,1-.6.6h0a.6.6,0,0,1-.6-.6V271.32a.6.6,0,0,1,.6-.59h0a.6.6,0,0,1,.6.59Z" transform="translate(-3.63 -2.54)"/><path class="cls-11" d="M220,327.05a.6.6,0,0,1-.6.6h0a.6.6,0,0,1-.6-.6V271.32a.6.6,0,0,1,.6-.59h0a.6.6,0,0,1,.6.59Z" transform="translate(-3.63 -2.54)"/><path class="cls-11" d="M223.23,327.05a.59.59,0,0,1-.59.6h0a.6.6,0,0,1-.6-.6V271.32a.6.6,0,0,1,.6-.59h0a.59.59,0,0,1,.59.59Z" transform="translate(-3.63 -2.54)"/><path class="cls-11" d="M226.39,327.05a.6.6,0,0,1-.59.6h0a.6.6,0,0,1-.6-.6V271.32a.6.6,0,0,1,.6-.59h0a.6.6,0,0,1,.59.59Z" transform="translate(-3.63 -2.54)"/><rect class="cls-10" x="208.87" y="327.72" width="17.21" height="3.24" rx="0.89"/><rect class="cls-11" x="210.34" y="326.1" width="14.08" height="1.08"/><rect class="cls-10" x="133.52" y="263.79" width="14.08" height="65.64"/><rect class="cls-7" x="132.05" y="262.34" width="17.21" height="3.24" rx="0.89"/><rect class="cls-11" x="133.52" y="265.58" width="14.08" height="1.08"/><path class="cls-11" d="M140,327.05a.6.6,0,0,1-.6.6h0a.6.6,0,0,1-.6-.6V271.32a.6.6,0,0,1,.6-.59h0a.6.6,0,0,1,.6.59Z" transform="translate(-3.63 -2.54)"/><path class="cls-11" d="M143.2,327.05a.59.59,0,0,1-.59.6h0a.6.6,0,0,1-.6-.6V271.32a.6.6,0,0,1,.6-.59h0a.59.59,0,0,1,.59.59Z" transform="translate(-3.63 -2.54)"/><path class="cls-11" d="M146.41,327.05a.59.59,0,0,1-.59.6h0a.6.6,0,0,1-.6-.6V271.32a.6.6,0,0,1,.6-.59h0a.59.59,0,0,1,.59.59Z" transform="translate(-3.63 -2.54)"/><path class="cls-11" d="M149.57,327.05a.6.6,0,0,1-.6.6h0a.59.59,0,0,1-.59-.6V271.32a.59.59,0,0,1,.59-.59h0a.6.6,0,0,1,.6.59Z" transform="translate(-3.63 -2.54)"/><rect class="cls-10" x="132.05" y="327.72" width="17.21" height="3.24" rx="0.89"/><rect class="cls-11" x="133.52" y="326.64" width="14.08" height="0.54"/><rect class="cls-7" x="208.87" y="262.34" width="17.21" height="3.24" rx="0.89"/><rect class="cls-10" x="168.71" y="156.11" width="21.11" height="30.7"/><rect class="cls-10" x="166.8" y="152.21" width="24.92" height="3.9" rx="0.82"/><rect class="cls-4" x="171.57" y="158.3" width="6.15" height="17.92"/><rect class="cls-4" x="180.8" y="158.3" width="6.15" height="17.92"/><rect class="cls-4" x="171.57" y="178.03" width="6.15" height="7.11"/><rect class="cls-4" x="180.8" y="178.03" width="6.15" height="7.11"/><rect class="cls-11" x="168.71" y="186.33" width="21.11" height="0.48"/><rect class="cls-11" x="168.71" y="156.11" width="21.11" height="0.48"/><path class="cls-10" d="M172.34,154.75s2-5.6,10.55-5.6c9.27,0,10.55,5.6,10.55,5.6" transform="translate(-3.63 -2.54)"/><path class="cls-11" d="M178,154.75s.91-2.39,4.86-2.39c4.27,0,4.86,2.39,4.86,2.39" transform="translate(-3.63 -2.54)"/><rect class="cls-10" x="166.8" y="186.81" width="24.92" height="3.9" rx="0.82"/><rect class="cls-9" x="171.57" y="158.3" width="6.15" height="0.89"/><rect class="cls-9" x="180.8" y="158.3" width="6.15" height="0.89"/><rect class="cls-9" x="171.57" y="178.03" width="6.15" height="0.89"/><rect class="cls-9" x="180.8" y="178.03" width="6.15" height="0.89"/><rect class="cls-8" x="168.71" y="190.71" width="21.11" height="1.6"/><rect class="cls-5" x="140.7" y="137.58" width="76.86" height="1.44"/><rect class="cls-7" x="140.71" y="134.75" width="76.85" height="2.83"/><rect class="cls-8" x="140.7" y="134.75" width="76.86" height="2.83"/><rect class="cls-10" x="137.24" y="127.59" width="83.78" height="7.15" rx="1.79"/><rect class="cls-11" x="148.06" y="93.52" width="62.81" height="27.48" rx="1"/><rect class="cls-10" x="148.06" y="92.53" width="62.81" height="27.48" rx="0.98"/><text class="cls-15" transform="translate(152.42 116.32)">H<tspan class="cls-16" x="12.45" y="0">O</tspan><tspan class="cls-17" x="24.33" y="0">TE</tspan><tspan class="cls-18" x="44.72" y="0">L</tspan></text><rect class="cls-6" x="151.54" y="121" width="4.31" height="6.6"/><rect class="cls-5" x="151.54" y="121" width="4.31" height="0.9"/><rect class="cls-6" x="203.08" y="121" width="4.31" height="6.6"/><rect class="cls-5" x="203.08" y="121" width="4.31" height="0.9"/><rect class="cls-5" x="148.06" y="106.31" width="62.81" height="13.7" rx="0.98"/><path class="cls-5" d="M152.89,332.6v-1.45a.89.89,0,0,0-.89-.89h-.77V299.92H137.15v30.34h-.57a.9.9,0,0,0-.9.89v1.45a.91.91,0,0,0,.9.9H152A.9.9,0,0,0,152.89,332.6Z" transform="translate(-3.63 -2.54)"/><path class="cls-5" d="M229.71,332.6v-1.45a.89.89,0,0,0-.89-.89h-.77V299.92H214v30.34h-.57a.9.9,0,0,0-.9.89v1.45a.91.91,0,0,0,.9.9h15.42A.9.9,0,0,0,229.71,332.6Z" transform="translate(-3.63 -2.54)"/></g></g><g id="TREES_FRONT" data-name="TREES FRONT"><path class="cls-19" d="M363.22,251.81a29.27,29.27,0,0,1-58.53,0c0-16.17,13.11-45.51,29.27-45.51S363.22,235.64,363.22,251.81Z" transform="translate(-3.63 -2.54)"/><path class="cls-3" d="M304.69,251.81a29.27,29.27,0,0,0,58.53,0,42.78,42.78,0,0,0-.8-7.76H305.5A42.85,42.85,0,0,0,304.69,251.81Z" transform="translate(-3.63 -2.54)"/><path class="cls-4" d="M350.77,253.13a1,1,0,0,0-1.39-.1l-14.44,12.55V245.22l7.7-11.32a1,1,0,0,0-.26-1.37,1,1,0,0,0-1.37.26l-6.07,8.92V222.54a1,1,0,0,0-2,0v19.65l-6.4-9.4a1,1,0,0,0-1.36-.26,1,1,0,0,0-.26,1.37l7.86,11.57a.85.85,0,0,0,.16.17v20.22L318.21,253a1,1,0,0,0-1.29,1.49l16.06,14v65a1,1,0,1,0,2,0V268.18l15.73-13.66A1,1,0,0,0,350.77,253.13Z" transform="translate(-3.63 -2.54)"/><path class="cls-19" d="M62.16,251.81a29.27,29.27,0,0,1-58.53,0c0-16.17,13.1-45.51,29.27-45.51S62.16,235.64,62.16,251.81Z" transform="translate(-3.63 -2.54)"/><path class="cls-3" d="M3.63,251.81a29.27,29.27,0,0,0,58.53,0,42,42,0,0,0-.81-7.76H4.44A42.85,42.85,0,0,0,3.63,251.81Z" transform="translate(-3.63 -2.54)"/><path class="cls-4" d="M49.7,253.13a1,1,0,0,0-1.39-.1L33.88,265.58V245.22l7.69-11.32a1,1,0,0,0-.26-1.37,1,1,0,0,0-1.36.26l-6.07,8.92V222.54a1,1,0,0,0-2,0v19.65l-6.39-9.4a1,1,0,1,0-1.63,1.11l7.87,11.57a1.22,1.22,0,0,0,.15.17v20.22L17.15,253a1,1,0,0,0-1.29,1.49l16.05,14v65a1,1,0,0,0,2,0V268.18l15.73-13.66A1,1,0,0,0,49.7,253.13Z" transform="translate(-3.63 -2.54)"/><path class="cls-20" d="M323,318.91a16.66,16.66,0,1,1-33.32,0c0-9.2,7.46-25.91,16.66-25.91S323,309.71,323,318.91Z" transform="translate(-3.63 -2.54)"/><path class="cls-3" d="M289.7,318.91a16.66,16.66,0,1,0,33.32,0,25,25,0,0,0-.46-4.42h-32.4A24.07,24.07,0,0,0,289.7,318.91Z" transform="translate(-3.63 -2.54)"/><path class="cls-4" d="M316.64,317.66a1,1,0,0,0-1.39-.09l-7.91,7V313.76l4.6-6.58a1,1,0,1,0-1.61-1.13l-3,4.28v-9.94a1,1,0,0,0-2,0v9.94l-3-4.28a1,1,0,0,0-1.61,1.13l4.6,6.58v10.78l-7.91-7a1,1,0,0,0-1.38.09,1,1,0,0,0,.08,1.39l9.21,8.12v12.57a1,1,0,1,0,2,0V327.17l9.21-8.12A1,1,0,0,0,316.64,317.66Z" transform="translate(-3.63 -2.54)"/><path class="cls-20" d="M75.87,318.66a16.67,16.67,0,0,1-33.33,0c0-9.2,7.46-25.9,16.66-25.9S75.87,309.46,75.87,318.66Z" transform="translate(-3.63 -2.54)"/><path class="cls-3" d="M42.54,318.66a16.67,16.67,0,0,0,33.33,0,24.13,24.13,0,0,0-.47-4.42H43A25,25,0,0,0,42.54,318.66Z" transform="translate(-3.63 -2.54)"/><path class="cls-4" d="M69.48,317.42a1,1,0,0,0-1.38-.09l-7.91,7V313.52l4.6-6.58a1,1,0,0,0-.24-1.37,1,1,0,0,0-1.37.24l-3,4.27v-9.94a1,1,0,0,0-2,0v9.94l-3-4.27a1,1,0,0,0-1.37-.24,1,1,0,0,0-.24,1.37l4.6,6.58V324.3l-7.91-7a1,1,0,0,0-1.39.09A1,1,0,0,0,49,318.8l9.21,8.12V339.5a1,1,0,0,0,2,0V326.92l9.21-8.12A1,1,0,0,0,69.48,317.42Z" transform="translate(-3.63 -2.54)"/></g><g id="CLOUDS"><path class="cls-21" d="M293.14,21.53H341.2c-.38-1.29-3.23-2.45-7.6-3.28a5.38,5.38,0,0,0,.12-1.14c0-3.16-3-5.73-6.59-5.73l-.35,0a9.64,9.64,0,0,0-19.21,0h0c-3.64,0-6.59,2.57-6.59,5.73a5.31,5.31,0,0,0,.12,1.07C296.52,19,293.53,20.2,293.14,21.53Z" transform="translate(-3.63 -2.54)"/><path class="cls-22" d="M270.15,29.46h64.21c-.51-1.72-4.31-3.27-10.16-4.38a6.94,6.94,0,0,0,.17-1.52c0-4.23-3.94-7.66-8.8-7.66l-.48,0a12.87,12.87,0,0,0-25.66,0h0c-4.86,0-8.81,3.43-8.81,7.66a6.74,6.74,0,0,0,.16,1.43C274.67,26.11,270.68,27.69,270.15,29.46Z" transform="translate(-3.63 -2.54)"/><path class="cls-22" d="M26.31,69.85H74.37c-.38-1.29-3.23-2.45-7.61-3.28a4.8,4.8,0,0,0,.13-1.14c0-3.16-3-5.73-6.59-5.73l-.35,0a9.64,9.64,0,0,0-19.21,0h0c-3.64,0-6.59,2.57-6.59,5.73a4.68,4.68,0,0,0,.12,1.07C29.69,67.34,26.7,68.52,26.31,69.85Z" transform="translate(-3.63 -2.54)"/></g></g></g></svg>