<svg id="Layer_1" data-name="Layer 1" xmlns="http://www.w3.org/2000/svg" viewBox="0 0 782.51 295.84"><defs><style>.cls-1,.cls-2{fill:#1b89ca;}.cls-2{fill-rule:evenodd;}</style></defs><rect class="cls-1" y="284.38" width="782.51" height="11.45"/><path class="cls-2" d="M97.37,230.84v60.4l3.38,4.6H64.22l2.77-4.6h.09V254.7l-1.82-5h1.91a14.41,14.41,0,0,0-28.73,0h1.91l-1.82,5v36.54h.09l3.3,4.6H5.47l2.69-4.6V224.07l-7.9-6.16H0v-.61H8.16v-10H97.37v10h8.24v.61h-.43l-7.81,6.16v6.77Z" transform="translate(0.69)"/><path class="cls-2" d="M99.89,243.86V255h.6v40.88h104.4V255H206V242.55h-1.48V149.87h2.09v-2.6h-4.17v-3.91H201v-1.21h-.44l-1.65-3-1.73-3.13-1.65,3.13-1.65,3h-.43v1.21H168.79v3.91h-4.25v2.6h2.34v42.26H156.64L155,179.72l-.35-3.29V158.72h2.78v-2.17h-2.78v-2.34H152.3v2.34h-2.78v2.17h2.78V176l-.52,3.73-1.65,12.41H138.59V149.87h2.08v-2.6h-4.16v-3.91H112.38v-1.21H112l-1.65-3-1.65-3.13-1.73,3.13-1.57,3h-.52v1.21h-2v3.91H98.58v2.6h2.35v92.68h-1ZM138.59,196h11.63v7.29l-.7,1.12-4,6.26h-6.94V196Zm18,0h10.24v14.67h-5.55l-3.91-6.26-.78-1.12ZM140.41,228a12.26,12.26,0,0,1,11.37-11.62A12.33,12.33,0,0,0,140.41,228Zm13.28-11.62a12.08,12.08,0,0,1,6.86,2.77,12.08,12.08,0,0,0-6.86-2.77Zm44.61-4.78H173.13V192.48H198.3v19.09Zm-9-16c.87,0,1.65.52,1.65,1.12v12.94h-3.3V196.64c0-.6.7-1.12,1.65-1.12Zm-6.51,0c.87,0,1.65.52,1.65,1.12v12.94h-3.3V196.64c0-.6.7-1.12,1.65-1.12ZM193,217.91h3.39v-3.39H193Zm-17.79,0h3.47v-3.39h-3.47Zm-51.89-22.39c.86,0,1.65.52,1.65,1.12v12.94h-3.3V196.64c0-.6.69-1.12,1.65-1.12Zm-6.51,0c.87,0,1.56.52,1.56,1.12v12.94h-3.21V196.64c0-.6.69-1.12,1.65-1.12Zm10.24,22.39h3.38v-3.39h-3.38Zm-17.79,0h3.38v-3.39h-3.38Zm89.3,75.41h-2.35V270.41c0-7-10.32-12.76-10.32-12.76s-10.33,5.73-10.33,12.76v22.91h-3.39V255h26.39v38.36Zm-32.72,0h-2.69V270.41c0-7-10.33-12.76-10.33-12.76s-10.32,5.73-10.32,12.76v22.91h-3V255h26.3v38.36Zm-32.72,0h-3V270.41c0-7-10.32-12.76-10.32-12.76s-10.33,5.73-10.33,12.76v22.91h-2.6V255h26.2v38.36Z" transform="translate(0.69)"/><path class="cls-2" d="M535.18,289.67h1.74l-13.11-25.34a38.19,38.19,0,0,0-50.94-1.64l-14,27h2.52v6.17h-33v-6.17h4.34l27.16-52.5v-7.89h5.82l9.63-27.6v-.61h.17l2.69-7.81h-1V186h3v-1.39h-4.51v-7.9h6.85c5.12-40.09,7.55-109,8.33-131h-.17V43.91H491l.09-4.25h-1.22V32.54H493V23.78h3.64V11.37h1.22V0h1.39V11.37h1.3V23.78h3.55v8.76h3.22v7.12H506l.18,4.25h.17v1.74h-.09c.44,12.41,1.3,39.83,3,68.64l.09.26-.09.09c1,17.44,2.34,35.23,3.91,50.51.43,4.16.95,7.89,1.3,11.53h6.94v7.9H517V186h2.95v7.29h-.7l2.7,7.81,9.8,28.21h3v7.37l.61-.26L563,289.67h5.21v6.17h-33Zm-67-62.22h0l8.76-5.12-5.12-4.94Zm4.94-14.14h0l7.81-5.12-4.42-4.43Zm4.6-13h0l5.73-3.65L480,193.7Zm39.57-7H517l-3.29,3.12,5.81,3.39ZM521,203.85h0L517,208l7,4.43ZM525.64,217h0l-5.56,5.29,9.29,5.38Zm-28-177.38h0l-2.08,1.73-2.08-1.73ZM494.91,42h0l-2.43,1.91.18-3.91Zm-1.3,1.91h0l1.74-1.47,1.56,1.47Zm2.43-2h0l1.74-1.39v2.95Zm1.74,3.9h0l-2.61,2.69-2.69-2.86h5.3Zm-3.3,3.38h0l-2.17,2.35.09-4.69Zm-2.17,3.48h0l2.78-2.87,2.51,2.87Zm3.38-3.56h0L497.78,47v4.42Zm2.09,5.29h0L495,57.19l-2.52-2.87h5.3Zm-3.56,3.39h0L492,60.23l.18-4.95Zm-2.34,3.64h0l3-2.95,2.52,3h-5.55Zm3.64-3.64h0l2.26-2.26V60.4Zm2.26,5.55h0l-2.87,2.78-2.69-2.95h5.56Zm-3.65,3.47h0l-2.51,2.43v-.52l.17-4.51Zm-2.34,3.39h0l2.95-2.78,2.52,2.78Zm3.56-3.39h0l2.43-2.25v4.85Zm2.43,5.64h0L494.91,75l-3.12-3.13h5.81l.18.09Zm-3.65,3.13h0L491.27,78l.26-5.12Zm-2.77,3.47h0l3.38-2.87,2.78,2.87Zm4-3.47h0l2.43-2v4.34Zm4.08-3.39h0l.26-.35h5.81L502.55,75l-3.12-2.69Zm-7.9-.35h0v0Zm6.25,8.94h0l-3.3,2.78-2.86-2.86h6.16Zm-4,3.39h0l-2.87,2.43.18-5.12Zm-3,3.56h0l3.64-3,3,3.13h-6.6Zm4.34-3.56h0l2.51-2.26v5Zm2.43,5.47h0l-3.3,2.86-3-3h6.25Zm-4,3.47h0l-3,2.69.17-5.56Zm-2.78,3.47h0l3.38-2.87L497,96.59Zm4.16-3.47h0l2.61-2.35v2.78l-.09,1.39v.87Zm-4-3.65h0l-.26.78.09-.78Zm6.25,8.77h0L494.05,101l-2.78-2.77Zm-3.9,3.47h0l-3.3,3,.26-5.9Zm-2.69,3.73h0l3.38-3.12,3.21,3.12Zm4.16-3.82h0l2.69-2.34-.08,1.47V103l-.09,1Zm1.91,5.47h0l-3,2.51-2.51-2.51Zm-3.9,3.38h0l-3.3,2.69.43-5.73ZM490,114.2h0l3.56-3,2.86,3Zm4.51-3.73h0l2.69-2.43v1.13l-.17,3.91Zm2.43,5.39h0l-3.3,2.77-2.6-2.77Zm-4.16,3.46h0l-3.82,3.3.43-6.76ZM490.23,123h0l3.3-2.78L496.3,123Zm4.25-3.65h0l2.43-2v.34l-.09.44v2.25l-.08,1.39Zm1.65,5.3h0L493,127.13l-2.43-2.51Zm-4,3.38h0l-3.82,3.21.52-6.59Zm-2.69,3.73h0l3.47-2.95,2.95,2.95Zm4.42-3.73h0l2.78-2.43-.09,1v.69l-.17,3.3Zm1.65,5.38h0l-3.3,2.69-2.6-2.69Zm-4.25,3.39h0l-3.56,2.86.52-6.16Zm-2.86,3.73h0l3.73-2.87,2.6,2.87Zm4.51-3.65h0l3.3-2.51c-.09,1.82-.18,3.81-.35,5.64Zm2.34,5.39h0l-3.3,2.51-2.51-2.51Zm-4.16,3.29h0L487,148.74c.17-2.08.34-4.34.52-6.5h.35Zm-2.87,3.73h0l3.56-2.95,2.78,2.95Zm4.52-3.64h0l2.94-2.35c-.08,1.74-.17,3.47-.34,5.13Zm1.12,5.29h0L491,153.25l-2.17-2.34ZM490.06,154h0L486.24,157c.26-1.9.43-4,.52-6.07h.43Zm-3.3,4.09h0l4-3.3,3.21,3.3Zm4.94-4h0l3.47-2.77c-.17,1.9-.26,4-.52,5.81Zm2.35,5.64h0l-3.82,3-2.69-3Zm-4.69,3.65h0l-3.73,3.12h-.26c.17-2.17.35-4.42.61-6.68Zm-2,3.12h0l2.78-2.25,2.08,2.25Zm3.74-2.95h0l3.29-2.6c-.26,1.82-.43,3.73-.6,5.38Zm2.25,4.6h0l-4.25,3.47-3.21-3.47Zm-5.12,4.17h0l-3.9,3.12c.17-2.08.52-4.25.69-6.42Zm-3.73,4.33h0l4.43-3.47,2.95,3.13v.09l-.09.25Zm5.38-4.25h0l3.39-2.69c-.35,1.91-.61,3.74-1,5.3Zm9.9-132.77h0l2.16,1.73,2-1.73ZM502.55,42h0l2.08,1.65-.08-3.47Zm1.13,1.91h0L502,42.44l-1.65,1.47Zm-2.34-2h0l-1.91-1.66v3.39Zm-1.91,3.73h0l2.86,2.86,2.43-2.78v-.08Zm3.47,3.55h0l1.91,2.09-.09-4.08Zm2,3.3h0l-2.51-2.69-2.69,2.87h5.2Zm-3.21-3.38h0l-2.25-2.35v4.86Zm-2.08,5.2h0l2.87,2.87,2.34-2.87Zm3.47,3.48h0l2.08,2.08-.08-4.34Zm2.17,3.29h0l-2.69-2.6-2.51,3h5.2Zm-3.38-3.29h0l-2.43-2.43v5.46Zm-2.43,5.38h0l3.12,2.95,2.69-2.95Zm3.82,3.64h0l2.25,2.08-.17-4.42Zm2.25,3.39h0l-2.86-2.78-2.43,2.78Zm-3.56-3.39h0l-2.51-2.43v5.3Zm1.31,8.77h0l2.6,2.25-.18-4.77ZM505.94,79h0l-3.3-2.78-2.86,2.87h6.16Zm-4-3.38h0l-2.51-2.17V78.1Zm-2.34,5.12h0L503,83.57l2.86-2.86Zm4.08,3.47h0l2.6,2.25-.26-4.6Zm2.6,3.38h0l-3.21-2.78-2.95,3.13h6.25Zm-3.9-3.38h0l-2.86-2.43V87Zm-2.78,5.29h0l3.56,3,3-3Zm4.34,3.65h0l2.78,2.43-.26-5Zm2.78,3.47h0l-3.47-2.87-2.87,2.87Zm-4.17-3.47h0l-2.95-2.61v3l.09,1.39v1Zm-2.25,5.12h0l2.95,2.77L506,98.24Zm3.81,3.47h0l3,2.69L506.89,99Zm2.78,3.73h0l-3.38-3.12-3.21,3.12Zm-4.25-3.82h0L499.69,99l.09,1.73V103l.08,1.3Zm-1.91,5.47h0l3,2.51,2.51-2.51Zm3.9,3.38h0l2.95,2.43-.25-5.2Zm2.78,3.73h0l-3.47-3-3,3ZM503,110.47h0l-3.13-2.6.18,1.3.08,4.17Zm-2.43,5.39h0l3.12,2.77,2.78-2.77Zm4.07,3.46h0l3.56,3.13-.43-6.25Zm2.52,3.65h0l-3.21-2.78L501.16,123ZM503,119.32h0l-2.78-2.25v.6l.09.44v2.25l.08,1.65Zm-1.65,5.3h0l3,2.51,2.6-2.51Zm3.9,3.38h0L508.8,131l-.35-6.16Zm2.78,3.73h0l-3.47-2.95-3,2.95ZM503.59,128h0l-3-2.6.08,1.13v.69l.09,3.65Zm-1.73,5.38h0l3.38,2.69,2.43-2.69Zm4.34,3.39h0l3.12,2.69-.43-5.64Zm2.69,3.73h0l-3.56-2.87-2.78,2.87Zm-4.52-3.65h0L500.9,134c.09,2.17.26,4.25.35,6.25Zm-2.25,5.39h0l3.29,2.51,2.52-2.51Zm4.25,3.29h0l3.82,3c-.26-2.17-.43-4.17-.52-6.33h-.09Zm2.86,3.73h0l-3.73-2.95-2.69,2.95Zm-4.6-3.64h0L501.42,143c.09,1.92.26,3.82.35,5.65Zm-1,5.29h0l2.87,2.34,2.17-2.34Zm3.82,3.12h0l3.47,2.78c-.17-2-.43-3.9-.52-5.9h-.08Zm3.3,4.09h0l-4.17-3.3-3,3.3Zm-5-4h0L501.94,151c.09,2.25.35,4.43.53,6.51Zm-2.25,5.64h0l3.64,3,2.87-3Zm4.6,3.65h0l3.82,3.12c-.27-2.08-.44-4.25-.7-6.33Zm1.91,3.12h0l-2.6-2.25-2.18,2.25Zm-3.56-2.95h0l-3.56-2.86c.18,2,.35,4,.7,5.81Zm-2.34,4.6h0l4.25,3.47,3.21-3.47Zm5.2,4.17h0l3.56,2.86c-.17-1.91-.52-3.9-.69-5.9Zm3.56,4.33h0l-4.34-3.47-3.21,3.39.09.08Zm-5.29-4.25h0l-3.56-3c.26,2.17.61,4.08.95,5.73Zm-28.64,28.64h9.72l-4.08-3.47Zm9.89-7.81h0L484.5,196l-3-2.69Zm-3.21,3.65h0l5.64-3.65H492l-1,7.81h-.34Zm27.17.34h0l-4.08,3.82H519.3Zm-4.43-4h0l4.34,2.52,2.69-2.52Zm3.29,3.38h0l-6.07-3.38,1.3,7.81Zm-37.4,18.14h13.46l-5.39-5.29Zm15.1-12.06h0l-7,4.6-4.59-4.6Zm-5.64,5.9h0l6.77-4.34-1.56,9.64Zm31.94.69h0l-5.47,5.47h14.41Zm-7.12-6.59h0l7.12,4.43,4.42-4.43Zm5.82,5.73h0L507.15,204l1.48,9.29.08.69Zm4.42,15.19h0L513,229.28h15Zm-8.33-7.21h0l8.25,4.95,5.12-4.95Zm6.77,6.43h0l-7.72-4.69,1.65,10.5Zm-48.08,6.42h15.19l-5.9-5.64Zm17.62-12.85h0l-8.16,4.95-5.2-4.95Zm-6.77,6.43h0l8.33-5L486.5,229.1Zm34.37,23h0v2.69c.6.26,1.21.52,1.73.7Zm-.7,2.43h0v-3.82l-1.12-2.17v5.56Zm-1.91-.61h0V240.9l-.69-1.38h-.43v7.72Zm-1.9-.69h0v-7.46h-1.05v7.2Zm-1.83-.35h0v-7.11H506.8v6.77ZM506,246.2h0v-6.68h-1.13V246Zm-1.82-.35h0v-6.33h-1.13v6.16Zm-1.82-.26h0v-6.07h-1.13v6Zm-1.82-.08h0v-6h-1.13v5.9Zm-1.91-.09h0v-5.9h-1.13v5.9Zm-1.91,0h0v-5.9h-1.05v5.9Zm-1.83,0h0v-5.9h-1.12v6Zm-1.9.17h0v-6.07h-1.13v6.16Zm-1.83.18h0v-6.25h-1.12v6.33Zm-1.82.34h0v-6.59h-1.13v6.77Zm-1.82.26h0v-6.85h-1.13v7.2Zm-1.91.52h0v-7.37h-.78l-.35.6v7.12Zm-1.91.52h0V241.6l-1,2.17v4Zm56.15,40.27h0l4.51-5.73-9.72-4.34ZM546,280h0l4.42-5.46H533.88Zm6.07-3.82h0l-3.81,4.87,8.24,3.55ZM546.64,283h0l-5.3,6.68h17.71l-.78-1.56Zm-14.93-11h0l5-3.55-8.33-3Zm7-4.86h0l4.69-3.21H530.06Zm7.2-2.86h0l-5.12,3.56,8.51,3Zm-7.2,4.95h0l-5.29,3.73H549Zm-10.33-6.95h14.67l-9.63-3.47Zm-2.08-.69h0l5-3.47-8.41-3Zm7.12-4.95h0l4.94-3.38H524Zm7-2.69h0l-4.94,3.47,8.33,3Zm-19.26-2.26h18.14l-1.65-3.21H519.56Zm-65.43,36.19h0l-4.6-5.9,10-4.34ZM449.53,280h0l-4.34-5.46h16.57Zm-5.9-3.73h0l3.64,4.78-7.9,3.47Zm5.29,6.68h0l5.38,6.68H436.77l.78-1.64Zm13.8-8.41h0l1.3-2.52-5.12-3.64,8.51-3L464,272.06Zm-5.9-7.47h0l-4.6-3.21h13.36Zm-6.95-2.78h0l4.95,3.48-8.33,3Zm6.95,4.87h0l5.38,3.73H446.58Zm10.41-6.95H452.56l9.64-3.47Zm69.6-15.44H518.69L515,239.52H533.1Zm-67.52,14.84h0l-5.11-3.56,8.67-3Zm-7.11-5h0l-4.95-3.38h14.32Zm-7-2.6h0l4.94,3.38-8.24,2.95Zm19.44-2.35H456.38l1.65-3.21h18.23Zm2.43-4.85H458.9l3.82-7.29h18.14ZM493.18,198h11.37l4.77,31.24H488.23l2.43-16Zm11-1.66H493.35l.52-3.12h9.81ZM481.9,248h0v-2.86L480,248.8a12.11,12.11,0,0,1,1.91-.78Zm37.92,8.51h0l-1-1.83a42.45,42.45,0,0,0-41.48-.78l-.87,1.74a42.15,42.15,0,0,1,43.3.87Z" transform="translate(0.69)"/><path class="cls-2" d="M337.84,221.81V228h.78v1.13h-.26c22.13,14,9.72,18.31,12.32,21.09-4.25-.09-8.5-.09-12.84,0h-13c1.65-3-11.19-7,11.72-21.09h-.26V228h.78v-5.81h-.52a2.32,2.32,0,0,1-2.17-1.56,2.09,2.09,0,0,0,1.56.6,2.41,2.41,0,0,0,2.43-2.34,2.19,2.19,0,0,0-.17-.78,2.13,2.13,0,0,1,.78,1.65,2.44,2.44,0,0,1-1.13,2.08Zm-43.22,33.76c.26-.52-1.82-1.13,2-3.47,3.64,2.34,1.65,3,2.08,3.47Zm-.17,4h4.16V257.3h-4.16Zm.78-.52H296v-1.3h-.78Zm1.91,0h.69v-1.3h-.69Zm-.95,0h.69v-1.3h-.69Zm-2.26-2h5.29v-.44h-5.29Zm0-.78h5.29v-.44h-5.29Zm0,4h5.29v-.35h-5.29Zm0,.52h5.29v-.35h-5.29Zm.43.08h4.34v10.77h-4.34Zm4.34,11.46v9.29h-4.34v-9.29Zm0,10V288h5.12V261.47l8.59-1.73V288h.35v-33h1.13v-.35H324v-3H351v2.52h0v.52h10.41v.35h.87v33h.52V259.3l8.33,2.35V288h5.65V282.3h4.25V288h7.72v-9.29h6.94V288h8.85v2.34h-134V288h9.11v-9.29h7V288h7.63V282.3Zm-12.32-47c-.44-.78,2.95-1.73-3.21-5.46-6,3.64-2.69,4.77-3.39,5.46Zm.17,6.51h-6.68v-3.64h6.68Zm-1.21-.78h-1.13v-2.08h1.13Zm-3.13,0h-1.12v-2.08h1.12Zm1.57,0h-1.13v-2.08h1.13Zm3.81-3h-8.67V237h8.67Zm0-1.38h-8.67v-.87h8.67Zm0,6.33h-8.67V242h8.67Zm0,.87h-8.67v-.61h8.67Zm117,52.07h-134v-4.69h134Zm-117.84-51.9h-7v17.44h7ZM389,235.26c.52-.78-3-1.73,3.3-5.46,6,3.64,2.69,4.77,3.38,5.46Zm6.6,6.51v-3.64h.95V237h-8.68v1.13h1v3.64h-1v2.17h.87v17.44h6.94V243.94h.87v-2.17Zm-5.47-.78h1.13v-2.08h-1.13Zm3,0h1.21v-2.08h-1.21Zm-1.48,0h1.13v-2.08h-1.13Zm-3.82-4.16h8.68V235.7h-8.68Zm7.81,25.68v15h-6.94v-15ZM325.6,288h23.87v-31.5H325.6Zm55.28-32.46c-.26-.52,1.83-1.13-2-3.47-3.73,2.34-1.65,3-2.08,3.47Zm.18,4h-4.17V257.3h4.17Zm-.87-.52h-.7v-1.3h.7Zm-1.82,0h-.7v-1.3h.7Zm.87,0h-.7v-1.3h.7Zm2.34-1.91h-5.3v-.52h5.3Zm0-.86h-5.3v-.44h5.3Zm0,4h-5.3v-.44h5.3Zm0,.6h-.52v10.77h-4.25V260.86h-.53v-.43h5.3Zm-4.77,11.46v9.29h4.25v-9.29Zm-97.11-9.81v15h7v-15ZM310.07,279v6.42l-4.42.09v-6c0-1.13,2.08-2.95,2.16-2.95s2.26,1.3,2.26,2.43Zm0-10.76v6.34l-4.42.52v-6.34c0-1.22,2.08-3,2.16-3s2.26,1.22,2.26,2.52ZM365.35,279v6.42l4.43.09v-6c0-1.13-2.17-2.95-2.26-2.95s-2.17,1.3-2.17,2.43Zm0-10.76v6.34l4.43.52v-6.34c0-1.22-2.17-3-2.26-3s-2.17,1.22-2.17,2.52Zm-13-14.06c.53-1-3.64-2.08,4-6.68H356v-.35h.26v-1.56H356a.88.88,0,0,1-.7-.52.93.93,0,0,0,.53.17.75.75,0,0,0,.77-.69.34.34,0,0,0-.08-.26.53.53,0,0,1,.26.52.82.82,0,0,1-.26.61v1.73h.17v.35h-.35c7.29,4.43,3.48,5.81,4.17,6.68Zm-12.58,15.45v4.95h5v-5.12c0-2.95-6.85-6.95-7.2-6.95s-7.2,4-7.2,6.95v5.12h4.94v-4.95c0-.87,2.09-2.09,2.26-2.09s2.17,1.22,2.17,2.09Zm0,11v4.86h-4.43v-4.86c0-1,2.09-2.17,2.26-2.17s2.17,1.21,2.17,2.17Zm5-4.34h-14.4v9.2H328.3V259.13h18.48v26.38h-2Zm-27.94-5.55h1.74v3.29h-1.74Zm0,11.45h1.74v3.3h-1.74Zm39.83,0h1.74v3.3h-1.74Zm0-11.45h1.74v3.29h-1.74Zm-41.39-14h1.56v2.35h-1.56Zm43.39,0h1.65v2.35h-1.65Zm-2.61,0h1.57v2.35h-1.57Zm-2.69,0h1.57v2.35h-1.57Zm-32.71,0h1.56v2.35h-1.56Zm-2.69,0h1.56v2.35H318Zm36.36,19.27h2.43a11.51,11.51,0,0,0-1.3.87,3,3,0,0,0-1.22,2v6.95h6.69v-6.95a3.16,3.16,0,0,0-1.31-2,6.65,6.65,0,0,0-1.3-.87h2.61v-.69h-6.6Zm-39.92-11.8h2.95a19.58,19.58,0,0,0-1.73,1.21,3.14,3.14,0,0,0-1.31,2v6.94H321v-6.94c0-.78-.79-1.56-1.31-2a7.37,7.37,0,0,0-1.73-1.21h3v-.7h-6.6Zm0,11.8h2.52a6.35,6.35,0,0,0-1.3.87,3.12,3.12,0,0,0-1.31,2v6.95H321v-6.95a2.85,2.85,0,0,0-1.31-2,5.5,5.5,0,0,0-1.21-.87H321v-.69h-6.6Zm39.75-11.8h3.12a6.05,6.05,0,0,0-1.74,1.21,2.88,2.88,0,0,0-1.3,2v6.94h6.69v-6.94c0-.78-.79-1.56-1.31-2a19.58,19.58,0,0,0-1.73-1.21h2.77v-.7h-6.5Zm-35.07-20a.52.52,0,0,1,.27.52.79.79,0,0,1-.27.61v1.73h.27v.35h-.78v-.35h.26v-1.56h-.26a1,1,0,0,1-.7-.52,1.18,1.18,0,0,0,.52.17.75.75,0,0,0,.78-.69.31.31,0,0,0-.09-.26Zm-.17,3.21c7.29,4.43,3.56,5.81,4.17,6.68h-8.16c.61-1-3.65-2.08,4-6.68Z" transform="translate(0.69)"/><path class="cls-2" d="M433.91,160.11h-1.56V149l-.18.18-.26-.18v3.56l-.35-.43-.34.6-.35.61-.43-.61-.35-.6-.43.6-.35.61-.43-.61-.35-.6-.44.6-.34.61-.35-.61-.44-.6-.34.6-.44.61-.34-.61-.44-.6-.34.6-.35.61-.44-.61-.34-.6-.44.6-.34.61-.44-.61-.34-.6-.44.6-.34.61-.36-.61-.43-.6-.34.6-.44.61-.34-.61-.44-.6-.35.6-.34.61-.44-.61-.35-.6-.43.6-.34.61-.44-.61-.34-.6-.44.6-.35.61-.34-.61-.44-.6-.35.6-.43.61-.35-.61-.43-.6-.35.6-.34.61-.44-.61-.34-.6-.44.6-.35.61-.43-.61-.35-.6-.43.6-.35.61-.34-.61-.44-.6-.35.6-.43.61-.35-.61-.43-.6-.35.6-.35.61-.43-.61-.34-.6-.36.52V149l-.26.18-.26-.18v11.11H403.1v-4.34l-.17.26-.26-.26v36h31.67v-36l-.26.26-.17-.26Zm.95,135.73H401.28v-20h33.58Zm-3.3-21.61V255.48h-1.38v18.75h-1.05V255.48h-1.47v18.75h-1V255.48h-1.39v18.75H424.1V255.48h-1.39v18.75h-1.12V255.48H420.2v18.75h-1.13V255.48h-1.39v18.75h-1.13V255.48h-1.39v18.75h-1V255.48h-1.47v18.75h-1V255.48h-1.39v18.75h-1.13V255.48H407.7v18.75h-1.13V255.48h-1.39v18.75h-1.13V235.44h28.64v38.79Zm-1.38-19.79h1.38V236.31h-1.38Zm-25,0h1.39V236.31h-1.39Zm2.52,0h1.39V236.31H407.7Zm2.52,0h1.39V236.31h-1.39Zm2.43,0h1.47V236.31h-1.47Zm2.51,0h1.39V236.31h-1.39Zm2.52,0h1.39V236.31h-1.39Zm2.52,0h1.39V236.31H420.2Zm2.51,0h1.39V236.31h-1.39Zm2.52,0h1.39V236.31h-1.39Zm2.43,0h1.47V236.31h-1.47ZM405.88,148.05l-1.05-.87-.95.87.95,1Zm27.25,0-1-.87-.95.87.95,1Zm1.91,6.77-1-.87-.87.87.87,1Zm-31.25,0-.86-.87-1,.87,1,1Zm.78-7.55v-.61h.52v.61l-.26-.26Zm27.34,0v-.61h.44v.61l-.18-.26ZM402.67,154v-.69h.43V154l-.17-.17Zm31.24-.08v-.61h.43V154l-.26-.25Zm-22.22-11.71-4.17,10.32.09.09.09.17.78-1.13.61,1,.17.17.18-.17.6-1,.78,1.22.17-.26.62-1,.52,1,.26.26.69-1.22.69,1,.09.17.17-.17.61-1,.61,1,.17.17.18-.17.61-1,.6,1,.18.26.17-.26.6-1,.53,1,.26.26.09-.26.6-1,.7,1,.08.17.78-1.13.61,1,.18.17.17-.17.61-1,.78,1.22.17-.26.61-1,.6,1,.18.26.69-1.22.7,1,.08.17.78-1.13.61,1,.18.17.17-.17.61-1,.78,1.13.09-.17.08-.09-4.16-10.32Zm1.39,7-.87-1.47-.26-.35-1.13,1.82.35.18.78-1.3.7,1.3Zm6.51-3.47-.87-1.56-.17-.35-1.13,1.91.34.18.79-1.31.69,1.31Zm4.34,0-1-1.56-.17-.35-1.13,1.91.35.18.78-1.31.69,1.31Zm2.17,3.47-1-1.47-.17-.35-1,1.82.26.18.78-1.3.78,1.3Zm-4.43,0-.78-1.47-.26-.35-1.13,1.82.35.18.78-1.3.78,1.3Zm-4.34,0-.78-1.47-.26-.35-1.13,1.82.35.18.78-1.3.7,1.3Zm-1.65-3.47-.78-1.56-.26-.35-1.13,1.91.35.18.78-1.31.7,1.31ZM409,154.91h-3.12v4.25H409Zm21.7,0h-3v4.25h3Zm-4.26,0h-3.21v4.25h3.21Zm-4.33,0h-3.22v4.25h3.22Zm-4.35,0h-3.21v4.25h3.21Zm-4.42,0h-3.12v4.25h3.12Zm6.42-39h-2.52v-1.82h2.52Zm-8.15,14-1-.95-1,.95,1,1Zm15.7,0-.95-.95-1,.95,1,1Zm-1.47,3.73-.35.7-.35.69h-.08l-.26-.69-.44-.7-.43.7-.26.69h0l-.35-.69-.43-.7-.35.7-.35.69h0l-.34-.69-.35-.7-.44.7-.34.69h0l-.35-.69-.35-.7-.43.7-.26.69h-.09l-.35-.69-.34-.7-.44.7-.26.69h-.09l-.34-.69-.35-.7-.43.7-.26.69h-.09l-.35-.69-.34-.7-.44.7-.26.69h-.08l-.35-.69-.44-.7-.34.7-.35.69h0l-.26-.69-.43-.7-.44.7L412,135h-.08l-.26-.69-.44-.7-.26.43v-3l-.26.17-.26-.17v4h0v6.68h16.23V135h0v-4l-.26.17-.26-.17v3Zm-7.29-20.56c0,.26-.09.52-.09.78h.09v-.78Zm-.35,3.12c-1,6-3.73,11.28-5.64,16.92V133l.69,1.22.09.17L414,133l.7,1.22.09.17.08-.17.7-1.22.69,1.39.09-.17.69-1.22.69,1.39.09-.17.7-1.22.61,1.22.08.17.09-.17L420,133l.7,1.39.08-.17.7-1.22.69,1.39.09-.17L423,133l.52,1.22.18.17.08-.17.61-1.22c.17-.26-5.29-14.4-5.64-16.83Zm1.39,8.16-.87-1.39-.17-.43-1.13,1.82.34.26.79-1.3.69,1.3Zm-3.3,7.46-.78-1.56-.26-.35-1.13,1.91.35.18.78-1.4.69,1.4Zm3.3,0-.87-1.56-.17-.35-1.13,1.91.34.18.79-1.4.69,1.4Zm3.3,0-.87-1.56-.26-.35-1.13,1.91.43.18.7-1.4.78,1.4Zm-5.21-3.56-.87-1.56-.26-.35-1,1.91.35.18.69-1.39.78,1.39Zm3.82,0-.87-1.56-.17-.35-1.13,1.91.26.18.87-1.39.69,1.39Zm-11.11.61v-.61h.52v.61l-.26-.26Zm15.71,0v-.61h.52v.61l-.26-.26Zm-12.41,7.46h-2.43v4.34h2.43Zm12.06,0h-2.43v4.34h2.43Zm-3,0h-2.43v4.34h2.43Zm-2.95,0h-2.43v4.34h2.43Zm-3,0h-2.43v4.34h2.43Zm13.63,96.94h1.39V213.48h-1.39Zm-25.08,0h1.39V213.48h-1.39Zm2.52,0h1.39V213.48h-1.39Zm2.51,0h1.39V213.48H410.3Zm2.52,0h1.39V213.48h-1.39Zm2.52,0h1.38V213.48h-1.38Zm2.42,0h1.48V213.48h-1.48Zm2.52,0h1.39V213.48h-1.39Zm2.52,0h1.39V213.48H422.8Zm2.52,0h1.38V213.48h-1.38Zm2.51,0h1.39V213.48h-1.39Zm2.52-20.83h1.39V194.22h-1.39Zm-25.08,0h1.39V194.22h-1.39Zm2.52,0h1.39V194.22h-1.39Zm2.51,0h1.39V194.22H410.3Zm2.52,0h1.39V194.22h-1.39Zm2.52,0h1.38V194.22h-1.38Zm2.42,0h1.48V194.22h-1.48Zm2.52,0h1.39V194.22h-1.39Zm2.52,0h1.39V194.22H422.8Zm2.52,0h1.38V194.22h-1.38Zm2.51,0h1.39V194.22h-1.39Zm4.95-19H404.23v40.61h28.55Zm-24.91-4.34h-1.65v1.65h1.65Zm22.83,0h-1.65v1.65h1.65Zm-2.09,0H427v1.65h1.65Zm-2.08,0h-1.65v1.65h1.65Zm-2.08,0H422.8v1.65h1.65Zm-2.08,0h-1.65v1.65h1.65Zm-2.09,0h-1.64v1.65h1.64Zm-2.08,0h-1.65v1.65h1.65Zm-2.08,0h-1.65v1.65h1.65Zm-2.09,0h-1.56v1.65H414Zm-2,0h-1.65v1.65H412Zm-2.08,0h-1.65v1.65H410Zm8.59-12.16c-.18,0-.35-.08-.52-.08l-.61.61c-.09.34-.09.6-.26.78a.39.39,0,0,1-.44,0,2.19,2.19,0,0,0-.43-.52c-.17-.09-.17-.26,0-.43a1,1,0,0,1,.7-.27l.69-.6c-.17-.09-.17-.35-.17-.52v-.27L411.26,169v-.17h.17c0-.09.09-.09.09,0l6.59,6.16a.71.71,0,0,1,.44-.08,1.6,1.6,0,0,1,.61.17l1-1a.18.18,0,0,1-.18-.17.24.24,0,0,1,0-.43,1.64,1.64,0,0,1,1-.27l.17-.17v-.43h.62v.52h-.35l-.27.26c0,.43,0,.87-.17,1a.53.53,0,0,1-.52,0l-.08-.09-1,1a1.37,1.37,0,0,1,.17.53c0,.17-.09.26-.09.34a2.51,2.51,0,0,0,1.3,1,.09.09,0,0,1,.09.09c0,.08,0,.17-.09.17s-.17.08-.17.17-.09.09-.09.17a.33.33,0,0,1-.08.18c-.18,0-.26,0-.26.08a.19.19,0,0,0-.18.18h-.08c-.09.09-.09,0-.18,0a2.25,2.25,0,0,0-1-1.31Zm-.26-10.06h-.61l-.09-1.13h.7Zm-1.13.09c-.26.08-.52.08-.78.17l-.26-1.13h0a3,3,0,0,1,.95-.17h0Zm-1.22.25a1.18,1.18,0,0,1-.6.18l-.44-1,.78-.26h0Zm-.95.36a3.3,3.3,0,0,1-.78.34l-.61-.95a3.19,3.19,0,0,1,.95-.44Zm-1.22.6a1.83,1.83,0,0,1-.52.35l-.69-.95a3.32,3.32,0,0,0,.69-.44Zm-.86.61a1.69,1.69,0,0,1-.44.35l.18.17L413,169h.09l.09-.08c.26-.18.43-.35.69-.53H414l1.82,3.22a1.52,1.52,0,0,0-.43.26l.17.17a4.47,4.47,0,0,1,3-1,5.09,5.09,0,0,1,3.3,1.3h.34a3.27,3.27,0,0,0-.87-.69l1.74-3.22h.09c.34.27.6.44,1,.7l.09.09h0a3.28,3.28,0,0,0,.61.51,4.94,4.94,0,0,0,.69.79v.08l.09.09a3.31,3.31,0,0,1,.43.7l-3.12,1.82c-.18-.26-.44-.61-.61-.87v.43a5.09,5.09,0,0,1,1.21,3.22,5,5,0,0,1-8.5,3.55,4.87,4.87,0,0,1-1.48-3.55,4.42,4.42,0,0,1,1-3l-.17-.17c-.09.09-.17.26-.26.35L411,171.31a4,4,0,0,1,.7-1v-.09h0c.09,0,.09-.08.18-.17l-.18-.17c-.08.08-.08.17-.17.26l-1-.78a.7.7,0,0,0,.35-.35v-.43l.26-.09c.09-.18.26-.18.44-.18a4.08,4.08,0,0,1,.6-.43h0Zm-1.48,1.56h-.09l-.78-.7h0l.87.61Zm-.17.17a1.94,1.94,0,0,0-.44.7l-.52-.35-.52-.26h0a7,7,0,0,1,.52-.78h.09Zm-.7,1a5.31,5.31,0,0,0-.26.6l-1.12-.52c.08-.17.26-.43.34-.6h0Zm-.52,1c-.08.26-.17.52-.26.78l-1-.35h-.09c.09-.35.27-.61.35-.95h0Zm-.26.95h0l-1-.26h0Zm-.09.26c-.08.18-.08.35-.17.61l-1.12-.17c.08-.26.08-.53.17-.78v.08Zm-.17.79h0l-1-.09h0v-.09Zm0,.26a2.49,2.49,0,0,0-.08.77h-1.13a3.44,3.44,0,0,1,.09-.95Zm-.08,1.3a1.55,1.55,0,0,0,.08.6l-1.21.09h0v-.69Zm.08,1c.09.26.09.6.17.86l-1.12.27h0a3.59,3.59,0,0,1-.17-1h0Zm.26,1h0l-1,.26h0Zm0,.26c.09.17.18.35.26.52l-1.12.43v.09l-.27-.78h.09Zm.35.78h0l-.95.43h0v-.08Zm.09.17a2.94,2.94,0,0,0,.34.78l-1,.61h0c-.17-.26-.26-.61-.43-.87l.09-.09Zm.6,1.22a.83.83,0,0,0,.35.43l-1,.7h0a4.13,4.13,0,0,1-.35-.61h0Zm.61.78c.18.26.35.43.52.69l-.78.87h-.09c-.17-.26-.43-.52-.6-.78h0Zm.87,1c.17.09.26.26.43.35l-.69,1H412c-.17-.17-.34-.35-.52-.52h0Zm.78.69c.26.18.43.26.69.44l-.52,1h-.08a4.62,4.62,0,0,1-.78-.61h0Zm1.13.7.52.26-.44,1a1.79,1.79,0,0,1-.69-.34h0Zm1,.43.78.26-.26,1.13h0c-.34-.09-.69-.17-.95-.26Zm1,.35h0l-.18,1h-.08Zm.26.09c.17,0,.43.09.61.09l-.18,1.12h0c-.26,0-.52-.09-.69-.09h0Zm.78.17h.08l-.17.95h0Zm.26,0c.26,0,.61.09.87.09v1.13a4.15,4.15,0,0,1-1.05-.09h0Zm1.3.09a1.44,1.44,0,0,0,.61-.09l.17,1.13v.09h-.78Zm1.13-.09c.26-.08.52-.08.78-.17l.26,1.12h0c-.26.09-.61.09-.95.18h0Zm1-.26h0l.26,1h-.09l-.17-1Zm.17-.09a2.11,2.11,0,0,0,.61-.17l.44,1v.09a2.24,2.24,0,0,1-.7.17h0Zm.79-.26h.08l.35,1h0Zm.26-.08a4.88,4.88,0,0,0,.69-.35l.61,1v.08a4.39,4.39,0,0,0-.87.43v-.08Zm1.12-.61a1.83,1.83,0,0,0,.52-.35l.7,1c-.18.17-.44.26-.61.43h0Zm.7-.44h0l.6.79h0Zm.17-.17a4.12,4.12,0,0,0,.61-.52l.87.78h0a6.15,6.15,0,0,1-.78.7h0Zm1-.87a4.65,4.65,0,0,0,.34-.43l1,.69a2.07,2.07,0,0,1-.44.52Zm.69-.86a1.92,1.92,0,0,0,.43-.7l1,.61a6.25,6.25,0,0,1-.52.87h-.08Zm.69-1c.09-.17.18-.35.26-.52l1.13.44a2.81,2.81,0,0,0-.35.69h-.08Zm.44-1a3,3,0,0,0,.26-.78l1.13.26h.08a5.85,5.85,0,0,0-.34.95Zm.43-1.22c0-.17.09-.43.09-.6l1.21.17c-.08.17-.08.43-.17.7h0Zm.17-.86h0l1,.17h-.09Zm0-.27a2.26,2.26,0,0,0,.09-.77h1.13a3.44,3.44,0,0,1-.09,1Zm.09-1.3a1.08,1.08,0,0,0-.09-.52l1.22-.17h0v.69Zm-.09-.77h0v-.09l1-.09h0v.09Zm0-.26c-.08-.27-.08-.53-.17-.79l1.13-.26v-.08a4.11,4.11,0,0,1,.17,1h0Zm-.26-1.22a3.28,3.28,0,0,0-.26-.61l1.13-.43h0a2,2,0,0,1,.18.69h0Zm-.34-.87h0l.95-.43h0v.08Zm-.09-.17a3,3,0,0,0-.35-.78l1-.52h.08c.18.26.27.6.44.86Zm-.61-1.13c-.08-.17-.17-.35-.26-.52l.87-.7a2.74,2.74,0,0,1,.43.61Zm-.6-1a3,3,0,0,1-.52-.61l.86-.77a5.41,5.41,0,0,0,.61.69v.08Zm-.87-.86a1,1,0,0,0-.44-.44l.7-1c.17.17.43.34.61.52Zm-.61-.61h0l.7-.78h0l-.61.78Zm-.17-.09c-.26-.17-.44-.35-.7-.52l.61-1,.78.53ZM422.8,168a1.76,1.76,0,0,0-.52-.35l.43-1h0a2.3,2.3,0,0,1,.7.35Zm-.95-.52-.79-.27.35-1.12h0c.26.09.61.26.87.35h0Zm-1.22-.35c-.17-.09-.43-.09-.61-.17l.18-1.13a5.35,5.35,0,0,1,.69.17h0Zm-.78-.17h-.09l.18-1.05h0Zm-.26,0a2.87,2.87,0,0,0-.87-.09v-1.13h1Zm-5.3,1.21c.26-.17.44-.26.7-.43h.09l.26-.09h0c.26-.08.43-.17.69-.26h.09l.17-.09h.17c.26-.09.53-.09.78-.17h.44v-.09h.61v3.65a5.71,5.71,0,0,0-2.17.61Zm4.43-1.13a2.32,2.32,0,0,1,.78.09h.44a3.76,3.76,0,0,1,.6.17h.09l.26.09H421l.78.26v.09h.09c.08,0,.17.08.26.08h0l.08.09h0c.18,0,.35.18.52.26l-1.82,3.13a6.22,6.22,0,0,0-2.17-.61Zm7.55,4.69a3.35,3.35,0,0,1,.35.78h0l.08.09c0,.08,0,.17.09.17v.09h0c.09.26.17.61.26.95h0a6.94,6.94,0,0,1,.26,1.91h-3.64a5.72,5.72,0,0,0-.52-2.17Zm1,4.43a2.26,2.26,0,0,1-.09.77h0a4.19,4.19,0,0,1-.17,1.05h0a9.06,9.06,0,0,1-.78,2.17l-3.21-1.82a6.34,6.34,0,0,0,.61-2.17ZM426,180.5a3.61,3.61,0,0,1-.43.79l-.18.17-.08.09h0a5.18,5.18,0,0,0-.35.43l-.17.09-.09.17h0l-.18.09h.09a3.6,3.6,0,0,0-.61.52h-.08v.08l-.09.09-.69.43-1.83-3.21a5.37,5.37,0,0,0,.87-.69,3.52,3.52,0,0,0,.7-.87L426,180.5Zm-3.3,3.22a4.93,4.93,0,0,1-.69.34V184l-.17.08-.09.09-.17.09h0a1.18,1.18,0,0,0-.53.17H421c-.09,0-.26.09-.35.09h-.09a3.87,3.87,0,0,1-1,.17h-.17a1.88,1.88,0,0,1-.7.09v-3.65a6,6,0,0,0,2.17-.61Zm-4.42,1a2.29,2.29,0,0,1-.78-.09h-.44c-.26-.09-.43-.09-.61-.17h0a7.66,7.66,0,0,1-1.3-.44h-.08c-.26-.08-.53-.26-.79-.34l1.83-3.22a6,6,0,0,0,2.17.61Zm-4.43-1.31a7.56,7.56,0,0,1-.69-.43h.08l-.08-.09-.26-.08v-.09h-.09c-.09-.17-.26-.26-.43-.43h.08l-.08-.09-.18-.17L412,182a3.66,3.66,0,0,1-.52-.61h0l-.18-.26-.08-.08-.27-.53h-.08l3.21-1.82a3.6,3.6,0,0,0,.78.87,7.57,7.57,0,0,0,.87.78l-1.91,3.12Zm-3.12-3.29a2.6,2.6,0,0,1-.35-.87h-.09c-.08-.26-.17-.61-.26-.87h0A.83.83,0,0,1,410,178h0a6.42,6.42,0,0,1-.27-1.82h3.65a4.83,4.83,0,0,0,.61,2.17Zm-1.05-4.43a2.77,2.77,0,0,1,.09-.86h0v-.44h0c.09-.17.09-.43.18-.61h0c0-.17,0-.26.08-.34v-.09h0c.09-.26.18-.52.26-.7h0l.09-.17v-.09c0-.08.09-.08.09-.17h0c.08-.17.17-.35.26-.52l3.21,1.82a4.79,4.79,0,0,0-.61,2.17Zm20.57-11.63H418.55a11.8,11.8,0,0,1,11.71,11.81Zm-9.2,2h.09l-.26,1Zm4.52,2.69h.08l-.69.78-.09-.09Zm2.69,4.51h0l-1,.26Zm0,5.21h0l-1-.26h0ZM425.66,183h0l-.08.09-.7-.78H425Zm-14.23.09h0l-.09-.09.7-.69h.09Zm4.43-17h.08l.18,1Zm6.68.52h0l-.43,1Zm4.08,3.21h0l-.87.69v-.08Zm1.21,10.06h0l-1-.43h0Zm-1.39,2.26h0l-.86-.6ZM419.68,186h0l-.09-1Zm-5.13-.69h0l-.08-.09.43-.95Zm-2.34-1.39h0v-.09l.7-.78ZM410.39,182h0l.87-.61Zm-1.91-4.86h0l1-.09Zm.7-5.21h0l.95.44Zm3.29-4.08h0v-.08l.61.87v.08Zm2.26-1.3h0l.43,1-.08.09Zm2.6-.61h0l.09,1.05Zm1.22-1.82h-11.8v11.81a11.82,11.82,0,0,1,11.8-11.81Zm-11.8,11.81v11.8h11.8a11.82,11.82,0,0,1-11.8-11.8Zm11.8,11.8h11.71v-11.8a11.8,11.8,0,0,1-11.71,11.8Zm0-.61a11.15,11.15,0,1,1,11.11-11.19,11.22,11.22,0,0,1-11.11,11.19Zm9.89-.7a.84.84,0,0,1-.87-1,.81.81,0,0,1,.87-.78.86.86,0,0,1,.87.78.89.89,0,0,1-.87,1Zm0-19.43a.88.88,0,0,1-.87-.87.82.82,0,0,1,.87-.87.87.87,0,0,1,.87.87.94.94,0,0,1-.87.87Zm-19.7,0a.88.88,0,0,1-.87-.87.87.87,0,0,1,1.74,0,.88.88,0,0,1-.87.87Zm0,19.43a.84.84,0,0,1-.87-1,.88.88,0,0,1,1.74,0,.84.84,0,0,1-.87,1Zm21.87-22.65v24.3H406.4v-24.3Zm.09-2.6h-1.65v1.74h1.65Zm-22.83,0h-1.65v1.74h1.65Zm2.09,0h-1.65v1.74H410Zm2.08,0h-1.65v1.74H412Zm2,0h-1.56v1.74H414Zm2.09,0h-1.65v1.74h1.65Zm2.08,0h-1.65v1.74h1.65Zm2.08,0h-1.64v1.74h1.64Zm2.09,0h-1.65v1.74h1.65Zm2.08,0H422.8v1.74h1.65Zm2.08,0h-1.65v1.74h1.65Zm2.08,0H427v1.74h1.65Zm-23.34,29.42h.35V161.15h-.35Zm-1.74,0H404V161.15h-.44Zm.87,0h.43V161.15h-.43Zm27,0h.52V161.15h-.52Zm1.74,0h.43V161.15h-.43Zm-.87,0h.43V161.15h-.43Z" transform="translate(0.69)"/><path class="cls-2" d="M753.87,188v-1.22L750.31,185v6Zm-78.36-32.29h25.94v7.56H675.51Zm25.94,8.77V176H675.51V164.45Zm0,13.36v20.74H675.51V177.81ZM682.1,158h4.43V159H682.1Zm15.19,10.15v5.3h-4.17v-5.3a2,2,0,0,1,2.09-1.73,1.89,1.89,0,0,1,2.08,1.73Zm-6.59,0v5.3h-4.17v-5.3a1.89,1.89,0,0,1,2.08-1.73,2,2,0,0,1,2.09,1.73Zm-6.69,0v5.3h-4.17v-5.3a1.9,1.9,0,0,1,2.09-1.73,1.94,1.94,0,0,1,2.08,1.73Zm6.51,15.45H695v.87h-4.43Zm-5.47.17h4.43v.87h-4.43Zm3.13,1.13h4.42v.95h-4.42Zm2.6,1.65h4.43v1h-4.43Zm-5.21,0H690v1h-4.43Zm-3.38,8.85h4.34v.95h-4.34ZM680,194.3h4.43v1H680Zm-2.17-1.21h4.43V194h-4.43Zm16.84-.26h4.42v.95h-4.42ZM692.17,157h4.42v1h-4.42Zm-6.94,3.22h4.42v1h-4.42Zm-43.66,63h43.92v34.37H641.57ZM685.49,259v36.8H641.57V259ZM673.86,286.2h7.46v1.57h-7.46Zm-7-15.7h7.46v1.56h-7.46Zm-9.11.34h7.46v1.57h-7.46Zm5.2,2h7.47v1.56h-7.47Zm4.34,2.78h7.47v1.56h-7.47Zm-8.76,0h7.37v1.56H658.5Zm-5.9,15h7.46v1.56H652.6Zm-3.56-2h7.46v1.56H649Zm-3.56-2.08h7.46v1.65h-7.46Zm10.24-42.09v8.94h-7v-8.94a3.55,3.55,0,0,1,7,0Zm22.74,0v8.94h-7v-8.94a3.24,3.24,0,0,1,3.47-3,3.39,3.39,0,0,1,3.56,3Zm-11.37,0v8.94h-7v-8.94a3.55,3.55,0,0,1,7,0Zm-14.58-17.18H660v1.56h-7.46Zm17.18-1.82h7.46V227h-7.46Zm-11.89,5.38h7.47v1.65H657.8ZM641.57,235h43.92v1.57H641.57Zm47-97.19-8.68,7.29h17.88Zm7.46,7.55v9.72H681.76v-9.72Zm-8.76,3.73h3v-2.86h-3Zm75.85,31.41-12.24,10.33h25.34Zm10.32,11v13.79h7.73v60H744.85v-60h8.76V191.53Zm-12.15,4.68h4.08v-4.08h-4.08ZM754,208.71h6.16v1.21H754Zm21.43,14.23v7.29h-5.81v-7.29a2.66,2.66,0,0,1,2.86-2.52,2.81,2.81,0,0,1,2.95,2.52Zm-9.37,0v7.29h-5.81v-7.29a2.72,2.72,0,0,1,2.86-2.52,2.81,2.81,0,0,1,2.95,2.52Zm-9.37,0v7.29h-5.82v-7.29a2.94,2.94,0,0,1,5.82,0Zm9.11,21.44h6.16v1.3h-6.16Zm-7.55.25h6.16v1.31h-6.16Zm4.34,1.66h6.25v1.38h-6.25Zm3.64,2.34h6.17v1.3h-6.17Zm-7.37,0h6.25v1.3h-6.25ZM754,261h6.17v1.3H754Zm-2.95-1.65h6.17v1.3h-6.17Zm-3-1.65h6.16V259h-6.16Zm23.52-.35h6.16v1.22h-6.16Zm-3.56-50.16h6.16v1.22H768.1Zm-9.72,4.43h6.16V213h-6.16ZM744.85,215h36.36v1.74H744.85Zm0,18.75h36.36v3.64H744.85Zm-81.23-40.62-14.84,12.41H679.5Zm12.58,13.11V222H652.08v-15.7Zm-14.75,5.9h4.95v-5h-4.95Zm25.16,35.23,1.22-.6v9.28l2-.87v-9.28l4.16-2v9.29l1.91-1V243l4.17-2v9.29l2-1V240l4.17-2v9.29l1.91-1v-9.28l4.16-2v9.29l2-.87v-9.37l4.16-2v9.28l1.91-.86v-9.29l4.17-2.08v9.28l2-.86v-9.29l4.07-2v9.28l2-1v-9.29l4.17-2v9.28l1.9-.95v-9.29l4.17-2v9.29l.87-.35V260.6L686.61,288Zm63.7-56.4v1.9l-1.64-.78v-8L745,182.41v8.07l-1.65-.86v-8l-3.56-1.74V188l-1.73-.87v-8l-3.47-1.73v8.07l-1.74-.87v-8L729.31,175v7.9l-1.65-.78v-8L724,172.35v8l-1.65-.78v-8l-3.56-1.74v8l-1.65-.78v-8l-3.64-1.74v8l-1.65-.78v-8l-3.56-1.73v8l-1.73-.78v-8l-3.48-1.73v8l-.43-.17V197l41.05,19.7V204.2h9.2V191Z" transform="translate(0.69)"/><path class="cls-2" d="M280.13,154l-1.39,13-46.08-5,1.39-13Zm-36.71,118.8c24,0,44.78,9.55,53.2,23.09H190.05c8.59-13.54,29.25-23.09,53.37-23.09Zm-20.48-35.14L271.89,243l-.26,2.95-49-5.38Zm18.92-109.26,35.23,3.82.26-2.6-35.23-3.82Zm-8.76,16.14,49,5.29-.35,3-48.94-5.38Zm-2,18.57L280,168.44l-.26,3-49-5.38Zm-2,18.66,49,5.38-.35,3-48.94-5.29ZM227,200.29l49,5.38-.43,3-49-5.38ZM225,219l49,5.38-.35,3L224.68,222Zm47.47-71.08L274.14,133l-29.59-3.21-1.65,14.92Zm-20.13-10.76-.52,5.3-5.12-.52.52-5.3a2.69,2.69,0,0,1,2.86-2.43,2.65,2.65,0,0,1,2.26,3Zm17.62,2-.61,5.29-5.12-.6.61-5.3a2.61,2.61,0,0,1,2.86-2.34,2.56,2.56,0,0,1,2.26,3Zm-8.77-1-.6,5.3-5.12-.61.6-5.29a2.46,2.46,0,0,1,2.87-2.34,2.59,2.59,0,0,1,2.25,2.94ZM238.82,152l-.95,8.59-3-.35.95-8.59a1.44,1.44,0,0,1,1.65-1.13,1.39,1.39,0,0,1,1.39,1.48Zm29.77,79.4h0l-1,8.6-2.95-.35.95-8.59A1.42,1.42,0,0,1,267.2,230a1.65,1.65,0,0,1,1.39,1.47Zm-4.25-.52h0l-1,8.68-3-.34.95-8.6a1.55,1.55,0,0,1,3,.26Zm-4.26-.34h0l-.95,8.5-2.95-.26.87-8.68a1.45,1.45,0,0,1,1.73-1,1.37,1.37,0,0,1,1.3,1.48Zm-4.16-.52h0l-1,8.59-3-.35.95-8.59c.09-.7.78-1.13,1.65-1.13.87.17,1.48.78,1.39,1.48Zm-4.25-.52h0l-1,8.67-3-.34.87-8.59a1.47,1.47,0,0,1,1.65-1.13,1.42,1.42,0,0,1,1.39,1.39Zm-4.17-.35h0l-.95,8.5-3-.26.87-8.68a1.46,1.46,0,0,1,1.73-1,1.39,1.39,0,0,1,1.39,1.48Zm-4.25-.52h0l-.95,8.59-3-.35,1-8.5a1.55,1.55,0,0,1,1.65-1.22c.87.18,1.48.78,1.39,1.48Zm-4.25-.44h0l-.87,8.6-3.13-.35,1-8.59a1.51,1.51,0,0,1,1.73-1.13,1.43,1.43,0,0,1,1.31,1.47Zm-4.17-.43h0l-1,8.59-3-.34.95-8.6a1.47,1.47,0,0,1,1.65-1.12,1.43,1.43,0,0,1,1.39,1.47Zm-4.25-.52h0l-.87,8.59-3.12-.35.95-8.5a1.48,1.48,0,0,1,1.65-1.21c.87.17,1.47.78,1.39,1.47Zm40-14.67h0l-.87,8.59-3.13-.34,1-8.6c.08-.69.78-1.12,1.65-1.12.86.17,1.47.78,1.39,1.47Zm-4.17-.43h0l-1,8.59-2.95-.35.95-8.59a1.42,1.42,0,0,1,1.65-1.12,1.57,1.57,0,0,1,1.39,1.47Zm-4.25-.44h0l-1,8.6-3-.35,1-8.68a1.45,1.45,0,0,1,1.65-1,1.39,1.39,0,0,1,1.39,1.47Zm-4.17-.51h0l-1,8.59-2.95-.26.87-8.59a1.63,1.63,0,0,1,1.73-1.22,1.65,1.65,0,0,1,1.39,1.48Zm-4.25-.44h0l-1,8.59-3-.35,1-8.59a1.55,1.55,0,0,1,3,.35Zm-4.25-.43h0l-1,8.59-2.95-.35.87-8.68a1.49,1.49,0,0,1,1.65-1,1.4,1.4,0,0,1,1.39,1.48Zm-4.17-.52h0l-1,8.59-3-.26,1-8.59c0-.79.77-1.22,1.64-1.22.87.17,1.48.78,1.39,1.48Zm-4.25-.44h0l-1,8.59-3-.34.87-8.6a1.36,1.36,0,0,1,1.65-1,1.32,1.32,0,0,1,1.39,1.39Zm-4.25-.43h0l-.87,8.59-3.12-.35.95-8.68a1.56,1.56,0,0,1,1.73-1,1.33,1.33,0,0,1,1.31,1.48Zm-4.17-.52h0l-.95,8.59-3-.26,1-8.59a1.55,1.55,0,0,1,1.65-1.22c.78.18,1.48.78,1.39,1.48Zm40-14.67h0l-1,8.59-3-.26.95-8.67a1.38,1.38,0,0,1,1.65-1.05c.78.09,1.47.7,1.39,1.39Zm-4.25-.43h0l-.87,8.59-3.13-.35,1-8.59a1.48,1.48,0,0,1,1.65-1.13,1.45,1.45,0,0,1,1.39,1.48Zm-4.17-.44h0l-.95,8.6-3-.35.95-8.59a1.42,1.42,0,0,1,1.65-1.13,1.51,1.51,0,0,1,1.39,1.47Zm-4.25-.52h0l-1,8.6-3-.27.95-8.59a1.36,1.36,0,0,1,1.65-1.12c.87.08,1.47.69,1.39,1.38Zm-4.17-.43h0l-1,8.59-2.95-.34.87-8.6a1.59,1.59,0,0,1,3.12.35Zm-4.25-.43h0l-1,8.59-3-.35.95-8.59a1.55,1.55,0,0,1,3,.35Zm-4.25-.44h0l-1,8.5-3-.25.87-8.59a1.45,1.45,0,0,1,1.74-1.13,1.37,1.37,0,0,1,1.3,1.47Zm-4.17-.52h0l-.95,8.59-3-.34,1-8.59a1.28,1.28,0,0,1,1.65-1c.87.09,1.48.7,1.39,1.39Zm-4.25-.43h0l-.95,8.59-3-.35.87-8.59a1.49,1.49,0,0,1,1.65-1.13,1.43,1.43,0,0,1,1.39,1.48Zm-4.17-.44h0l-1,8.51-3.13-.26,1-8.6a1.46,1.46,0,0,1,1.74-1.12,1.37,1.37,0,0,1,1.38,1.47ZM274.66,175h0l-.86,8.5-3-.26.95-8.67c0-.7.78-1.13,1.57-1.05s1.56.7,1.38,1.48Zm-4.16-.52h0l-1,8.59-3-.35,1-8.5a1.49,1.49,0,0,1,1.65-1.22c.78.17,1.48.78,1.39,1.48Zm-4.26-.52h0l-.86,8.67-3.13-.34,1.05-8.6a1.23,1.23,0,0,1,1.56-1,1.29,1.29,0,0,1,1.38,1.31Zm-4.16-.35h0l-1,8.59-3-.35,1-8.68a1.45,1.45,0,0,1,1.65-1,1.52,1.52,0,0,1,1.39,1.48Zm-4.25-.52h0l-1,8.59-3-.35.95-8.5a1.49,1.49,0,0,1,1.65-1.22c.87.18,1.47.78,1.39,1.48Zm-4.17-.44h0l-1,8.6-3-.35.87-8.59a1.62,1.62,0,0,1,3.12.34Zm-4.25-.43h0l-1,8.59-3-.35,1-8.59a1.42,1.42,0,0,1,1.65-1.12,1.38,1.38,0,0,1,1.39,1.47Zm-4.25-.52h0l-1,8.59-2.95-.35.87-8.5a1.65,1.65,0,0,1,1.74-1.22,1.5,1.5,0,0,1,1.3,1.48Zm-4.17-.43h0l-1,8.58-3-.34,1-8.59a1.3,1.3,0,0,1,1.64-1,1.31,1.31,0,0,1,1.39,1.39Zm-4.25-.44h0l-1,8.59-2.94-.35.86-8.59a1.47,1.47,0,0,1,1.65-1.12,1.38,1.38,0,0,1,1.39,1.47Zm40-14.66h0l-1,8.59-3-.35,1-8.68a1.55,1.55,0,0,1,1.73-1,1.38,1.38,0,0,1,1.31,1.48Zm-4.26-.53h0l-.86,8.6-3-.27,1-8.58c0-.79.78-1.22,1.57-1.22.86.17,1.56.78,1.38,1.47Zm-4.16-.43h0l-1,8.59-3-.34,1-8.59a1.57,1.57,0,0,1,3,.34Zm-4.25-.43h0l-.87,8.59-3.13-.35,1-8.59a1.35,1.35,0,0,1,1.57-1.13c.87.09,1.56.69,1.39,1.48Zm-4.17-.52h0l-1,8.59-3-.26,1-8.6a1.48,1.48,0,0,1,1.65-1.21,1.66,1.66,0,0,1,1.39,1.48Zm-4.25-.44h0l-1,8.59-3-.34,1-8.6a1.57,1.57,0,0,1,3,.35Zm-4.17-.43h0l-1,8.59-3-.35.95-8.59A1.44,1.44,0,0,1,250.1,152a1.51,1.51,0,0,1,1.39,1.48Zm-4.25-.52h0l-1,8.59-3-.26.95-8.59a1.37,1.37,0,0,1,1.65-1.13c.87.09,1.48.69,1.39,1.39Zm-4.17-.43h0l-1,8.59-2.95-.35.87-8.59a1.45,1.45,0,0,1,1.74-1,1.43,1.43,0,0,1,1.38,1.4Zm35.07,20.13-1.39,12.93-46.09-5,1.39-12.92Zm-2,18.66-1.48,12.93-46.08-5,1.48-12.93Zm-2.08,18.65-1.39,12.94-46.08-5L228,204.89Zm-2,18.57-1.47,13-46-5,1.39-13ZM270,247.15l-3,27.43c-.7-.18-1.39-.35-2.17-.61l2.25-20.05c.18-2-1.56-3.73-4-4.08s-4.51,1.13-4.69,3.21l-2.08,19.27-2.25-.26,2.08-19.27c.17-2-1.56-3.81-3.91-4.07s-4.51,1.12-4.68,3.12l-2.17,19.61a17.49,17.49,0,0,0-2-.08h-.26l2.17-19.79c.17-2-1.56-3.82-3.9-4.08s-4.52,1.13-4.78,3.12L234.4,271.8l-2.35.26,2.35-21.7c.26-1.91-1.56-3.81-3.91-4.07s-4.51,1.12-4.68,3.21l-2.69,24.21c-.87.17-1.83.43-2.69.69l3.47-32.28Z" transform="translate(0.69)"/><path class="cls-2" d="M577.36,292.8l-33.24.35,4.43-5.38h0l1.64-1.91h0l1-1.3h0l1.64-1.91h0l1-1.3h0l1.56-1.83,22-26.38,22.13,25.95-.6.6,14-13v0c2.77,2.43,5.55,4.86,8.33,7.2,1.91-3,5.21-6.86,9.37-6.42h0c7.2.26,8.25,11.37,8.25,11.37l-3.82.08.08,2.18a12.4,12.4,0,0,1,3,5c.09.08.09.17.17.26l.27.34.08.26c.18.35.26.7.52,1.13l-15.36.09c5.12,0,10.24-.09,15.36-.09l-.26-.43-.17-.44-.09-.26c.18.35.26.7.52,1.13s.78,2,.87,2.52l8.07.35c1.3.35,2,.26,2.86,4.51l-25,.17c.09.44-11.8-.17-11.8-.17l-25.34-.26a13.85,13.85,0,0,0-.17-2.26Zm24-10h0a11.26,11.26,0,0,1,1.12.43,11.26,11.26,0,0,0-1.12-.43Zm5.81,1.74a3.78,3.78,0,0,1,.95.08,3.78,3.78,0,0,0-.95-.08Zm5.29,7.89a3.41,3.41,0,0,0-1-.6,3.41,3.41,0,0,1,1,.6Zm25.86-6.07c-.08-.09-.08-.18-.17-.26h0Z" transform="translate(0.69)"/><path class="cls-2" d="M625.35,233.62v2.6H612.07v14h5.73l-4,1.3v44.35H605V251.58L601,250.19h5.82v-14H562.6v14h5.82l-4,1.3v44.35h-8.85V251.58l-3.91-1.39h5.73v-14H544.12v-2.6h-3.56v-1.91H557.4v-7.55h-4v-3c-5.46-.78-11.1-1.73-16.74-2.86v-6.42c-2.09-.35-4.26-.78-6.43-1.3v-5.21c-2.43-.43-4.94-1-7.37-1.47v-4.69a376.79,376.79,0,0,0,123.66,0v4.69c-2.43.51-4.86,1-7.37,1.47v5.21c-2.09.52-4.26.95-6.42,1.39v6.33c-5.47,1.22-11.12,2.26-16.75,3v2.78h-3.91v7.55h16.75v1.91ZM566.6,222.68v1.48h-4v7.55h18.14v-8.33c-4.68-.09-9.37-.35-14.14-.7Zm40.18,1.48h-4v-1.39c-4.61.43-9.38.61-14.06.69v8.25h18Z" transform="translate(0.69)"/></svg>