<svg xmlns="http://www.w3.org/2000/svg" xmlns:xlink="http://www.w3.org/1999/xlink" viewBox="0 0 315.46 284.34"><defs><style>.cls-1{isolation:isolate;}.cls-2{fill:#b25a27;}.cls-3{fill:#d78335;}.cls-4{fill:#55a7c8;}.cls-5{fill:#fdc114;}.cls-6{fill:#ae80b8;}.cls-7{fill:#ed3982;}.cls-8{fill:#f69120;}.cls-9{fill:#ee4d61;}.cls-10,.cls-43{fill:#cfcfce;}.cls-11{fill:#6b6c6c;}.cls-12{fill:#0d7194;}.cls-13{fill:#0c6680;}.cls-14{fill:#8bd6ef;}.cls-15{fill:#42c2d7;}.cls-16{fill:#94654b;}.cls-17{fill:#a17456;}.cls-18{fill:#b58767;}.cls-19{fill:#e6a147;}.cls-20{fill:#825942;}.cls-21{fill:#5b3e2f;}.cls-22{fill:#80685d;}.cls-23{fill:#ddd;}.cls-24{fill:#f0efef;}.cls-25,.cls-49{fill:#fff;}.cls-26{fill:#1f9db3;}.cls-27{fill:#61bb46;}.cls-28{fill:#504137;}.cls-29{fill:#675547;}.cls-30{fill:#ae732a;}.cls-31{fill:#5b2e12;}.cls-32{fill:#f5a839;}.cls-33{fill:#504238;}.cls-34{fill:#d76727;}.cls-35,.cls-48{fill:#e2e2e2;}.cls-35,.cls-43{mix-blend-mode:multiply;}.cls-36{fill:#ffce41;}.cls-37{fill:#fee445;}.cls-38{fill:#faa642;}.cls-39{fill:#fdb940;}.cls-40{fill:#de4b2d;}.cls-41{fill:#f37055;}.cls-42{fill:#f15e39;}.cls-44{fill:#327ca0;}.cls-45{fill:#203c52;}.cls-46{fill:#ea7728;}.cls-47{fill:#bcbcbc;}.cls-49{opacity:0.4;}.cls-50{fill:#b34841;}.cls-51{fill:#ffd579;}.cls-52{fill:#0d0d0d;}.cls-53{fill:#484848;}.cls-54{fill:#7c7b7b;}.cls-55{fill:#3ba7c2;}.cls-56{fill:#303030;}.cls-57{fill:#4fc6db;}.cls-58{fill:#e9e8e8;}.cls-59{fill:#2b2c2b;}.cls-60{fill:#5c5c5c;}.cls-61{fill:url(#linear-gradient);}.cls-62{fill:#8c8c8c;}.cls-63{fill:#e5e5e5;}</style><linearGradient id="linear-gradient" x1="93.31" y1="276.81" x2="100.28" y2="276.81" gradientUnits="userSpaceOnUse"><stop offset="0" stop-color="#fff" stop-opacity="0.9"/><stop offset="0.16" stop-color="#fff" stop-opacity="0.67"/><stop offset="0.31" stop-color="#fff" stop-opacity="0.47"/><stop offset="0.47" stop-color="#fff" stop-opacity="0.3"/><stop offset="0.62" stop-color="#fff" stop-opacity="0.17"/><stop offset="0.76" stop-color="#fff" stop-opacity="0.08"/><stop offset="0.89" stop-color="#fff" stop-opacity="0.02"/><stop offset="1" stop-color="#fff" stop-opacity="0"/></linearGradient></defs><g class="cls-1"><g id="Layer_1" data-name="Layer 1"><g id="baloon"><polygon class="cls-2" points="40.76 64.02 36.42 58.7 36.67 58.53 41.01 63.85 40.76 64.02"/><polygon class="cls-2" points="43.11 62.85 39.69 57.08 39.95 56.93 43.37 62.7 43.11 62.85"/><polygon class="cls-2" points="45.73 61.56 45.45 61.68 42.96 55.45 43.24 55.33 45.73 61.56"/><polygon class="cls-2" points="48.08 60.41 47.8 60.51 46.23 53.82 46.52 53.73 48.08 60.41"/><rect class="cls-2" x="35.33" y="53.93" width="11.57" height="3.91" transform="translate(-20.8 22.91) rotate(-26.21)"/><rect class="cls-3" x="35.76" y="55.8" width="3.12" height="3.91" transform="translate(-22.01 21.43) rotate(-26.21)"/><path class="cls-2" d="M41.71,62.71h8.18a0,0,0,0,1,0,0v3.71a1.67,1.67,0,0,1-1.67,1.67H43.37a1.66,1.66,0,0,1-1.66-1.66V62.71a0,0,0,0,1,0,0Z" transform="translate(-24.5 25.94) rotate(-26.19)"/><path class="cls-3" d="M44.88,67l-1.64-3.34-2.3,1.13,1.64,3.34a1.65,1.65,0,0,0,2.22.75l2.3-1.13A1.65,1.65,0,0,1,44.88,67Z" transform="translate(-0.34 -0.99)"/><path class="cls-4" d="M5.32,41.19C14.91,55.68,32.81,59.52,35.5,58S29.82,39,22.28,26,9.83,9.24,7.13,10.81-5.59,24.71,5.32,41.19Z" transform="translate(-0.34 -0.99)"/><path class="cls-5" d="M5.69,33.28C13.43,49,35.14,58.85,37.89,57.39s-5.07-20.69-12.1-34S13.9,6.22,11.15,7.68-2,17.56,5.69,33.28Z" transform="translate(-0.34 -0.99)"/><path class="cls-6" d="M11.85,29.55C18.35,44,37.33,58,40.12,56.66S35.75,35,29.12,21.55,17.68,4,14.89,5.4,4.79,13.88,11.85,29.55Z" transform="translate(-0.34 -0.99)"/><path class="cls-7" d="M51.3,18.55c5.63,16.45-2.21,33.2-5.09,34.38S34.62,36.64,28.94,22.74,23.23,2.64,26.11,1.47,44.89-.14,51.3,18.55Z" transform="translate(-0.34 -0.99)"/><path class="cls-5" d="M44.8,14c7.76,15.73,2.31,38.93-.53,40.22S31,37.61,24.73,24,18.35,4,21.18,2.74,37.05-1.68,44.8,14Z" transform="translate(-0.34 -0.99)"/><path class="cls-8" d="M38.09,16.64c7.46,13.94,7,37.56,4.24,38.93S27.85,38.91,21.22,25.44,14.3,5.68,17.1,4.31,30,1.48,38.09,16.64Z" transform="translate(-0.34 -0.99)"/><path class="cls-9" d="M31.12,20.31c6.67,13.56,13.5,34.14,10.22,35.75S25.9,39.72,19.23,26.16,12.67,6.12,16,4.5,24.45,6.76,31.12,20.31Z" transform="translate(-0.34 -0.99)"/><rect class="cls-2" x="40.4" y="62.71" width="8.62" height="0.99" transform="translate(-23.66 25.26) rotate(-26.21)"/></g><g id="baloon-2" data-name="baloon"><polygon class="cls-2" points="111.27 164.33 112.44 160.42 112.61 160.48 111.43 164.39 111.27 164.33"/><polygon class="cls-2" points="112.63 165.09 114.33 161.49 114.49 161.57 112.79 165.17 112.63 165.09"/><polygon class="cls-2" points="114.14 165.96 113.98 165.86 116.22 162.56 116.37 162.65 114.14 165.96"/><polygon class="cls-2" points="115.48 166.73 115.34 166.62 118.12 163.63 118.26 163.74 115.48 166.73"/><rect class="cls-2" x="112.67" y="161.12" width="6.88" height="2.32" transform="translate(95.42 -37.21) rotate(29.73)"/><rect class="cls-3" x="112.76" y="160.11" width="2.32" height="1.86" transform="translate(-82.76 179.06) rotate(-60.25)"/><path class="cls-2" d="M110.55,166.16h4.87a0,0,0,0,1,0,0v2.21a1,1,0,0,1-1,1h-2.89a1,1,0,0,1-1-1v-2.21A0,0,0,0,1,110.55,166.16Z" transform="translate(97.75 -34.94) rotate(29.74)"/><path class="cls-3" d="M111.89,167.84l1.09-1.92-1.32-.75-1.1,1.92a1,1,0,0,0,.37,1.35l1.32.75A1,1,0,0,1,111.89,167.84Z" transform="translate(-0.34 -0.99)"/><path class="cls-4" d="M111.42,139.74c-3.94,9.56.13,19.66,1.8,20.46s7.44-9.11,11.33-17.15,4.12-11.73,2.45-12.54S115.9,128.88,111.42,139.74Z" transform="translate(-0.34 -0.99)"/><path class="cls-5" d="M115.45,137.29c-5.18,9.06-2.79,23-1.16,23.91s8.51-9.4,12.71-17.29,4.52-11.59,2.88-12.46S120.62,128.25,115.45,137.29Z" transform="translate(-0.34 -0.99)"/><path class="cls-6" d="M119.34,139.09c-5,8-5.55,22-4,23s9.21-9.37,13.64-17.12,4.83-11.48,3.22-12.4S124.71,130.38,119.34,139.09Z" transform="translate(-0.34 -0.99)"/><path class="cls-7" d="M137.9,154.86c-6.23,8.26-17.09,10-18.64,8.95s4.17-11.14,9.12-18.57,8-9.51,9.55-8.49S145,145.48,137.9,154.86Z" transform="translate(-0.34 -0.99)"/><path class="cls-5" d="M138,150.15c-5.16,9.07-18.41,14.11-20,13.14s3.77-12.1,8.43-19.72,7.69-9.79,9.27-8.82S143.13,141.1,138,150.15Z" transform="translate(-0.34 -0.99)"/><path class="cls-8" d="M134.44,147.71c-4.38,8.33-16.16,16-17.77,15.07s3.39-12.69,7.81-20.45,7.43-10,9-9.07S139.21,138.66,134.44,147.71Z" transform="translate(-0.34 -0.99)"/><path class="cls-9" d="M130.31,145.5c-4.46,7.81-12.33,18-14.21,16.95s2.91-13,7.36-20.86,7.7-9.91,9.59-8.83S134.77,137.7,130.31,145.5Z" transform="translate(-0.34 -0.99)"/><rect class="cls-2" x="111.13" y="166.2" width="5.13" height="0.59" transform="translate(97.19 -35.46) rotate(29.73)"/></g><path class="cls-10" d="M315.8,272.63c0,7-60.62,12.7-135.4,12.7S45,279.65,45,272.63s60.62-12.71,135.4-12.71S315.8,265.61,315.8,272.63Z" transform="translate(-0.34 -0.99)"/><polygon class="cls-11" points="203.05 272.52 197.95 273.41 166.91 93.42 172 92.53 203.05 272.52"/><path class="cls-12" d="M158.35,25.69S71.85,72.49,52,83.61c-1.63.91-3.52,1.4-4.22,2.72-8.3,15.68,3.28,23.45,8.7,11.78.33-.71,1.38-.81,2.07-1.31C80.94,86.42,158.35,25.69,158.35,25.69Z" transform="translate(-0.34 -0.99)"/><path class="cls-13" d="M47.77,86.33c-8.21,15.51,3,23.27,8.52,12.14l-8.41-12.3S47.8,86.27,47.77,86.33Z" transform="translate(-0.34 -0.99)"/><path class="cls-14" d="M158.35,25.69S68.33,86.9,56.7,95.41a15.79,15.79,0,0,0-1.61,1.37c-5.25,6-3.3,23.46,17.83,17.8,6.15-1.65,9.27-11.76,9.27-11.76Z" transform="translate(-0.34 -0.99)"/><path class="cls-15" d="M75.68,114.75l5.12-8.37-25.71-9.6C45.18,110,65.33,123.74,75.68,114.75Z" transform="translate(-0.34 -0.99)"/><path class="cls-12" d="M158.35,25.69s-65.48,61.57-83,78.87c0,0,7.62,34.63,41.47,7.43S158.35,25.69,158.35,25.69Z" transform="translate(-0.34 -0.99)"/><path class="cls-13" d="M75.3,104.56c-3.36,12.4,17.76,32.7,41.47,7.43,2.07-2.2,4.58-3.94,6.69-6.11l-47.49-2C75.74,104.13,75.38,104.27,75.3,104.56Z" transform="translate(-0.34 -0.99)"/><path class="cls-14" d="M158.35,25.69s10.26,58.77,13.07,74.83S125,125.17,117.3,113.2,158.35,25.69,158.35,25.69Z" transform="translate(-0.34 -0.99)"/><path class="cls-15" d="M116.92,105.62c-.67,3.4-.62,6,.38,7.58,7.74,12,56.92,3.39,54.12-12.68,0-.13,0-.28-.08-.43Z" transform="translate(-0.34 -0.99)"/><path class="cls-14" d="M158.35,25.69S255.59,40.41,278,44.15c1.85.3,3.8.12,4.9,1.13,13.12,11.93,4.86,23.17-4.2,14-.55-.56-1.57-.3-2.38-.54C251.76,56.6,158.35,25.69,158.35,25.69Z" transform="translate(-0.34 -0.99)"/><path class="cls-15" d="M282.94,45.28c13,11.8,5,22.92-3.9,14.31l3.74-14.43A1.67,1.67,0,0,1,282.94,45.28Z" transform="translate(-0.34 -0.99)"/><path class="cls-12" d="M158.35,25.69S263.8,52.78,277.62,56.84a14.75,14.75,0,0,1,2,.75c7,3.82,11.05,21-10.74,22.79-6.35.53-12.71-7.92-12.71-7.92Z" transform="translate(-0.34 -0.99)"/><path class="cls-13" d="M266.31,81.47l-7.66-6.14,20.94-17.74C293.41,66.69,279.1,86.43,266.31,81.47Z" transform="translate(-0.34 -0.99)"/><path class="cls-14" d="M158.35,25.69s82.47,35.74,104.86,46.07c0,0,4.57,35.16-36.49,21S158.35,25.69,158.35,25.69Z" transform="translate(-0.34 -0.99)"/><path class="cls-15" d="M263.21,71.76c7.37,10.52-5.63,36.78-36.49,21-2.69-1.37-5.65-2.16-8.36-3.49l44-17.94C262.65,71.5,263,71.52,263.21,71.76Z" transform="translate(-0.34 -0.99)"/><path class="cls-12" d="M158.35,25.69s10.26,58.77,13.07,74.83,52,7.49,55.21-6.4S158.35,25.69,158.35,25.69Z" transform="translate(-0.34 -0.99)"/><path class="cls-13" d="M224.41,86.86c1.78,3,2.64,5.46,2.22,7.26-3.23,13.89-52.41,22.47-55.21,6.4,0-.13,0-.28-.08-.43Z" transform="translate(-0.34 -0.99)"/><path class="cls-16" d="M197.86,133.76s48.22-4.26,87.91,2.8c8.54,27.17,4.68,47.93,1.65,51.74-22.87,4.09-88.39,1.4-94.79-2C188.5,169.82,191.8,142.09,197.86,133.76Z" transform="translate(-0.34 -0.99)"/><path class="cls-17" d="M197.86,133.76s48.22-4.26,87.91,2.8c8.54,27.17,1,46.12-2.07,49.93-22.88,4.09-82.38,1-88.79-2.49C190.78,167.57,191.8,142.09,197.86,133.76Z" transform="translate(-0.34 -0.99)"/><path class="cls-18" d="M197.86,133.76s48.22-4.26,87.91,2.8c2.5,24.07-5.86,43.1-8.89,46.91-22.87,4.09-69.58.65-76-2.79C196.76,164.25,194.58,140.89,197.86,133.76Z" transform="translate(-0.34 -0.99)"/><polygon class="cls-19" points="261.96 189.51 254.73 189.51 254.73 132.01 261.96 132.48 261.96 189.51"/><polygon class="cls-19" points="228.17 189.12 220.94 188.78 220.94 131.49 228.17 131.33 228.17 189.12"/><path class="cls-19" d="M275.26,141c-.11-.37-11.07-36.45-31-36.72H244c-19.84,0-31.87,36.23-32,36.6l-1.57-.51c.5-1.55,12.52-37.74,33.55-37.74h.25c21.18.28,32.15,36.36,32.6,37.89Z" transform="translate(-0.34 -0.99)"/><path class="cls-20" d="M219.29,119.22s-11.06,15.6-12.61,18.7,8,6.21,9,4,6.51-18.81,7.23-20.47S220.86,117,219.29,119.22Z" transform="translate(-0.34 -0.99)"/><path class="cls-20" d="M268.32,119.22s11.06,15.6,12.61,18.7-8,6.21-9,4-6.51-18.81-7.24-20.47S266.75,117,268.32,119.22Z" transform="translate(-0.34 -0.99)"/><path class="cls-20" d="M275.57,152.33a1.24,1.24,0,0,1-1.26,1.22l-63.84-1a1.24,1.24,0,0,1-1.22-1.26h0a1.25,1.25,0,0,1,1.26-1.22l63.85,1a1.23,1.23,0,0,1,1.21,1.26Z" transform="translate(-0.34 -0.99)"/><path class="cls-21" d="M274,152.25a2.47,2.47,0,0,1-2.67,2.2h-1.57a2.47,2.47,0,0,1-2.66-2.2h0a2.47,2.47,0,0,1,2.66-2.21h1.57a2.47,2.47,0,0,1,2.67,2.21Z" transform="translate(-0.34 -0.99)"/><path class="cls-22" d="M268.4,151.79a.74.74,0,0,0-.73.74v5.05a.73.73,0,1,0,1.46,0v-5.05A.74.74,0,0,0,268.4,151.79Zm.3,5.67a.29.29,0,0,1-.29.28.28.28,0,0,1-.28-.28v-2.31a.28.28,0,0,1,.28-.29.29.29,0,0,1,.29.29Z" transform="translate(-0.34 -0.99)"/><polygon class="cls-23" points="142.98 269.3 98.62 269.3 98.62 193.29 144.73 193.29 142.98 269.3"/><polygon class="cls-24" points="142.98 269.3 95.33 271.73 95.33 197.39 144.73 193.29 142.98 269.3"/><rect class="cls-25" x="95.33" y="197.39" width="53.79" height="74.35"/><rect class="cls-26" x="95.33" y="201.82" width="49.4" height="65.66"/><path class="cls-27" d="M126.53,223.7c-1.65-2.59-7.82-2.63-8.2.59-1.39.1-4.51.35-5.44-.68-.46-.52-.41-1.6-.71-2.27a4.21,4.21,0,0,0-3.45-2.53c-1.23-.12-2,.86-3.13.83-2.15,0-2-1.83-2.83-2.92a6.57,6.57,0,0,0-7.1-2.21v32.93a1.19,1.19,0,0,1,.26.05c1.7.39,2.41.83,4.16.74a12,12,0,0,0,4.56-1.22c1.32-.59,1.49-1.35,2.63-2.27,1-.81,2.45-1.15,3-2.31.32-.69,0-1.1.7-1.67a4,4,0,0,1,3-.56c1.52.13,3.1,1.19,4.91.66s1.46-2.08,2.7-2.71c.89-.45,2,.09,2.94-.51.72-.49.67-1.08.58-1.87-.17-1.57-.7-3.24.12-4.7.26-.46.65-.35.76-.91.07-.38-.25-.45-.3-.76a5.7,5.7,0,0,1-.14-2.29C125.82,225.8,127.47,225.19,126.53,223.7Z" transform="translate(-0.34 -0.99)"/><path class="cls-27" d="M131.74,243c-.68-1.4-1-.3-2.13-.19-1.73.17-.58-.74-1.31-1.65a1.15,1.15,0,0,0-1.61-.45c-.88.37-1,1.93-1.45,2.55-.54.79-1.42.95-1.95,1.55s-.16,1.42-.58,2c-.66.91-2.17,1.1-3.25,1.51-1.44.56-1.77,1.43-2.85,2.23-.91.67-2.34.87-3.44,1.33a19,19,0,0,1-2.88,1.47c-1.53.38-3.26-.09-4.84.12-1.88.25-2.66,1.68-4.4,2a6.49,6.49,0,0,1-3.5-.54,9.47,9.47,0,0,0-1.88-.33v6.87c2.24.68,4.53,1.72,7,1.35,1-.15,1.85-.84,2.94-.7.58.07,1,.57,1.59.71,2.45.55,2.36-1.57,4.22-1.88,1.27-.22,3.71-.33,4.41.49.5.58-.11,1.75.47,2.18,1.24.92,3.24-.84,3.73-1.41a19.92,19.92,0,0,0,2.41-3.87c.7-1.34,1.69-3.37,3.24-4.25,2.1-1.2,5.65-.8,5.5-3.33-.11-1.79-.94-3.05-.15-4.79C131.45,245,132.23,244,131.74,243Z" transform="translate(-0.34 -0.99)"/><path class="cls-27" d="M133.23,217.91a4.22,4.22,0,0,0-.48-2,2.14,2.14,0,0,0-.65-1c-.38-.28-1.1-.25-1.37-.43-1.27-.87-.43-2.68-1.11-4-1.27-2.43-6.27-2.77-9.14-3-1.63-.14-4-.44-5.45.35a1.51,1.51,0,0,0-.06,2.7,1.88,1.88,0,0,0,1.16.46l2.93.12a1.49,1.49,0,0,0-.75,1.19c.13.64.69.18.87.57.47,1.08-.55,2,1.18,2.45,1.16.32,2.3-.49,3.27,0a18.47,18.47,0,0,1,1.83,1.67c.64.7,1.12,1.48,1.79,2.2a6.09,6.09,0,0,1,1.37,2.51,33.71,33.71,0,0,1,.86,4.75c1.27.29,1.58-1,2.18-1.59.85-.81,1.2-1,1.28-2.11A40.13,40.13,0,0,0,133.23,217.91Z" transform="translate(-0.34 -0.99)"/><path class="cls-27" d="M132.8,237l-.59-.35c-2.25.43-4.19,2.5-.84,2.81C133.13,239.66,134.15,237.38,132.8,237Z" transform="translate(-0.34 -0.99)"/><path class="cls-28" d="M212.52,198.74V182.26a6.82,6.82,0,0,1,7.23-7l15.57,1.17a7.27,7.27,0,0,1,6.87,7v14.16a7.26,7.26,0,0,1-6.87,7l-15.57,1.17-.51,0A6.82,6.82,0,0,1,212.52,198.74Zm4.86-16.48v16.48a2,2,0,0,0,2,2.21L235,199.78a2.5,2.5,0,0,0,2.38-2.2V183.42a2.5,2.5,0,0,0-2.38-2.2l-15.56-1.16h-.15A2,2,0,0,0,217.38,182.26Z" transform="translate(-0.34 -0.99)"/><path class="cls-29" d="M214.53,198.74V182.26a6.81,6.81,0,0,1,7.23-7l15.56,1.17a7.27,7.27,0,0,1,6.87,7v14.16a7.26,7.26,0,0,1-6.87,7l-15.56,1.17-.51,0A6.82,6.82,0,0,1,214.53,198.74Zm4.85-16.48v16.48a2,2,0,0,0,2,2.21L237,199.78a2.5,2.5,0,0,0,2.38-2.2V183.42a2.51,2.51,0,0,0-2.38-2.2l-15.56-1.16h-.15A2,2,0,0,0,219.38,182.26Z" transform="translate(-0.34 -0.99)"/><path class="cls-30" d="M162.76,186.58h0c3.82-1,18-3.44,18-3.44s.1,1.64.26,4.46l73.06,4.9a4.64,4.64,0,0,1,4.31,4.53v58.42a4.66,4.66,0,0,1-4.31,4.54q-35.92,2.38-71.83,4.81c-.35,3.34-.83,5.79-1.49,7-7.87-1.18-15.75-4.78-18.23-6a4.71,4.71,0,0,1-2.86-4.6v-70A4.65,4.65,0,0,1,162.76,186.58Z" transform="translate(-0.34 -0.99)"/><path class="cls-31" d="M169.39,268.61l.13.05,1,.49c-2.14-.76-3.25-1.19-4.73-1.84a3.35,3.35,0,0,1-1.1-2.48v-75c0-1.26.33-3.21,1.87-4.11,1.21-.25,1.78-.35,3.22-.63-1.2.42-2.67,2.67-2.67,4.74v75A3.87,3.87,0,0,0,169.39,268.61Z" transform="translate(-0.34 -0.99)"/><path class="cls-32" d="M176.66,266.44c0,3.13,2.15,5.52,4.81,5.35l100.4-6.73a5.18,5.18,0,0,0,4.81-5.06V194.91a5.18,5.18,0,0,0-4.81-5.06l-100.4-6.73c-2.66-.18-4.81,2.22-4.81,5.35Z" transform="translate(-0.34 -0.99)"/><path class="cls-25" d="M183.9,269.63h-.1v-.42h.34l.85-.05,0,.42-.85.06Zm2.34-.15,0-.43,1.22-.08,0,.43Zm-3.69-.09a4.52,4.52,0,0,1-1.12-.61l.26-.34a3.63,3.63,0,0,0,1,.55Zm6.12-.07,0-.43,1.21-.08,0,.42Zm2.42-.17,0-.42,1.21-.08,0,.42Zm2.42-.16,0-.42,1.21-.08,0,.42Zm2.42-.16,0-.43,1.22-.08,0,.43Zm2.42-.16,0-.43,1.21-.08,0,.43Zm2.43-.17,0-.42L202,268l0,.42Zm2.42-.16,0-.42,1.21-.08,0,.42Zm2.42-.16,0-.42,1.21-.09,0,.43Zm2.43-.16,0-.43,1.21-.08,0,.43Zm-27.51-.14a5,5,0,0,1-.64-1.09l.39-.17a4.93,4.93,0,0,0,.58,1Zm29.93,0,0-.43,1.21-.08,0,.43Zm2.42-.17,0-.42,1.21-.08,0,.42Zm2.42-.16,0-.42,1.21-.08,0,.42Zm2.43-.16,0-.43,1.21-.08,0,.43Zm2.42-.16,0-.43,1.21-.08,0,.42Zm2.42-.17,0-.42,1.21-.08,0,.42Zm2.42-.16,0-.42,1.22-.08,0,.42Zm2.43-.16,0-.43,1.21-.08,0,.43Zm2.42-.16,0-.43,1.21-.08,0,.42Zm2.42-.17,0-.42,1.21-.08,0,.42Zm2.42-.16,0-.42,1.21-.08,0,.42Zm2.43-.16,0-.43,1.21-.08,0,.43Zm2.42-.16,0-.43,1.21-.08,0,.42Zm2.42-.17,0-.42,1.21-.08,0,.42Zm-62.43-.15a6.38,6.38,0,0,1-.13-1.25v-1.12h.43v1.12a6.45,6.45,0,0,0,.11,1.17Zm64.85,0,0-.42,1.21-.08,0,.42Zm2.43-.16,0-.43,1.21-.08,0,.43Zm2.42-.16,0-.43,1.21-.08,0,.43Zm2.42-.17,0-.42,1.21-.08,0,.42Zm2.42-.16,0-.42,1.21-.08,0,.42Zm2.43-.16,0-.43,1.21-.08,0,.43Zm2.42-.16,0-.43,1.21-.08,0,.43Zm2.42-.17,0-.42,1.21-.08,0,.42Zm2.42-.16,0-.42,1.21-.08,0,.42Zm2.43-.16,0-.42,1.21-.09,0,.43Zm2.42-.16,0-.43,1.21-.08,0,.43Zm2.42-.17,0-.42,1.21-.08,0,.42Zm2.42-.16,0-.42,1.21-.08,0,.42Zm2.43-.16,0-.42,1.21-.08,0,.42Zm2.42-.16,0-.42.89-.06.31,0,.06.42-.34,0Zm2.45-.42-.17-.39a5.11,5.11,0,0,0,1-.57l.25.34A5.44,5.44,0,0,1,280.75,262.89ZM179.83,262h-.43v-1.22h.43Zm102.94-.6-.33-.27a4.81,4.81,0,0,0,.63-1l.38.19A5.16,5.16,0,0,1,282.77,261.41Zm-102.94-1.83h-.43v-1.22h.43Zm104-.43-.41-.08a5.67,5.67,0,0,0,.07-.82v-.35h.43v.35A4.58,4.58,0,0,1,283.85,259.15Zm-104-2h-.43v-1.21h.43Zm104.11-.47h-.43v-1.21h.43Zm-104.11-2h-.43v-1.21h.43Zm104.11-.46h-.43V253h.43Zm-104.11-2h-.43v-1.21h.43Zm104.11-.46h-.43v-1.22h.43Zm-104.11-2h-.43v-1.22h.43Zm104.11-.47h-.43v-1.21h.43Zm-104.11-2h-.43v-1.22h.43ZM283.94,247h-.43v-1.21h.43Zm-104.11-2h-.43V243.8h.43Zm104.11-.47h-.43v-1.21h.43Zm-104.11-2h-.43v-1.21h.43Zm104.11-.46h-.43V240.9h.43Zm-104.11-2h-.43v-1.21h.43Zm104.11-.46h-.43v-1.22h.43Zm-104.11-2h-.43v-1.22h.43Zm104.11-.47h-.43v-1.21h.43Zm-104.11-2h-.43v-1.22h.43Zm104.11-.47h-.43v-1.21h.43Zm-104.11-2h-.43v-1.22h.43Zm104.11-.47h-.43v-1.21h.43Zm-104.11-2h-.43v-1.21h.43ZM283.94,230h-.43v-1.22h.43Zm-104.11-2h-.43V226.8h.43Zm104.11-.46h-.43v-1.22h.43Zm-104.11-2h-.43v-1.22h.43Zm104.11-.47h-.43v-1.21h.43Zm-104.11-2h-.43v-1.22h.43Zm104.11-.47h-.43v-1.21h.43Zm-104.11-2h-.43v-1.21h.43Zm104.11-.47h-.43v-1.21h.43Zm-104.11-2h-.43v-1.21h.43Zm104.11-.46h-.43v-1.22h.43Zm-104.11-2h-.43v-1.21h.43Zm104.11-.46h-.43v-1.22h.43Zm-104.11-2h-.43v-1.22h.43ZM283.94,213h-.43v-1.21h.43Zm-104.11-2h-.43V209.8h.43Zm104.11-.47h-.43v-1.21h.43Zm-104.11-2h-.43v-1.22h.43Zm104.11-.47h-.43v-1.21h.43Zm-104.11-2h-.43V205h.43Zm104.11-.46h-.43v-1.22h.43Zm-104.11-2h-.43v-1.21h.43Zm104.11-.46h-.43v-1.22h.43Zm-104.11-2h-.43v-1.22h.43Zm104.11-.47h-.43v-1.21h.43Zm-104.11-2h-.43v-1.22h.43Zm104.11-.47h-.43V197.2h.43Zm-104.11-2h-.43v-1.21h.43ZM283.46,196a4,4,0,0,0-.32-1.11l.39-.17a4.4,4.4,0,0,1,.35,1.21Zm-103.63-2h-.43v-1.21h.43Zm102.72-.11a4.83,4.83,0,0,0-.81-.82l.26-.33a5.35,5.35,0,0,1,.89.89Zm-1.8-1.43a4.9,4.9,0,0,0-1.11-.34l.07-.42a5,5,0,0,1,1.21.38Zm-2.29-.44-1.22-.08,0-.43,1.21.08Zm-2.43-.17-1.21-.08,0-.42,1.21.08Zm-2.42-.16-1.21-.08,0-.42,1.21.08Zm-93.78-.12h-.43v-1c0-.07,0-.13,0-.2l.42,0Zm91.36,0-1.21-.08,0-.43,1.21.09Zm-2.42-.16-1.22-.08,0-.43,1.22.08Zm-2.43-.16-1.21-.08,0-.43,1.21.08Zm-2.42-.17-1.21-.08,0-.42,1.21.08Zm-2.42-.16-1.21-.08,0-.42,1.21.08Zm-2.42-.16-1.21-.08,0-.43,1.21.08Zm-2.43-.16-1.21-.09,0-.42,1.21.08Zm-2.42-.17-1.21-.08,0-.42,1.21.08Zm-2.42-.16-1.21-.08,0-.43,1.21.09Zm-2.42-.16-1.21-.08,0-.43,1.2.08Zm-2.43-.16-1.21-.08,0-.43,1.21.08Zm-2.42-.17-1.21-.08,0-.42,1.21.08Zm-2.42-.16-1.21-.08,0-.42,1.21.08Zm-2.42-.16-1.22-.08,0-.43,1.22.09Zm-2.43-.16-1.21-.08,0-.43,1.21.08ZM180,189.23l-.41-.1a5.23,5.23,0,0,1,.41-1.19l.39.18A5.22,5.22,0,0,0,180,189.23Zm54.87-.12-1.21-.08,0-.42,1.21.08Zm-2.42-.16-1.21-.08,0-.42,1.21.08Zm-2.42-.16-1.21-.08,0-.43,1.22.08Zm-2.43-.16-1.21-.08,0-.43,1.21.08Zm-2.42-.16-1.21-.09,0-.42,1.21.08Zm-2.42-.17-1.21-.08,0-.42,1.21.08Zm-2.42-.16-1.22-.08,0-.42,1.22.08Zm-2.43-.16-1.21-.08,0-.43,1.21.08Zm-2.42-.16-1.21-.09,0-.42,1.21.08Zm-2.42-.17-1.21-.08,0-.42,1.21.08Zm-2.42-.16-1.22-.08,0-.42,1.21.08Zm-2.43-.16-1.21-.08,0-.43,1.21.08Zm-2.42-.16-1.21-.09,0-.42,1.21.08Zm-24.8,0-.32-.27a4.5,4.5,0,0,1,.93-.87l.24.35A4.22,4.22,0,0,0,181,187.15Zm22.38-.15-1.21-.08,0-.42,1.21.08Zm-2.42-.16-1.22-.08,0-.42,1.21.08Zm-2.43-.16-1.21-.08,0-.43,1.21.08Zm-2.42-.16-1.21-.08,0-.43,1.21.08Zm-2.42-.17-1.21-.08,0-.42,1.22.08Zm-2.42-.16-1.21-.08,0-.42,1.21.08Zm-2.43-.16-1.21-.08,0-.43,1.21.08Zm-2.42-.16-1.21-.09,0-.42,1.21.08Zm-3.54,0-.13-.4a3.91,3.91,0,0,1,1.17-.18h.1v.43h-.09A3.68,3.68,0,0,0,182.86,185.86Z" transform="translate(-0.34 -0.99)"/><path class="cls-29" d="M180.37,262.38v.19c0,2.82,2,5,4.52,4.81l.8-.05V272l-4.84.32c-2.69.19-4.87-2.24-4.87-5.41v-4.29Z" transform="translate(-0.34 -0.99)"/><path class="cls-29" d="M279.49,261.32a4.76,4.76,0,0,0,4.53-4.55v-.21l3.34-.19v4a5.24,5.24,0,0,1-4.86,5.13l-3.2.21v-4.4Z" transform="translate(-0.34 -0.99)"/><path class="cls-29" d="M282.5,189.39a5.23,5.23,0,0,1,4.86,5.11v3.82l-3.34-.16v0a4.75,4.75,0,0,0-4.53-4.55l-.19,0v-4.4Z" transform="translate(-0.34 -0.99)"/><path class="cls-28" d="M171.12,188.57a5.33,5.33,0,0,1,4.87-5.42c1.85-.27,3.69-.58,4.28-.58l.56,5.58-.79-.05c-2.49-.16-4,1.93-4.06,4.72l-4.86-.12Z" transform="translate(-0.34 -0.99)"/><path class="cls-28" d="M159.34,190.6a4.42,4.42,0,0,1,4-4.51c.84-.13,1.74-.19,2.46-.23a4.86,4.86,0,0,0-3.71,4.79V193l-2.8-.08Z" transform="translate(-0.34 -0.99)"/><path class="cls-33" d="M162.14,261v1.59a4.86,4.86,0,0,0,3.71,4.79c-.72,0-1.62-.1-2.46-.22a4.43,4.43,0,0,1-4-4.51v-2Z" transform="translate(-0.34 -0.99)"/><path class="cls-29" d="M180.85,182.57l4.84.33v4.67l-.8,0c-2.5-.16-4.52,2-4.52,4.82V193l-4.39-.21V188C176,184.82,178.16,182.39,180.85,182.57Z" transform="translate(-0.34 -0.99)"/><path class="cls-33" d="M171.12,266.34a5.31,5.31,0,0,0,4.87,5.41c1.85.28,3.69.58,4.28.58l.56-5.58-.79.05c-2.49.16-4-1.92-4.06-4.71l-4.86-.22Z" transform="translate(-0.34 -0.99)"/><path class="cls-29" d="M180.85,272.33l4.84-.32v-4.68l-.8.05c-2.5.16-4.52-2-4.52-4.82v-.69l-4.39.22v4.83C176,270.09,178.16,272.52,180.85,272.33Z" transform="translate(-0.34 -0.99)"/><polygon class="cls-34" points="262.94 265.51 256.57 265.94 256.57 186.9 262.94 187.21 262.94 265.51"/><polygon class="cls-34" points="208.31 269.13 199.57 269.68 199.57 183.05 208.31 183.64 208.31 269.13"/><path class="cls-35" d="M219.65,175.21a6.81,6.81,0,0,0-7.13,7v2.94l-3.87-.26v-.31l-8.74-.59v.32l-10.27-.69A172.27,172.27,0,0,0,175.42,194a168.41,168.41,0,0,0-15.77,14.27v23c8.25-3.35,19.23-10.07,30.39-19C208.72,197.25,221.27,181.39,219.65,175.21Z" transform="translate(-0.34 -0.99)"/><path class="cls-36" d="M221.89,160.78c4,5-8.95,22.15-29,38.21s-39.61,25-43.64,19.94,9-22.15,29-38.21S217.86,155.74,221.89,160.78Z" transform="translate(-0.34 -0.99)"/><path class="cls-37" d="M187.76,173.61c13.82-8.94,25.11-13.15,27.85-9.73,3.69,4.62-9.58,21.38-29.65,37.44-10.06,8.05-19.93,14.4-27.73,18.15,8.48-2.45,21.45-9.93,34.64-20.48,20.07-16.06,33.06-33.17,29-38.21C218.5,156.54,204.16,162.17,187.76,173.61Z" transform="translate(-0.34 -0.99)"/><path class="cls-38" d="M179.3,158.16a1.66,1.66,0,0,1,.79.53c1.68,2.09-2.65,8.33-9.65,13.94s-14,8.45-15.72,6.36a1.62,1.62,0,0,1-.34-.9,19.15,19.15,0,0,0,4.19,13l7.84,9.8c1.67,2.1,10.31-2,19.29-9.22s14.9-14.71,13.23-16.8l-7.84-9.79A19.18,19.18,0,0,0,179.3,158.16Z" transform="translate(-0.34 -0.99)"/><path class="cls-39" d="M179.3,158.16a1.66,1.66,0,0,1,.79.53c1,1.2-.06,3.78-2.44,6.83a19.12,19.12,0,0,1,10.28,6.62l7.84,9.8a.43.43,0,0,1,0,.07c2.74-3.33,4-6,3.12-7.11l-7.84-9.79A19.18,19.18,0,0,0,179.3,158.16Z" transform="translate(-0.34 -0.99)"/><path class="cls-36" d="M170.44,172.63c7-5.61,11.33-11.85,9.65-13.94a1.66,1.66,0,0,0-.79-.53c-.36-.06-.73-.12-1.09-.16-3,0-8.41,2.7-13.84,7.05s-9.26,9.09-9.91,12c0,.35-.07.71-.08,1.07a1.62,1.62,0,0,0,.34.9C156.4,181.08,163.43,178.24,170.44,172.63Z" transform="translate(-0.34 -0.99)"/><path class="cls-40" d="M180.14,184.76c-9,7.19-17.61,11.32-19.29,9.22l4.6,5.75c1.68,2.09,10.32-2,19.29-9.22s14.9-14.71,13.23-16.8l-4.6-5.75C195.05,170.05,189.13,177.58,180.14,184.76Z" transform="translate(-0.34 -0.99)"/><path class="cls-41" d="M190.4,174.89l4.6,5.75c2.64-3.25,3.85-5.84,3-6.93l-4.6-5.75C194.25,169.06,193,171.65,190.4,174.89Z" transform="translate(-0.34 -0.99)"/><path class="cls-42" d="M184.84,182.06a12.1,12.1,0,0,0,1.19-4.88c.11-2.93,3.93-7.08,6.39-2,1.37,2.71,3.86,3.23,4.9,4.52s.34,3.57-3.24,4.46a14.4,14.4,0,0,0-5.5,2.57Z" transform="translate(-0.34 -0.99)"/><path class="cls-42" d="M183.34,183.25a12,12,0,0,1-5,.09c-2.88-.52-7.77,2.29-3.34,5.81,2.34,1.93,2.31,4.47,3.33,5.77s3.41,1.12,5.07-2.18a14.36,14.36,0,0,1,3.71-4.81Z" transform="translate(-0.34 -0.99)"/><path class="cls-41" d="M189.39,184.86a1.76,1.76,0,0,1,0,2.47l-1.92,1.54a1.77,1.77,0,0,1-2.41-.54l-2.86-3.57a1.78,1.78,0,0,1,0-2.48l1.92-1.53a1.77,1.77,0,0,1,2.42.54Z" transform="translate(-0.34 -0.99)"/><path class="cls-43" d="M197.27,236h-2v-1a.27.27,0,0,0-.27-.28h-.2v-1a.23.23,0,0,0-.22-.23h-3.89a.23.23,0,0,0-.22.23v1h-.2a.27.27,0,0,0-.27.28v1h-5.33v-.85a.14.14,0,0,0-.14-.14h-.09v-.48a.11.11,0,0,0-.11-.11h-1.91a.11.11,0,0,0-.11.11V235h-.1a.14.14,0,0,0-.13.14V236h-6.68a1.72,1.72,0,0,0-1.69,1.76v2.15a1.72,1.72,0,0,1-.25,1.05c-.26.35-1.1.32-1.1.32H158v-.54a.27.27,0,0,0-.27-.27h-.2v-1a.23.23,0,0,0-.23-.23h-3.88a.22.22,0,0,0-.22.23v1H153a.27.27,0,0,0-.27.27v.54h-2.39a1.73,1.73,0,0,0-1.69,1.75V274.1h0a1.7,1.7,0,0,0,1.67,1.52h46.89a1.7,1.7,0,0,0,1.66-1.52h0V237.76A1.73,1.73,0,0,0,197.27,236Z" transform="translate(-0.34 -0.99)"/><rect class="cls-44" x="130.57" y="233.73" width="5.05" height="3.49" rx="0.26"/><path class="cls-45" d="M135.71,234.72h-.81v3.49h.81A.25.25,0,0,0,136,238v-3A.26.26,0,0,0,135.71,234.72Z" transform="translate(-0.34 -0.99)"/><rect class="cls-45" x="130.02" y="235.1" width="6.15" height="4.25" rx="0.31"/><rect class="cls-44" x="174.03" y="227.27" width="5.05" height="3.49" rx="0.26"/><path class="cls-45" d="M179.17,228.26h-.81v3.49h.81a.25.25,0,0,0,.25-.26v-3A.26.26,0,0,0,179.17,228.26Z" transform="translate(-0.34 -0.99)"/><path class="cls-45" d="M173.8,228.63h5.53a.31.31,0,0,1,.31.31v3.62a.32.32,0,0,1-.32.32H173.8a.31.31,0,0,1-.31-.31v-3.63A.31.31,0,0,1,173.8,228.63Z"/><path class="cls-44" d="M164.62,228.3h2.23a.12.12,0,0,1,.12.12v1.47a.13.13,0,0,1-.13.13h-2.23a.13.13,0,0,1-.13-.13v-1.46A.13.13,0,0,1,164.62,228.3Z"/><path class="cls-45" d="M167.19,229.29h-.4V231h.4a.13.13,0,0,0,.13-.13v-1.47A.12.12,0,0,0,167.19,229.29Z" transform="translate(-0.34 -0.99)"/><path class="cls-45" d="M164.37,229h2.72a.15.15,0,0,1,.15.15v1.78a.16.16,0,0,1-.16.16h-2.72a.16.16,0,0,1-.16-.16v-1.78A.15.15,0,0,1,164.37,229Z"/><path class="cls-44" d="M182.35,231.07h-25.6a2,2,0,0,0-2,2v2.42a1.91,1.91,0,0,1-.29,1.19c-.31.39-1.28.35-1.28.35H127.56a2,2,0,0,0-2,2v34.67a2,2,0,0,0,2,2h54.79a2,2,0,0,0,2-2V233A2,2,0,0,0,182.35,231.07Z" transform="translate(-0.34 -0.99)"/><path class="cls-46" d="M125.59,245.63v28a2,2,0,0,0,2,2h54.79a2,2,0,0,0,2-2v-28Z" transform="translate(-0.34 -0.99)"/><rect class="cls-44" x="125.25" y="271.53" width="58.74" height="1.39"/><path class="cls-45" d="M157.74,259.42a11.95,11.95,0,1,1-12-12A11.95,11.95,0,0,1,157.74,259.42Z" transform="translate(-0.34 -0.99)"/><path class="cls-47" d="M156.14,259.42a10.35,10.35,0,1,1-10.35-10.35A10.35,10.35,0,0,1,156.14,259.42Z" transform="translate(-0.34 -0.99)"/><path class="cls-25" d="M154,259.42a8.2,8.2,0,1,1-8.2-8.19A8.2,8.2,0,0,1,154,259.42Z" transform="translate(-0.34 -0.99)"/><path class="cls-48" d="M154,259.42a8.2,8.2,0,1,1-8.2-8.19A8.2,8.2,0,0,1,154,259.42Z" transform="translate(-0.34 -0.99)"/><rect class="cls-45" x="163.31" y="232.29" width="12.59" height="5.69"/><rect class="cls-25" x="164.99" y="233.05" width="9.22" height="4.17"/><rect class="cls-24" x="165.99" y="233.05" width="2.4" height="4.17"/><path class="cls-25" d="M151.58,255a1.69,1.69,0,1,1-1.68-1.69A1.68,1.68,0,0,1,151.58,255Z" transform="translate(-0.34 -0.99)"/><path class="cls-25" d="M143.32,263.05a1.69,1.69,0,0,1-3.37,0,1.69,1.69,0,1,1,3.37,0Z" transform="translate(-0.34 -0.99)"/><rect class="cls-49" x="128.03" y="236.01" width="4.11" height="38.62"/><path class="cls-43" d="M182.35,231.07h-6.73v44.55h6.73a2,2,0,0,0,2-2V233A2,2,0,0,0,182.35,231.07Z" transform="translate(-0.34 -0.99)"/><path class="cls-35" d="M274.74,265.54c.07-3.62,0-6-.2-8.69h0a26.58,26.58,0,0,0-.47-7.57c-.23-2.76-.61-6.11-1.34-10.94-1.18-7.89-7.45-13-10.79-9.54a5.15,5.15,0,0,0-1.39,1.93,5.52,5.52,0,0,0-1.59-2.24c-3.41-3.38-9.59,2.11-10.6,10.09-.61,4.87-.91,8.24-1.08,11a27,27,0,0,0-.3,7.57v0c-.1,3.12-.17,5.71.07,10.22l9.86-.66v.2l.85-.06c.25-2.06.55-4.54,1-9,.34-3.22,1.14-6.42,1.83-9.72.79,3.41,1.73,6.69,2.16,10,.5,3.86.83,6.23,1.1,8.13Z" transform="translate(-0.34 -0.99)"/><path class="cls-50" d="M257.52,249.79c1.45-9.09,7.82-18,4.15-29S242,216.66,239.84,228a120.12,120.12,0,0,0-2.42,21.44,79.25,79.25,0,0,0,.34,14.14c.77,8.71,5.06,9.61,7.44,10.18s7.27,1,9-5.38a17.21,17.21,0,0,0,.61-2.77C255.53,260.84,256.06,258.89,257.52,249.79Z" transform="translate(-0.34 -0.99)"/><path class="cls-9" d="M256.85,249.42c1.46-9.1,7.83-18,4.16-29s-19.65-4.09-21.83,7.22A120,120,0,0,0,236.76,249a79.25,79.25,0,0,0,.34,14.14c.76,8.72,5.06,9.62,7.44,10.19s7.27,1,9-5.38a18.63,18.63,0,0,0,.61-2.77C254.87,260.47,255.39,258.51,256.85,249.42Z" transform="translate(-0.34 -0.99)"/><path class="cls-38" d="M257,249.82s-1.87,5-4.57,6.91-2.57-1.43-.58-3a11.68,11.68,0,0,0,4.42-7.59C256.6,243,257,249.82,257,249.82Z" transform="translate(-0.34 -0.99)"/><path class="cls-38" d="M236.93,248.32s.24,5.29,2.21,8,2.88-.57,1.46-2.64-3.12-6.17-2.44-9.27S236.93,248.32,236.93,248.32Z" transform="translate(-0.34 -0.99)"/><path class="cls-51" d="M237.33,251.48A19.78,19.78,0,0,1,240,234.57c5.77-8.27,12.43-13.57,14.23-13s5.71,13.09,4.3,21.95c-1.07,6.7-2.56,8.63-2.56,8.63s1.71-18.11-3.21-24.85C251.55,225.81,236.79,236.12,237.33,251.48Z" transform="translate(-0.34 -0.99)"/><path class="cls-50" d="M264.53,250.15c-1.78-9-8.45-17.68-5.18-28.87s19.5-4.78,22.07,6.44a120.29,120.29,0,0,1,3.18,21.34,78.88,78.88,0,0,1,.16,14.14c-.46,8.74-4.72,9.79-7.08,10.45s-7.23,1.27-9.15-5.07a17.85,17.85,0,0,1-.71-2.75C266.91,261.13,266.31,259.19,264.53,250.15Z" transform="translate(-0.34 -0.99)"/><path class="cls-9" d="M265.18,249.75c-1.78-9-8.46-17.68-5.18-28.87s19.5-4.78,22.07,6.44a120.29,120.29,0,0,1,3.18,21.34,79.15,79.15,0,0,1,.15,14.15c-.45,8.73-4.71,9.78-7.07,10.43s-7.23,1.28-9.16-5.06a17.84,17.84,0,0,1-.7-2.75C267.56,260.73,267,258.79,265.18,249.75Z" transform="translate(-0.34 -0.99)"/><path class="cls-38" d="M265,250.16s2,4.88,4.81,6.74,2.51-1.51.47-3a11.73,11.73,0,0,1-4.69-7.44C265.21,243.35,265,250.16,265,250.16Z" transform="translate(-0.34 -0.99)"/><path class="cls-38" d="M285.06,248s-.06,5.29-1.94,8-2.9-.46-1.55-2.58,2.9-6.27,2.11-9.35S285.06,248,285.06,248Z" transform="translate(-0.34 -0.99)"/><path class="cls-51" d="M284.76,251.13a19.81,19.81,0,0,0-3.26-16.81c-6.05-8.06-12.9-13.12-14.69-12.54s-5.23,13.29-3.51,22.08c1.3,6.66,2.85,8.54,2.85,8.54s-2.34-18,2.33-25C269.64,226,284.77,235.76,284.76,251.13Z" transform="translate(-0.34 -0.99)"/><path class="cls-52" d="M240.06,258.05s-7.64,4.61-10,7.08-4.23,5.3-2.91,6.94,3.22-2.4,3.92-4.42,2.4-3.28,3.47-3,5.12-2.21,5.49-3.09A25.88,25.88,0,0,0,240.06,258.05Z" transform="translate(-0.34 -0.99)"/><path class="cls-52" d="M178.52,258.05s7.64,4.61,10,7.08,4.23,5.3,2.9,6.94-3.22-2.4-3.91-4.42-2.4-3.28-3.48-3-5.11-2.21-5.49-3.09A25.88,25.88,0,0,1,178.52,258.05Z" transform="translate(-0.34 -0.99)"/><path class="cls-53" d="M241.85,257.21c-.26-.09-2-.26-2-.26h0c-7.85-1.44-19.11-.18-23.32,1a34.09,34.09,0,0,1-7.23,1.21,34,34,0,0,1-7.22-1.21c-4.22-1.15-15.48-2.41-23.34-1h0s-1.74.17-2,.26-.3,2.16-.3,3.9c0,.82,0,1.44.18,1.47l.17,0s1.55-.06,1.95.88a15.1,15.1,0,0,1,.69,2.85c.59,3.74,0,12.33,10.52,12.58s13.28-2.67,15.15-8.16,1.92-7.14,4.2-7.14h0c2.27,0,2.33,1.64,4.2,7.14s4.62,8.42,15.14,8.16,9.94-8.84,10.53-12.58a15.2,15.2,0,0,1,.69-2.87c.42-.92,1.94-.86,1.94-.86l.17,0c.16,0,.18-.65.18-1.47C242.15,259.37,242.1,257.3,241.85,257.21Zm-36.42,6.43a29.58,29.58,0,0,1-.88,4.93c-1.73,6.61-5.18,9.76-13.26,9.47s-9.19-4.13-10-8.34-.46-8.29,2-9.87c2-1.26,5.68-1.89,13.62-1.07C204.64,259.56,205.48,261.92,205.43,263.64Zm31.9,6.06c-.84,4.21-2,8-10,8.34s-11.54-2.86-13.27-9.47a29.58,29.58,0,0,1-.88-4.93c0-1.72.79-4.08,8.55-4.88,7.93-.82,11.65-.19,13.61,1.07C237.78,261.41,238.17,265.49,237.33,269.7Z" transform="translate(-0.34 -0.99)"/><path class="cls-54" d="M204.55,268.57c-1.73,6.61-5.18,9.76-13.26,9.47s-9.19-4.13-10-8.34-.46-8.29,2-9.87c2-1.26,5.68-1.89,13.62-1.07,7.75.8,8.59,3.16,8.54,4.88A29.58,29.58,0,0,1,204.55,268.57Z" transform="translate(-0.34 -0.99)"/><path class="cls-55" d="M214,268.57a29.58,29.58,0,0,1-.88-4.93c0-1.72.79-4.08,8.55-4.88,7.93-.82,11.65-.19,13.61,1.07,2.47,1.58,2.86,5.66,2,9.87s-2,8-10,8.34S215.76,275.18,214,268.57Z" transform="translate(-0.34 -0.99)"/><path class="cls-56" d="M235.65,259.54c-2-1.3-5.87-2-14.08-1.11-8,.83-8.88,3.27-8.84,5.06a30.48,30.48,0,0,0,.91,5.09c1.79,6.83,5.36,10.1,13.72,9.8s9.5-4.27,10.38-8.63S238.2,261.18,235.65,259.54Zm1.68,10.16c-.84,4.21-2,8-10,8.34s-11.54-2.86-13.27-9.47a29.58,29.58,0,0,1-.88-4.93c0-1.72.79-4.08,8.55-4.88,7.93-.82,11.65-.19,13.61,1.07C237.78,261.41,238.17,265.49,237.33,269.7Z" transform="translate(-0.34 -0.99)"/><path class="cls-55" d="M204.55,268.57a29.58,29.58,0,0,0,.88-4.93c0-1.72-.79-4.08-8.54-4.88-7.94-.82-11.66-.19-13.62,1.07-2.47,1.58-2.86,5.66-2,9.87s2,8,10,8.34S202.82,275.18,204.55,268.57Z" transform="translate(-0.34 -0.99)"/><path class="cls-57" d="M213.72,267.28c.88-1.21,3-2.37,8-2.88,7.93-.82,11.65-.19,13.61,1.07a5.34,5.34,0,0,1,2.15,3.49c.66-3.94.17-7.64-2.15-9.13-2-1.26-5.68-1.89-13.61-1.07-7.76.8-8.59,3.16-8.55,4.88A21.78,21.78,0,0,0,213.72,267.28Z" transform="translate(-0.34 -0.99)"/><path class="cls-57" d="M183.27,265.47c2-1.26,5.68-1.89,13.62-1.07,5,.51,7.09,1.67,8,2.88a20.79,20.79,0,0,0,.57-3.64c0-1.72-.79-4.08-8.54-4.88-7.94-.82-11.66-.19-13.62,1.07-2.32,1.49-2.8,5.19-2.15,9.13A5.34,5.34,0,0,1,183.27,265.47Z" transform="translate(-0.34 -0.99)"/><path class="cls-56" d="M197,258.39c-8.24-.85-12.1-.19-14.14,1.12-2.56,1.64-3,5.88-2.09,10.25s2,8.35,10.42,8.66,12-3,13.77-9.84a30.29,30.29,0,0,0,.92-5.11C206,261.67,205.09,259.23,197,258.39Zm8.4,5.25a29.58,29.58,0,0,1-.88,4.93c-1.73,6.61-5.18,9.76-13.26,9.47s-9.19-4.13-10-8.34-.46-8.29,2-9.87c2-1.26,5.68-1.89,13.62-1.07C204.64,259.56,205.48,261.92,205.43,263.64Z" transform="translate(-0.34 -0.99)"/><rect class="cls-58" x="109.31" y="238.19" width="1.26" height="3.29" rx="0.3"/><rect class="cls-58" x="109.31" y="242.15" width="1.26" height="3.29" rx="0.3"/><rect class="cls-58" x="82.21" y="239.72" width="1.92" height="5" rx="0.45"/><rect class="cls-25" x="82.98" y="228.38" width="26.96" height="50.38" rx="1.79"/><path class="cls-58" d="M84.3,278.85V232a1.79,1.79,0,0,1,1.79-1.79h23.38a1.8,1.8,0,0,1,.62.11,1.8,1.8,0,0,0-1.6-1H85.11a1.79,1.79,0,0,0-1.79,1.79V278a1.78,1.78,0,0,0,1.17,1.67A1.74,1.74,0,0,1,84.3,278.85Z" transform="translate(-0.34 -0.99)"/><rect class="cls-53" x="84.74" y="232.03" width="23.43" height="40.63"/><polygon class="cls-59" points="108 232.03 108 272.48 84.75 272.48 84.75 272.66 108.17 272.66 108.17 232.03 108 232.03"/><path class="cls-60" d="M108.27,231.2a.64.64,0,1,1-.64-.64A.64.64,0,0,1,108.27,231.2Z" transform="translate(-0.34 -0.99)"/><path class="cls-60" d="M106.68,231.2a.26.26,0,1,1-.26-.26A.25.25,0,0,1,106.68,231.2Z" transform="translate(-0.34 -0.99)"/><path class="cls-61" d="M100.28,276.81A1.25,1.25,0,0,1,99,278.06H94.57a1.26,1.26,0,0,1-1.26-1.25h0a1.26,1.26,0,0,1,1.26-1.26H99a1.25,1.25,0,0,1,1.25,1.26Z" transform="translate(-0.34 -0.99)"/><path class="cls-62" d="M99,278.11H94.57a1.31,1.31,0,1,1,0-2.62H99a1.31,1.31,0,1,1,0,2.62Zm-4.46-2.5a1.2,1.2,0,1,0,0,2.39H99a1.2,1.2,0,0,0,0-2.39Z" transform="translate(-0.34 -0.99)"/><path class="cls-63" d="M99.83,231.57a.62.62,0,0,1-.62.62H94.26a.63.63,0,0,1-.63-.62h0a.63.63,0,0,1,.63-.63h4.95a.63.63,0,0,1,.62.63Z" transform="translate(-0.34 -0.99)"/></g></g></svg>