<?xml version="1.0" encoding="utf-8"?>
<!-- Generator: Adobe Illustrator 24.3.0, SVG Export Plug-In . SVG Version: 6.00 Build 0)  -->
<svg version="1.1" xmlns="http://www.w3.org/2000/svg" xmlns:xlink="http://www.w3.org/1999/xlink" x="0px" y="0px"
	 viewBox="0 0 1314 1011" style="enable-background:new 0 0 1314 1011;" xml:space="preserve">
<style type="text/css">
	.st0{opacity:0.12;fill:#606060;}
	.st1{fill:#EACDB0;}
	.st2{fill:#8AAD9F;}
	.st3{fill:#514943;}
	.st4{fill:#CAB5A1;}
	.st5{fill:#9E6652;}
	.st6{fill:#FCA235;}
	.st7{fill:#B4E1EF;}
	.st8{opacity:0.2;}
	.st9{fill:#FFFFF1;}
	.st10{opacity:0.1;}
	.st11{fill:#35383F;}
	.st12{fill:#EBCEB1;}
	.st13{fill:#8C9498;}
	.st14{fill:#FFFFF0;}
	.st15{fill:#755635;}
	.st16{opacity:0.26;}
	.st17{opacity:5.000000e-02;}
	.st18{opacity:0.12;}
	.st19{fill:#C4D3D3;}
	.st20{fill:#CDCED0;}
	.st21{fill:#3A3029;}
	.st22{fill:#F2D263;}
	.st23{fill:#59595B;}
	.st24{fill:#FFFFFF;}
	.st25{fill:#A3CEDF;}
	.st26{fill:#066598;}
	.st27{opacity:0.57;fill:#FFFFFF;}
	.st28{fill:#DACAAF;}
	.st29{fill:#37454D;}
	.st30{fill:#4F3C22;}
	.st31{opacity:7.000000e-02;}
	.st32{fill:#99142B;}
</style>
<g id="background">
</g>
<g id="shadow">
	<path class="st0" d="M1253.1,780H194.6c-33.5,0-60.9,16.6-60.9,36.9l0,0c0,14,13.1,26.3,32.3,32.5H72.9C39.4,849.4,12,866,12,886.3
		l0,0c0,20.3,27.4,36.9,60.9,36.9h32.5c-9.1,6.4-14.6,14.8-14.6,23.9v14.8c0,20.3,27.4,36.9,60.9,36.9h1042.7
		c33.5,0,60.9-16.6,60.9-36.9v-14.8c0-20.3-27.4-36.9-60.9-36.9l-70.9,0.8c5.4,0,14.2-2.6,20.1-7.8c10.3-9.1,10.8-22.9,5.7-34.4
		c-3.3-7.4-8.5-13.3-21.5-15.5l125.3,0.5c33.5,0,60.9-16.6,60.9-36.9l0,0C1314,796.6,1286.6,780,1253.1,780z"/>
</g>
<g id="object">
	<g>
		<g>
			<polygon class="st1" points="414.3,275.2 419.1,264 415,254.1 416.7,252.2 419.2,254.1 418.1,244.9 422.2,238.6 432.2,238.2 
				440.6,244.2 440,254.2 433.4,264.1 427.4,279.6 			"/>
			<polygon class="st2" points="412.5,264.2 388,339.1 333.8,305.5 312.2,362.9 389.1,403 411.9,394.4 435.5,270.1 			"/>
		</g>
		<g>
			<polygon class="st3" points="231.7,899.1 230.6,909.7 249.9,922.9 261.1,913.6 252,901.7 232.8,888.5 			"/>
			<polygon class="st4" points="232.2,575 228.9,607.2 257.8,717.8 231,895.5 250.7,902.3 302.8,728.8 311,678.3 310.7,571.4 			"/>
		</g>
		<g>
			<polygon class="st4" points="390.4,602 348.8,899.8 330,899.8 326.6,708.9 292.2,574.9 			"/>
			<polygon class="st3" points="330.1,897.4 330.1,908.1 350.5,918.8 360.7,908.1 350.5,897.4 			"/>
		</g>
		<path class="st2" d="M337.6,305.1c-1.5-2.4-3.5-4.5-6.2-6.1c-18.7-10.6-49.8-1.3-70.2-1.3c-6,63.3-22.6,123.6-33.4,185.8
			c-11.4,66-24.2,131.8-38.5,197.2c-0.8,3.7,56.6,1.8,62,1.9c55.3,0.9,127.6,0.7,180.9-16c-34-91.3-46.4-189.6-73.2-283.3
			c-4.7-16.5-10.3-32.7-14.5-49.2C342.1,324.6,342.4,313,337.6,305.1z"/>
		<g>
			<polygon class="st1" points="291.5,440.9 304.2,445 314.6,439.5 316.9,441.1 315,444 325,441.9 332.3,445.8 333.7,456.7 
				328,466.5 317.1,466.8 305.6,460.6 288,455.7 			"/>
			<path class="st2" d="M258.1,427.2c-5.3-3.6-9-8.7-9.5-16.3c-0.4-7,1.2-13.9,2.4-20.8c3.8-21.8,3.3-44.4-1.5-66.1
				c-4.8-21.5-29.9,5.5-33,15.3c-3.5,10.8-2.5,22.5-3.3,33.6c-1.1,14.9-1.7,29.9-1.6,44.9c0,9.5-2.3,31.9,7.7,37.3
				c2.7,1.5,5.8,2,8.8,2.5c4.8,0.8,61.7,8,62.6,5.1c0,0,7.9-24.8,7.9-24.8C286.6,435.6,268.9,434.5,258.1,427.2z"/>
		</g>
		<g>
			<path class="st5" d="M311.3,216.9c14,3.8,25,16.8,26.5,31.2c7.6-7.1,11.5-18.1,10.1-28.4c-1.4-10.4-8.1-19.8-17.4-24.7
				c-8.7,4.6-15.4,12.7-18.3,22.1L311.3,216.9z"/>
			<path class="st1" d="M341,230.5c-7.2-38.2-54.9-31.6-68.6-0.7c-7.8,17.6,0.4,42.4,15.9,54.7c0.3,3.4,0.8,12.7,3.4,15
				c2.8,2.4,11.6,0.1,15.1-0.7c1-0.2,2-0.5,2.7-1.2c0.9-0.9,1-3.2,1-5.8c2.5-0.2,5.1-0.7,7.8-1.5c11.1-3.6,19.1-13.9,22.4-25.1
				C344,253.9,343.2,241.9,341,230.5z"/>
			<path class="st5" d="M271.4,362.4c9.1-0.2,18.1-1.2,27-2.9c-6.1,1.2-8.2-64.4-8.4-68.9c-0.6-13,4-25.8,10.8-36.9
				c6.8-11.1,15.7-20.7,24.5-30.4c3.6-4,7.4-8.3,8.5-13.6c1.2-5.9-1.1-12-5-16.6c-5.9-7-13-10.5-22-10.8
				c-18.1-0.4-37.4,6.8-49.7,20.5c-14.8,16.5-19,40.6-19.7,62.1c-0.2,5.8,0,11.6-0.9,17.3c-1,6.1-3.1,11.9-5,17.8
				c-2.8,8.7-5.1,17.7-4.9,26.8c0.2,9.1,3.2,18.5,9.8,24.8C245.6,360.5,259.2,362.7,271.4,362.4z"/>
		</g>
	</g>
	<g>
		<g>
			<path class="st6" d="M611.9,868l-17.5-16.6l-0.5,0c-1-2-2-4.1-3-6.1c-5.3-10.8-10.6-21.6-15.9-32.4c-4.7-9.5-8.9-25.8-21.7-25.8
				c0,0-122.1,0-122.1,0c-13.6,0-25.9,8.2-31.7,21.1l-20.2,44.9l-2,0l-40.9,12.9c-14.4,7-23.5,21.6-23.5,37.6l0,24l310.1-0.1l0-34.2
				C622.8,883.9,618.9,874.7,611.9,868z"/>
			<path class="st7" d="M492.6,848l81.5,0l-18.5-45.6c-0.9-2.3-3-3.7-5.4-3.7l-57.6,0L492.6,848z"/>
			<path class="st7" d="M478.6,798.7l-46.7,0c-9.9,0-18.9,6-23.1,15.4L393.5,848l85.1,0L478.6,798.7z"/>
			<g class="st8">
				<path class="st9" d="M557.8,813.4c1.1,0.6,2.2,1.2,3.2,1.7l-5.1-12.5c-0.9-2.3-3-3.7-5.4-3.7l-20,0
					C539.7,803.9,548.8,808.6,557.8,813.4z"/>
				<path class="st9" d="M559.4,824.3c-15-8.1-30.7-17.3-45.5-25.6l-18.7,0.3c12.8,11,29,20.8,43.4,29.6
					c8.6,5.3,17.4,10.3,26.4,14.9c3,1.5,6,2.9,9.1,4.2l-8-19.7C563.8,826.7,561.6,825.5,559.4,824.3z"/>
				<path class="st9" d="M463.9,828.2c-6.3-4.1-12.8-7.8-19.4-11.4c-6.6-3.7-13.4-7.3-20.3-10.4c-2.3-1-4.6-1.9-6.9-2.9
					c-3.6,2.6-6.5,6.2-8.5,10.5l-0.1,0.3c7,4.9,14.1,9.8,21.1,14.7c10.4,7.3,21.8,12.9,32.9,18.8l15.9,0l0-8.9
					C473.7,835.5,469.1,831.5,463.9,828.2z"/>
			</g>
			<g>
				<path class="st10" d="M430.1,927.7c0.3-1.4,0.4-2.8,0.4-4.3c0-14.4-13.7-26-30.7-26c-6.6,0-12.7,1.8-17.7,4.8
					c10.4,2.2,19.6,7.4,27.1,14.2c3.8,3.5,6.8,7.2,9.1,11.1L430.1,927.7z"/>
			</g>
			<g>
				<path class="st10" d="M590.7,927.7c0.3-1.4,0.4-2.8,0.4-4.3c0-14.4-13.4-26-29.9-26c-6.5,0-12.4,1.8-17.3,4.8
					c10.2,2.2,19.2,7.4,26.5,14.2c3.7,3.5,6.6,7.2,8.9,11.1L590.7,927.7z"/>
			</g>
			<g>
				
					<ellipse transform="matrix(0.9605 -0.2784 0.2784 0.9605 -241.9261 146.149)" class="st11" cx="393.5" cy="924.7" rx="27.3" ry="27.3"/>
				<g>
					<g>
						
							<ellipse transform="matrix(0.9269 -0.3753 0.3753 0.9269 -318.2535 215.2528)" class="st9" cx="393.5" cy="924.7" rx="15.5" ry="15.5"/>
					</g>
					<path class="st10" d="M396.3,935.5c3-0.2,5.9-1.3,8-3.4c-0.9,2.7-3.2,4.9-6,5.6c-0.9,0.3-1.9,0.4-2.9,0.4c-1,0.1-2.1,0.1-3.1,0
						c-2.7-0.4-5.2-2.1-6.6-4.6c0.4,0.8,3.5,1.3,4.2,1.5C392.1,935.5,394.2,935.7,396.3,935.5z"/>
				</g>
			</g>
			<g>
				
					<ellipse transform="matrix(0.7071 -0.7071 0.7071 0.7071 -491.4087 663.0291)" class="st11" cx="554.6" cy="924.7" rx="27.3" ry="27.3"/>
				<g>
					<g>
						<path class="st9" d="M549.1,939.1c-8-3.1-11.9-12-8.8-20c3.1-8,12-11.9,20-8.8c8,3.1,11.9,12,8.8,20
							C566,938.3,557,942.2,549.1,939.1z"/>
					</g>
					<path class="st10" d="M557.4,935.5c3-0.2,5.9-1.3,8-3.4c-0.9,2.7-3.2,4.9-6,5.6c-0.9,0.3-1.9,0.4-2.9,0.4c-1,0.1-2.1,0.1-3.1,0
						c-2.7-0.4-5.2-2.1-6.6-4.6c0.4,0.8,3.5,1.3,4.2,1.5C553.2,935.4,555.3,935.6,557.4,935.5z"/>
				</g>
			</g>
		</g>
		<path class="st10" d="M468.8,868.3l-9.1,0c-1.6,0-2.9-1.3-2.9-2.9l0-0.6c0-1.6,1.3-2.9,2.9-2.9l9.1,0c1.6,0,2.9,1.3,2.9,2.9l0,0.6
			C471.7,867.1,470.4,868.3,468.8,868.3z"/>
	</g>
	<g>
		<g>
			<g>
				<polygon class="st12" points="913.1,316.5 932.6,303.2 927.3,294.6 911.9,300.8 911.3,295.6 896,309 900.3,318.7 				"/>
				<path class="st13" d="M899.6,302.7c0,0,7.6,19.6,7.6,19.6c1,3.2-72.8,44.9-79.4,47.9c-14.5,6.6-40.7,22.1-40.7,22.1
					c-20.1,0.3-58.1-10.1-70.7-15.5c-5.1-2.2-8.7-13.5-11.8-18c-3.9-5.7,1.1-15.7,4.4-20.4c6.9-9.5,17.5-16.3,29-18.6
					c4.1-0.8,8.5-1.1,12.6,0.1c4.2,1.2,9.6-18.2,13.1-15.7c6.3,4.5,9.8,33.9,17.4,36.5C790.6,344,897.4,298.1,899.6,302.7z"/>
			</g>
			<path class="st13" d="M740.1,213.8c-0.4,0-0.9,0-1.3,0.1c-20.7,1-45.8,28.2-60.3,44.3c-37.5,41.4-63.7,88.9-83.3,142
				c-10.6,28.6-19.9,57.6-28.6,86.9c-2.4,8.1-19.4,81.9-23.5,82.4c42.2-5.4,84.6-9.6,126.6-6.7c42,2.9,83.8,13.2,119.8,35.4
				c18.4-94.7,32.1-192.9,36.5-288.9c0.5-11.5,2.3-23.3,1.2-34.7c-1.2-13.1-7.7-19.1-15.1-29c-2.5-3.4-5.1-6.9-8.1-9.7
				C787.8,220.9,761.8,213.1,740.1,213.8z"/>
			<g>
				<g>
					<polygon class="st12" points="596.2,533.5 640.1,711.6 641.1,842.9 662.4,847.5 670.8,725.4 691.7,501.8 					"/>
				</g>
				<polygon class="st3" points="662.7,851.2 666.1,864.5 663.1,890.7 645.8,890.7 639.4,852.9 641.4,846.6 				"/>
			</g>
			<g>
				<polygon class="st12" points="763.8,513.8 767.7,667.7 747.1,885.1 726.1,886.7 718.5,687.4 675.7,506.7 				"/>
				<polygon class="st3" points="746.5,881.5 774.8,896.6 772.6,909.8 722.5,903.7 724.9,884.6 				"/>
			</g>
			<polygon class="st5" points="770,533.7 784.2,711.5 769.7,833.5 712.7,830.3 702.6,691.6 677.9,540.4 681.8,516.9 763.9,518.1 
							"/>
			<polygon class="st5" points="683.6,698.6 676.9,826.1 627.4,823.6 628.4,702.6 597.1,550.7 604.3,508.2 687.6,513.4 			"/>
			<path class="st14" d="M780.3,548.4c-50.8-8.8-133.2-30-184-38.8c26.6-88.3,68.9-186.4,118.3-264c9-14.1,20.1-28.7,36.2-32.1
				c17.2-3.6,47.3,7.7,50.6,26.9c4.9,28.1-5.2,66.8-8.4,95.2C785.9,399.9,792.6,484.9,780.3,548.4z"/>
			<g>
				<path class="st1" d="M771.5,151.6c19.1-33.3,61.5-11.7,64.2,21.6c1.8,21.9-19.5,46-41.5,47.7c-0.4,5.3-1.1,10.5-2,15.7
					c-5.6-1.5-11.1-3-16.7-4.6c-1.7-0.5-3.7-1.2-4.3-2.9c-0.3-1,0-2.1,0.3-3.2c1-3.5,2-7,3-10.5c-0.4-0.3-0.7-0.5-1.1-0.8
					c-9.2-7-13.3-19.2-12.8-30.7C761.1,172.5,765.7,161.5,771.5,151.6z"/>
				<g>
					<g>
						<path class="st3" d="M772.7,162.8c-9.2,8.9-10.1,23-10.7,35.2c-0.5,10.8-2.1,17.3-13.6,14.2c-6.5-1.7-18-4.6-20.7-11.7
							c-2.1-5.4,5.5-14.6,9.5-17.7c3.1-2.4,7.7-2,10.7-4.5c1.2-1,2.1-2.4,2.8-3.8c3.1-5.7,5.4-12,6.7-18.4c0.9-4.4,1.3-8.9,3-13
							c2.5-5.9,10-10.4,14.9-14.6c9-7.6,29.6-13.5,37,0.2c1.7,3.1,1.7,6.8,1.4,10.4c-0.1,2.1-0.4,4.3-1.3,6.2
							c-3.8,7.5-11.3,5.2-17.9,6.2C786.4,152.9,778.6,157.2,772.7,162.8z"/>
						<path class="st3" d="M825.9,193.1c-2.4,5.5-8.2,9.9-7.6,15.9c0.3,2.7,1.8,5,2.8,7.4c2.9,6.7,1.9,14.9-2.5,20.7
							c10.8,5.2,21.6,10.3,32.4,15.5c1.6,0.8,3.3,1.6,5.1,1.5c3.8-0.2,6.2-4.2,7.8-7.8c3.2-6.9,6.4-14.4,5-21.8
							c-0.7-3.5-2.3-6.7-2.9-10.1c-3.1-16.6,16.9-32.5,10.8-48.3c-2.7-7-9.9-11.2-14.7-17c-8.4-10.1-9.6-25-18.7-34.6
							c-17.1-18-50.7-3.3-48.1,21.8C797.3,156.7,835.4,170.9,825.9,193.1z"/>
					</g>
				</g>
			</g>
			<path class="st13" d="M740.6,216.9c0,0-87.9,212-68.5,266c19.4,54.1,28.4,75,28.4,75L566,563.5
				C566,563.5,651.9,253.9,740.6,216.9z"/>
			<rect x="432.2" y="205.1" class="st15" width="363.6" height="485.2"/>
			<polygon class="st16" points="459.3,669.4 464.7,669.4 785.8,679.4 777.4,220.5 762.5,224.8 			"/>
			<rect x="450.5" y="220.5" class="st9" width="326.9" height="448.9"/>
			<polygon class="st17" points="448.7,218.8 683.9,218.8 448.3,416.8 			"/>
			<g>
				<rect x="543" y="218.1" class="st18" width="142" height="13.3"/>
				<g>
					<path class="st19" d="M655.8,177.8h-2.2v-1.5c0-14-13-25.3-29.1-25.3h-21.2c-16.1,0-29.1,11.3-29.1,25.3v1.5h-2.2
						c-16.1,0-29.1,11.3-29.1,25.3v28.3h142v-28.3C684.9,189.2,671.9,177.8,655.8,177.8z M632.7,178.4h-37.4c-3.8,0-7-3.1-7-7
						s3.1-7,7-7h37.4c3.8,0,7,3.1,7,7S636.5,178.4,632.7,178.4z"/>
				</g>
			</g>
			<g>
				<path d="M506.6,281.7v-3.1h21.3v3.1h-8.7v29.2h-3.9v-29.2H506.6z"/>
				<path d="M532.9,278.6h9.8c1.9,0,3.6,0.3,4.9,0.8c1.4,0.6,2.4,1.3,3.1,2.3c1.3,1.8,1.9,4,1.9,6.4c0,4.6-1.9,7.6-5.6,8.9
					c0.8,0.6,1.5,1.6,2.1,2.9l4.8,11h-4.2l-4.5-10.5c-0.5-1.1-1.1-1.8-1.8-2.2c-0.7-0.4-1.7-0.6-3-0.7h-3.8v13.3h-3.9V278.6z
					 M536.8,294.5h5.7c2.2,0,3.7-0.6,4.7-1.8c1-1.2,1.5-2.7,1.5-4.6c0-1.8-0.5-3.3-1.5-4.6c-1-1.2-2.6-1.8-4.7-1.8h-5.7V294.5z"/>
				<path d="M567.8,278.6h5.2l10.6,32.3h-3.9l-3.1-9.7h-12.3l-3.1,9.7h-3.9L567.8,278.6z M570.4,282l-5.2,16h10.3L570.4,282z"/>
				<path d="M598.3,310.9h-5.2l-9.9-32.3h4l8.5,28.7l8.5-28.7h3.9L598.3,310.9z"/>
				<path d="M613.9,278.6h17.2v3.1h-13.3v11.3h12.4v3.1h-12.4v11.8H632v3.1h-18.1V278.6z"/>
				<path d="M638.7,310.9v-32.3h3.9v29.2h12.1v3.1H638.7z"/>
				<path d="M511,331.7h3.9v32.3H511V331.7z"/>
				<path d="M543.9,331.7h3.9v32.3h-4.3l-15.4-25.8v25.8h-3.9v-32.3h4.3l15.4,25.8V331.7z"/>
				<path d="M574.6,349.8c1.3,1.3,1.9,3.2,1.9,5.9c0,2.6-0.9,4.8-2.8,6.5c-1.8,1.7-4.5,2.5-8,2.5s-6.1-0.7-7.7-2.2
					c-1.6-1.4-2.6-3.5-3.1-6.2l3.2-0.6c0.6,3.9,3,5.8,7.2,5.8c4.8,0,7.2-1.9,7.2-5.7c0-1.7-0.4-2.9-1.3-3.7c-0.9-0.8-2.4-1.5-4.4-2
					l-2.9-0.8c-3-0.8-5.2-1.9-6.4-3.2c-1.2-1.3-1.9-3.2-1.9-5.9c0-2.6,0.9-4.8,2.7-6.5c1.8-1.7,4.3-2.6,7.7-2.6
					c3.4,0,5.8,0.7,7.4,2.2c1.5,1.4,2.5,3.5,2.9,6.2l-3.2,0.6c-0.6-3.9-2.8-5.8-6.7-5.8c-4.6,0-6.9,1.9-6.9,5.7
					c0,1.7,0.4,2.9,1.2,3.7c0.8,0.8,2.2,1.5,4.1,2l3.1,0.8C571.1,347.4,573.3,348.5,574.6,349.8z"/>
				<path d="M602,331.7h3.9v21.7c0,2-0.2,3.7-0.7,5.1c-0.5,1.4-1.1,2.5-1.8,3.3c-0.7,0.8-1.6,1.4-2.7,1.9c-1.1,0.5-2.1,0.7-3,0.9
					c-0.9,0.1-2,0.2-3.3,0.2c-1.2,0-2.3-0.1-3.3-0.2c-0.9-0.1-1.9-0.4-3-0.9c-1.1-0.5-2-1.1-2.7-1.9c-0.7-0.8-1.3-1.9-1.8-3.3
					c-0.5-1.4-0.7-3.1-0.7-5.1v-21.7h3.9v21.5c0,3.4,0.8,5.7,2.4,6.8c0.8,0.5,1.6,0.9,2.3,1.1c0.8,0.2,1.7,0.3,2.7,0.3
					c1,0,2-0.1,2.7-0.3c0.8-0.2,1.6-0.5,2.3-1.1c1.6-1.1,2.4-3.4,2.4-6.8V331.7z"/>
				<path d="M614.6,331.7h9.8c1.9,0,3.6,0.3,4.9,0.8c1.4,0.6,2.4,1.3,3.1,2.3c1.3,1.8,1.9,4,1.9,6.4c0,4.6-1.9,7.6-5.6,8.9
					c0.8,0.6,1.5,1.6,2.1,2.9l4.8,11h-4.2l-4.5-10.5c-0.5-1.1-1.1-1.8-1.8-2.2c-0.7-0.4-1.7-0.6-3-0.7h-3.8v13.3h-3.9V331.7z
					 M618.5,347.6h5.7c2.2,0,3.7-0.6,4.7-1.8c1-1.2,1.5-2.7,1.5-4.6s-0.5-3.3-1.5-4.6c-1-1.2-2.6-1.8-4.7-1.8h-5.7V347.6z"/>
				<path d="M649.6,331.7h5.2l10.6,32.3h-3.9l-3.1-9.7H646l-3.1,9.7H639L649.6,331.7z M652.2,335.2l-5.2,16h10.3L652.2,335.2z"/>
				<path d="M690.5,331.7h3.9v32.3h-4.3l-15.4-25.8v25.8h-3.9v-32.3h4.3l15.4,25.8V331.7z"/>
				<path d="M714.8,334.3c-2.7,0-4.8,0.8-6.2,2.3c-1.2,1.3-1.9,3.5-2.2,6.6c-0.1,1.3-0.2,2.8-0.2,4.7c0,1.9,0.1,3.4,0.2,4.8
					c0.1,1.3,0.4,2.6,0.7,3.7c0.4,1.2,0.9,2.1,1.5,2.8c1.4,1.5,3.4,2.3,6.2,2.3c4.5,0,6.9-2.4,7-7.3l3.2,0.2
					c-0.2,3.3-1.1,5.8-2.7,7.6c-1.6,1.8-4.1,2.7-7.6,2.7c-4.9,0-8.2-1.5-10-4.5c-0.9-1.5-1.6-3.2-1.9-5.2c-0.4-2-0.6-4.3-0.6-7.1
					c0-2.8,0.2-5.2,0.6-7.1c0.4-1.9,1-3.7,1.9-5.2c1.8-3,5.1-4.5,10-4.5c3.2,0,5.6,0.7,7.2,2.2c1.6,1.5,2.5,3.6,2.9,6.3l-3.1,0.6
					C721.1,336.3,718.8,334.3,714.8,334.3z"/>
				<path d="M732,331.7h17.2v3.1h-13.3v11.3h12.4v3.1h-12.4V361h14.2v3.1H732V331.7z"/>
			</g>
		</g>
		<g>
			<rect x="493.1" y="384.6" class="st20" width="245.7" height="6.6"/>
			<rect x="493.1" y="433.3" class="st20" width="245.7" height="6.6"/>
			<rect x="493.1" y="482" class="st20" width="245.7" height="6.6"/>
			<rect x="493.1" y="530.7" class="st20" width="245.7" height="6.6"/>
		</g>
		<rect x="492.9" y="629.5" class="st20" width="90.3" height="2.3"/>
		<g>
			<path class="st20" d="M710.2,588.1c-4.4-1.6-9.2-1.2-13.2,0.9c-0.6-0.3-1.2-0.6-1.9-0.9c-6.5-2.4-14.1-0.3-18.5,5.1
				c-4.3,5.3-4.8,12.9-1.4,18.7c3.5,5.9,10.5,9,17.3,7.8c1.6-0.3,3.1-0.8,4.5-1.6c3.2,1.6,6.9,2.2,10.6,1.6
				c7.8-1.4,13.2-8.4,13.3-16.1C720.8,596.7,716.6,590.5,710.2,588.1z M694.1,616.5c-5.4,1.9-11.5,0.3-15.2-4.1
				c-3.8-4.4-4.3-10.9-1.3-15.9c2.9-5,8.9-7.6,14.5-6.5c0.8,0.2,1.5,0.4,2.2,0.6c-0.9,0.7-1.8,1.6-2.6,2.5
				c-4.3,5.3-4.8,12.9-1.4,18.7c1,1.8,2.4,3.3,4,4.5C694.2,616.4,694.1,616.4,694.1,616.5z M703.1,603.5c-0.1,4.7-2.4,9-6.2,11.5
				c-1.1-0.7-2.1-1.6-3-2.6c-3.8-4.4-4.3-10.9-1.3-15.9c1.1-1.8,2.6-3.3,4.3-4.5C700.7,594.5,703.1,598.8,703.1,603.5z M709.2,616.5
				c-3.1,1.1-6.6,1-9.6-0.1c3.8-3.1,6.1-7.8,6.2-12.8c-0.1-5.1-2.4-9.8-6.2-12.8c2.4-0.9,5-1.2,7.6-0.7c6.5,1.3,11,7,11.1,13.5
				C718.1,609.3,714.7,614.5,709.2,616.5z"/>
		</g>
	</g>
	<g>
		<g>
			<path class="st1" d="M998.3,265c8-0.3,16.1-0.7,24.1-1c0.4-6.4,0.4-12.9-0.2-19.3c0.1,0.8,13-6,14.1-7.6c3.3-4.4,3.7-11.9,5-17.2
				c2.9-11.2,5.6-23.9-0.3-33.9c-6.2-10.3-19.5-13.9-31.5-14.2c-15.1-0.4-31.9,4-39.7,17c-7,11.7,1.8,28.9,4.4,41.3
				c1.2,6.1,3.1,13.1,8.8,15.6c3,1.4,6.7,1.2,9.3,3.1C997.1,252.4,996,259.7,998.3,265z"/>
			<path class="st21" d="M946.1,166.6c-0.9-8.3-1.8-16.7-2.7-25c-0.3-3.1-0.7-6.3,0.3-9.3c1.7-4.9,6.6-8,11.6-9.3
				c5-1.4,10.3-1.4,15.3-2.5c5.4-1.2,10.7-3.6,16.2-3.4c10.5,0.5,18.5,10.2,28.9,11.9c14.4,2.3,27.6-4.3,36.3,12.6
				c1.6,3.1,2,6.7,3.4,9.9c1.8,4.1,5.1,7.4,7.7,11.1c11.4,16.3,7.7,41-6.1,54.8c-6.7,6.7-9.4,12.7-18.6,14.9
				c4.2-8.6-1.4-42.7-12.9-46.5c-3.1-1-12.2,2.7-15.6,3.2c-7.5,1.1-14.8,2.3-21.8,5.2c-10.5,4.3-21.8,7.4-33.2,8.3
				c-1.4,0.1-3.1,0.2-4.2-0.8c-1-0.9-1.2-2.4-1.4-3.8C948.3,187.4,947.2,177,946.1,166.6z"/>
		</g>
		<path class="st22" d="M939.8,289.2c0,0-52,105.7-82.5,134.9l0,0c-2.1,0.8-3.7,2.7-4.6,4.8c-1.1,2.7-1.3,5.7-1.3,8.6
			c0,5.1,0.4,10.2,1.3,15.2c0.7,4.2,1.8,8.4,4.3,11.8c2.4,3.4,6.5,5.8,10.5,5.2c5.4-0.9,6.7-6.7,6.4-13.6c16-16.7,59.4-62.5,61.8-71
			c3-10.3,12.4-97.6,12.4-97.6L939.8,289.2z"/>
		<g>
			<polygon class="st21" points="1130.1,883.3 1133.3,896.9 1109.4,917 1092.5,906.6 1102.9,889.8 1126.9,869.7 			"/>
			<polygon class="st23" points="1075.1,462.7 1084.9,504 1072.5,696.1 1130.5,878.6 1104.8,890.4 988.6,679.7 974.8,612.3 
				967.8,470 			"/>
		</g>
		<g>
			<polygon class="st23" points="914.1,479.1 912.1,657.5 945.7,887.5 971.5,887.5 987.9,675.3 1023.2,463 			"/>
			<polygon class="st21" points="971.4,884.4 971.4,898.4 943.4,912.4 929.5,898.4 943.4,884.4 			"/>
		</g>
		<path class="st22" d="M1105.9,513.2c0.4,16.3-0.2,38.2-6.4,39c-1.2,0.2-2.3-0.4-3.3-1c-10.8-5.9-18.5-14.2-29.1-19.9
			c-11.2-6-24-9.2-36.5-11.4c-18.7-3.4-37.9-5.5-57-5.9c-15-0.3-30.1,1-45,2.3c-12.4,1-24,4.7-36.7,3.8c-13-0.9-25.8-4.9-36.9-11.7
			c-0.4-0.2-0.8-0.5-1-1c-0.2-0.5,0-1,0.2-1.5c2.7-7.3,4.6-14.5,9.4-20.5c5.4-6.7,9.2-15.3,13.1-22.9c8.1-15.9,15.7-32.7,21.4-49.6
			c8.6-23.1,18.3-45.6,26.6-68.7c5.7-16.1,11-32.4,18.7-47.6c6.1-11.9,16.9-29.3,30-34.6c4.4-1.8,9.3-1.9,14.1-2.1
			c14.5-0.4,28.9-0.8,43.4-1.2c5.3-0.2,10.8-0.3,15.6,1.9c7.2,3.3,11.3,10.8,14.8,17.9c16,31.6,26.1,65.8,31.8,100.9
			c3,18.4,5.7,36.8,7.9,55.3c2.4,20.6,4,41.3,4.4,62.1C1105.3,499,1105.7,505.5,1105.9,513.2z"/>
		<path class="st24" d="M1009.4,338.7c-0.5,8.2,0.6,16.4,1.8,24.5c7.1,49.5,22.1,108.4,29.2,158c-38.8-0.3-88-2.9-126.8-3.3
			c1.4-18.6,5.2-44.2,6.6-62.8c0.9-11.9,1.8-23.8,4.3-35.5c4.1-18.8,12.2-36.6,20.3-54.1c14.9-32.4,29.8-64.9,44.7-97.3
			c0.8-1.7,1.6-3.5,3.1-4.8c1.8-1.5,4.2-2,6.5-2.4c11.1-1.9,23.6-3.6,34.8-1.9c2.8,10.2-7.5,27.8-11.3,37.3
			C1017,310,1010.4,323.7,1009.4,338.7z"/>
		<g>
			<g>
				<path class="st25" d="M1132.7,441.3l-21.7,11.3c-3.2,1.7-4.6,5.4-3.2,8.5l2.8,6.3c1.4,3.1,5.1,4.5,8.5,3.2l23.2-9.2
					c2.3-0.9,4.1-3,4.4-5.4c0.8-6.9-3.3-11.6-6.6-14.2C1138,440.2,1135.1,440,1132.7,441.3z"/>
				<path class="st17" d="M1123.9,446.4l-3.8,23.8l24-9.6c0,0-15,5.3-18.2-15.2L1123.9,446.4z"/>
				<path class="st26" d="M1135.7,447.7c2.5,4.1,4.3,8.9,5,13.7c0,0.2,0,0.4,0,0.6l2.2-0.8c2.2-0.8,3.7-2.8,3.9-5.2
					c0.6-6.7-3.5-11.5-6.6-14.2c-1.9-1.6-4.7-1.9-6.9-0.8l-1.7,0.9C1133.2,443.8,1134.5,445.8,1135.7,447.7z"/>
			</g>
			<g>
				<path class="st25" d="M1126,494.6l-21.7,11.3c-3.2,1.7-4.6,5.4-3.2,8.5l2.8,6.3c1.4,3.1,5.1,4.5,8.5,3.2l23.2-9.2
					c2.3-0.9,4.1-3,4.4-5.4c0.8-6.9-3.3-11.6-6.6-14.2C1131.3,493.5,1128.4,493.3,1126,494.6z"/>
				<path class="st26" d="M1130.1,500.4c2.5,4.1,4.3,8.9,5,13.7c0,0.2,0,0.4,0,0.6l2.2-0.8c2.2-0.8,3.7-2.8,3.9-5.2
					c0.6-6.7-3.5-11.5-6.6-14.2c-1.9-1.6-4.7-1.9-6.9-0.8l-1.7,0.9C1127.5,496.5,1128.9,498.5,1130.1,500.4z"/>
				<path class="st17" d="M1116.9,499.5l-3.8,23.8l24-9.6c0,0-15,5.3-18.2-15.2L1116.9,499.5z"/>
			</g>
			<path class="st25" d="M1196.9,342.6l12.6-20.2c5.3-8.4-0.1-19-10.1-19.7l-23.3-1.6c-29.4-2.1-57.8,4.3-81.7,17.9L883.1,447.2
				l-37,37.9l11.2,21.6l52.2-8.7l226.7-100.6C1160.4,385.9,1181.6,367,1196.9,342.6z"/>
			<polygon class="st25" points="1132.7,393.7 1104.2,600.6 1068.5,617.8 1039,415.1 1131.4,389.8 			"/>
			<path class="st27" d="M1156.1,313.7c0,0,18.1,15.6,19,36.8l12.2-6.3c0,0-1.4-26-20.3-36.1L1156.1,313.7z"/>
			<path class="st18" d="M1131.9,399.2c-2.2,0.8-89.5,39.7-89.5,39.7l2,13.7l86.7-47.8L1131.9,399.2z"/>
			<g>
				<g>
					<path class="st25" d="M1058.7,294.6l-21.8,11.2c-3.2,1.7-7.1,0.7-8.8-2.3l-3.5-5.9c-1.7-2.9-0.7-6.8,2.3-8.8l20.9-13.6
						c2.1-1.4,4.8-1.6,6.9-0.5c6.1,3.3,7.5,9.4,7.8,13.6C1062.6,290.9,1061.1,293.4,1058.7,294.6z"/>
					<path class="st17" d="M1049.4,298.9l-21.6-10.6l21.7-14c0,0-13,9.2,1.9,23.6L1049.4,298.9z"/>
					<path class="st26" d="M1055.2,288.5c-1.9-4.4-4.8-8.7-8.3-12c-0.1-0.1-0.3-0.2-0.4-0.4l2-1.3c1.9-1.3,4.5-1.4,6.5-0.2
						c5.8,3.4,7.4,9.5,7.7,13.6c0.2,2.5-1.1,4.9-3.4,6.1l-1.7,0.9C1056.9,292.8,1056.1,290.6,1055.2,288.5z"/>
				</g>
				<g>
					<path class="st25" d="M1011.3,269.3l-21.8,11.2c-3.2,1.7-7.1,0.7-8.8-2.3l-3.5-5.9c-1.7-2.9-0.7-6.8,2.3-8.8l20.9-13.6
						c2.1-1.4,4.8-1.6,6.9-0.5c6.1,3.3,7.5,9.4,7.8,13.6C1015.2,265.6,1013.7,268.1,1011.3,269.3z"/>
					<path class="st26" d="M1008.9,262.6c-1.9-4.4-4.8-8.7-8.3-12c-0.1-0.1-0.3-0.2-0.4-0.4l2-1.3c1.9-1.3,4.5-1.4,6.5-0.2
						c5.8,3.4,7.4,9.5,7.7,13.6c0.2,2.5-1.1,4.9-3.4,6.1l-1.7,0.9C1010.6,266.9,1009.8,264.7,1008.9,262.6z"/>
					<path class="st17" d="M1002,273.8l-21.6-10.6l21.7-14c0,0-13,9.2,1.9,23.6L1002,273.8z"/>
				</g>
				<polygon class="st25" points="1097.4,322.1 912.1,225.8 877.5,245.1 1025.9,386.2 1099.9,325.5 				"/>
				<path class="st18" d="M1092.5,319.6c-1.9,1.3-84.1,50.1-84.1,50.1l-10-9.5l89.1-43.2L1092.5,319.6z"/>
			</g>
			<polygon class="st25" points="882.2,575.5 877.8,483.5 876.9,481.7 804.4,425 787,433.9 835.2,504.4 864.9,584.4 			"/>
		</g>
		<g>
			<path class="st22" d="M1174.1,373.1c3.2,2.8,4,7.5,3,11.6c-1,4.1-3.5,7.6-6.3,10.9c-3.3,3.9-6.9,7.5-10.9,10.7
				c-2.3,1.9-4.7,3.6-7.5,4.4c-2.8,0.8-6.1,0.4-8.2-1.6c-1.5-1.4-2.2-3.3-2.9-5.2c-0.5-1.3-1-2.8-0.7-4.1c0.3-1.2,1.1-2.1,1.9-3
				C1147.9,390.7,1163.9,364.4,1174.1,373.1z"/>
			<g>
				<path class="st1" d="M1173.6,386.1c0.2-0.5,0.3-1.1,0.4-1.6c0.3-1.7,0.4-4.3-0.4-5.9c0,0-3.1-4.8-3.1-2.7l-0.1,4.2l-8.7-9
					l-10.1-1.1l-9,10.1c0,0-0.9,13.9-0.9,13.9c6.2,4.4,11.8,10.6,19.7,6c2.4-1.4,4.3-3.4,6.1-5.4
					C1170,392.1,1172.5,389.4,1173.6,386.1z"/>
			</g>
		</g>
		<g>
			<path class="st1" d="M858.7,460.1c0.3,0.5,0.6,0.9,1,1.3c1.1,1.3,3.1,3,4.8,3.5c0,0,5.7,0.7,4.1-0.6l-3.2-2.8l12.5-1l7.3-7
				l-2-13.3c0,0-10.1-9.6-10.1-9.6c-7.4,1.9-15.7,2.3-17.3,11.3c-0.5,2.7-0.1,5.4,0.2,8.1C856.4,453.5,856.9,457.1,858.7,460.1z"/>
		</g>
	</g>
	<g>
		<g>
			<path class="st28" d="M430.3,247.5c0.1,2.4,0,4.8-0.3,7.1c-0.5,4.4-2,9-5.4,12c-1.4,1.3-3.2,2.3-4.2,4c-1.8,3.3,0.7,7.4,3.7,9.9
				c9.7,8.5,23.9,11,37.1,10.3c4.1-0.2,8.1-0.7,11.9-2.1c7.3-2.6,13.1-8.4,16.5-15.1c3.4-6.6,4.8-14.1,5.2-21.5
				c0.6-10.6-0.5-21.2-3.8-31.4c-2.1-6.5-5.2-12.8-10-17.8c-3.1-3.2-7.1-5.9-11.5-7.4c-4.3-1.5-9-1.2-13.5-1.9
				c-6.5-1-13.5-1.1-19.9,0.4c-5.6,1.3-14.1,3.4-15.1,9.5c-0.4,2.6,0.1,5.3,0.8,7.9C424.9,223.5,429.9,235.4,430.3,247.5z"/>
			<path class="st28" d="M423,257.8c0,0-12.3,2.5-14.8,14.4c-1.3,6.2-0.1,15.4-3,21c-1.6,2.8-4.2,4.6-6.3,6.9
				c-1.5,1.7-5.3,3.6-6,5.6c-0.4,1.1,0.2,2.3,1,3.2c6.1,7.5,12.8,1.7,16.4-4.4c2.8-4.7,5.4-14.2,10.8-16.5c8.6-3.6,14,1.4,20.2-1.5
				c6.2-2.9,4.9-26.8,4.9-26.8l-24.3-2.9L423,257.8z"/>
			<path class="st28" d="M451.4,272.8c-1,0.5-2,1.2-3,1.9c-4.8,4-8.2,8.9-7.9,15.4c0.3,6.3,3.7,14.9,2.3,21.1
				c-0.4,0.2-2.9,5.6-3.4,6.4c-1.3,2.1-2.5,3.7-4.3,5.6c-0.5,0.5-1,1-1.4,1.7c-1,1.9-0.2,4.6,1.8,5.6c10.5,5.2,14.3-6.5,16.1-14.1
				c0.8-3.6,1.5-7.3,2.9-10.7c2.1-4.7,5.1-6.7,9.4-9.4c2.5-1.5,4.7-3.4,6.9-5.4c2.8-2.6,5.6-5.3,7.9-8.3c1.6-2,3.1-4.2,3.2-6.8
				c0.4-6.1-6.4-7.2-10.9-6.6C464.7,270.2,457.2,269.8,451.4,272.8z"/>
			<g>
				<path class="st29" d="M417.7,192.6l1.3,4.4c0,0,11.4,15,41.6,6.9c13.7-5.8,10.3-8.2,10.3-8.2l-1.9-2.5
					C469,193.2,446.7,211,417.7,192.6z"/>
				<g>
					<path class="st28" d="M410.8,178c0,1.7-0.1,3.3-0.1,4.6c-0.1,1.3-0.1,2.5,0.2,3.7c0.3,1.1,1,2,1.7,2.9
						c2.7,3.2,6.7,5.3,10.4,7.1c3.8,1.9,7.3,4.8,11.4,5.5c6.7,1.2,13.7,0.9,20.2-1c6.8-1.9,12.2-6,18.1-9.9c1.1-0.7,2.1-1.4,2.9-2.5
						c0.8-1.2,1-2.7,1.2-4.1c1.2-11.8-0.7-23.9-5.6-34.7c-0.8-1.7-1.8-3.6-3.5-4.4c-1.1-0.5-2.3-0.6-3.5-0.6
						c-8-0.4-16.1-0.6-24.2-0.6c-4.7,0-13.2-1.7-17.7-0.2C411.3,147.8,411,166.5,410.8,178z"/>
					<path class="st30" d="M408.2,143c-1,7.6-0.2,12.1-0.1,19.8c4.2-1.2,7.7-3.9,11.1-6.6c2.5-2,14.2-10.4,11.5-13.4
						c-0.9-1-7.7-1.8-9.1-2.2C417.6,139.6,412.3,142.5,408.2,143z"/>
					<path class="st30" d="M474.9,168.6c0.3,1.5,3.1-2.8,3.1-2.7c1-1.7,1.9-3.5,2.8-5.3c1.8-3.8,3.1-7.8,4.1-11.9
						c0.1-0.3,0.1-0.6,0.1-1c-0.1-0.4-0.4-0.7-0.8-1c-3.2-2.8-15.3-7.6-19-3.4c-0.9,1.1-1,2.2-2.4,3c4.2,1.8,5.3,3.2,7.3,7.3
						C472.3,158.4,473.9,163.5,474.9,168.6z"/>
					<g class="st31">
						<path class="st30" d="M450.7,149.3c-2,3.4-2.1,7.3-0.5,10.9c0.5,1.2,2.3,0.2,1.8-1c-1.3-2.9-1.1-6.1,0.4-8.9
							C453.1,149.2,451.4,148.1,450.7,149.3z"/>
						<path class="st30" d="M439.3,148c-1-0.9-2.4,0.5-1.5,1.4c2.4,2.2,3.6,5.4,3,8.7c-0.2,1.3,1.7,1.9,2,0.6
							C443.5,154.7,442.3,150.8,439.3,148z"/>
						<path class="st30" d="M446.3,145c-0.1-1.3-2.1-1.4-2,0c0.1,1.6,0.2,3.2,0.3,4.8c0.1,1.3,2.1,1.4,2,0
							C446.5,148.1,446.4,146.6,446.3,145z"/>
					</g>
				</g>
			</g>
			<path class="st30" d="M484.3,272.1c1.6-2.4,5.5-2,7.5,0.1c1.9,2.2,2.2,5.3,2.2,8.1c-0.1,3.6-1,7.8-4.3,9.2
				c-1.1,0.5-2.4,0.6-3.7,0.5c-2.1-0.1-4.2-0.6-5.9-1.8c-3-2.1-4.1-6.4-2.6-9.7c1.5-3.3,5.6-5.2,9.1-4.3L484.3,272.1z"/>
		</g>
		<g>
			<g>
				<g>
					<path class="st24" d="M342,163.8c0,0,0.3,0.3,0.3,0.3C342.2,164.1,341.9,163.8,342,163.8z"/>
					<polygon class="st24" points="341.3,163.2 341.4,163.3 341.1,163 					"/>
					<path class="st24" d="M341.3,163.2C340.8,162.7,341.4,163.2,341.3,163.2l-0.2-0.2l0.4,0.4C341.4,163.3,341.2,163,341.3,163.2z"
						/>
					<path class="st24" d="M342.4,164.2C342.2,164,342.2,164.1,342.4,164.2C342.4,164.2,342.4,164.2,342.4,164.2
						C342.4,164.2,342.4,164.2,342.4,164.2z"/>
					<path class="st24" d="M342.4,164.2C342.4,164.2,342.6,164.4,342.4,164.2L342.4,164.2z"/>
					<path class="st24" d="M342.3,164.1l0.2,0.2c0.1,0.1,0.1,0.1,0.2,0.2C342.6,164.4,342.5,164.3,342.3,164.1z"/>
					<path class="st24" d="M341.9,163.8L341.9,163.8C342,163.9,342,163.9,341.9,163.8z"/>
					<path class="st24" d="M342.1,164l-0.2-0.2c-0.1-0.1-0.2-0.2,0.1,0.1C341.9,163.7,342,163.9,342.1,164z"/>
					<path class="st24" d="M342.1,163.9c-0.1-0.1-0.2-0.2-0.4-0.4C341.8,163.6,342.1,164,342.1,163.9z"/>
					<path class="st24" d="M340.8,162.6l-0.1-0.1L340.8,162.6C340.7,162.6,340.9,162.8,340.8,162.6z"/>
					<path class="st24" d="M342.5,164.4c-0.1-0.1-0.3-0.3-0.4-0.4l0.1,0.1C342.3,164.2,342.4,164.2,342.5,164.4z"/>
					<path class="st24" d="M342.1,164l-0.2-0.2C341.9,163.7,342,163.8,342.1,164z"/>
					<polygon class="st24" points="341.3,163.2 341.7,163.6 341.3,163.2 					"/>
					<polygon class="st24" points="342.6,164.4 342.8,164.6 342.4,164.3 					"/>
					<path class="st24" d="M342.5,164.3c0.2,0.2,0.3,0.3,0.5,0.5c0,0-0.2-0.2-0.4-0.4C342.7,164.5,342.7,164.5,342.5,164.3z"/>
					<path class="st24" d="M342.4,164.2c0,0,0.1,0.1,0.2,0.2C342.6,164.4,342.5,164.3,342.4,164.2z"/>
					<path class="st24" d="M342,163.8c0.1,0.1,0.2,0.2,0.3,0.3L342,163.8C342,163.8,342,163.8,342,163.8z"/>
					<path class="st24" d="M342,163.8L342,163.8C342,163.8,342,163.8,342,163.8C342,163.8,342,163.8,342,163.8z"/>
					<path class="st24" d="M342,163.8C342,163.8,342,163.8,342,163.8C342,163.8,341.9,163.8,342,163.8z"/>
					<path class="st24" d="M341.6,163.5c-0.2-0.2-0.3-0.4-0.6-0.6C341.2,163.1,341.4,163.2,341.6,163.5z"/>
					<path class="st24" d="M341.6,163.4L341.6,163.4c0,0,0.1,0.1,0.2,0.2L341.6,163.4z"/>
					<polygon class="st24" points="341.5,163.3 341.6,163.4 341.6,163.5 					"/>
					<path class="st24" d="M342.1,163.9c-0.1-0.1-0.1-0.1-0.2-0.2c-0.1-0.1-0.1-0.1-0.1-0.1C341.9,163.8,342.1,163.9,342.1,163.9z"
						/>
					<path class="st24" d="M342,163.9C342,163.8,342,163.8,342,163.9C342,163.8,342,163.8,342,163.9z"/>
					<path class="st24" d="M341.9,163.8C341.9,163.8,341.9,163.7,341.9,163.8C341.9,163.7,341.9,163.7,341.9,163.8L341.9,163.8z"/>
					<path class="st24" d="M341.8,163.6c-0.1-0.1,0,0,0.1,0.1C341.9,163.7,341.9,163.7,341.8,163.6
						C341.8,163.6,341.8,163.6,341.8,163.6z"/>
					<path class="st24" d="M342.2,164.1c-0.1-0.1-0.1-0.1-0.2-0.2C342.2,164,342.3,164.2,342.2,164.1z"/>
					<path class="st24" d="M342.1,163.9C342.1,163.9,342.1,163.9,342.1,163.9C342.2,164,342.1,164,342.1,163.9z"/>
					<path class="st24" d="M342.1,163.9c0,0-0.1-0.1-0.2-0.2C341.9,163.8,342,163.8,342.1,163.9C342,163.9,342.1,163.9,342.1,163.9z
						"/>
					<path class="st24" d="M340,161.8c0.3,0.3,0.5,0.5,0.2,0.2c0.2,0.2,1.1,1.1,1.6,1.6c-0.1-0.1-0.2-0.2-0.4-0.4
						c-0.2-0.2-0.4-0.4-0.6-0.6c-0.1-0.1,0.1,0.1,0.2,0.2c-0.3-0.3-0.5-0.5-1-1l0.2,0.2C340.2,162,340.1,161.9,340,161.8z"/>
					<path class="st24" d="M341.9,163.7L341.9,163.7c0.1,0.1,0.2,0.2,0.4,0.4C342.1,164,342,163.9,341.9,163.7L341.9,163.7
						L341.9,163.7z"/>
					<path class="st24" d="M341.9,163.7c-0.3-0.3-0.4-0.4-0.8-0.8c0,0,0.3,0.3,0.4,0.4C341.4,163.3,341.7,163.5,341.9,163.7
						C341.9,163.7,341.9,163.8,341.9,163.7c0.1,0.1,0.1,0.1,0.2,0.2c0,0,0,0,0,0l0,0c0,0,0,0,0,0c0,0-0.1-0.1,0,0c0,0,0,0,0,0
						C342,163.8,341.9,163.8,341.9,163.7c0.1,0.1,0.1,0.1,0.1,0.1c0,0,0,0,0,0c0,0,0,0,0,0L341.9,163.7
						C341.9,163.7,341.9,163.7,341.9,163.7z"/>
					<path class="st24" d="M340.4,162.2C340.4,162.2,340.4,162.2,340.4,162.2C340.4,162.2,340.4,162.2,340.4,162.2z"/>
					<path class="st24" d="M340.5,162.4c0,0,0.2,0.2,0.1,0.1c-0.1-0.1-0.1-0.1-0.2-0.2c0.1,0.1,0.2,0.2,0.4,0.4l0,0
						c0.1,0.1,0.5,0.5,0.5,0.5C341,162.8,340.8,162.7,340.5,162.4z"/>
					<path class="st24" d="M341.1,163l-0.1-0.2l-0.3-0.3l0.2,0.2C340.8,162.7,341,162.9,341.1,163z"/>
					<polygon class="st24" points="342.1,163.9 342.4,164.2 342,163.8 					"/>
					<polygon class="st24" points="342.1,163.9 342.3,164.2 342.2,164 					"/>
					<path class="st24" d="M338.6,160.3L338.6,160.3C338.6,160.3,338.6,160.3,338.6,160.3z"/>
					<path class="st24" d="M338.6,160.3l0.1,0.1C338.7,160.4,338.6,160.3,338.6,160.3z"/>
					<path class="st24" d="M342.1,163.8c0.3,0.3,0.7,0.7,0.4,0.4L342.1,163.8C342.2,163.9,342.1,163.9,342.1,163.8z"/>
					<path class="st24" d="M340.2,162C340.2,161.9,340.2,161.9,340.2,162c0,0,0.1,0.1,0.2,0.2C340.4,162.1,340.3,162,340.2,162z"/>
					<path class="st24" d="M339,160.7l0.2,0.2C339.1,160.8,339,160.8,339,160.7z"/>
					<path class="st24" d="M338.3,160l-0.3-0.3C338,159.7,338.2,159.9,338.3,160z"/>
					<path class="st24" d="M342,163.8c0.1,0.1,0.2,0.2,0.2,0.2C342,163.8,341.7,163.5,342,163.8z"/>
					<path class="st24" d="M341.9,163.6c-0.1-0.1-0.1-0.1-0.2-0.2C341.8,163.5,341.8,163.5,341.9,163.6z"/>
					<path class="st24" d="M342.1,163.9C342.1,163.9,342.1,163.9,342.1,163.9C342.1,163.9,342.2,164,342.1,163.9
						C342.3,164.1,342.4,164.2,342.1,163.9z"/>
					<path class="st24" d="M338.6,160.2C338.6,160.2,338.6,160.2,338.6,160.2C338.6,160.2,338.6,160.2,338.6,160.2z"/>
					<path class="st24" d="M341.7,163.3C341.7,163.3,341.7,163.3,341.7,163.3C341.8,163.4,341.8,163.4,341.7,163.3z"/>
					<path class="st24" d="M342.2,164C342.2,164,342.2,164,342.2,164L342.2,164z"/>
					<path class="st24" d="M341,162.8c0,0-0.1-0.1-0.1-0.1C340.9,162.7,341,162.8,341,162.8z"/>
					<path class="st24" d="M340.2,162L340.2,162C340.2,162,340.2,162,340.2,162z"/>
					<path class="st24" d="M342.1,163.9C342.1,163.9,342.1,163.9,342.1,163.9C342.1,163.9,342.1,163.9,342.1,163.9z"/>
					<path class="st24" d="M342.2,164C342.2,164,342.2,164,342.2,164C342.2,164,342.3,164.1,342.2,164z"/>
					<path class="st24" d="M342.2,164C342.2,164,342.2,164,342.2,164C342.2,164,342.2,164,342.2,164C342.2,164,342.2,164,342.2,164z
						"/>
					<path class="st24" d="M339.4,161.1C339.4,161.1,339.4,161.1,339.4,161.1C339.3,161,339.3,161,339.4,161.1z"/>
					<polygon class="st24" points="338.9,160.6 338.9,160.6 338.9,160.7 					"/>
					<path class="st24" d="M338.6,160.4c0.4,0.4,0.3,0.3,0.3,0.3l0.9,0.9L338.6,160.4z"/>
					<path class="st24" d="M338.6,160.3l-0.3-0.3c-0.5-0.5-0.3-0.3-0.7-0.7C338.6,160.3,337.7,159.4,338.6,160.3l-0.1-0.1
						c0,0,0,0,0,0c-0.5-0.5,0.7,0.7,0.6,0.6C338.9,160.6,338.8,160.5,338.6,160.3l0.3,0.3c0,0-0.2-0.2-0.2-0.2l0.1,0.1l0,0
						c0.1,0.2,0.4,0.4,0.5,0.5c-0.1-0.1-0.1-0.1-0.2-0.2l0.2,0.2c-0.2-0.2-0.5-0.5-0.5-0.5C337.8,159.5,339,160.7,338.6,160.3
						l-0.2-0.2c-0.5-0.5-0.3-0.3-0.7-0.7c0.2,0.2,0.9,0.9,1.1,1.1c-0.1-0.1-0.1-0.1,0.1,0.1C338.5,160.2,338.6,160.3,338.6,160.3
						l-0.4-0.4c0.1,0.1,0.4,0.4,0.6,0.6c0,0-0.4-0.4-0.7-0.7c-0.1-0.1,0.6,0.6,0.6,0.6c-0.2-0.2,0,0,0.3,0.3
						C338.8,160.5,338.7,160.4,338.6,160.3l0.4,0.4c0,0-0.1-0.1-0.2-0.2c0.1,0.1,0.5,0.5,0.6,0.6c0.5,0.5-0.7-0.7-0.2-0.2
						c-0.1-0.1-0.3-0.3-0.5-0.5c0.4,0.4,0.3,0.3,0.8,0.8l-0.3-0.3c0.3,0.3,0.7,0.7,1.1,1.1c0.2,0.2,0.3,0.3,0.4,0.4l0.2,0.2
						c-0.1-0.1-0.2-0.2-0.4-0.4c0,0,0.1,0.1,0.1,0.1c-0.2-0.2-0.4-0.4-0.7-0.7c0.1,0.1,0.2,0.2,0.3,0.3c-0.3-0.3-0.6-0.6-0.8-0.8
						c0.1,0.1,0.1,0.1,0.1,0.1c-0.1-0.1-0.1-0.1-0.2-0.2c0,0,0.1,0.1,0.2,0.2l-0.5-0.5l0.2,0.2l-0.3-0.3c0.5,0.5,1.3,1.3,1.5,1.5
						c-0.4-0.4-0.6-0.6-1-1c0.5,0.5-0.2-0.2-0.1-0.1c0,0-0.3-0.3-0.3-0.3l0.4,0.4c-0.4-0.4-0.3-0.3-0.4-0.4c0.7,0.7,0.5,0.5,0.7,0.7
						c-0.2-0.2-0.5-0.5-0.4-0.4c-0.5-0.5,0.8,0.8,0.4,0.4c0,0,0,0-0.1-0.1c0.2,0.2,0,0-0.2-0.2l0,0c-0.1-0.1,0,0,0.6,0.6
						c-0.1-0.1-0.7-0.7-0.8-0.8l2,2c-0.5-0.5-1.7-1.7-2-2c-0.1-0.1-0.2-0.2,0,0c0.1,0.1,0.7,0.7,0.8,0.8c-0.6-0.6-0.3-0.3-0.8-0.8
						c0.1,0.1,0.9,0.9,0.9,0.9c-0.1-0.1-0.8-0.8-0.9-0.9l0.8,0.8c-0.1-0.1-0.7-0.7-0.9-0.9c0.2,0.2,0,0,0.1,0.1l0.2,0.2
						c-0.1-0.1,1.1,1.1,1.1,1.1c-0.2-0.2-1-1-1.1-1.1c0.4,0.4,2,2,2.3,2.3l-0.2-0.2l0.3,0.3c-0.6-0.6-1.9-1.9-2.4-2.4
						c-0.2-0.2-0.3-0.3-0.3-0.3c-0.2-0.2-0.3-0.3-0.3-0.3l-0.1-0.1c0.5,0.5,0.5,0.5,0.9,0.9L338.6,160.3c0.5,0.6,1.3,1.4,1.3,1.4
						c-0.2-0.2-0.8-0.8-1-1c0.2,0.2,0.3,0.3,0.2,0.2l-0.3-0.3c-0.2-0.2,0.6,0.6,0.2,0.2c0,0-0.6-0.6-0.3-0.3
						c0.5,0.5,2.2,2.2,2.6,2.6c0,0-0.5-0.5-0.8-0.8c-0.4-0.4-1-1-1.4-1.4c0.1,0.1,0.3,0.3,0.3,0.3c-0.1-0.1-0.4-0.4-0.3-0.3
						c0.5,0.5,0,0,0.4,0.4c0.1,0.1-0.1-0.1-0.1-0.1c0.3,0.3,1.1,1.1,1.2,1.2c-0.1-0.1-0.3-0.3-0.4-0.4c0,0-0.3-0.3-0.3-0.3
						c-0.1-0.1-0.3-0.3-0.5-0.5c0.1,0.1,0.2,0.2,0.3,0.3c-0.4-0.4-0.1-0.1-0.6-0.6c0.3,0.3,0.4,0.4,0.6,0.6c0.4,0.4,0.1,0.1-0.1-0.1
						c0.6,0.6,1.2,1.2,1.5,1.5c0.1,0.1-0.4-0.4-0.3-0.3c-0.1-0.1,1,1,0.6,0.6c-0.4-0.4-0.8-0.8-1-1c-0.1-0.1,0.2,0.2,0.2,0.2
						l-0.2-0.2c-0.1-0.1-0.2-0.2-0.1-0.1c-0.3-0.3-0.1-0.1-0.4-0.4c0.1,0.1,0.3,0.3,0.4,0.4l-0.1-0.1c0.3,0.3,0.4,0.4,0.6,0.6
						c0.2,0.2,0.6,0.6,0.4,0.4l-0.4-0.4c0.1,0.1,0.3,0.3,0.1,0.1c0.2,0.2-0.6-0.6,0,0l0.3,0.3c0.2,0.2,0.7,0.7,0.5,0.5
						c0.4,0.4,0,0,0.5,0.5c-0.6-0.6,0,0-0.6-0.6c0.6,0.6,0.2,0.2,0.7,0.7c-0.1-0.1-0.3-0.3-0.2-0.2c0,0-0.1-0.1-0.1-0.1c0,0,0,0,0,0
						c0,0,0,0,0,0c0,0,0,0,0,0c-0.1-0.1-0.1-0.1-0.2-0.2c-0.3-0.3-0.3-0.3-0.5-0.5c0.1,0.1,0.2,0.2,0.3,0.3l-0.3-0.3
						c0.3,0.3,0.5,0.5,0.7,0.7l0,0c0.2,0.2,0.2,0.2,0.1,0.1c0.1,0.1-0.4-0.4-0.1-0.1l-0.2-0.2l0.1,0.1c0,0-0.5-0.5,0.1,0
						c-0.1-0.1-0.2-0.2-0.1-0.1l0.3,0.3c-0.1-0.1,0.3,0.3,0,0c0.7,0.7,0.2,0.2,0.3,0.3l-0.4-0.4c0,0-0.1-0.1-0.2-0.2l-0.3-0.3
						c-0.3-0.3,0.2,0.2,0.2,0.2c0.1,0.1,0.1,0.1,0,0c0.7,0.7-0.5-0.5,0,0c-0.1-0.1-0.1-0.1,0,0c0,0,0,0,0,0c0,0,0,0,0,0
						c0.1,0.1,0.1,0.1,0.2,0.2c-0.1-0.1-0.1-0.1-0.2-0.2c0,0,0,0-0.1-0.1l0.3,0.3c0,0,0,0,0,0c0.1,0.1-0.2-0.2-0.4-0.4
						c-0.1-0.1-0.1-0.1-0.2-0.2c0.5,0.5-0.2-0.2,0.4,0.4c-0.3-0.3-0.2-0.2-0.8-0.8c0.1,0.1,0.1,0.1,0.1,0.1c0.1,0.1,0.1,0.1,0,0
						l0.4,0.4l-0.6-0.6c0.3,0.3,0.4,0.4,0.8,0.8c-0.5-0.5-0.2-0.2-0.7-0.7l0.3,0.3c0,0-0.4-0.4-0.2-0.2c0.5,0.5,0.1,0.1,0.6,0.6
						c-0.8-0.8,0.4,0.4-0.3-0.3c0.2,0.2,0.3,0.3,0.5,0.5c-0.2-0.2,0.3,0.3-0.2-0.2c0.2,0.2,0.3,0.3,0.4,0.4c0,0-0.2-0.2-0.1-0.1
						c0.1,0.1,0.2,0.2,0.2,0.2c0,0-0.6-0.6-1.2-1.2c0.3,0.3,0.2,0.2-0.1-0.1c0.2,0.2,0.4,0.4,0.4,0.4c0,0,0.3,0.3-0.2-0.2
						c0.1,0.1,0,0,0,0c0,0,0.1,0.1,0,0l-0.1-0.1c-0.5-0.5-0.1-0.1-0.2-0.2l0.1,0.1c0.4,0.4-0.2-0.2,0.3,0.3l-0.3-0.3
						c-0.7-0.7,0.4,0.4,0.2,0.1l-0.2-0.2c-0.2-0.2,1,1,1.1,1.1c0.1,0.1,0.1,0.1,0.1,0.1c0.4,0.4-0.4-0.4-0.5-0.5
						c0.2,0.2,0.6,0.6,0.7,0.7c0.2,0.2-0.8-0.8-0.3-0.3c-0.2-0.2-0.4-0.4-0.5-0.5c-0.1-0.1,0.7,0.7,0.1,0.1c0.1,0.1,0.1,0.1,0.1,0.1
						c-0.1-0.2-0.2-0.3-0.6-0.6c1.2,1.2-0.6-0.6,0.5,0.5l-0.1-0.1l0.1,0.1c0.1,0.1-0.2-0.2-0.4-0.4c0.1,0.1,0.2,0.2,0.2,0.2
						c0.2,0.2,0.2,0.2-0.4-0.4l0.4,0.4c-0.2-0.2,0.6,0.5,0.1,0.1c0,0,0.1,0.1,0.2,0.2c-0.4-0.4,1,1-0.3-0.3l-0.3-0.3
						c-0.1-0.1-0.6-0.6-0.8-0.8c-0.1-0.1,0.4,0.4,0.5,0.5l-0.1-0.1c0.7,0.7,0.2,0.2,0.7,0.7c0,0,0.3,0.3,0.4,0.4l-0.5-0.5l0,0
						c0.1,0.1,0.4,0.4,0.4,0.4c0.3,0.3-0.2-0.2-0.4-0.4c0.2,0.2,0.6,0.6,0.6,0.6l0,0l-0.1-0.1c-0.2-0.2-0.4-0.4-0.4-0.4
						c0.1,0.1,0.3,0.3,0.3,0.3c0,0,0.1,0.1,0,0l0,0l-0.4-0.4c-0.2-0.2,0,0-0.4-0.4c0.7,0.7,0.3,0.3,0.5,0.5
						c-0.3-0.3-0.3-0.3-0.3-0.3c-0.1-0.1-0.5-0.5-0.5-0.5c0.9,0.9,0.4,0.4,1.1,1.1c-0.5-0.5-0.1-0.1-0.8-0.8
						c0.1,0.1,0.4,0.4,0.6,0.6c-0.4-0.4,0.2,0.2,0.1,0.1c-0.1-0.1-0.3-0.3-0.5-0.5l0.6,0.6c-0.1-0.1-0.7-0.7-0.3-0.3
						c-0.1-0.1-0.3-0.3-0.3-0.3c0.6,0.6-0.5-0.5,0.7,0.6c-0.2-0.2-0.3-0.3-0.3-0.3c-0.1-0.1-0.3-0.3-0.5-0.5l0.5,0.5
						c-0.5-0.5,0,0-0.5-0.5l0.1,0.1c-0.5-0.5-1.2-1.2-1.9-1.9c0.6,0.6-0.9-0.9,0,0c-0.1-0.1-0.2-0.2-0.4-0.4
						c0.3,0.3,0.4,0.4,0.2,0.2l-0.1-0.1c0.1,0.1-0.2-0.2-0.4-0.4l0.3,0.3c0,0-0.2-0.1-0.2-0.2c0.5,0.5,0,0,0.6,0.6
						c-0.7-0.7,0,0-0.8-0.8c0,0,0.4,0.4,0.4,0.4l-0.2-0.2l0.3,0.3c0,0-0.3-0.3-0.5-0.5C338.7,160.3,338.6,160.2,338.6,160.3
						C338.4,160,338.7,160.3,338.6,160.3l0.2,0.1c0.2,0.2-0.1-0.1,0.3,0.4l0.2,0.2c0.3,0.3-0.2-0.2,0,0l0,0c0.2,0.2,0.2,0.2,0.2,0.2
						c-0.2-0.2-0.4-0.4-0.6-0.6c0.3,0.3,0.2,0.2,0.8,0.8l-0.3-0.3c0.2,0.2,0.4,0.4,0.4,0.4c-0.2-0.2-0.4-0.4-0.7-0.7
						c-0.6-0.6,0.6,0.6-0.3-0.3c0.7,0.7,0.4,0.4,0.6,0.6c0.2,0.2,0.5,0.5,0.5,0.5c0,0-0.9-0.9-0.9-0.9c0,0-0.1-0.1,0,0
						c-0.2-0.2,0.2,0.3-0.1,0c0.4,0.4,0,0,0.5,0.5l-0.1-0.1c0.1,0.1,0.8,0.8,0.5,0.5c-0.1-0.1-0.3-0.3-0.3-0.3
						c-0.2-0.2,0.1,0.1-0.1-0.1c-0.6-0.6-0.1-0.1-0.5-0.6C338.6,160.2,339.2,160.9,338.6,160.3c0.8,0.8,0-0.1,0.5,0.5l-0.3-0.3
						c0.1,0.1,0.2,0.2,0.2,0.2L338.6,160.3c0.3,0.3-0.4-0.4-0.2-0.2c0,0,0.4,0.4,0.7,0.6c0.4,0.5-0.9-0.9-0.7-0.7
						c0,0,0.2,0.2,0.4,0.4c-0.1-0.1-0.2-0.2-0.4-0.4c0.1,0.1,0.3,0.3,0.6,0.6c-0.4-0.4,0.2,0.2,0.3,0.3l-0.3-0.3
						c-0.2-0.2,0.7,0.7,0.4,0.4l-0.5-0.5l0.1,0.1L338.6,160.3C338.8,160.5,338.8,160.4,338.6,160.3c0.3,0.3,0.7,0.7,0.7,0.7
						c-0.2-0.2-0.3-0.3-0.3-0.3c-0.2-0.2-0.5-0.5-0.2-0.2C338.7,160.4,338.6,160.3,338.6,160.3c-0.3-0.3-0.1-0.1-0.1-0.1
						C338.5,160.1,338.5,160.2,338.6,160.3l0.4,0.4c-0.1-0.1-0.2-0.2-0.3-0.3c0,0,0.2,0.2,0.2,0.2c-0.3-0.3-0.6-0.6-0.7-0.7
						L338.6,160.3c-0.2-0.2-0.4-0.4-0.5-0.5c-0.2-0.2,0.5,0.5,0.3,0.3C338.4,160.1,338.5,160.2,338.6,160.3
						C338.5,160.2,338.1,159.8,338.6,160.3l-0.5-0.6c0.1,0.1,0.6,0.6,0.8,0.8c0.2,0.2-0.4-0.4-0.6-0.6
						C338.5,160.2,339,160.7,338.6,160.3C338.5,160.2,338.6,160.3,338.6,160.3z M338.8,160.5C338.7,160.4,338.5,160.2,338.8,160.5
						C339.1,160.8,338.9,160.6,338.8,160.5z M339.6,161.3C339.5,161.2,339.5,161.3,339.6,161.3C339.7,161.4,339.7,161.4,339.6,161.3
						z M341.9,163.7C341.9,163.7,341.9,163.7,341.9,163.7C342,163.8,342,163.8,341.9,163.7z M341.8,163.6c0,0,0.1,0.1,0.1,0.1
						C341.8,163.6,341.8,163.6,341.8,163.6C341.8,163.6,341.7,163.5,341.8,163.6z M341.7,163.4L341.7,163.4
						C341.5,163.2,341.6,163.3,341.7,163.4z"/>
					<path class="st24" d="M339.1,160.8c0.1,0.1,0.1,0.1,0.2,0.2C339.2,161,339.2,160.9,339.1,160.8z"/>
					<path class="st24" d="M338.4,160.1C338.4,160.1,338.4,160.1,338.4,160.1C338.4,160.1,338.4,160,338.4,160.1L338.4,160.1z"/>
					<path class="st24" d="M338.9,160.7c0,0,0.1,0.1,0.2,0.2C339,160.8,338.9,160.7,338.9,160.7z"/>
					<path class="st24" d="M342.3,164.2L342.3,164.2c-0.1-0.1-0.1-0.1-0.2-0.2C342.2,164,342.3,164.2,342.3,164.2z"/>
					<path class="st24" d="M340.2,162.1C340.3,162.1,340.2,162.1,340.2,162.1l0.2,0.2C340.4,162.3,340.3,162.1,340.2,162.1z"/>
					<path class="st24" d="M341.2,163c-0.3-0.3-0.2-0.2-0.1-0.1c0,0,0,0,0,0C341.5,163.3,341.3,163.2,341.2,163z"/>
					<path class="st24" d="M341.1,162.9C341.1,162.9,341.1,162.9,341.1,162.9C341.3,163.1,341.1,162.9,341.1,162.9z"/>
					<path class="st24" d="M342,163.8c-0.1-0.1,0.4,0.4,0.3,0.3C342.6,164.4,341.8,163.6,342,163.8z"/>
					<polygon class="st24" points="340.3,162.1 340.6,162.4 340.3,162.2 					"/>
					<path class="st24" d="M340.5,162.3L340.5,162.3C340.5,162.3,340.5,162.3,340.5,162.3C340.6,162.4,340.6,162.4,340.5,162.3z"/>
					<path class="st24" d="M340.6,162.4C340.5,162.4,340.6,162.4,340.6,162.4C340.6,162.4,340.6,162.4,340.6,162.4z"/>
					<polygon class="st24" points="340.2,162 340.2,162.1 340.3,162.1 					"/>
					<path class="st24" d="M340.6,162.4l-0.1-0.1c-0.1-0.1-0.2-0.2-0.1-0.1C340.4,162.2,340.5,162.3,340.6,162.4z"/>
					<path class="st24" d="M339.6,161.4c0.1,0.1,0.2,0.2,0.3,0.3l-0.4-0.4L339.6,161.4z"/>
					<path class="st24" d="M339.5,161.3c-0.1-0.1-0.3-0.4-0.3-0.3C339.3,161.1,339.4,161.2,339.5,161.3z"/>
					<polygon class="st24" points="340.1,161.9 340.1,161.9 340.8,162.6 					"/>
					<path class="st24" d="M338.4,160.1c-0.2-0.2,0.4,0.4,0.2,0.2c0.2,0.2,0.2,0.2,0.3,0.3C338.8,160.5,338.9,160.6,338.4,160.1z"/>
					<path class="st24" d="M338.9,160.7c0,0,0.1,0.1,0.1,0.1C339,160.8,339,160.7,338.9,160.7z"/>
					<polygon class="st24" points="342.1,163.7 342.3,163.8 342,163.6 					"/>
					<path class="st24" d="M341.6,163.2l0.5,0.5L341.6,163.2C341.6,163.2,341.7,163.3,341.6,163.2z"/>
					<path class="st24" d="M337.9,159.6l0.1,0.1c0.1,0.1,0.1,0.1,0.1,0.1L337.9,159.6z"/>
					<polygon class="st24" points="338.2,159.9 338.2,159.9 338.6,160.3 					"/>
					<path class="st24" d="M337.7,159.4C337.7,159.3,337.8,159.4,337.7,159.4C337.7,159.3,338.2,159.9,337.7,159.4z"/>
				</g>
				<g>
					<g>
						<path class="st32" d="M408.6,82.6c-14.1,14.1-21.8,32.8-21.8,52.6c0,19.9,7.7,38.6,21.8,52.6c14.1,14.1,32.8,21.8,52.6,21.8
							s38.6-7.7,52.6-21.8c14.1-14.1,21.8-32.8,21.8-52.6c0-19.9-7.7-38.6-21.8-52.6c-14.1-14.1-32.8-21.8-52.6-21.8
							S422.7,68.6,408.6,82.6z M410.1,256.4c-15.7-6.6-29.7-16.1-41.8-28.2c-12.1-12.1-21.6-26.1-28.2-41.8
							c-6.9-16.2-10.3-33.5-10.3-51.2c0-17.7,3.5-35,10.3-51.2c6.6-15.7,16.1-29.7,28.2-41.8s26.1-21.6,41.8-28.2
							c16.2-6.9,33.5-10.3,51.2-10.3c17.7,0,35,3.5,51.2,10.3c15.7,6.6,29.7,16.1,41.8,28.2c12.1,12.1,21.6,26.1,28.2,41.8
							c6.9,16.2,10.3,33.5,10.3,51.2c0,17.7-3.5,35-10.3,51.2c-6.6,15.7-16.1,29.7-28.2,41.8c-12.1,12.1-26.1,21.6-41.8,28.2
							c-16.2,6.9-33.5,10.3-51.2,10.3C443.5,266.8,426.3,263.3,410.1,256.4z"/>
					</g>
					<g>
						<g>
							<path class="st9" d="M327.2,126c0.6-8.8,2-17.6,4.3-26.1l60.6,16.4c-1.1,4.6-1.8,9.7-2.1,15.2c-0.4,6.9,0.1,13.6,1.5,19.8
								l-60.3,15.7C327.7,153.7,326.4,139.8,327.2,126z"/>
						</g>
						<g>
							<path class="st9" d="M596.3,126.1c-0.5-8.8-1.9-17.6-4.2-26.1l-60.6,16.3c1,4.6,1.8,9.7,2.1,15.3c0.4,6.9-0.2,13.6-1.6,19.8
								l60.3,15.8C595.8,153.8,597.1,139.9,596.3,126.1z"/>
						</g>
						<g>
							<path class="st9" d="M464.9-0.1c8.8,0.2,17.6,1.3,26.2,3.3L477,64.4c-4.7-0.9-9.8-1.4-15.3-1.6c-6.9-0.2-13.6,0.7-19.8,2.2
								L424,5.4C437.3,1.4,451.1-0.4,464.9-0.1z"/>
						</g>
						<g>
							<path class="st9" d="M475.6,268.6c8.8-0.8,17.5-2.4,26-5l-0.9-2.9L484.4,206l-0.8-2.6c-4.6,1.2-9.7,2-15.2,2.5
								c-6.9,0.6-13.6,0.2-19.9-1l-14.1,60.7C447.9,268.8,461.8,269.8,475.6,268.6z"/>
						</g>
					</g>
				</g>
				<path class="st18" d="M388.7,152.1l-55.3,14.4c0,0,1.7,6.6,3,10.4L388.7,152.1z"/>
				<path class="st18" d="M484.4,206l16.3,54.7c0,0,6.6-2.3,7.9-2.8C509.9,257.5,484.4,206,484.4,206z"/>
				<path class="st18" d="M533.1,115.8l55.2-14.8c0,0-2-6.7-2.1-6.9C586.2,93.8,533.1,115.8,533.1,115.8z"/>
				<path class="st18" d="M441.1,63.3L425,8.8c0,0-5.9,1.8-8.7,2.8L441.1,63.3z"/>
			</g>
		</g>
	</g>
	<g>
		<path class="st18" d="M420.6,214.2c1.8-0.7,3.5-1.7,5.7-2c2.2-0.3,4.5,0,6.7,0.3c8.2,1.3,16.5,3,24.8,2.2
			c4.4-0.4,6.8,0.2,10.3,2.6c3.9,2.7,7.8,4.5,12.7,3.4c0.8-0.2,1.7-0.5,2.3-1c0.7-0.6,1.1-1.6,1.2-2.5c0.5-3.6,1-8.9-2.4-10.2
			c-9.9-4-21.9,1.4-32,0c-6.1-0.8-12.3,0.2-18-2c-3.8-1.4-7.6-2.8-11.4-4.2c-2.5-0.9-8.2-3.8-10.9-2.9c-3.6,1.1-3.2,6.6-2.3,9.4
			c1.2,3.4,4,6.5,7.5,7.4C417.2,215.2,418.9,214.8,420.6,214.2z"/>
		<g>
			<path class="st28" d="M403.4,200c-0.4-3.5,2-7.2,5.5-8.2c3.4-1,7.4,0.9,8.9,4.1c0.8,1.8,0.9,3.8,0.9,5.8c0,1.9,0,3.9-1,5.6
				c-1.5,2.6-5,3.7-7.8,2.9c-2.9-0.9-5.1-3.4-6-6.3c-0.9-2.9-0.6-6,0.2-8.9l62,9c-0.8,2.9-1.1,6-0.2,8.9c0.9,2.9,3.1,5.4,6,6.3
				c2.9,0.9,6.4-0.2,7.8-2.9c0.9-1.7,1-3.7,1-5.6c0-2-0.1-4-0.9-5.8c-1.5-3.2-5.5-5.1-8.9-4.1c-3.4,1-5.9,4.6-5.5,8.2L403.4,200z"/>
		</g>
	</g>
</g>
</svg>
