<?xml version="1.0" encoding="utf-8"?>
<!-- Generator: Adobe Illustrator 24.3.0, SVG Export Plug-In . SVG Version: 6.00 Build 0)  -->
<svg version="1.1" id="Layer_1" xmlns="http://www.w3.org/2000/svg" xmlns:xlink="http://www.w3.org/1999/xlink" x="0px" y="0px"
	 viewBox="0 0 249.1 168.1" style="enable-background:new 0 0 249.1 168.1;" xml:space="preserve">
<style type="text/css">
	.st0{fill:#1F3756;}
	.st1{fill:#BBBAB2;}
	.st2{fill:#F6F3E6;}
	.st3{fill:#DDDBD1;}
	.st4{opacity:0.8;fill:#FFFFFF;}
	.st5{fill:#FFFFFF;}
	.st6{fill:#F26D80;}
	.st7{fill:#5277A6;}
	.st8{fill:#00618F;}
	.st9{fill:#C72C5E;}
	.st10{fill:#EF4637;}
	.st11{fill:#549F45;}
</style>
<g>
	<g>
		<g>
			<g>
				<path class="st0" d="M6.3,9c0,0-3.5,2.5-3.5,7c0,4.6-0.1,125.8-0.1,136.6c0,10.8,3.3,11.2,8.5,11.2c5.2,0,89.1,0,98.3,0
					c9.1,0,11.3,0.5,12.9,1.7c1.6,1.2,3.6,1,5.2,0.2c1.6-0.9,5-0.9,7.5-0.9c2.5,0,70.8,0,81.3,0c10.4,0,19.7,0,23.6,0
					c3.1,0,6.2-1.7,6.2-7.1c0-5.4,0.1-136.8,0.1-141.4c0-4.7,0.2-6.8-3.9-6.8C238.3,9.6,6.3,9,6.3,9z"/>
				<path class="st1" d="M11.8,5.1c0,0-7.6,0.9-7.6,8.8c0,7.9-0.1,130.9-0.1,138.5c0,6.8,0.1,10.7,5.7,10.7c5.6,0,91.2,0,98.3,0
					c7.1,0,12.4-0.2,14.6,1.4c2.2,1.6,2.9,1.2,4.9,0.2c2-1,11.6-0.4,19.4-0.4c7.9,0,74.3,0,83.8,0c9.5,0,14.5,0.5,14.5-7.7
					c0-8.2,0.1-116.3,0.1-125.6c0-9.2,0-12.4,0-17.2c0-4.9-1-6.6-3.1-6.6C240.2,7.3,11.8,5.1,11.8,5.1z"/>
				<path class="st1" d="M12.6,5.1c0,0-7.6,0.9-7.6,8.8C5,21.7,5,144.3,5,151.9c0,6.8,0.1,10.7,5.6,10.7c5.5,0,90.6,0,97.6,0
					c7,0,12.3-0.2,14.5,1.4c2.2,1.6,2.9,1.2,4.9,0.2c1.9-1,11.5-0.4,19.3-0.4c7.8,0,73.7,0,83.2,0c9.5,0,14.4,0.5,14.4-7.7
					c0-8.2,0.1-116,0.1-125.2c0-9.2,0-12.3,0-17.2c0-4.9-1-6.6-3.1-6.6C239.3,7.3,12.6,5.1,12.6,5.1z"/>
				<path class="st2" d="M109,4.1c0,0,4.9,0,9.2,0c4.3,0,7.3,1.6,7.3,4.1c0,2.4-0.1,156-0.1,156s-1.9-1.9-6.8-1.9
					c-4.9,0-75.6,0-84.8,0c-5.2,0-21.2,0-23.1,0c-2,0-4.5-1.2-4.5-6.3c0-5.1,0-84.1,0-96.1c0-12,0-35,0-42.1c0,0,0-0.9,0-4.7
					c0-3.8,1-8.9,9.1-8.9C23.7,4.1,109,4.1,109,4.1z"/>
				<path class="st2" d="M125.6,8.2c0,0,0.4-4.1,4.7-4.1c4.3,0,106.4,0.1,108.8,0.1c2.4,0,4.5,0.8,4.5,4.5c0,3.7,0,71.4,0,80.5
					c0,0,0,63,0,66.7c0,5.9-2.9,7.5-8.6,7.5c-5.7,0-102.9-0.1-105.2-0.1c-1.2,0-4.1,0-4.1,1.3L125.6,8.2z"/>
				<g>
					<path class="st2" d="M118.2,4.1c-1.6,0-3.3,0-4.8,0c3,2.2,8.1,5.8,8.1,11.8c0,17.8,0,99-0.1,119.9c0,15.9-2.9,23.7-13.3,26.4
						c5.6,0,9.5,0,10.5,0c4.9,0,6.8,1.9,6.8,1.9s0.1-153.6,0.1-156C125.6,5.7,122.6,4.1,118.2,4.1z"/>
				</g>
				<g>
					<path class="st2" d="M130.1,149.7c0-7.1,0.1-121.3,0.1-134.2c0-6.4,3.7-9.7,7.3-11.4c-4.1,0-6.7,0-7.3,0
						c-4.3,0-4.7,4.1-4.7,4.1l0,156.4c0-1.3,2.9-1.3,4.1-1.3c0.4,0,4.3,0,10.2,0C133.5,161.7,130.1,154.9,130.1,149.7z"/>
				</g>
				<path class="st3" d="M124.9,7.1l0.4,156C125.3,163.1,127.6,15.2,124.9,7.1z"/>
				<path class="st4" d="M8.2,6.7c0,0-0.1,0-0.1,0.1C8,6.9,8,7,7.9,7C7.9,7.1,7.8,7.2,7.7,7.3C7.6,7.5,7.5,7.8,7.3,8.2
					C7.2,8.5,7.1,8.9,6.9,9.4c-0.1,0.5-0.2,1-0.3,1.6c-0.1,0.6-0.2,1.2-0.2,1.9c0,0.7,0,1.4,0,2.1c0,0.7,0,1.5,0,2.4
					c0,3.3,0,7.1,0.1,11.2c0,4.1,0,8.5,0,12.9c0,4.4,0,8.8,0,12.9c0,4.1-0.1,7.9-0.1,11.2c0,3.3-0.1,6-0.1,7.9c0,1.9-0.1,3-0.1,3
					s0-1.1,0-3c0-1.9-0.1-4.7-0.1-7.9c0-3.3,0-7.1-0.1-11.2c0-4.1,0-8.5,0-12.9c0-4.4,0-8.8,0-12.9c0-4.1,0.1-7.9,0.1-11.2
					c0-0.8,0-1.6,0-2.4c0-0.7,0.1-1.5,0.1-2.1c0.1-0.7,0.2-1.3,0.2-1.9c0.1-0.6,0.3-1.1,0.4-1.6C7,8.9,7.1,8.5,7.3,8.1
					c0.2-0.3,0.3-0.6,0.5-0.8C7.8,7.2,7.9,7.1,7.9,7C8,7,8,6.9,8.1,6.8C8.2,6.7,8.2,6.7,8.2,6.7z"/>
				<path class="st4" d="M243.5,9.2c0,0,0,1,0,2.8c0,1.8,0.1,4.4,0.1,7.5c0,3.1,0,6.7,0.1,10.6c0,3.9,0,8,0,12.1c0,4.1,0,8.2,0,12.1
					c0,3.9-0.1,7.5-0.1,10.6c0,3.1-0.1,5.7-0.1,7.5c0,1.8-0.1,2.8-0.1,2.8s0-1-0.1-2.8c0-1.8-0.1-4.4-0.1-7.5c0-3.1,0-6.7-0.1-10.6
					c0-3.9,0-8,0-12.1c0-4.1,0-8.2,0-12.1c0-3.9,0.1-7.5,0.1-10.6c0-3.1,0.1-5.7,0.1-7.5C243.5,10.2,243.5,9.2,243.5,9.2z"/>
			</g>
		</g>
		<path class="st5" d="M242.5,53.9v-41c0,0,0.7-7.2-6.7-7.9h-37.8l37.4,0.9c0,0,5.6,0.7,6.1,7L242.5,53.9z"/>
		<path class="st5" d="M7.4,54.5v-41c0,0-0.7-7.2,6.7-7.9h37.8L14.4,6.4c0,0-5.6,0.7-6.1,7L7.4,54.5z"/>
	</g>
	<g>
		<path class="st6" d="M220.8,81.4l-35,9.8c-4.2,1.2-6.6,5.6-5.4,9.9l6.2,22.1c1.2,4.3,5.6,6.8,9.8,5.6l35-9.8
			c4.2-1.2,6.6-5.6,5.4-9.9L230.5,87C229.3,82.7,225,80.2,220.8,81.4z M234.5,108.6c1.1,3.9-1.2,7.9-5,9l-32.3,9.1
			c-3.9,1.1-7.9-1.2-9-5l-5.6-20.1c-1.1-3.9,1.2-7.9,5-9l32.3-9.1c3.9-1.1,7.9,1.2,9,5L234.5,108.6z"/>
		<path class="st6" d="M202.9,111.4c-0.2,0-0.6,0.1-1.3,0.3l-1.7,0.5l1.8,6.3l1-0.3l-0.7-2.4l0.7-0.2c0.6-0.2,1.1-0.4,1.3-0.6
			c0.2-0.2,0.4-0.5,0.5-0.8c0.1-0.4,0.1-0.8-0.1-1.2c-0.1-0.5-0.4-0.9-0.6-1.2C203.6,111.5,203.3,111.4,202.9,111.4z M203,113.9
			c0,0-0.2,0.1-0.7,0.2l-0.2,0.1l-0.3-1.1l0.2,0c0.6-0.2,0.7-0.2,0.8-0.2c0.1,0,0.1,0,0.2,0.1c0.1,0.1,0.1,0.2,0.2,0.3
			c0,0.1,0,0.3,0,0.4C203.1,113.8,203,113.9,203,113.9z"/>
		
			<rect x="201.7" y="95" transform="matrix(0.9624 -0.2717 0.2717 0.9624 -19.7528 58.8452)" class="st6" width="1.9" height="11.5"/>
		<path class="st6" d="M209.4,113.9c-0.2-0.1-0.4-0.3-0.7-0.4c0.4-0.2,0.7-0.5,0.9-0.9c0.2-0.4,0.2-0.8,0-1.3
			c-0.1-0.4-0.3-0.7-0.5-0.9c-0.2-0.2-0.5-0.4-0.8-0.4c-0.3,0-0.7,0-1.3,0.2l-2.2,0.6l1.8,6.3l1-0.3l-0.7-2.6l0.2-0.1
			c0.2-0.1,0.4-0.1,0.5-0.1c0.1,0,0.3,0.1,0.4,0.2c0.1,0.1,0.4,0.4,0.8,0.8l1.1,1.2l1.2-0.4l-1-1.1
			C209.9,114.3,209.6,114,209.4,113.9z M208.1,112.3c0,0-0.2,0.1-0.8,0.3l-0.4,0.1l-0.3-0.9l0.5-0.1c0.6-0.2,0.7-0.2,0.7-0.2
			c0.1,0,0.1,0,0.2,0.1c0.1,0.1,0.1,0.1,0.1,0.3c0,0.1,0,0.3,0,0.3C208.2,112.2,208.1,112.3,208.1,112.3z"/>
		<path class="st6" d="M198.1,112.8c-0.2,0-0.6,0.1-1.3,0.3l-1.7,0.5l1.8,6.3l1-0.3l-0.7-2.4l0.7-0.2c0.6-0.2,1.1-0.4,1.3-0.6
			c0.2-0.2,0.4-0.5,0.5-0.8c0.1-0.4,0.1-0.8-0.1-1.2c-0.1-0.5-0.4-0.9-0.6-1.2C198.7,112.9,198.4,112.8,198.1,112.8z M198.1,115.3
			c0,0-0.2,0.1-0.7,0.2l-0.2,0.1l-0.3-1.1l0.2,0c0.6-0.2,0.7-0.2,0.8-0.2c0.1,0,0.1,0,0.2,0.1c0.1,0.1,0.1,0.2,0.2,0.3
			c0,0.1,0,0.3,0,0.4C198.2,115.2,198.2,115.3,198.1,115.3z"/>
		<polygon class="st6" points="199.2,107.7 199.3,95.7 197.4,96.3 197.4,105.1 192.8,97.5 190.8,98.1 197.2,108.3 		"/>
		<path class="st6" d="M212.4,108.5c-0.5,0.1-0.9,0.4-1.2,0.7c-0.3,0.3-0.5,0.8-0.6,1.3c-0.1,0.6,0,1.2,0.2,2c0.3,1,0.8,1.8,1.4,2.2
			c0.6,0.4,1.2,0.5,2,0.3c0.7-0.2,1.3-0.6,1.5-1.3c0.3-0.7,0.3-1.6,0-2.7c-0.3-1-0.8-1.8-1.4-2.2
			C213.8,108.4,213.1,108.3,212.4,108.5z M214.4,113c-0.3,0.7-0.9,0.9-1.5,0.4c-0.3-0.2-0.6-0.7-0.7-1.3c-0.2-0.7-0.2-1.2-0.1-1.5
			c0.1-0.3,0.3-0.5,0.7-0.6c0.3-0.1,0.6,0,0.9,0.2c0.3,0.2,0.5,0.7,0.7,1.3C214.5,112.1,214.6,112.7,214.4,113z"/>
		<path class="st6" d="M191.4,114.5l-0.2,6.9l1.1-0.3l0-1.6l2.1-0.6l0.9,1.3l1.1-0.3l-3.9-5.8L191.4,114.5z M192.7,117.9l0-0.9
			l0.5,0.7L192.7,117.9z"/>
		<path class="st6" d="M214.9,91.3l-0.4,12.1l2-0.5l0-2.7l3.6-1l1.5,2.3l2-0.6l-6.8-10.1L214.9,91.3z M216.8,97.6l0-2.8l1.5,2.3
			L216.8,97.6z"/>
		<polygon class="st6" points="222.6,109.6 225.2,108.8 224.9,107.8 222.3,108.5 221.9,107.1 224.7,106.3 224.4,105.2 220.6,106.3 
			222.4,112.7 226.3,111.6 226,110.5 223.1,111.3 		"/>
		<polygon class="st6" points="219,111.8 216.3,107.5 215.2,107.8 218.8,113.7 220,113.3 220,106.5 218.9,106.8 		"/>
		<path class="st6" d="M229.3,104.6c-0.3-0.2-0.6-0.3-0.8-0.4c-0.3,0-0.7,0-1.1,0.1l-1.9,0.5l1.8,6.3l2-0.6c0.4-0.1,0.8-0.3,1-0.5
			c0.2-0.2,0.4-0.4,0.5-0.7c0.1-0.3,0.2-0.7,0.2-1.1c0-0.4-0.1-0.9-0.2-1.5c-0.2-0.6-0.4-1.1-0.6-1.5
			C229.8,105.1,229.6,104.8,229.3,104.6z M229.4,108.4c0,0.3,0,0.5,0,0.5c0,0.1-0.1,0.2-0.2,0.2c-0.1,0-0.2,0.1-0.6,0.2l-0.4,0.1
			l-1-3.5l0.1,0c0.5-0.1,0.7-0.2,0.8-0.2c0.1,0,0.3,0,0.4,0.1c0.1,0.1,0.3,0.2,0.4,0.4c0.1,0.2,0.3,0.6,0.4,1
			C229.3,107.8,229.4,108.1,229.4,108.4z"/>
		<path class="st6" d="M210.8,97.9c-0.5-0.2-1.2-0.3-2.2-0.3c-0.9,0-1.6-0.1-1.9-0.2c-0.3-0.1-0.5-0.4-0.6-0.7
			c-0.1-0.3,0-0.6,0.2-0.9c0.2-0.3,0.6-0.5,1.1-0.6c0.5-0.1,0.9-0.1,1.2,0c0.3,0.2,0.6,0.5,0.9,1.1l1.8-0.6
			c-0.3-1.1-0.9-1.8-1.6-2.2c-0.8-0.4-1.7-0.5-2.8-0.2c-0.7,0.2-1.3,0.5-1.7,0.9c-0.4,0.4-0.7,0.9-0.8,1.4c-0.1,0.6-0.1,1.1,0,1.8
			c0.1,0.5,0.4,1,0.7,1.4c0.3,0.4,0.7,0.7,1.2,0.8c0.4,0.2,1.1,0.3,1.9,0.3c0.9,0,1.5,0.1,1.8,0.1c0.3,0,0.5,0.1,0.6,0.3
			c0.2,0.1,0.3,0.3,0.3,0.6c0.1,0.4,0.1,0.8-0.2,1.2c-0.2,0.4-0.6,0.6-1.2,0.8c-1.1,0.3-2-0.2-2.6-1.6l-1.7,0.7
			c1,2.5,2.6,3.4,4.8,2.8c1.3-0.4,2.1-0.9,2.5-1.8c0.4-0.8,0.5-1.7,0.2-2.7c-0.2-0.7-0.5-1.2-0.8-1.6
			C211.8,98.4,211.3,98.1,210.8,97.9z"/>
	</g>
	<g>
		<path class="st7" d="M104.5,119.3l1.2-0.5c0,0,0,0,0,0l0,0c0,0-0.7-0.8-0.8-0.9c-0.1,0-3.9,0.2-5.7,0.3c0,0,0-0.1-0.1-0.1
			c-0.4-0.7-0.8-1.4-1.2-2.1c0-0.1-0.1-0.1-0.1-0.2c-0.2-0.4-0.4-0.7-0.7-1.1c0-0.1-0.1-0.1-0.1-0.2c-0.2-0.4-0.4-0.7-0.7-1.1
			c0,0,0-0.1,0-0.1l0,0c-0.9-1.4-1.7-2.8-2.6-4.2l1.7-0.7c0,0,0,0,0,0c0,0,0,0,0,0c0,0,0,0,0,0l0,0c0.1,0,0.1,0.1,0.1,0.1
			c0,0,0,0,0,0l0,0c0,0,0.1,0,0.1-0.1l0,0c0,0,0,0,0,0c0,0,0-0.1-0.1-0.1c0,0,0,0,0,0c0,0,0,0,0,0c0,0,0,0,0,0l1.6-0.6l0,0
			c0,0,0,0,0,0c0,0,0,0,0,0v0c0,0,0.1,0.1,0.1,0.1c0,0,0,0,0,0l0,0c0,0,0.1,0,0.1-0.1l0,0c0,0,0,0,0,0c0,0,0-0.1-0.1-0.1
			c0,0,0,0,0,0c0,0,0,0,0,0c0,0,0,0,0,0l1.3-0.5l0.4-0.1c0,0,0,0,0,0c0,0,0,0,0,0c0,0,0,0,0,0c0.1,0,0.1,0.1,0.1,0.1c0,0,0,0,0,0
			l0,0c0,0,0.1,0,0.1-0.1v0c0,0,0,0,0,0c0,0,0-0.1-0.1-0.1l0,0c0,0,0,0,0,0l1.6-0.6c0,0,0,0,0,0c0,0,0,0,0,0c0,0,0,0,0,0l0,0
			c0,0.1,0.1,0.1,0.1,0.1c0,0,0,0,0,0l0,0c0,0,0.1,0,0.1-0.1l0,0c0,0,0,0,0,0c0,0,0-0.1-0.1-0.1c0,0,0,0,0,0c0,0,0,0,0-0.1l0,0
			l1.7-0.7l0,0l0,0c0,0-0.1-0.3-0.3-0.4c0,0,0,0,0,0c0,0,0,0,0,0c0,0,0,0-0.1,0c0,0,0,0,0,0c0,0-0.1,0-0.1,0c0,0,0,0,0,0
			c-0.1,0-0.3,0-0.5,0c0,0,0,0-0.1,0c-0.1,0-0.2,0-0.3,0c0,0,0,0,0,0c0,0-0.1,0-0.1,0c0,0,0,0,0,0s0,0,0,0c-1.4,0-3.8-0.1-5.9-0.1
			c-0.1-0.2-0.2-0.4-0.4-0.5l0,0h0c-0.1-0.1-0.2-0.3-0.4-0.4c0,0,0,0,0,0c0,0,0,0,0,0l0,0c0,0,0,0,0,0c0,0,0,0,0,0c0,0,0,0-0.1,0
			l0,0c0,0,0,0,0,0l0,0c0,0-0.1,0-0.1,0c-0.2,0.1-0.4,0.2-0.6,0.4c0,0,0,0,0,0c0,0-0.1,0.1-0.1,0.1c0,0,0,0,0,0l0,0c0,0,0,0,0,0
			c0,0,0,0,0,0c-0.1,0.1-0.1,0.1-0.2,0.2c0,0,0,0,0,0.1c-0.5,0-1,0-1.5,0c-0.1,0-0.1,0-0.2,0c0,0,0,0,0,0c-0.3,0-0.6,0-0.8,0
			c-0.2-0.3-0.4-0.6-0.5-0.8l0,0c-0.4-0.6-0.7-1.1-1-1.5c0,0-0.1-0.1-0.1-0.1c0-0.1-0.1-0.1-0.1-0.2c0,0-0.1-0.1-0.1-0.1
			c0,0-0.1-0.1-0.1-0.1c0,0,0-0.1-0.1-0.1c0-0.1-0.1-0.1-0.1-0.2c-1.4-2-3.1-3.3-3.9-2.8c-0.7,0.5-0.2,2.6,1.2,4.6
			c0,0,0.1,0.1,0.1,0.2c0,0,0.1,0.1,0.1,0.1c0,0,0,0.1,0.1,0.1c0,0.1,0.1,0.1,0.1,0.2c0,0,0,0.1,0.1,0.1c0.1,0.2,0.3,0.4,0.5,0.6
			c0.1,0.1,0.1,0.2,0.2,0.3c0,0,0,0,0,0.1c0.2,0.2,0.3,0.4,0.5,0.7l0,0c0.2,0.3,0.4,0.5,0.6,0.8c-0.1,0.2-0.2,0.5-0.3,0.7l0,0
			c-0.2,0.5-0.4,1-0.6,1.6c0,0-0.1-0.1-0.1-0.1c-0.1,0-0.2,0.1-0.3,0.1c0,0,0,0,0,0c0,0,0,0,0,0l0,0c0,0,0,0,0,0c0,0-0.1,0-0.1,0.1
			c0,0,0,0,0,0c-0.3,0.1-0.4,0.3-0.6,0.4c0,0-0.1,0.1-0.1,0.1l0,0c0,0,0,0,0,0c0,0,0,0,0,0c0,0,0,0,0,0c0,0,0,0,0,0c0,0,0,0,0,0
			c0,0,0,0,0,0c0,0,0,0,0,0c0,0,0,0,0,0c0.1,0.2,0.2,0.4,0.2,0.5l0,0l0,0c0.1,0.2,0.3,0.4,0.4,0.6c-0.4,1-0.8,2.1-1.1,3.1
			c0,0,0,0.1-0.1,0.1c0,0.1-0.1,0.3-0.1,0.4c0,0.1-0.1,0.2-0.1,0.3c0,0,0,0.1-0.1,0.1c0,0.1-0.1,0.2-0.1,0.3c0,0,0,0.1,0,0.1
			c0,0.1-0.1,0.3-0.1,0.4c0,0,0,0,0,0c-0.1,0.2-0.2,0.5-0.2,0.7c0,0,0,0,0,0s0,0,0,0c0,0,0,0.1,0,0.1c0,0,0,0,0,0
			c0,0.1-0.1,0.2-0.1,0.3c0,0,0,0,0,0c-0.1,0.2-0.1,0.4-0.2,0.5c0,0,0,0,0,0c0,0.1,0,0.1,0,0.1c0,0,0,0,0,0c0,0,0,0.1,0,0.1
			c0,0,0,0,0,0c0,0,0,0,0,0.1c0,0.2,0.2,0.3,0.3,0.4c0,0,0,0,0,0l1.2-1.3c0,0,0,0,0,0c0,0,0,0,0,0.1h0c0,0,0.1,0.1,0.1,0.1
			c0,0,0,0,0,0l0,0c0,0,0.1,0,0.1-0.1l0,0c0,0,0,0,0,0c0-0.1,0-0.1-0.1-0.2c0,0,0,0,0,0c0,0,0,0,0,0c0,0,0,0,0-0.1l1.2-1.3
			c0,0,0,0,0,0l0,0c0,0,0.1,0.1,0.1,0.1c0,0,0,0,0,0l0,0c0,0,0.1,0,0.1-0.1l0,0c0,0,0,0,0,0c0,0,0-0.1-0.1-0.2c0,0,0,0,0,0
			c0,0,0,0,0,0c0,0,0,0,0,0l0.8-0.9l0.4-0.4c0,0,0,0,0,0.1c0,0,0,0,0,0c0,0,0.1,0.1,0.1,0.1c0,0,0,0,0,0l0,0c0,0,0.1,0,0.1-0.1l0,0
			c0,0,0,0,0,0c0-0.1,0-0.1-0.1-0.2l0,0c0,0,0,0,0,0c0,0,0,0,0-0.1l1.2-1.3c0,0,0,0,0,0c0,0,0,0,0,0.1c0,0,0,0,0,0
			c0,0,0.1,0.1,0.1,0.1c0,0,0,0,0,0l0,0c0,0,0.1,0,0.1-0.1l0,0c0,0,0,0,0,0c0-0.1,0-0.1-0.1-0.2c0,0,0,0,0,0c0,0,0,0,0,0
			c0,0,0,0,0-0.1l1.2-1.3c1,1.3,2,2.7,3,4l0,0c0,0,0.1,0.1,0.1,0.1c0.2,0.3,0.5,0.6,0.7,0.9c0,0.1,0.1,0.1,0.1,0.2
			c0.2,0.3,0.5,0.6,0.7,0.9c0.1,0.1,0.2,0.2,0.2,0.3c0.2,0.3,0.5,0.6,0.7,0.9c0,0,0.1,0.1,0.1,0.1c0.2,0.3,0.4,0.6,0.7,0.8
			c0,0,0,0.1,0.1,0.1c-0.1,0.2-0.1,0.3-0.2,0.5c0,0,0,0.1,0,0.1l0,0c-0.4,1-1,2.3-1.4,3.3c0,0,0,0.1-0.1,0.1c0,0.1-0.1,0.2-0.1,0.3
			c0,0,0,0.1,0,0.1c-0.1,0.2-0.1,0.3-0.2,0.5c0,0,0,0,0,0c0,0.1-0.1,0.1-0.1,0.2c0,0,0,0,0,0c0,0.1,0,0.1,0,0.1c0,0,0,0,0,0
			c0,0,0,0,0,0.1c0,0.1,0.2,0.6,0.4,0.8l0,0c0.1,0.1,0.1,0.2,0.1,0.2l0.9-1c0,0,0,0,0,0l2.9-2.9l0,0c0,0,0.1,0.1,0.1,0.1
			c0,0,0.1,0.1,0.1,0.1c0.1,0.1,0.2,0.2,0.3,0.3c0.1,0,0.2-0.1,0.3-0.2c0.1-0.1,0.2-0.1,0.3-0.2c0-0.1-0.1-0.1-0.1-0.2c0,0,0,0,0,0
			c0,0,0-0.1-0.1-0.1c0,0,0,0,0,0c0,0,0-0.1,0-0.1c0,0,0,0,0,0c0,0,0,0,0,0c0,0,0-0.1-0.1-0.1L104.5,119.3L104.5,119.3z"/>
		<path class="st7" d="M93.7,130.7c-11,0-20-9-20-20c0-11,9-20,20-20c11,0,20,9,20,20C113.7,121.7,104.7,130.7,93.7,130.7z
			 M93.7,91.3c-10.7,0-19.3,8.7-19.3,19.3c0,10.7,8.7,19.3,19.3,19.3c10.7,0,19.3-8.7,19.3-19.3C113,100,104.3,91.3,93.7,91.3z"/>
		<path class="st7" d="M93.7,127.7c-9.4,0-17.1-7.7-17.1-17.1c0-9.4,7.7-17.1,17.1-17.1c9.4,0,17.1,7.7,17.1,17.1
			C110.7,120.1,103.1,127.7,93.7,127.7z M93.7,93.9c-9.2,0-16.7,7.5-16.7,16.7c0,9.2,7.5,16.7,16.7,16.7c9.2,0,16.7-7.5,16.7-16.7
			C110.4,101.4,102.9,93.9,93.7,93.9z"/>
	</g>
	<g>
		<path class="st7" d="M184.4,76.5c-13.3,0-24.1-10.8-24.1-24.2c0-13.3,10.8-24.2,24.1-24.2c13.3,0,24.2,10.8,24.2,24.2
			C208.6,65.6,197.8,76.5,184.4,76.5z M184.4,29c-12.9,0-23.3,10.5-23.3,23.3c0,12.9,10.5,23.3,23.3,23.3
			c12.9,0,23.3-10.5,23.3-23.3C207.8,39.4,197.3,29,184.4,29z"/>
		<g>
			<path class="st7" d="M200.4,54l0.6-1.5c0,0,0,0,0,0l0,0c0,0-1.3-0.1-1.4,0c-0.1,0.1-3.1,3.4-4.6,4.9c0,0-0.1,0-0.1,0
				c-0.9-0.2-1.8-0.5-2.8-0.7c-0.1,0-0.2,0-0.3-0.1c-0.5-0.1-1-0.2-1.5-0.4c-0.1,0-0.2,0-0.2-0.1c-0.5-0.1-1-0.2-1.4-0.3
				c0,0-0.1,0-0.1,0l0,0c-1.9-0.4-3.8-0.9-5.6-1.3l0.8-2c0,0,0,0,0,0c0,0,0,0,0.1,0c0,0,0,0,0,0c0,0,0,0,0,0c0.1,0,0.2,0,0.2,0
				c0,0,0,0,0,0h0c0,0,0-0.1,0-0.1l0,0c0,0,0,0,0,0c0,0-0.1,0-0.2-0.1c0,0,0,0,0,0c0,0,0,0-0.1,0c0,0,0,0,0,0l0.8-1.9l0,0
				c0,0,0,0,0.1,0c0,0,0,0,0,0l0,0c0.1,0,0.2,0,0.2,0c0,0,0,0,0,0l0,0c0,0,0-0.1,0-0.1h0c0,0,0,0,0,0c0,0-0.1,0-0.2-0.1c0,0,0,0,0,0
				c0,0,0,0-0.1,0c0,0,0,0,0,0l0.6-1.5l0.2-0.4c0,0,0,0,0,0c0,0,0,0,0,0c0,0,0,0,0,0c0.1,0,0.2,0,0.2,0c0,0,0,0,0,0l0,0
				c0,0,0-0.1,0-0.1l0,0c0,0,0,0,0,0c0,0-0.1,0-0.2-0.1l0,0c0,0,0,0-0.1,0l0.8-1.9c0,0,0,0,0,0c0,0,0,0,0.1,0c0,0,0,0,0,0l0,0
				c0.1,0,0.2,0,0.2,0c0,0,0,0,0,0l0,0c0,0,0-0.1,0-0.1l0,0c0,0,0,0,0,0c0,0-0.1,0-0.2-0.1c0,0,0,0,0,0c0,0-0.1,0-0.1,0l0,0l0.8-1.9
				l0,0l0,0c0,0-0.3-0.2-0.6-0.1c0,0,0,0,0,0c0,0,0,0,0,0c0,0,0,0-0.1,0.1c0,0,0,0,0,0c0,0-0.1,0.1-0.1,0.1c0,0,0,0,0,0
				c-0.1,0.1-0.3,0.2-0.4,0.4c0,0,0,0,0,0c-0.1,0.1-0.2,0.2-0.3,0.2c0,0,0,0,0,0c0,0-0.1,0.1-0.1,0.1c0,0,0,0,0,0s0,0,0,0
				c-1.2,1.2-3.2,3-5.1,4.8c-0.2,0-0.5-0.1-0.8-0.1l0,0l0,0c-0.2,0-0.4,0-0.7,0c0,0,0,0,0,0c0,0,0,0,0,0l0,0c0,0,0,0,0,0
				c0,0,0,0,0,0c0,0,0,0,0,0.1l0,0c0,0,0,0,0,0l0,0c0,0,0,0.1,0,0.1c-0.1,0.2-0.2,0.5-0.2,0.9c0,0,0,0,0,0c0,0,0,0.1,0,0.2
				c0,0,0,0,0,0.1l0,0c0,0,0,0,0,0c0,0,0,0,0,0c0,0.1,0,0.2,0,0.3c0,0,0,0,0.1,0c-0.5,0.4-0.9,0.9-1.3,1.2c0,0-0.1,0.1-0.1,0.1
				c0,0,0,0,0,0c-0.3,0.3-0.5,0.5-0.7,0.7c-0.4-0.1-0.8-0.2-1.2-0.2l0,0c-0.8-0.2-1.5-0.3-2.1-0.5c-0.1,0-0.1,0-0.2,0
				c-0.1,0-0.2,0-0.3-0.1c-0.1,0-0.1,0-0.2,0c-0.1,0-0.1,0-0.2,0c0,0-0.1,0-0.1,0c-0.1,0-0.2,0-0.2,0c-2.9-0.5-5.3-0.1-5.5,0.9
				c-0.2,1,2,2.3,4.8,2.9c0.1,0,0.2,0,0.2,0c0,0,0.1,0,0.2,0c0,0,0.1,0,0.2,0c0.1,0,0.1,0,0.2,0c0,0,0.1,0,0.1,0
				c0.3,0,0.6,0.1,0.9,0.1c0.1,0,0.3,0,0.4,0.1c0,0,0.1,0,0.1,0c0.3,0,0.6,0.1,1,0.2l0,0c0.4,0.1,0.8,0.1,1.2,0.2
				c0.1,0.2,0.2,0.5,0.4,0.8l0,0c0.2,0.5,0.5,1.1,0.8,1.8c-0.1,0-0.1,0-0.1,0c-0.1,0.1-0.1,0.2-0.2,0.3c0,0,0,0,0,0c0,0,0,0,0,0l0,0
				c0,0,0,0,0,0.1c0,0.1,0,0.1-0.1,0.2c0,0,0,0,0,0c-0.1,0.3-0.1,0.6-0.1,0.8c0,0.1,0,0.1,0,0.1l0,0c0,0,0,0,0,0c0,0,0,0,0,0
				c0,0,0,0,0,0.1c0,0,0,0,0,0.1c0,0,0,0,0,0c0,0,0,0,0,0c0,0,0,0,0,0c0,0,0,0,0,0c0.2,0.1,0.4,0.2,0.6,0.2l0,0l0,0
				c0.3,0.1,0.5,0.1,0.8,0.2c0.6,1.2,1.1,2.4,1.6,3.5c0,0.1,0.1,0.1,0.1,0.2c0.1,0.1,0.1,0.3,0.2,0.4c0.1,0.1,0.1,0.2,0.2,0.4
				c0,0.1,0.1,0.1,0.1,0.2c0.1,0.1,0.1,0.2,0.2,0.4c0,0,0,0.1,0.1,0.1c0.1,0.1,0.1,0.3,0.2,0.4c0,0,0,0,0,0c0.1,0.3,0.2,0.5,0.4,0.7
				c0,0,0,0,0,0s0,0,0,0c0,0,0,0.1,0.1,0.1c0,0,0,0,0,0c0,0.1,0.1,0.2,0.2,0.3c0,0,0,0,0,0c0.1,0.2,0.2,0.4,0.3,0.6c0,0,0,0,0,0
				c0,0.1,0.1,0.1,0.1,0.2c0,0,0,0,0,0c0,0,0,0.1,0,0.1c0,0,0,0,0,0c0,0,0,0,0,0.1c0.1,0.1,0.4,0.1,0.5,0.1c0,0,0.1,0,0.1,0
				l-0.1-2.1c0,0,0,0,0,0c0,0,0.1,0,0.1,0c0,0,0,0,0,0c0.1,0,0.1,0,0.2,0c0,0,0,0,0,0l0,0c0,0,0-0.1,0-0.1l0,0c0,0,0,0,0,0
				c-0.1,0-0.1-0.1-0.2-0.1c0,0,0,0,0,0c0,0,0,0,0,0c0,0-0.1,0-0.1,0l-0.1-2.1c0,0,0,0,0.1,0c0,0,0,0,0,0c0.1,0,0.1,0,0.2,0
				c0,0,0,0,0,0l0,0c0,0,0-0.1,0-0.1h0c0,0,0,0,0,0c0,0-0.1-0.1-0.2-0.1c0,0,0,0,0,0c0,0,0,0,0,0c0,0,0,0-0.1,0l-0.1-1.4l0-0.7
				c0,0,0.1,0,0.1,0l0,0c0.1,0,0.1,0,0.2,0c0,0,0,0,0,0l0,0c0,0,0-0.1,0-0.1l0,0c0,0,0,0,0,0c-0.1,0-0.1-0.1-0.2-0.1l0,0
				c0,0,0,0,0,0c0,0-0.1,0-0.1,0l-0.1-2c0,0,0,0,0,0c0,0,0.1,0,0.1,0c0,0,0,0,0,0c0.1,0,0.1,0,0.2,0c0,0,0,0,0,0l0,0
				c0,0,0-0.1,0-0.1l0,0c0,0,0,0,0,0c0,0-0.1-0.1-0.2-0.1c0,0,0,0,0,0c0,0,0,0,0,0c0,0-0.1,0-0.1,0l-0.1-2.1
				c1.9,0.3,3.9,0.5,5.9,0.8l0,0c0.1,0,0.1,0,0.2,0c0.4,0.1,0.9,0.1,1.3,0.2c0.1,0,0.2,0,0.2,0c0.5,0.1,0.9,0.1,1.4,0.2
				c0.1,0,0.3,0,0.4,0.1c0.5,0.1,0.9,0.1,1.3,0.2c0.1,0,0.1,0,0.2,0c0.4,0,0.8,0.1,1.2,0.1c0,0,0.1,0,0.1,0c0.1,0.2,0.1,0.4,0.2,0.6
				c0,0,0,0.1,0,0.1l0,0c0.5,1.2,1.1,2.8,1.6,4c0,0,0,0.1,0.1,0.1c0,0.1,0.1,0.2,0.1,0.3c0,0,0,0.1,0,0.1c0.1,0.2,0.2,0.4,0.2,0.6
				c0,0,0,0,0,0c0,0.1,0.1,0.1,0.1,0.2c0,0,0,0,0,0c0,0.1,0,0.1,0.1,0.1c0,0,0,0,0,0c0,0,0,0.1,0,0.1c0.1,0.1,0.6,0.3,1,0.4l0,0
				c0.2,0.1,0.3,0.1,0.3,0.1l0-1.6c0,0,0,0,0,0l0-4.8v0c0.1,0,0.1,0,0.2,0c0.1,0,0.1,0,0.2,0c0.2,0,0.3,0,0.5,0
				c0-0.1,0.1-0.2,0.1-0.4c0-0.1,0-0.3,0-0.4c-0.1,0-0.2-0.1-0.3-0.1c0,0,0,0,0,0c-0.1,0-0.1,0-0.1,0c0,0,0,0,0,0c0,0-0.1,0-0.1,0
				c0,0,0,0,0,0c0,0,0,0,0,0c-0.1,0-0.1,0-0.2-0.1L200.4,54L200.4,54z"/>
			<g>
				<path class="st7" d="M171.3,43.5l-0.8-0.2l-1.6,2.2l0.5,0.8c0.2,0.3,0.3,0.5,0.3,0.7c0,0.1,0,0.3-0.1,0.4
					c-0.1,0.1-0.2,0.2-0.4,0.2c-0.2,0-0.3,0-0.4-0.1c-0.1-0.1-0.1-0.1-0.2-0.2c-0.1-0.1-0.1-0.2-0.2-0.4l-2.3-3.9
					c-0.1-0.1-0.1-0.2-0.2-0.4c-0.1-0.2-0.2-0.3-0.2-0.4c0-0.1-0.1-0.3,0-0.4c0-0.1,0.1-0.3,0.2-0.4c0.1-0.1,0.2-0.3,0.4-0.3
					c0.1-0.1,0.3-0.1,0.4-0.1c0.1,0,0.3,0,0.4,0.1c0.1,0,0.3,0.1,0.5,0.1l4.4,1.2c0.3,0.1,0.6,0.2,0.7,0.3c0.1,0.1,0.2,0.2,0.2,0.4
					c0,0.2,0,0.3-0.1,0.5c-0.1,0.1-0.1,0.1-0.2,0.2c-0.1,0-0.2,0.1-0.2,0.1c-0.1,0-0.2,0-0.3,0C171.5,43.5,171.4,43.5,171.3,43.5z
					 M168.2,44.5l1.2-1.6l-2.8-0.8L168.2,44.5z"/>
				<path class="st7" d="M173.2,39.1l-0.4,0.2l1.1,1.8c0.1,0.2,0.2,0.4,0.2,0.6c0,0.2-0.1,0.3-0.3,0.4c-0.2,0.1-0.4,0.1-0.5,0.1
					c-0.2-0.1-0.3-0.2-0.5-0.4l-2.6-4.3c-0.1-0.2-0.2-0.5-0.2-0.6c0-0.2,0.2-0.3,0.4-0.5l1.9-1.1c0.3-0.2,0.5-0.3,0.7-0.4
					c0.2-0.1,0.4-0.1,0.6-0.2c0.2,0,0.4,0,0.7,0c0.2,0.1,0.4,0.2,0.6,0.3c0.2,0.1,0.3,0.3,0.5,0.5c0.3,0.4,0.3,0.8,0.2,1.2
					c-0.1,0.4-0.3,0.8-0.8,1.2c0.3,0,0.6,0,0.9,0.1c0.3,0.1,0.6,0.2,0.9,0.4c0.3,0.1,0.5,0.3,0.7,0.4c0.2,0.1,0.3,0.2,0.4,0.3
					c0,0.1,0.1,0.2,0.1,0.3c0,0.1,0,0.2-0.1,0.3c-0.1,0.1-0.1,0.2-0.3,0.2c-0.1,0.1-0.3,0.1-0.4,0.1c-0.1,0-0.2,0-0.4-0.1
					c-0.1-0.1-0.3-0.1-0.5-0.2l-0.9-0.5c-0.3-0.2-0.6-0.3-0.8-0.4c-0.2-0.1-0.4-0.1-0.6-0.1C173.6,38.9,173.4,39,173.2,39.1z
					 M172.5,36.4l-1.1,0.6l0.9,1.5l1-0.6c0.3-0.2,0.5-0.3,0.7-0.5c0.2-0.2,0.3-0.3,0.3-0.5c0-0.2,0-0.4-0.1-0.6
					c-0.1-0.2-0.2-0.3-0.4-0.3c-0.2-0.1-0.3-0.1-0.5-0.1C173.1,36,172.9,36.1,172.5,36.4z"/>
				<path class="st7" d="M179.9,36.5l-0.5,0.1l0.3,2.1c0,0.3,0,0.5-0.1,0.6c-0.1,0.1-0.3,0.2-0.5,0.3c-0.2,0-0.4,0-0.5-0.1
					c-0.1-0.1-0.2-0.3-0.3-0.6l-0.6-5c0-0.3,0-0.5,0.1-0.6c0.1-0.1,0.3-0.2,0.6-0.3l2.2-0.3c0.3,0,0.6-0.1,0.8-0.1
					c0.2,0,0.4,0,0.6,0.1c0.2,0.1,0.4,0.2,0.6,0.3c0.2,0.1,0.3,0.3,0.4,0.5c0.1,0.2,0.2,0.4,0.2,0.7c0.1,0.5,0,0.9-0.3,1.2
					c-0.2,0.3-0.6,0.6-1.2,0.8c0.3,0.1,0.5,0.2,0.8,0.5c0.2,0.2,0.5,0.4,0.7,0.7c0.2,0.3,0.4,0.5,0.5,0.7c0.1,0.2,0.2,0.4,0.2,0.4
					c0,0.1,0,0.2,0,0.3c0,0.1-0.1,0.2-0.2,0.2c-0.1,0.1-0.2,0.1-0.3,0.1c-0.2,0-0.3,0-0.4-0.1c-0.1-0.1-0.2-0.1-0.3-0.2
					c-0.1-0.1-0.2-0.2-0.4-0.4l-0.6-0.8c-0.2-0.3-0.4-0.5-0.6-0.7c-0.2-0.1-0.3-0.2-0.5-0.3C180.3,36.4,180.1,36.4,179.9,36.5z
					 M180.3,33.7l-1.2,0.2l0.2,1.8l1.2-0.2c0.3,0,0.6-0.1,0.8-0.2c0.2-0.1,0.4-0.2,0.5-0.3c0.1-0.1,0.1-0.3,0.1-0.6
					c0-0.2-0.1-0.3-0.2-0.5c-0.1-0.1-0.3-0.2-0.4-0.3C181.1,33.6,180.7,33.6,180.3,33.7z"/>
				<path class="st7" d="M184.9,38.3l0.5-5.1c0-0.3,0.1-0.5,0.2-0.6c0.1-0.1,0.3-0.2,0.5-0.2c0.2,0,0.4,0.1,0.5,0.2
					c0.1,0.1,0.2,0.4,0.1,0.6l-0.5,5.1c0,0.3-0.1,0.5-0.2,0.6c-0.1,0.1-0.3,0.2-0.5,0.2c-0.2,0-0.3-0.1-0.5-0.2
					C184.9,38.8,184.9,38.6,184.9,38.3z"/>
				<path class="st7" d="M190.3,34.1l-0.1,4.6l3-3.6c0.2-0.2,0.3-0.3,0.3-0.4c0.1-0.1,0.2-0.1,0.3-0.2c0.1,0,0.2,0,0.4,0
					c0.1,0,0.2,0.1,0.3,0.2c0.1,0.1,0.1,0.2,0.1,0.3c0,0.1,0,0.2,0,0.3c0,0.1-0.1,0.1-0.1,0.2c0,0.1-0.1,0.1-0.1,0.2
					c-0.1,0.1-0.1,0.1-0.2,0.2l-3,3.4c-0.1,0.1-0.2,0.3-0.3,0.4c-0.1,0.1-0.2,0.2-0.3,0.3c-0.1,0.1-0.2,0.1-0.4,0.2
					c-0.1,0-0.3,0-0.5-0.1c-0.2-0.1-0.3-0.2-0.4-0.3c-0.1-0.1-0.2-0.2-0.2-0.4c0-0.1,0-0.3-0.1-0.4c0-0.2,0-0.3,0-0.5l0-4.5
					c0-0.1,0-0.2,0-0.2c0-0.1,0-0.2,0-0.3c0-0.1,0-0.2,0-0.2c0.1-0.1,0.2-0.2,0.3-0.3c0.2-0.1,0.3-0.1,0.5,0
					c0.2,0.1,0.3,0.2,0.4,0.4C190.3,33.5,190.3,33.8,190.3,34.1z"/>
				<path class="st7" d="M196,43.4l0.3-0.8l-2-1.8l-0.8,0.4c-0.3,0.2-0.5,0.2-0.7,0.3c-0.1,0-0.3,0-0.4-0.2
					c-0.1-0.1-0.2-0.3-0.2-0.4c0-0.2,0-0.3,0.1-0.4c0.1-0.1,0.1-0.1,0.2-0.2c0.1,0,0.2-0.1,0.4-0.2l4.1-2c0.1-0.1,0.3-0.1,0.4-0.2
					c0.2-0.1,0.3-0.1,0.4-0.2c0.1,0,0.3,0,0.4,0c0.1,0,0.3,0.1,0.4,0.2c0.1,0.1,0.2,0.3,0.3,0.4c0,0.1,0.1,0.3,0,0.4
					c0,0.1,0,0.3-0.1,0.4c0,0.1-0.1,0.3-0.2,0.5l-1.6,4.3c-0.1,0.3-0.2,0.5-0.3,0.7c-0.1,0.1-0.2,0.2-0.4,0.2
					c-0.2,0-0.3-0.1-0.5-0.2c-0.1-0.1-0.1-0.1-0.2-0.2c0-0.1,0-0.2,0-0.2c0-0.1,0-0.2,0.1-0.3C195.9,43.7,196,43.5,196,43.4z
					 M195.2,40.3l1.5,1.3l1.1-2.7L195.2,40.3z"/>
				<path class="st7" d="M202.5,43.9l-4.2,2.3l1.3,2.4c0.1,0.2,0.1,0.4,0.1,0.5c0,0.2-0.1,0.3-0.3,0.3c-0.1,0.1-0.3,0.1-0.4,0
					c-0.1-0.1-0.3-0.2-0.4-0.4l-1.5-2.9c-0.1-0.3-0.2-0.5-0.1-0.6c0.1-0.2,0.2-0.3,0.5-0.5l4.4-2.4c0.2-0.1,0.4-0.2,0.6-0.1
					c0.2,0,0.3,0.2,0.4,0.3c0.1,0.2,0.1,0.4,0.1,0.5C202.8,43.6,202.7,43.7,202.5,43.9z"/>
			</g>
		</g>
	</g>
	<g>
		<g>
			<path class="st8" d="M107.2,51.2H70l18.6-28.4L107.2,51.2z M71.2,50.6h34.9L88.6,23.9L71.2,50.6z"/>
			<path class="st8" d="M113.8,55.1H63.6l25.1-38.2L113.8,55.1z M64.7,54.5h47.9L88.7,18L64.7,54.5z"/>
		</g>
		<g>
			<path class="st8" d="M75.7,49.4v-3.3h0.4v3.3H75.7z"/>
			<path class="st8" d="M78.2,49.4h-0.3L77,46.9v2.5h-0.4v-3.3h0.4l1,2.9l1-2.9h0.4v3.3H79v-2.5L78.2,49.4z"/>
			<path class="st8" d="M81.5,49.4h-0.3l-0.8-2.5v2.5H80v-3.3h0.4l1,2.9l1-2.9h0.4v3.3h-0.4v-2.5L81.5,49.4z"/>
			<path class="st8" d="M83.3,49.4v-3.3h0.4v3.3H83.3z"/>
			<path class="st8" d="M86.7,49.2c-0.1,0-0.3,0.1-0.4,0.1c-0.2,0-0.4,0.1-0.6,0.1c-0.4,0-0.7-0.2-1-0.5c-0.2-0.3-0.4-0.7-0.4-1.2
				c0-0.5,0.1-0.9,0.3-1.2c0.2-0.3,0.6-0.5,1-0.5c0.2,0,0.4,0,0.5,0.1c0.1,0.1,0.3,0.1,0.4,0.3l-0.2,0.2c-0.1-0.1-0.2-0.2-0.3-0.2
				c-0.1-0.1-0.2-0.1-0.4-0.1c-0.3,0-0.5,0.1-0.7,0.4c-0.2,0.3-0.3,0.6-0.3,0.9c0,0.5,0.1,0.8,0.3,1.1c0.2,0.3,0.4,0.4,0.7,0.4
				c0.1,0,0.2,0,0.4,0c0.1,0,0.2,0,0.3-0.1v-1.2h0.4V49.2z"/>
			<path class="st8" d="M87.5,49.4h-0.4v-3.3H88c0.3,0,0.6,0.1,0.8,0.2c0.2,0.2,0.3,0.4,0.3,0.7c0,0.2-0.1,0.4-0.2,0.5
				c-0.1,0.2-0.3,0.3-0.5,0.3l0.9,1.5h-0.4L88,48c0,0-0.2,0-0.6,0V49.4z M87.5,47.7h0.3c0.3,0,0.5-0.1,0.6-0.2
				c0.2-0.1,0.2-0.3,0.2-0.5c0-0.2-0.1-0.4-0.2-0.5c-0.1-0.1-0.3-0.2-0.6-0.2h-0.4V47.7z"/>
			<path class="st8" d="M90.5,46.1h0.3l1.1,3.3h-0.4l-0.3-1.1h-1.1l-0.3,1.1h-0.4L90.5,46.1z M90.2,48h1l-0.5-1.5L90.2,48z"/>
			<path class="st8" d="M94.5,46.4h-1v3h-0.4v-3h-1v-0.3h2.4V46.4z"/>
			<path class="st8" d="M94.8,49.4v-3.3h0.4v3.3H94.8z"/>
			<path class="st8" d="M97.2,49.4c-0.5,0-0.8-0.2-1.1-0.5c-0.2-0.3-0.4-0.7-0.4-1.3c0-0.5,0.1-0.9,0.4-1.2c0.3-0.3,0.6-0.5,1-0.5
				c0.5,0,0.8,0.2,1.1,0.5c0.2,0.3,0.4,0.7,0.4,1.2c0,0.5-0.1,0.9-0.4,1.2C98,49.3,97.6,49.4,97.2,49.4z M97.2,49.1
				c0.3,0,0.5-0.1,0.7-0.4c0.2-0.3,0.3-0.6,0.3-1.1c0-0.3-0.1-0.6-0.3-0.9c-0.2-0.3-0.4-0.4-0.8-0.4c-0.3,0-0.6,0.1-0.8,0.4
				c-0.2,0.3-0.3,0.6-0.3,1c0,0.5,0.1,0.8,0.3,1.1C96.7,49,96.9,49.1,97.2,49.1z"/>
			<path class="st8" d="M99.6,46.7v2.7h-0.4v-3.3h0.4l1.6,2.7v-2.7h0.4v3.3h-0.3L99.6,46.7z"/>
		</g>
		<rect x="77.2" y="43.9" class="st8" width="21.7" height="0.6"/>
		<g>
			<path class="st8" d="M68.6,52.9c0,0.2-0.2,0.4-0.4,0.4c-0.2,0-0.4-0.2-0.4-0.4c0-0.2,0.2-0.4,0.4-0.4
				C68.4,52.5,68.6,52.7,68.6,52.9z"/>
			<path class="st8" d="M71.8,52.9c0,0.2-0.2,0.4-0.4,0.4c-0.2,0-0.4-0.2-0.4-0.4c0-0.2,0.2-0.4,0.4-0.4
				C71.6,52.5,71.8,52.7,71.8,52.9z"/>
			<path class="st8" d="M75,52.9c0,0.2-0.2,0.4-0.4,0.4c-0.2,0-0.4-0.2-0.4-0.4c0-0.2,0.2-0.4,0.4-0.4C74.8,52.5,75,52.7,75,52.9z"
				/>
			<path class="st8" d="M78.1,52.9c0,0.2-0.2,0.4-0.4,0.4c-0.2,0-0.4-0.2-0.4-0.4c0-0.2,0.2-0.4,0.4-0.4
				C78,52.5,78.1,52.7,78.1,52.9z"/>
			<path class="st8" d="M81.3,52.9c0,0.2-0.2,0.4-0.4,0.4c-0.2,0-0.4-0.2-0.4-0.4c0-0.2,0.2-0.4,0.4-0.4
				C81.2,52.5,81.3,52.7,81.3,52.9z"/>
			<path class="st8" d="M84.5,52.9c0,0.2-0.2,0.4-0.4,0.4c-0.2,0-0.4-0.2-0.4-0.4c0-0.2,0.2-0.4,0.4-0.4
				C84.3,52.5,84.5,52.7,84.5,52.9z"/>
			<path class="st8" d="M87.7,52.9c0,0.2-0.2,0.4-0.4,0.4c-0.2,0-0.4-0.2-0.4-0.4c0-0.2,0.2-0.4,0.4-0.4
				C87.5,52.5,87.7,52.7,87.7,52.9z"/>
			<path class="st8" d="M90.9,52.9c0,0.2-0.2,0.4-0.4,0.4c-0.2,0-0.4-0.2-0.4-0.4c0-0.2,0.2-0.4,0.4-0.4
				C90.7,52.5,90.9,52.7,90.9,52.9z"/>
			<path class="st8" d="M94.1,52.9c0,0.2-0.2,0.4-0.4,0.4c-0.2,0-0.4-0.2-0.4-0.4c0-0.2,0.2-0.4,0.4-0.4
				C93.9,52.5,94.1,52.7,94.1,52.9z"/>
			<path class="st8" d="M97.2,52.9c0,0.2-0.2,0.4-0.4,0.4c-0.2,0-0.4-0.2-0.4-0.4c0-0.2,0.2-0.4,0.4-0.4
				C97.1,52.5,97.2,52.7,97.2,52.9z"/>
			<path class="st8" d="M100.4,52.9c0,0.2-0.2,0.4-0.4,0.4c-0.2,0-0.4-0.2-0.4-0.4c0-0.2,0.2-0.4,0.4-0.4
				C100.2,52.5,100.4,52.7,100.4,52.9z"/>
			<path class="st8" d="M103.6,52.9c0,0.2-0.2,0.4-0.4,0.4c-0.2,0-0.4-0.2-0.4-0.4c0-0.2,0.2-0.4,0.4-0.4
				C103.4,52.5,103.6,52.7,103.6,52.9z"/>
			<path class="st8" d="M106.8,52.9c0,0.2-0.2,0.4-0.4,0.4c-0.2,0-0.4-0.2-0.4-0.4c0-0.2,0.2-0.4,0.4-0.4
				C106.6,52.5,106.8,52.7,106.8,52.9z"/>
			<path class="st8" d="M110,52.9c0,0.2-0.2,0.4-0.4,0.4c-0.2,0-0.4-0.2-0.4-0.4c0-0.2,0.2-0.4,0.4-0.4
				C109.8,52.5,110,52.7,110,52.9z"/>
		</g>
		<g>
			<path class="st8" d="M88.9,21.2c-0.2,0.1-0.4,0.1-0.5-0.1c-0.1-0.2-0.1-0.4,0.1-0.5c0.2-0.1,0.4-0.1,0.5,0.1
				C89.1,20.8,89.1,21.1,88.9,21.2z"/>
			<path class="st8" d="M91.2,23.9c-0.2,0.1-0.4,0.1-0.5-0.1c-0.1-0.2-0.1-0.4,0.1-0.5c0.2-0.1,0.4-0.1,0.5,0.1
				C91.5,23.5,91.4,23.8,91.2,23.9z"/>
			<path class="st8" d="M93,26.6c-0.2,0.1-0.4,0.1-0.5-0.1c-0.1-0.2-0.1-0.4,0.1-0.5c0.2-0.1,0.4-0.1,0.5,0.1
				C93.2,26.2,93.1,26.4,93,26.6z"/>
			<path class="st8" d="M94.7,29.2c-0.2,0.1-0.4,0.1-0.5-0.1c-0.1-0.2-0.1-0.4,0.1-0.5c0.2-0.1,0.4-0.1,0.5,0.1
				C94.9,28.9,94.8,29.1,94.7,29.2z"/>
			<path class="st8" d="M96.4,31.9c-0.2,0.1-0.4,0.1-0.5-0.1c-0.1-0.2-0.1-0.4,0.1-0.5c0.2-0.1,0.4-0.1,0.5,0.1
				C96.6,31.6,96.5,31.8,96.4,31.9z"/>
			<path class="st8" d="M98.1,34.6c-0.2,0.1-0.4,0.1-0.5-0.1c-0.1-0.2-0.1-0.4,0.1-0.5c0.2-0.1,0.4-0.1,0.5,0.1
				C98.3,34.3,98.2,34.5,98.1,34.6z"/>
			<path class="st8" d="M99.8,37.3c-0.2,0.1-0.4,0.1-0.5-0.1c-0.1-0.2-0.1-0.4,0.1-0.5c0.2-0.1,0.4-0.1,0.5,0.1
				C100,37,99.9,37.2,99.8,37.3z"/>
			<path class="st8" d="M101.5,40c-0.2,0.1-0.4,0.1-0.5-0.1c-0.1-0.2-0.1-0.4,0.1-0.5c0.2-0.1,0.4-0.1,0.5,0.1
				C101.7,39.6,101.6,39.9,101.5,40z"/>
			<path class="st8" d="M103.2,42.7c-0.2,0.1-0.4,0.1-0.5-0.1c-0.1-0.2-0.1-0.4,0.1-0.5c0.2-0.1,0.4-0.1,0.5,0.1
				C103.4,42.3,103.3,42.6,103.2,42.7z"/>
			<path class="st8" d="M104.9,45.4c-0.2,0.1-0.4,0.1-0.5-0.1c-0.1-0.2-0.1-0.4,0.1-0.5c0.2-0.1,0.4-0.1,0.5,0.1
				C105.1,45,105,45.3,104.9,45.4z"/>
			<path class="st8" d="M106.6,48.1c-0.2,0.1-0.4,0.1-0.5-0.1c-0.1-0.2-0.1-0.4,0.1-0.5c0.2-0.1,0.4-0.1,0.5,0.1
				C106.8,47.7,106.7,47.9,106.6,48.1z"/>
			<path class="st8" d="M108.2,50.8c-0.2,0.1-0.4,0.1-0.5-0.1c-0.1-0.2-0.1-0.4,0.1-0.5c0.2-0.1,0.4-0.1,0.5,0.1
				C108.5,50.4,108.4,50.7,108.2,50.8z"/>
		</g>
		<g>
			<path class="st8" d="M86.3,23.9c0.2,0.1,0.4,0.1,0.5-0.1c0.1-0.2,0.1-0.4-0.1-0.5c-0.2-0.1-0.4-0.1-0.5,0.1
				C86.1,23.5,86.1,23.8,86.3,23.9z"/>
			<path class="st8" d="M84.6,26.6c0.2,0.1,0.4,0.1,0.5-0.1c0.1-0.2,0.1-0.4-0.1-0.5c-0.2-0.1-0.4-0.1-0.5,0.1
				C84.4,26.2,84.4,26.4,84.6,26.6z"/>
			<path class="st8" d="M82.9,29.2c0.2,0.1,0.4,0.1,0.5-0.1c0.1-0.2,0.1-0.4-0.1-0.5c-0.2-0.1-0.4-0.1-0.5,0.1
				C82.7,28.9,82.7,29.1,82.9,29.2z"/>
			<path class="st8" d="M81.2,31.9c0.2,0.1,0.4,0.1,0.5-0.1c0.1-0.2,0.1-0.4-0.1-0.5c-0.2-0.1-0.4-0.1-0.5,0.1
				C81,31.6,81,31.8,81.2,31.9z"/>
			<path class="st8" d="M79.5,34.6c0.2,0.1,0.4,0.1,0.5-0.1c0.1-0.2,0.1-0.4-0.1-0.5c-0.2-0.1-0.4-0.1-0.5,0.1
				C79.3,34.3,79.3,34.5,79.5,34.6z"/>
			<path class="st8" d="M77.8,37.3c0.2,0.1,0.4,0.1,0.5-0.1c0.1-0.2,0.1-0.4-0.1-0.5c-0.2-0.1-0.4-0.1-0.5,0.1
				C77.6,37,77.6,37.2,77.8,37.3z"/>
			<path class="st8" d="M76.1,40c0.2,0.1,0.4,0.1,0.5-0.1c0.1-0.2,0.1-0.4-0.1-0.5c-0.2-0.1-0.4-0.1-0.5,0.1
				C75.9,39.6,75.9,39.9,76.1,40z"/>
			<path class="st8" d="M74.4,42.7c0.2,0.1,0.4,0.1,0.5-0.1c0.1-0.2,0.1-0.4-0.1-0.5c-0.2-0.1-0.4-0.1-0.5,0.1
				C74.2,42.3,74.2,42.6,74.4,42.7z"/>
			<path class="st8" d="M72.7,45.4c0.2,0.1,0.4,0.1,0.5-0.1c0.1-0.2,0.1-0.4-0.1-0.5c-0.2-0.1-0.4-0.1-0.5,0.1
				C72.5,45,72.5,45.3,72.7,45.4z"/>
			<path class="st8" d="M71,48.1c0.2,0.1,0.4,0.1,0.5-0.1c0.1-0.2,0.1-0.4-0.1-0.5c-0.2-0.1-0.4-0.1-0.5,0.1
				C70.8,47.7,70.8,47.9,71,48.1z"/>
			<path class="st8" d="M69.3,50.8c0.2,0.1,0.4,0.1,0.5-0.1c0.1-0.2,0.1-0.4-0.1-0.5c-0.2-0.1-0.4-0.1-0.5,0.1
				C69.1,50.4,69.1,50.7,69.3,50.8z"/>
		</g>
		<path class="st8" d="M93.4,40.1l0.5-0.2c0,0,0,0,0,0l0,0c0,0-0.3-0.3-0.3-0.4c0,0-1.6,0.1-2.4,0.1c0,0,0,0,0,0
			c-0.2-0.3-0.3-0.6-0.5-0.9c0,0,0-0.1,0-0.1c-0.1-0.1-0.2-0.3-0.3-0.5c0,0,0,0,0-0.1c-0.1-0.1-0.2-0.3-0.3-0.4c0,0,0,0,0,0l0,0
			c-0.4-0.6-0.7-1.2-1.1-1.7l0.7-0.3c0,0,0,0,0,0c0,0,0,0,0,0c0,0,0,0,0,0l0,0c0,0,0,0,0.1,0.1c0,0,0,0,0,0l0,0c0,0,0,0,0,0l0,0
			c0,0,0,0,0,0c0,0,0,0,0-0.1c0,0,0,0,0,0c0,0,0,0,0,0c0,0,0,0,0,0l0.7-0.3l0,0c0,0,0,0,0,0c0,0,0,0,0,0v0c0,0,0,0,0.1,0.1
			c0,0,0,0,0,0l0,0c0,0,0,0,0,0l0,0c0,0,0,0,0,0c0,0,0,0,0-0.1c0,0,0,0,0,0c0,0,0,0,0,0c0,0,0,0,0,0l0.5-0.2l0.1-0.1c0,0,0,0,0,0
			c0,0,0,0,0,0c0,0,0,0,0,0c0,0,0,0,0.1,0.1c0,0,0,0,0,0l0,0c0,0,0,0,0,0v0c0,0,0,0,0,0c0,0,0,0,0-0.1l0,0c0,0,0,0,0,0l0.7-0.3
			c0,0,0,0,0,0c0,0,0,0,0,0c0,0,0,0,0,0l0,0c0,0,0,0,0.1,0.1c0,0,0,0,0,0l0,0c0,0,0,0,0,0l0,0c0,0,0,0,0,0c0,0,0,0,0-0.1
			c0,0,0,0,0,0c0,0,0,0,0,0l0,0l0.7-0.3l0,0l0,0c0,0,0-0.1-0.1-0.2c0,0,0,0,0,0c0,0,0,0,0,0c0,0,0,0,0,0c0,0,0,0,0,0c0,0,0,0-0.1,0
			c0,0,0,0,0,0c-0.1,0-0.1,0-0.2,0c0,0,0,0,0,0c0,0-0.1,0-0.1,0c0,0,0,0,0,0c0,0,0,0,0,0l0,0l0,0c-0.6,0-1.6,0-2.5,0
			c0-0.1-0.1-0.1-0.2-0.2l0,0h0c-0.1-0.1-0.1-0.1-0.2-0.2c0,0,0,0,0,0c0,0,0,0,0,0l0,0c0,0,0,0,0,0c0,0,0,0,0,0c0,0,0,0,0,0l0,0
			c0,0,0,0,0,0l0,0c0,0,0,0,0,0c-0.1,0-0.2,0.1-0.3,0.2c0,0,0,0,0,0c0,0,0,0,0,0c0,0,0,0,0,0l0,0c0,0,0,0,0,0c0,0,0,0,0,0
			c0,0-0.1,0.1-0.1,0.1c0,0,0,0,0,0c-0.2,0-0.4,0-0.6,0c0,0,0,0-0.1,0c0,0,0,0,0,0c-0.1,0-0.2,0-0.3,0c-0.1-0.1-0.2-0.2-0.2-0.3l0,0
			c-0.2-0.3-0.3-0.5-0.4-0.6c0,0,0,0,0-0.1c0,0,0-0.1-0.1-0.1c0,0,0,0,0,0c0,0,0,0,0-0.1c0,0,0,0,0,0c0,0,0-0.1-0.1-0.1
			c-0.6-0.8-1.3-1.4-1.6-1.1c-0.3,0.2-0.1,1.1,0.5,1.9c0,0,0,0,0.1,0.1c0,0,0,0,0,0c0,0,0,0,0,0c0,0,0,0,0,0.1c0,0,0,0,0,0
			c0.1,0.1,0.1,0.2,0.2,0.3c0,0,0.1,0.1,0.1,0.1c0,0,0,0,0,0c0.1,0.1,0.1,0.2,0.2,0.3l0,0c0.1,0.1,0.2,0.2,0.2,0.3
			c0,0.1-0.1,0.2-0.1,0.3l0,0c-0.1,0.2-0.1,0.4-0.2,0.7c0,0,0,0,0,0c0,0-0.1,0-0.1,0c0,0,0,0,0,0l0,0l0,0c0,0,0,0,0,0c0,0,0,0-0.1,0
			c0,0,0,0,0,0c-0.1,0.1-0.2,0.1-0.2,0.2c0,0,0,0,0,0l0,0c0,0,0,0,0,0c0,0,0,0,0,0c0,0,0,0,0,0c0,0,0,0,0,0c0,0,0,0,0,0v0
			c0,0,0,0,0,0c0,0,0,0,0,0c0,0.1,0.1,0.1,0.1,0.2l0,0l0,0c0.1,0.1,0.1,0.2,0.2,0.2c-0.2,0.4-0.3,0.9-0.5,1.3c0,0,0,0,0,0.1
			c0,0.1,0,0.1-0.1,0.2c0,0,0,0.1,0,0.1c0,0,0,0,0,0.1c0,0,0,0.1,0,0.1c0,0,0,0,0,0c0,0.1,0,0.1-0.1,0.2c0,0,0,0,0,0
			c0,0.1-0.1,0.2-0.1,0.3c0,0,0,0,0,0s0,0,0,0c0,0,0,0,0,0c0,0,0,0,0,0c0,0,0,0.1,0,0.1c0,0,0,0,0,0c0,0.1-0.1,0.2-0.1,0.2
			c0,0,0,0,0,0c0,0,0,0,0,0.1c0,0,0,0,0,0c0,0,0,0,0,0c0,0,0,0,0,0c0,0,0,0,0,0c0,0.1,0.1,0.1,0.1,0.2c0,0,0,0,0,0l0.5-0.5
			c0,0,0,0,0,0c0,0,0,0,0,0c0,0,0,0,0,0c0,0,0,0,0,0c0,0,0,0,0,0v0c0,0,0,0,0,0h0c0,0,0,0,0,0c0,0,0,0,0-0.1l0,0c0,0,0,0,0,0
			c0,0,0,0,0,0l0.5-0.5c0,0,0,0,0,0c0,0,0,0,0,0c0,0,0,0,0,0c0,0,0,0,0,0l0,0c0,0,0,0,0,0l0,0c0,0,0,0,0,0c0,0,0,0,0-0.1
			c0,0,0,0,0,0c0,0,0,0,0,0c0,0,0,0,0,0l0.3-0.4l0.2-0.2c0,0,0,0,0,0c0,0,0,0,0,0c0,0,0,0,0,0c0,0,0,0,0,0l0,0c0,0,0,0,0,0v0
			c0,0,0,0,0,0c0,0,0,0,0-0.1l0,0c0,0,0,0,0,0c0,0,0,0,0,0l0.5-0.5c0,0,0,0,0,0c0,0,0,0,0,0c0,0,0,0,0,0c0,0,0,0,0,0c0,0,0,0,0,0
			l0,0c0,0,0,0,0,0l0,0c0,0,0,0,0,0c0,0,0,0,0-0.1l0,0c0,0,0,0,0,0c0,0,0,0,0,0l0.5-0.5c0.4,0.5,0.8,1.1,1.3,1.7l0,0c0,0,0,0,0,0.1
			c0.1,0.1,0.2,0.2,0.3,0.4c0,0,0,0,0.1,0.1c0.1,0.1,0.2,0.3,0.3,0.4c0,0,0.1,0.1,0.1,0.1c0.1,0.1,0.2,0.2,0.3,0.4c0,0,0,0,0,0
			c0.1,0.1,0.2,0.2,0.3,0.3c0,0,0,0,0,0c0,0.1-0.1,0.1-0.1,0.2c0,0,0,0,0,0l0,0c-0.2,0.4-0.4,1-0.6,1.4c0,0,0,0,0,0c0,0,0,0.1,0,0.1
			c0,0,0,0,0,0c0,0.1-0.1,0.1-0.1,0.2c0,0,0,0,0,0c0,0,0,0,0,0.1c0,0,0,0,0,0c0,0,0,0,0,0c0,0,0,0,0,0c0,0,0,0,0,0
			c0,0,0.1,0.2,0.2,0.4l0,0c0,0.1,0.1,0.1,0.1,0.1l0.4-0.4c0,0,0,0,0,0l1.2-1.2l0,0c0,0,0,0,0,0c0,0,0,0,0.1,0.1
			c0,0,0.1,0.1,0.1,0.1c0,0,0.1,0,0.1-0.1c0,0,0.1-0.1,0.1-0.1c0,0,0-0.1,0-0.1c0,0,0,0,0,0c0,0,0,0,0,0c0,0,0,0,0,0c0,0,0,0,0,0
			c0,0,0,0,0,0c0,0,0,0,0,0c0,0,0,0,0-0.1L93.4,40.1L93.4,40.1z"/>
	</g>
	<g>
		<g>
			<path class="st9" d="M181.7,141.2h-37.1l18.6-28.4L181.7,141.2z M145.7,140.6h34.9l-17.5-26.7L145.7,140.6z"/>
			<path class="st9" d="M188.3,145h-50.1l25.1-38.2L188.3,145z M139.2,144.4h47.9l-24-36.5L139.2,144.4z"/>
		</g>
		<g>
			<path class="st9" d="M150.2,139.3v-3.3h0.4v3.3H150.2z"/>
			<path class="st9" d="M152.7,139.3h-0.3l-0.8-2.5v2.5h-0.4v-3.3h0.4l1,2.9l1-2.9h0.4v3.3h-0.4v-2.5L152.7,139.3z"/>
			<path class="st9" d="M156,139.3h-0.3l-0.8-2.5v2.5h-0.4v-3.3h0.4l1,2.9l1-2.9h0.4v3.3h-0.4v-2.5L156,139.3z"/>
			<path class="st9" d="M157.8,139.3v-3.3h0.4v3.3H157.8z"/>
			<path class="st9" d="M161.2,139.2c-0.1,0-0.3,0.1-0.4,0.1c-0.2,0-0.4,0.1-0.6,0.1c-0.4,0-0.7-0.2-1-0.5c-0.2-0.3-0.4-0.7-0.4-1.2
				c0-0.5,0.1-0.9,0.3-1.2c0.2-0.3,0.6-0.5,1-0.5c0.2,0,0.4,0,0.5,0.1c0.1,0.1,0.3,0.1,0.4,0.3l-0.2,0.2c-0.1-0.1-0.2-0.2-0.3-0.2
				c-0.1-0.1-0.2-0.1-0.4-0.1c-0.3,0-0.5,0.1-0.7,0.4c-0.2,0.3-0.3,0.6-0.3,0.9c0,0.5,0.1,0.8,0.3,1.1c0.2,0.3,0.4,0.4,0.7,0.4
				c0.1,0,0.2,0,0.4,0c0.1,0,0.2,0,0.3-0.1v-1.2h0.4V139.2z"/>
			<path class="st9" d="M162,139.3h-0.4v-3.3h0.9c0.3,0,0.6,0.1,0.8,0.2c0.2,0.2,0.3,0.4,0.3,0.7c0,0.2-0.1,0.4-0.2,0.5
				c-0.1,0.2-0.3,0.3-0.5,0.3l0.9,1.5h-0.4l-0.8-1.4c0,0-0.2,0-0.6,0V139.3z M162,137.7h0.3c0.3,0,0.5-0.1,0.6-0.2
				c0.2-0.1,0.2-0.3,0.2-0.5c0-0.2-0.1-0.4-0.2-0.5c-0.1-0.1-0.3-0.2-0.6-0.2H162V137.7z"/>
			<path class="st9" d="M165,136.1h0.3l1.1,3.3h-0.4l-0.3-1.1h-1.1l-0.4,1.1h-0.4L165,136.1z M164.7,138h1l-0.5-1.5L164.7,138z"/>
			<path class="st9" d="M169,136.4h-1v3h-0.4v-3h-1v-0.3h2.4V136.4z"/>
			<path class="st9" d="M169.4,139.3v-3.3h0.4v3.3H169.4z"/>
			<path class="st9" d="M171.7,139.4c-0.5,0-0.8-0.2-1.1-0.5c-0.2-0.3-0.4-0.7-0.4-1.3c0-0.5,0.1-0.9,0.4-1.2c0.3-0.3,0.6-0.5,1-0.5
				c0.5,0,0.8,0.2,1.1,0.5c0.2,0.3,0.4,0.7,0.4,1.2c0,0.5-0.1,0.9-0.4,1.2C172.5,139.2,172.1,139.4,171.7,139.4z M171.8,139.1
				c0.3,0,0.5-0.1,0.7-0.4c0.2-0.3,0.3-0.6,0.3-1.1c0-0.3-0.1-0.6-0.3-0.9c-0.2-0.3-0.4-0.4-0.8-0.4c-0.3,0-0.6,0.1-0.8,0.4
				c-0.2,0.3-0.3,0.6-0.3,1c0,0.5,0.1,0.8,0.3,1.1C171.2,139,171.4,139.1,171.8,139.1z"/>
			<path class="st9" d="M174.1,136.7v2.7h-0.4v-3.3h0.4l1.6,2.7v-2.7h0.4v3.3h-0.3L174.1,136.7z"/>
		</g>
		<rect x="151.7" y="133.8" class="st9" width="21.7" height="0.6"/>
		<g>
			<path class="st9" d="M143.1,142.8c0,0.2-0.2,0.4-0.4,0.4c-0.2,0-0.4-0.2-0.4-0.4c0-0.2,0.2-0.4,0.4-0.4
				C142.9,142.4,143.1,142.6,143.1,142.8z"/>
			<path class="st9" d="M146.3,142.8c0,0.2-0.2,0.4-0.4,0.4c-0.2,0-0.4-0.2-0.4-0.4c0-0.2,0.2-0.4,0.4-0.4
				C146.1,142.4,146.3,142.6,146.3,142.8z"/>
			<path class="st9" d="M149.5,142.8c0,0.2-0.2,0.4-0.4,0.4c-0.2,0-0.4-0.2-0.4-0.4c0-0.2,0.2-0.4,0.4-0.4
				C149.3,142.4,149.5,142.6,149.5,142.8z"/>
			<path class="st9" d="M152.7,142.8c0,0.2-0.2,0.4-0.4,0.4c-0.2,0-0.4-0.2-0.4-0.4c0-0.2,0.2-0.4,0.4-0.4
				C152.5,142.4,152.7,142.6,152.7,142.8z"/>
			<path class="st9" d="M155.8,142.8c0,0.2-0.2,0.4-0.4,0.4c-0.2,0-0.4-0.2-0.4-0.4c0-0.2,0.2-0.4,0.4-0.4
				C155.7,142.4,155.8,142.6,155.8,142.8z"/>
			<path class="st9" d="M159,142.8c0,0.2-0.2,0.4-0.4,0.4c-0.2,0-0.4-0.2-0.4-0.4c0-0.2,0.2-0.4,0.4-0.4
				C158.8,142.4,159,142.6,159,142.8z"/>
			<path class="st9" d="M162.2,142.8c0,0.2-0.2,0.4-0.4,0.4c-0.2,0-0.4-0.2-0.4-0.4c0-0.2,0.2-0.4,0.4-0.4
				C162,142.4,162.2,142.6,162.2,142.8z"/>
			<path class="st9" d="M165.4,142.8c0,0.2-0.2,0.4-0.4,0.4c-0.2,0-0.4-0.2-0.4-0.4c0-0.2,0.2-0.4,0.4-0.4
				C165.2,142.4,165.4,142.6,165.4,142.8z"/>
			<path class="st9" d="M168.6,142.8c0,0.2-0.2,0.4-0.4,0.4c-0.2,0-0.4-0.2-0.4-0.4c0-0.2,0.2-0.4,0.4-0.4
				C168.4,142.4,168.6,142.6,168.6,142.8z"/>
			<path class="st9" d="M171.7,142.8c0,0.2-0.2,0.4-0.4,0.4c-0.2,0-0.4-0.2-0.4-0.4c0-0.2,0.2-0.4,0.4-0.4
				C171.6,142.4,171.7,142.6,171.7,142.8z"/>
			<path class="st9" d="M174.9,142.8c0,0.2-0.2,0.4-0.4,0.4c-0.2,0-0.4-0.2-0.4-0.4c0-0.2,0.2-0.4,0.4-0.4
				C174.7,142.4,174.9,142.6,174.9,142.8z"/>
			<path class="st9" d="M178.1,142.8c0,0.2-0.2,0.4-0.4,0.4c-0.2,0-0.4-0.2-0.4-0.4c0-0.2,0.2-0.4,0.4-0.4
				C177.9,142.4,178.1,142.6,178.1,142.8z"/>
			<path class="st9" d="M181.3,142.8c0,0.2-0.2,0.4-0.4,0.4c-0.2,0-0.4-0.2-0.4-0.4c0-0.2,0.2-0.4,0.4-0.4
				C181.1,142.4,181.3,142.6,181.3,142.8z"/>
			<path class="st9" d="M184.5,142.9c0,0.2-0.2,0.4-0.4,0.4c-0.2,0-0.4-0.2-0.4-0.4c0-0.2,0.2-0.4,0.4-0.4
				C184.3,142.5,184.5,142.7,184.5,142.9z"/>
		</g>
		<g>
			<path class="st9" d="M163.4,111.1c-0.2,0.1-0.4,0.1-0.5-0.1c-0.1-0.2-0.1-0.4,0.1-0.5c0.2-0.1,0.4-0.1,0.5,0.1
				C163.6,110.8,163.6,111,163.4,111.1z"/>
			<path class="st9" d="M165.8,113.8c-0.2,0.1-0.4,0.1-0.5-0.1c-0.1-0.2-0.1-0.4,0.1-0.5c0.2-0.1,0.4-0.1,0.5,0.1
				C166,113.5,165.9,113.7,165.8,113.8z"/>
			<path class="st9" d="M167.5,116.5c-0.2,0.1-0.4,0.1-0.5-0.1c-0.1-0.2-0.1-0.4,0.1-0.5c0.2-0.1,0.4-0.1,0.5,0.1
				C167.7,116.2,167.6,116.4,167.5,116.5z"/>
			<path class="st9" d="M169.2,119.2c-0.2,0.1-0.4,0.1-0.5-0.1c-0.1-0.2-0.1-0.4,0.1-0.5c0.2-0.1,0.4-0.1,0.5,0.1
				C169.4,118.8,169.3,119.1,169.2,119.2z"/>
			<path class="st9" d="M170.9,121.9c-0.2,0.1-0.4,0.1-0.5-0.1c-0.1-0.2-0.1-0.4,0.1-0.5c0.2-0.1,0.4-0.1,0.5,0.1
				C171.1,121.5,171,121.8,170.9,121.9z"/>
			<path class="st9" d="M172.6,124.6c-0.2,0.1-0.4,0.1-0.5-0.1c-0.1-0.2-0.1-0.4,0.1-0.5c0.2-0.1,0.4-0.1,0.5,0.1
				C172.8,124.2,172.7,124.5,172.6,124.6z"/>
			<path class="st9" d="M174.3,127.3c-0.2,0.1-0.4,0.1-0.5-0.1c-0.1-0.2-0.1-0.4,0.1-0.5c0.2-0.1,0.4-0.1,0.5,0.1
				C174.5,126.9,174.4,127.1,174.3,127.3z"/>
			<path class="st9" d="M176,129.9c-0.2,0.1-0.4,0.1-0.5-0.1c-0.1-0.2-0.1-0.4,0.1-0.5c0.2-0.1,0.4-0.1,0.5,0.1
				C176.2,129.6,176.1,129.8,176,129.9z"/>
			<path class="st9" d="M177.7,132.6c-0.2,0.1-0.4,0.1-0.5-0.1c-0.1-0.2-0.1-0.4,0.1-0.5c0.2-0.1,0.4-0.1,0.5,0.1
				C177.9,132.3,177.8,132.5,177.7,132.6z"/>
			<path class="st9" d="M179.4,135.3c-0.2,0.1-0.4,0.1-0.5-0.1c-0.1-0.2-0.1-0.4,0.1-0.5c0.2-0.1,0.4-0.1,0.5,0.1
				C179.6,135,179.6,135.2,179.4,135.3z"/>
			<path class="st9" d="M181.1,138c-0.2,0.1-0.4,0.1-0.5-0.1c-0.1-0.2-0.1-0.4,0.1-0.5c0.2-0.1,0.4-0.1,0.5,0.1
				C181.3,137.7,181.3,137.9,181.1,138z"/>
			<path class="st9" d="M182.7,140.7c-0.2,0.1-0.4,0.1-0.5-0.1c-0.1-0.2-0.1-0.4,0.1-0.5c0.2-0.1,0.4-0.1,0.5,0.1
				C183,140.4,182.9,140.6,182.7,140.7z"/>
		</g>
		<g>
			<path class="st9" d="M160.8,113.8c0.2,0.1,0.4,0.1,0.5-0.1c0.1-0.2,0.1-0.4-0.1-0.5c-0.2-0.1-0.4-0.1-0.5,0.1
				C160.6,113.5,160.6,113.7,160.8,113.8z"/>
			<path class="st9" d="M159.1,116.5c0.2,0.1,0.4,0.1,0.5-0.1c0.1-0.2,0.1-0.4-0.1-0.5c-0.2-0.1-0.4-0.1-0.5,0.1
				C158.9,116.2,158.9,116.4,159.1,116.5z"/>
			<path class="st9" d="M157.4,119.2c0.2,0.1,0.4,0.1,0.5-0.1c0.1-0.2,0.1-0.4-0.1-0.5c-0.2-0.1-0.4-0.1-0.5,0.1
				C157.2,118.8,157.2,119.1,157.4,119.2z"/>
			<path class="st9" d="M155.7,121.9c0.2,0.1,0.4,0.1,0.5-0.1c0.1-0.2,0.1-0.4-0.1-0.5c-0.2-0.1-0.4-0.1-0.5,0.1
				C155.5,121.5,155.5,121.8,155.7,121.9z"/>
			<path class="st9" d="M154,124.6c0.2,0.1,0.4,0.1,0.5-0.1c0.1-0.2,0.1-0.4-0.1-0.5c-0.2-0.1-0.4-0.1-0.5,0.1
				C153.8,124.2,153.8,124.5,154,124.6z"/>
			<path class="st9" d="M152.3,127.3c0.2,0.1,0.4,0.1,0.5-0.1c0.1-0.2,0.1-0.4-0.1-0.5c-0.2-0.1-0.4-0.1-0.5,0.1
				C152.1,126.9,152.1,127.1,152.3,127.3z"/>
			<path class="st9" d="M150.6,129.9c0.2,0.1,0.4,0.1,0.5-0.1c0.1-0.2,0.1-0.4-0.1-0.5c-0.2-0.1-0.4-0.1-0.5,0.1
				C150.4,129.6,150.4,129.8,150.6,129.9z"/>
			<path class="st9" d="M148.9,132.6c0.2,0.1,0.4,0.1,0.5-0.1c0.1-0.2,0.1-0.4-0.1-0.5c-0.2-0.1-0.4-0.1-0.5,0.1
				C148.7,132.3,148.7,132.5,148.9,132.6z"/>
			<path class="st9" d="M147.2,135.3c0.2,0.1,0.4,0.1,0.5-0.1c0.1-0.2,0.1-0.4-0.1-0.5c-0.2-0.1-0.4-0.1-0.5,0.1
				C147,135,147,135.2,147.2,135.3z"/>
			<path class="st9" d="M145.5,138c0.2,0.1,0.4,0.1,0.5-0.1c0.1-0.2,0.1-0.4-0.1-0.5c-0.2-0.1-0.4-0.1-0.5,0.1
				C145.3,137.7,145.3,137.9,145.5,138z"/>
			<path class="st9" d="M143.8,140.7c0.2,0.1,0.4,0.1,0.5-0.1c0.1-0.2,0.1-0.4-0.1-0.5c-0.2-0.1-0.4-0.1-0.5,0.1
				C143.6,140.4,143.7,140.6,143.8,140.7z"/>
		</g>
		<path class="st9" d="M167.9,130.1l0.5-0.2c0,0,0,0,0,0l0,0c0,0-0.3-0.3-0.3-0.4c0,0-1.6,0.1-2.4,0.1c0,0,0,0,0,0
			c-0.2-0.3-0.3-0.6-0.5-0.9c0,0,0-0.1,0-0.1c-0.1-0.1-0.2-0.3-0.3-0.5c0,0,0,0,0-0.1c-0.1-0.1-0.2-0.3-0.3-0.4c0,0,0,0,0,0l0,0
			c-0.4-0.6-0.7-1.2-1.1-1.7l0.7-0.3c0,0,0,0,0,0c0,0,0,0,0,0c0,0,0,0,0,0v0c0,0,0,0,0.1,0.1c0,0,0,0,0,0v0c0,0,0,0,0,0l0,0
			c0,0,0,0,0,0c0,0,0,0,0-0.1c0,0,0,0,0,0c0,0,0,0,0,0c0,0,0,0,0,0l0.7-0.3l0,0c0,0,0,0,0,0c0,0,0,0,0,0l0,0c0,0,0,0,0.1,0.1
			c0,0,0,0,0,0l0,0c0,0,0,0,0,0l0,0c0,0,0,0,0,0c0,0,0,0,0-0.1c0,0,0,0,0,0c0,0,0,0,0,0c0,0,0,0,0,0l0.5-0.2l0.1-0.1c0,0,0,0,0,0
			c0,0,0,0,0,0c0,0,0,0,0,0c0,0,0,0,0.1,0.1c0,0,0,0,0,0l0,0c0,0,0,0,0,0v0c0,0,0,0,0,0c0,0,0,0,0-0.1l0,0c0,0,0,0,0,0l0.7-0.3
			c0,0,0,0,0,0c0,0,0,0,0,0c0,0,0,0,0,0l0,0c0,0,0,0,0.1,0.1c0,0,0,0,0,0l0,0c0,0,0,0,0,0v0c0,0,0,0,0,0c0,0,0,0,0-0.1c0,0,0,0,0,0
			c0,0,0,0,0,0l0,0l0.7-0.3l0,0l0,0c0,0,0-0.1-0.1-0.2c0,0,0,0,0,0c0,0,0,0,0,0c0,0,0,0,0,0c0,0,0,0,0,0c0,0,0,0-0.1,0c0,0,0,0,0,0
			c-0.1,0-0.1,0-0.2,0c0,0,0,0,0,0c0,0-0.1,0-0.1,0c0,0,0,0,0,0c0,0,0,0,0,0l0,0l0,0c-0.6,0-1.6,0-2.5-0.1c0-0.1-0.1-0.1-0.2-0.2
			l0,0l0,0c0-0.1-0.1-0.1-0.2-0.2c0,0,0,0,0,0c0,0,0,0,0,0l0,0c0,0,0,0,0,0c0,0,0,0,0,0c0,0,0,0,0,0l0,0c0,0,0,0,0,0l0,0
			c0,0,0,0,0,0c-0.1,0-0.2,0.1-0.3,0.2c0,0,0,0,0,0c0,0,0,0,0,0c0,0,0,0,0,0l0,0c0,0,0,0,0,0c0,0,0,0,0,0c0,0,0,0.1-0.1,0.1
			c0,0,0,0,0,0c-0.2,0-0.4,0-0.6,0c0,0,0,0-0.1,0c0,0,0,0,0,0c-0.1,0-0.2,0-0.3,0c-0.1-0.1-0.2-0.2-0.2-0.3l0,0
			c-0.2-0.3-0.3-0.5-0.4-0.6c0,0,0,0,0-0.1c0,0,0-0.1-0.1-0.1c0,0,0,0,0,0c0,0,0,0,0-0.1c0,0,0,0,0,0c0,0,0-0.1-0.1-0.1
			c-0.6-0.8-1.3-1.4-1.6-1.1c-0.3,0.2-0.1,1.1,0.5,1.9c0,0,0,0,0.1,0.1c0,0,0,0,0,0c0,0,0,0,0,0c0,0,0,0,0,0.1c0,0,0,0,0,0
			c0.1,0.1,0.1,0.2,0.2,0.3c0,0,0.1,0.1,0.1,0.1c0,0,0,0,0,0c0.1,0.1,0.1,0.2,0.2,0.3l0,0c0.1,0.1,0.2,0.2,0.2,0.3
			c0,0.1-0.1,0.2-0.1,0.3l0,0c-0.1,0.2-0.1,0.4-0.2,0.7c0,0,0,0,0,0c0,0-0.1,0-0.1,0c0,0,0,0,0,0l0,0l0,0c0,0,0,0,0,0c0,0,0,0-0.1,0
			l0,0c-0.1,0.1-0.2,0.1-0.2,0.2c0,0,0,0,0,0l0,0c0,0,0,0,0,0c0,0,0,0,0,0c0,0,0,0,0,0c0,0,0,0,0,0c0,0,0,0,0,0c0,0,0,0,0,0
			c0,0,0,0,0,0c0,0,0,0,0,0c0,0.1,0.1,0.1,0.1,0.2l0,0l0,0c0.1,0.1,0.1,0.2,0.2,0.2c-0.2,0.4-0.3,0.9-0.5,1.3c0,0,0,0,0,0.1
			c0,0.1,0,0.1-0.1,0.2c0,0,0,0.1,0,0.1c0,0,0,0,0,0.1c0,0,0,0.1,0,0.1c0,0,0,0,0,0c0,0.1,0,0.1-0.1,0.2c0,0,0,0,0,0
			c0,0.1-0.1,0.2-0.1,0.3c0,0,0,0,0,0s0,0,0,0c0,0,0,0,0,0c0,0,0,0,0,0c0,0,0,0.1,0,0.1c0,0,0,0,0,0c0,0.1-0.1,0.2-0.1,0.2
			c0,0,0,0,0,0c0,0,0,0,0,0.1c0,0,0,0,0,0c0,0,0,0,0,0c0,0,0,0,0,0c0,0,0,0,0,0c0,0.1,0.1,0.1,0.1,0.2c0,0,0,0,0,0l0.5-0.5
			c0,0,0,0,0,0c0,0,0,0,0,0c0,0,0,0,0,0c0,0,0,0,0,0c0,0,0,0,0,0l0,0c0,0,0,0,0,0h0c0,0,0,0,0,0c0,0,0,0,0-0.1l0,0c0,0,0,0,0,0
			c0,0,0,0,0,0l0.5-0.5c0,0,0,0,0,0c0,0,0,0,0,0c0,0,0,0,0,0c0,0,0,0,0,0l0,0c0,0,0,0,0,0l0,0c0,0,0,0,0,0c0,0,0,0,0-0.1l0,0
			c0,0,0,0,0,0c0,0,0,0,0,0l0.3-0.4l0.2-0.2c0,0,0,0,0,0c0,0,0,0,0,0c0,0,0,0,0,0c0,0,0,0,0,0l0,0c0,0,0,0,0,0v0c0,0,0,0,0,0
			c0,0,0,0,0-0.1l0,0c0,0,0,0,0,0c0,0,0,0,0,0l0.5-0.5c0,0,0,0,0,0c0,0,0,0,0,0l0,0c0,0,0,0,0,0c0,0,0,0,0,0l0,0c0,0,0,0,0,0v0
			c0,0,0,0,0,0c0,0,0,0,0-0.1c0,0,0,0,0,0c0,0,0,0,0,0c0,0,0,0,0,0l0.5-0.5c0.4,0.5,0.8,1.1,1.3,1.7l0,0c0,0,0,0,0,0.1
			c0.1,0.1,0.2,0.2,0.3,0.4c0,0,0,0,0,0.1c0.1,0.1,0.2,0.3,0.3,0.4c0,0,0.1,0.1,0.1,0.1c0.1,0.1,0.2,0.2,0.3,0.4c0,0,0,0,0,0
			c0.1,0.1,0.2,0.2,0.3,0.3c0,0,0,0,0,0c0,0.1-0.1,0.1-0.1,0.2c0,0,0,0,0,0l0,0c-0.2,0.4-0.4,1-0.6,1.4c0,0,0,0,0,0c0,0,0,0.1,0,0.1
			c0,0,0,0,0,0c0,0.1-0.1,0.1-0.1,0.2c0,0,0,0,0,0c0,0,0,0.1,0,0.1c0,0,0,0,0,0c0,0,0,0,0,0c0,0,0,0,0,0c0,0,0,0,0,0
			c0,0,0.1,0.2,0.2,0.4l0,0c0,0.1,0.1,0.1,0.1,0.1l0.4-0.4c0,0,0,0,0,0l1.2-1.2l0,0c0,0,0,0,0,0c0,0,0,0,0.1,0.1
			c0,0,0.1,0.1,0.1,0.1c0,0,0.1,0,0.1-0.1c0,0,0.1-0.1,0.1-0.1c0,0,0-0.1,0-0.1c0,0,0,0,0,0c0,0,0,0,0,0c0,0,0,0,0,0c0,0,0,0,0,0
			c0,0,0,0,0,0c0,0,0,0,0,0c0,0,0,0,0-0.1L167.9,130.1L167.9,130.1z"/>
	</g>
	<g>
		<g>
			<path class="st10" d="M60.9,86.2L60.9,86.2l-36.1,7.4c-1.2,0.2-2.4,0-3.4-0.7c-1-0.7-1.7-1.7-2-2.9l-3.9-19
				c-0.5-2.5,1.1-4.9,3.5-5.4l36.1-7.4c1.2-0.2,2.4,0,3.4,0.7c1,0.7,1.7,1.7,2,2.9l3.9,19C64.9,83.3,63.4,85.7,60.9,86.2z
				 M19.2,66.2c-2.2,0.5-3.5,2.6-3.1,4.7l3.9,19c0.2,1,0.8,1.9,1.7,2.5c0.9,0.6,1.9,0.8,3,0.6l36.1-7.4l0.1,0.3l-0.1-0.3
				c2.1-0.4,3.5-2.6,3.1-4.7l-3.9-19c-0.2-1-0.8-1.9-1.7-2.5c-0.9-0.6-1.9-0.8-3-0.6L19.2,66.2z"/>
			<g>
				<path class="st10" d="M23.1,85.8l1.2-0.2c0.3-0.1,0.6-0.1,0.8-0.1c0.2,0,0.5,0.1,0.7,0.2c0.5,0.3,0.9,0.9,1.1,1.7
					c0.1,0.3,0.1,0.5,0.1,0.7c0,0.2,0,0.4-0.1,0.6c-0.1,0.2-0.2,0.4-0.3,0.6c-0.1,0.1-0.2,0.2-0.3,0.3c-0.1,0.1-0.3,0.2-0.4,0.2
					c-0.2,0.1-0.3,0.1-0.5,0.2l-1.2,0.2c-0.2,0-0.3,0-0.4,0c-0.1,0-0.2-0.1-0.2-0.2c0-0.1-0.1-0.2-0.1-0.3l-0.7-3.3
					c0-0.2,0-0.3,0-0.5C22.8,85.9,22.9,85.9,23.1,85.8z M23.6,86.5l0.6,3l0.7-0.1c0.1,0,0.3-0.1,0.4-0.1c0.1,0,0.2-0.1,0.3-0.1
					c0.1-0.1,0.2-0.1,0.2-0.2c0.2-0.3,0.3-0.8,0.2-1.4c-0.1-0.4-0.2-0.8-0.4-0.9c-0.2-0.2-0.4-0.3-0.6-0.3c-0.2,0-0.4,0-0.7,0.1
					L23.6,86.5z"/>
				<path class="st10" d="M30.3,85l-2,0.4l0.2,1.1l1.9-0.4c0.1,0,0.3,0,0.3,0c0.1,0,0.1,0.1,0.2,0.2c0,0.1,0,0.2,0,0.3
					c-0.1,0.1-0.1,0.1-0.3,0.2l-1.9,0.4l0.3,1.3l2.1-0.4c0.1,0,0.3,0,0.3,0c0.1,0.1,0.1,0.1,0.2,0.2c0,0.1,0,0.2-0.1,0.3
					c-0.1,0.1-0.2,0.1-0.3,0.2l-2.5,0.5c-0.2,0-0.3,0-0.5,0c-0.1-0.1-0.2-0.2-0.2-0.4l-0.7-3.4c0-0.1,0-0.2,0-0.3
					c0-0.1,0.1-0.2,0.1-0.2c0.1-0.1,0.2-0.1,0.3-0.1l2.4-0.5c0.1,0,0.3,0,0.3,0c0.1,0.1,0.1,0.1,0.2,0.2c0,0.1,0,0.2-0.1,0.3
					C30.5,85,30.4,85,30.3,85z"/>
				<path class="st10" d="M33.7,86.5l-0.8,0.2l0.3,1.3c0,0.2,0,0.3,0,0.4c-0.1,0.1-0.2,0.2-0.3,0.2c-0.1,0-0.3,0-0.4-0.1
					c-0.1-0.1-0.2-0.2-0.2-0.4l-0.7-3.4c0-0.2,0-0.4,0-0.5c0.1-0.1,0.2-0.2,0.4-0.2l1.2-0.2c0.3-0.1,0.6-0.1,0.8-0.1
					c0.2,0,0.4,0.1,0.5,0.2c0.2,0.1,0.3,0.2,0.4,0.4c0.1,0.2,0.2,0.3,0.2,0.6c0.1,0.5,0,0.8-0.2,1.1C34.6,86.1,34.2,86.3,33.7,86.5z
					 M33,84.5l-0.6,0.1l0.3,1.4l0.6-0.1c0.2,0,0.4-0.1,0.5-0.2c0.1-0.1,0.2-0.2,0.3-0.3c0.1-0.1,0.1-0.3,0-0.4
					c0-0.2-0.1-0.3-0.3-0.4C33.7,84.4,33.4,84.4,33,84.5z"/>
				<path class="st10" d="M38.7,86.7l-0.3-0.5l-1.8,0.4l-0.1,0.6c0,0.2-0.1,0.4-0.1,0.5c0,0.1-0.1,0.1-0.3,0.2c-0.1,0-0.2,0-0.3-0.1
					c-0.1-0.1-0.2-0.2-0.2-0.3c0-0.1,0-0.1,0-0.2c0-0.1,0-0.2,0-0.3l0.5-3.1c0-0.1,0-0.2,0.1-0.3c0-0.1,0.1-0.2,0.1-0.3
					c0-0.1,0.1-0.2,0.2-0.2c0.1-0.1,0.2-0.1,0.3-0.1c0.1,0,0.2,0,0.3,0c0.1,0,0.2,0.1,0.2,0.1c0.1,0.1,0.1,0.1,0.2,0.2
					c0.1,0.1,0.1,0.2,0.2,0.3l1.8,2.6c0.1,0.2,0.2,0.4,0.2,0.4c0,0.1,0,0.2-0.1,0.3c-0.1,0.1-0.2,0.2-0.3,0.2c-0.1,0-0.1,0-0.2,0
					c-0.1,0-0.1,0-0.1-0.1c0,0-0.1-0.1-0.2-0.2C38.7,86.8,38.7,86.8,38.7,86.7z M36.6,85.8l1.3-0.3l-1.1-1.7L36.6,85.8z"/>
				<path class="st10" d="M41.2,84.7l-0.3,0.1l0.3,1.4c0,0.2,0,0.3,0,0.4c-0.1,0.1-0.2,0.2-0.3,0.2c-0.1,0-0.3,0-0.4-0.1
					c-0.1-0.1-0.2-0.2-0.2-0.4L39.6,83c0-0.2,0-0.3,0-0.5c0.1-0.1,0.2-0.2,0.4-0.2l1.5-0.3c0.2,0,0.4-0.1,0.5-0.1c0.1,0,0.3,0,0.4,0
					c0.2,0,0.3,0.1,0.4,0.2c0.1,0.1,0.2,0.2,0.3,0.3c0.1,0.1,0.1,0.3,0.2,0.4c0.1,0.3,0,0.6-0.1,0.9c-0.1,0.2-0.4,0.4-0.8,0.6
					c0.2,0.1,0.4,0.1,0.5,0.3c0.2,0.1,0.3,0.3,0.5,0.4c0.2,0.2,0.3,0.3,0.4,0.5c0.1,0.1,0.1,0.2,0.2,0.3c0,0.1,0,0.1,0,0.2
					c0,0.1-0.1,0.1-0.1,0.2c-0.1,0-0.1,0.1-0.2,0.1c-0.1,0-0.2,0-0.3,0c-0.1,0-0.2-0.1-0.2-0.1c-0.1-0.1-0.2-0.2-0.3-0.3l-0.5-0.5
					c-0.2-0.2-0.3-0.3-0.5-0.4c-0.1-0.1-0.2-0.2-0.4-0.2C41.5,84.7,41.4,84.7,41.2,84.7z M41.3,82.7l-0.8,0.2l0.3,1.2l0.8-0.2
					c0.2,0,0.4-0.1,0.5-0.2c0.1-0.1,0.2-0.2,0.3-0.3c0.1-0.1,0.1-0.2,0-0.4c0-0.1-0.1-0.2-0.2-0.3c-0.1-0.1-0.2-0.1-0.3-0.2
					C41.9,82.6,41.6,82.6,41.3,82.7z"/>
				<path class="st10" d="M46.7,81.7l-1,0.2l0.7,3.2c0,0.2,0,0.3,0,0.4c-0.1,0.1-0.2,0.2-0.3,0.2c-0.1,0-0.3,0-0.4-0.1
					c-0.1-0.1-0.2-0.2-0.2-0.4l-0.7-3.2l-1,0.2c-0.2,0-0.3,0-0.4,0c-0.1-0.1-0.1-0.1-0.2-0.2c0-0.1,0-0.2,0.1-0.3
					c0.1-0.1,0.2-0.1,0.3-0.2l2.9-0.6c0.2,0,0.3,0,0.4,0c0.1,0.1,0.1,0.1,0.2,0.2c0,0.1,0,0.2-0.1,0.3C47,81.6,46.8,81.6,46.7,81.7z
					"/>
				<path class="st10" d="M48.1,83.3l-0.4-2.1c0-0.2,0-0.3,0-0.4c0.1-0.1,0.2-0.2,0.3-0.2c0.1,0,0.3,0,0.4,0.1
					c0.1,0.1,0.2,0.2,0.2,0.4l0.5,2.2c0.1,0.3,0.1,0.5,0.2,0.6c0.1,0.2,0.2,0.3,0.4,0.3c0.2,0.1,0.4,0.1,0.6,0
					c0.3-0.1,0.6-0.2,0.7-0.4c0.1-0.2,0.1-0.5,0-0.9l-0.5-2.2c0-0.2,0-0.3,0-0.4c0.1-0.1,0.2-0.2,0.3-0.2c0.1,0,0.3,0,0.4,0.1
					c0.1,0.1,0.2,0.2,0.2,0.4l0.5,2.1c0.1,0.3,0.1,0.6,0.1,0.9c0,0.2-0.1,0.5-0.3,0.7c-0.1,0.2-0.3,0.3-0.5,0.4
					c-0.2,0.1-0.4,0.2-0.7,0.3c-0.3,0.1-0.6,0.1-0.9,0.1c-0.3,0-0.5-0.1-0.7-0.2c-0.2-0.1-0.3-0.3-0.5-0.5
					C48.3,83.9,48.2,83.7,48.1,83.3z"/>
				<path class="st10" d="M54,82l-0.3,0.1l0.3,1.4c0,0.2,0,0.3,0,0.4c-0.1,0.1-0.2,0.2-0.3,0.2c-0.1,0-0.3,0-0.4-0.1
					c-0.1-0.1-0.2-0.2-0.2-0.4l-0.7-3.4c0-0.2,0-0.3,0-0.5c0.1-0.1,0.2-0.2,0.4-0.2l1.5-0.3c0.2,0,0.4-0.1,0.5-0.1
					c0.1,0,0.3,0,0.4,0c0.2,0,0.3,0.1,0.4,0.2c0.1,0.1,0.2,0.2,0.3,0.3c0.1,0.1,0.1,0.3,0.2,0.4c0.1,0.3,0,0.6-0.1,0.9
					c-0.1,0.2-0.4,0.4-0.8,0.6c0.2,0.1,0.4,0.1,0.5,0.3c0.2,0.1,0.3,0.3,0.5,0.4c0.2,0.2,0.3,0.3,0.4,0.5c0.1,0.1,0.1,0.2,0.2,0.3
					c0,0.1,0,0.1,0,0.2c0,0.1-0.1,0.1-0.1,0.2c-0.1,0-0.1,0.1-0.2,0.1c-0.1,0-0.2,0-0.3,0c-0.1,0-0.2-0.1-0.2-0.1
					c-0.1-0.1-0.2-0.2-0.3-0.3l-0.5-0.5c-0.2-0.2-0.3-0.3-0.5-0.4c-0.1-0.1-0.2-0.2-0.4-0.2C54.3,82,54.2,82,54,82z M54.1,80
					l-0.8,0.2l0.3,1.2l0.8-0.2c0.2,0,0.4-0.1,0.5-0.2c0.1-0.1,0.2-0.2,0.3-0.3c0.1-0.1,0.1-0.2,0-0.4c0-0.1-0.1-0.2-0.2-0.3
					C55,80,54.9,80,54.8,80C54.7,79.9,54.5,80,54.1,80z"/>
				<path class="st10" d="M59.9,78.9l-2,0.4l0.2,1.1l1.9-0.4c0.1,0,0.2,0,0.3,0c0.1,0,0.1,0.1,0.2,0.2c0,0.1,0,0.2,0,0.3
					c-0.1,0.1-0.2,0.1-0.3,0.2l-1.9,0.4l0.3,1.3l2.1-0.4c0.1,0,0.3,0,0.3,0c0.1,0,0.1,0.1,0.2,0.2c0,0.1,0,0.2-0.1,0.3
					c-0.1,0.1-0.2,0.1-0.3,0.2l-2.5,0.5c-0.2,0-0.3,0-0.5,0c-0.1-0.1-0.2-0.2-0.2-0.4l-0.7-3.4c0-0.1,0-0.2,0-0.3
					c0-0.1,0.1-0.2,0.1-0.2c0.1-0.1,0.2-0.1,0.3-0.1l2.4-0.5c0.1,0,0.3,0,0.3,0c0.1,0,0.1,0.1,0.2,0.2c0,0.1,0,0.2-0.1,0.3
					C60.1,78.8,60,78.8,59.9,78.9z"/>
			</g>
			<path class="st10" d="M57.4,65.6l-37.6,7.9c-0.2,0-0.5-0.1-0.5-0.3c0-0.2,0.1-0.5,0.3-0.5l37.6-7.9c0.2-0.1,0.5,0.1,0.5,0.3
				C57.8,65.3,57.7,65.5,57.4,65.6z"/>
			<path class="st10" d="M59.6,76L22,83.8c-0.2,0.1-0.5-0.1-0.5-0.3c0-0.2,0.1-0.5,0.3-0.5l37.6-7.9c0.2,0,0.5,0.1,0.5,0.3
				C60,75.7,59.8,75.9,59.6,76z"/>
			<path class="st10" d="M57.2,69.7l0.1-0.4c0,0,0,0,0,0l0,0c0,0-0.4,0-0.4,0.1c0,0-0.7,1.1-1,1.7c0,0,0,0,0,0c-0.3,0-0.5,0-0.8,0
				c0,0-0.1,0-0.1,0c-0.1,0-0.3,0-0.4,0c0,0,0,0-0.1,0c-0.1,0-0.3,0-0.4,0c0,0,0,0,0,0l0,0c-0.6,0-1.1,0-1.7,0l0.1-0.6c0,0,0,0,0,0
				c0,0,0,0,0,0c0,0,0,0,0,0c0,0,0,0,0,0c0,0,0,0,0.1,0c0,0,0,0,0,0h0c0,0,0,0,0,0l0,0c0,0,0,0,0,0c0,0,0,0,0,0c0,0,0,0,0,0
				c0,0,0,0,0,0c0,0,0,0,0,0l0.1-0.6l0,0c0,0,0,0,0,0c0,0,0,0,0,0l0,0c0,0,0,0,0.1,0c0,0,0,0,0,0l0,0c0,0,0,0,0,0l0,0c0,0,0,0,0,0
				c0,0,0,0,0,0c0,0,0,0,0,0c0,0,0,0,0,0c0,0,0,0,0,0l0.1-0.5l0-0.1c0,0,0,0,0,0c0,0,0,0,0,0c0,0,0,0,0,0c0,0,0,0,0.1,0c0,0,0,0,0,0
				l0,0c0,0,0,0,0,0h0c0,0,0,0,0,0c0,0,0,0,0,0l0,0c0,0,0,0,0,0l0.1-0.6c0,0,0,0,0,0c0,0,0,0,0,0c0,0,0,0,0,0v0c0,0,0,0,0.1,0
				c0,0,0,0,0,0h0c0,0,0,0,0,0l0,0c0,0,0,0,0,0c0,0,0,0,0,0c0,0,0,0,0,0c0,0,0,0,0,0l0,0l0.1-0.6l0,0l0,0c0,0-0.1,0-0.2,0
				c0,0,0,0,0,0c0,0,0,0,0,0c0,0,0,0,0,0c0,0,0,0,0,0c0,0,0,0,0,0c0,0,0,0,0,0c0,0-0.1,0.1-0.1,0.1c0,0,0,0,0,0c0,0,0,0.1-0.1,0.1
				c0,0,0,0,0,0c0,0,0,0,0,0c0,0,0,0,0,0s0,0,0,0c-0.3,0.4-0.7,1-1.1,1.7c-0.1,0-0.1,0-0.2,0v0l0,0c-0.1,0-0.1,0-0.2,0c0,0,0,0,0,0
				c0,0,0,0,0,0l0,0c0,0,0,0,0,0c0,0,0,0,0,0c0,0,0,0,0,0l0,0c0,0,0,0,0,0l0,0c0,0,0,0,0,0c0,0.1,0,0.2,0,0.3v0c0,0,0,0,0,0
				c0,0,0,0,0,0l0,0c0,0,0,0,0,0c0,0,0,0,0,0c0,0,0,0.1,0,0.1c0,0,0,0,0,0c-0.1,0.2-0.2,0.3-0.3,0.4c0,0,0,0,0,0c0,0,0,0,0,0
				c-0.1,0.1-0.1,0.2-0.2,0.2c-0.1,0-0.2,0-0.3,0l0,0c-0.2,0-0.5,0-0.6,0c0,0,0,0-0.1,0c0,0,0,0-0.1,0c0,0,0,0-0.1,0c0,0,0,0-0.1,0
				c0,0,0,0,0,0c0,0-0.1,0-0.1,0c-0.8,0-1.5,0.3-1.5,0.6c0,0.3,0.7,0.5,1.5,0.5c0,0,0,0,0.1,0c0,0,0,0,0,0c0,0,0,0,0,0
				c0,0,0,0,0.1,0c0,0,0,0,0,0c0.1,0,0.2,0,0.3,0c0,0,0.1,0,0.1,0c0,0,0,0,0,0c0.1,0,0.2,0,0.3,0l0,0c0.1,0,0.2,0,0.3,0
				c0,0.1,0.1,0.1,0.2,0.2l0,0c0.1,0.1,0.2,0.3,0.3,0.5c0,0,0,0,0,0c0,0,0,0.1,0,0.1c0,0,0,0,0,0c0,0,0,0,0,0l0,0c0,0,0,0,0,0
				c0,0,0,0,0,0.1v0c0,0.1,0,0.2,0,0.2c0,0,0,0,0,0l0,0c0,0,0,0,0,0c0,0,0,0,0,0c0,0,0,0,0,0c0,0,0,0,0,0v0c0,0,0,0,0,0c0,0,0,0,0,0
				c0,0,0,0,0,0c0.1,0,0.1,0,0.2,0l0,0l0,0c0.1,0,0.2,0,0.2,0c0.2,0.3,0.5,0.6,0.7,0.9c0,0,0,0,0,0c0,0,0.1,0.1,0.1,0.1
				c0,0,0,0.1,0.1,0.1c0,0,0,0,0,0c0,0,0,0.1,0.1,0.1c0,0,0,0,0,0c0,0,0.1,0.1,0.1,0.1c0,0,0,0,0,0c0.1,0.1,0.1,0.1,0.1,0.2
				c0,0,0,0,0,0s0,0,0,0c0,0,0,0,0,0c0,0,0,0,0,0c0,0,0,0.1,0.1,0.1c0,0,0,0,0,0c0,0.1,0.1,0.1,0.1,0.1c0,0,0,0,0,0c0,0,0,0,0,0
				c0,0,0,0,0,0c0,0,0,0,0,0c0,0,0,0,0,0c0,0,0,0,0,0c0,0,0.1,0,0.2,0c0,0,0,0,0,0L53,74.5c0,0,0,0,0,0c0,0,0,0,0,0l0,0c0,0,0,0,0,0
				c0,0,0,0,0,0l0,0c0,0,0,0,0,0l0,0c0,0,0,0,0,0c0,0,0,0-0.1,0l0,0c0,0,0,0,0,0c0,0,0,0,0,0l-0.1-0.6c0,0,0,0,0,0v0c0,0,0,0,0,0
				c0,0,0,0,0,0l0,0c0,0,0,0,0,0h0c0,0,0,0,0,0c0,0,0,0-0.1,0c0,0,0,0,0,0c0,0,0,0,0,0c0,0,0,0,0,0l-0.1-0.4l0-0.2c0,0,0,0,0,0
				c0,0,0,0,0,0c0,0,0,0,0,0c0,0,0,0,0,0h0c0,0,0,0,0,0h0c0,0,0,0,0,0c0,0,0,0-0.1,0v0c0,0,0,0,0,0c0,0,0,0,0,0l-0.1-0.6
				c0,0,0,0,0,0c0,0,0,0,0,0c0,0,0,0,0,0c0,0,0,0,0,0c0,0,0,0,0,0l0,0c0,0,0,0,0,0l0,0c0,0,0,0,0,0c0,0,0,0-0.1,0l0,0c0,0,0,0,0,0
				c0,0,0,0,0,0l-0.1-0.6c0.6,0,1.1-0.1,1.7-0.1l0,0c0,0,0,0,0.1,0c0.1,0,0.3,0,0.4,0c0,0,0,0,0.1,0c0.1,0,0.3,0,0.4,0
				c0,0,0.1,0,0.1,0c0.1,0,0.3,0,0.4,0c0,0,0,0,0,0c0.1,0,0.2,0,0.4,0c0,0,0,0,0,0c0,0,0.1,0.1,0.1,0.2c0,0,0,0,0,0l0,0
				c0.2,0.3,0.5,0.7,0.7,1c0,0,0,0,0,0c0,0,0,0.1,0.1,0.1c0,0,0,0,0,0c0,0.1,0.1,0.1,0.1,0.1c0,0,0,0,0,0c0,0,0,0,0,0.1c0,0,0,0,0,0
				c0,0,0,0,0,0c0,0,0,0,0,0c0,0,0,0,0,0c0,0,0.2,0,0.3,0.1l0,0c0.1,0,0.1,0,0.1,0l-0.1-0.4c0,0,0,0,0,0l-0.3-1.4l0,0c0,0,0,0,0,0
				c0,0,0,0,0.1,0c0,0,0.1,0,0.1,0c0,0,0-0.1,0-0.1c0,0,0-0.1,0-0.1c0,0-0.1,0-0.1,0c0,0,0,0,0,0c0,0,0,0,0,0c0,0,0,0,0,0
				c0,0,0,0,0,0c0,0,0,0,0,0c0,0,0,0,0,0c0,0,0,0-0.1,0L57.2,69.7L57.2,69.7z"/>
		</g>
		<g>
			<path class="st10" d="M21.9,69.2c0.1,0.4-0.2,0.9-0.6,1c-0.4,0.1-0.9-0.2-1-0.6c-0.1-0.4,0.2-0.9,0.6-1
				C21.4,68.5,21.8,68.8,21.9,69.2z"/>
			<path class="st10" d="M31.3,67.3c0.1,0.4-0.2,0.9-0.6,1c-0.4,0.1-0.9-0.2-1-0.6c-0.1-0.4,0.2-0.9,0.6-1
				C30.8,66.6,31.2,66.9,31.3,67.3z"/>
			<path class="st10" d="M26.6,68.3c0.1,0.4-0.2,0.9-0.6,1c-0.4,0.1-0.9-0.2-1-0.6c-0.1-0.4,0.2-0.9,0.6-1
				C26.1,67.5,26.5,67.8,26.6,68.3z"/>
			<path class="st10" d="M36.1,66.4c0.1,0.4-0.2,0.9-0.6,1c-0.4,0.1-0.9-0.2-1-0.6c-0.1-0.4,0.2-0.9,0.6-1
				C35.5,65.7,36,66,36.1,66.4z"/>
			<path class="st10" d="M40.8,65.5c0.1,0.4-0.2,0.9-0.6,1c-0.4,0.1-0.9-0.2-1-0.6c-0.1-0.4,0.2-0.9,0.6-1
				C40.3,64.8,40.7,65,40.8,65.5z"/>
			<path class="st10" d="M50.2,63.6c0.1,0.4-0.2,0.9-0.6,1c-0.4,0.1-0.9-0.2-1-0.6c-0.1-0.4,0.2-0.9,0.6-1
				C49.7,62.9,50.2,63.2,50.2,63.6z"/>
			<path class="st10" d="M45.5,64.6c0.1,0.4-0.2,0.9-0.6,1c-0.4,0.1-0.9-0.2-1-0.6c-0.1-0.4,0.2-0.9,0.6-1
				C45,63.8,45.4,64.1,45.5,64.6z"/>
			<path class="st10" d="M55,62.7c0.1,0.4-0.2,0.9-0.6,1c-0.4,0.1-0.9-0.2-1-0.6c-0.1-0.4,0.2-0.9,0.6-1C54.5,62,54.9,62.3,55,62.7z
				"/>
		</g>
	</g>
	<g>
		<path class="st11" d="M59.4,149L15,142c-0.2,0-0.3-0.2-0.3-0.4l3.8-24.3c0-0.2,0.2-0.3,0.4-0.3l44.4,6.9c0.2,0,0.3,0.2,0.3,0.4
			l-3.8,24.3C59.8,148.8,59.6,149,59.4,149z M15.5,141.4l43.7,6.8l3.7-23.6l-43.7-6.8L15.5,141.4z"/>
		<g>
			<path class="st11" d="M35.3,122.7l1,0.2l-3.3,5.5l-1.1-0.2l-1.3-6.2l1.2,0.2l1,4.7L35.3,122.7z"/>
			<path class="st11" d="M36.9,128.9l-1.1-0.2l0.9-5.8l1.1,0.2L36.9,128.9z"/>
			<path class="st11" d="M37.8,127.7l1.1,0.2l0,0.1c0,0.2,0,0.3,0,0.4c0,0.1,0.1,0.2,0.1,0.3c0.1,0.1,0.2,0.1,0.4,0.2
				c0.1,0.1,0.3,0.1,0.4,0.1c0.1,0,0.3,0,0.4,0c0.1,0,0.3-0.1,0.4-0.2v0c0.2-0.1,0.3-0.4,0.4-0.7c0-0.3,0-0.5-0.1-0.6
				c-0.1-0.1-0.2-0.2-0.3-0.3c-0.1-0.1-0.3-0.2-0.4-0.3l0,0l-0.3-0.2c-0.2-0.1-0.4-0.3-0.5-0.4c-0.1-0.1-0.3-0.2-0.3-0.3
				c-0.2-0.2-0.4-0.5-0.4-0.6c-0.1-0.2-0.1-0.5-0.1-0.7c0.1-0.4,0.3-0.8,0.7-1c0.4-0.3,0.9-0.3,1.6-0.2c0.3,0.1,0.6,0.1,0.8,0.2
				c0.2,0.1,0.4,0.2,0.5,0.3c0.1,0.1,0.2,0.3,0.3,0.4c0.1,0.1,0.1,0.3,0.1,0.4l0,0.1l-1.1-0.2l0-0.1c0,0,0-0.1,0-0.1
				c0-0.1,0-0.1,0-0.1c0,0,0-0.1-0.1-0.1c0,0-0.1-0.1-0.1-0.1c-0.1-0.1-0.3-0.1-0.4-0.1c-0.3,0-0.5,0-0.7,0.2
				c-0.2,0.1-0.3,0.3-0.3,0.6c0,0.2,0,0.3,0,0.5c0.1,0.1,0.1,0.3,0.2,0.4c0.1,0.1,0.2,0.1,0.3,0.2c0.1,0.1,0.2,0.2,0.4,0.3l0.3,0.2
				c0.3,0.2,0.5,0.4,0.7,0.5c0.2,0.2,0.3,0.3,0.4,0.5c0.2,0.3,0.2,0.6,0.2,0.9c0,0.1-0.1,0.3-0.1,0.4c-0.1,0.1-0.2,0.3-0.3,0.4
				c-0.1,0.1-0.2,0.2-0.3,0.3c-0.1,0.1-0.3,0.2-0.5,0.2c-0.1,0-0.3,0.1-0.5,0.1c-0.2,0-0.4,0-0.7-0.1c-0.5-0.1-0.9-0.2-1.2-0.4
				c-0.3-0.2-0.5-0.4-0.6-0.6c-0.1-0.1-0.1-0.3-0.1-0.4C37.7,128,37.7,127.9,37.8,127.7L37.8,127.7z"/>
			<path class="st11" d="M42.9,129.9l-1-0.2l3.3-5.5l1.1,0.2l1.3,6.2l-1.2-0.2l-0.4-1.7l-2.2-0.3L42.9,129.9z M44.2,127.8l1.7,0.3
				c0-0.2-0.1-0.4-0.1-0.6c0-0.2-0.1-0.4-0.1-0.6c0-0.2-0.1-0.4-0.1-0.6c0-0.2-0.1-0.4-0.1-0.6L44.2,127.8z"/>
			<path class="st11" d="M19.2,135.5l-0.7-0.1l3.3-5.4l0.8,0.1l1.3,6.1l-0.8-0.1l-0.4-1.7l-2.6-0.4L19.2,135.5z M20.5,133.5l2.1,0.3
				L22,131L20.5,133.5z"/>
			<path class="st11" d="M25.3,136.5l-0.8-0.1l0.9-5.8l1.6,0.3c0.6,0.1,1,0.2,1.3,0.4c0.2,0.2,0.4,0.4,0.5,0.6
				c0.1,0.3,0.1,0.6,0.1,0.9c-0.1,0.5-0.3,1-0.8,1.3c-0.4,0.3-1,0.4-1.7,0.3l-0.7-0.1L25.3,136.5z M25.7,133.6l0.5,0.1
				c0.7,0.1,1.1,0,1.4-0.2c0.3-0.2,0.4-0.5,0.5-0.9c0-0.3,0-0.6-0.1-0.8c-0.1-0.2-0.5-0.4-1-0.4l-0.9-0.1L25.7,133.6z"/>
			<path class="st11" d="M29.7,137.2L29,137l0.9-5.8l1.6,0.3c0.6,0.1,1,0.2,1.3,0.4c0.2,0.2,0.4,0.4,0.5,0.6
				c0.1,0.3,0.1,0.6,0.1,0.9c-0.1,0.5-0.3,1-0.8,1.3c-0.4,0.3-1,0.4-1.7,0.3l-0.7-0.1L29.7,137.2z M30.2,134.3l0.5,0.1
				c0.7,0.1,1.1,0,1.4-0.2c0.2-0.2,0.4-0.5,0.5-0.9c0-0.3,0-0.6-0.1-0.8c-0.1-0.2-0.5-0.4-1-0.4l-0.9-0.1L30.2,134.3z"/>
			<path class="st11" d="M34.2,137.9l-0.8-0.1l0.9-5.8l1.8,0.3c0.4,0.1,0.8,0.2,1,0.3c0.2,0.2,0.3,0.4,0.4,0.6
				c0.1,0.3,0.1,0.5,0.1,0.8c0,0.2-0.1,0.4-0.2,0.6c-0.1,0.2-0.3,0.4-0.5,0.5c-0.2,0.1-0.4,0.3-0.8,0.3c0.1,0.1,0.2,0.2,0.2,0.2
				c0.1,0.1,0.1,0.2,0.2,0.3c0.1,0.2,0.1,0.3,0.2,0.4l0.7,1.9l-0.9-0.1l-0.6-1.6c-0.1-0.4-0.3-0.8-0.6-1.1l-0.8-0.1L34.2,137.9z
				 M34.7,134.8l0.7,0.1c0.3,0,0.6,0,0.7,0c0.2-0.1,0.3-0.2,0.4-0.4c0.1-0.2,0.2-0.4,0.2-0.6c0-0.2,0-0.3,0-0.5
				c-0.1-0.2-0.1-0.3-0.3-0.4c-0.1-0.1-0.4-0.2-0.7-0.3l-0.8-0.1L34.7,134.8z"/>
			<path class="st11" d="M40.3,139c-0.7-0.1-1.3-0.5-1.6-1.1c-0.4-0.6-0.5-1.4-0.3-2.4c0.2-1,0.5-1.7,1-2.2c0.5-0.5,1.2-0.6,1.9-0.5
				c0.7,0.1,1.3,0.5,1.6,1.1c0.4,0.6,0.5,1.4,0.3,2.4c-0.2,1-0.5,1.7-1,2.2C41.6,138.9,41,139.1,40.3,139z M40.4,138.4
				c0.5,0.1,1-0.1,1.3-0.5c0.4-0.4,0.6-1,0.7-1.7c0.1-0.7,0.1-1.4-0.2-1.9c-0.2-0.5-0.6-0.8-1.1-0.9c-0.5-0.1-1,0.1-1.3,0.5
				c-0.4,0.4-0.6,1-0.7,1.7c-0.1,0.7-0.1,1.4,0.2,1.9C39.5,138,39.8,138.3,40.4,138.4z"/>
			<path class="st11" d="M48.7,134.2l0.7,0.1l-3.3,5.4l-0.8-0.1l-1.3-6.1l0.8,0.1l1.1,5.1L48.7,134.2z"/>
			<path class="st11" d="M49.2,140.2l0.9-5.8l3.3,0.5l-0.1,0.6l-2.5-0.4l-0.3,1.8l2.2,0.3l-0.1,0.6l-2.2-0.3l-0.3,2.1l2.7,0.4
				l-0.1,0.6L49.2,140.2z"/>
			<path class="st11" d="M53.6,140.9l0.9-5.8l1.6,0.2c0.8,0.1,1.3,0.3,1.7,0.6c0.3,0.3,0.6,0.6,0.7,1.1c0.1,0.5,0.2,1,0.1,1.6
				c-0.1,0.6-0.3,1.1-0.5,1.5c-0.3,0.4-0.6,0.7-1,0.9c-0.4,0.2-1,0.2-1.7,0.1L53.6,140.9z M54.5,140.4l0.9,0.1
				c0.5,0.1,0.9,0.1,1.2,0c0.3-0.1,0.5-0.3,0.7-0.6c0.2-0.3,0.3-0.7,0.4-1.2c0.1-0.5,0.1-0.9,0-1.3c-0.1-0.4-0.2-0.7-0.5-0.9
				c-0.2-0.2-0.6-0.4-1.2-0.5l-0.9-0.1L54.5,140.4z"/>
		</g>
		<g>
			<path class="st11" d="M18.9,139.2c0,0.2-0.3,0.4-0.5,0.4c-0.2,0-0.4-0.3-0.4-0.5c0-0.2,0.3-0.4,0.5-0.4
				C18.7,138.7,18.9,138.9,18.9,139.2z"/>
			<path class="st11" d="M24.8,140.1c0,0.2-0.3,0.4-0.5,0.4c-0.2,0-0.4-0.3-0.4-0.5c0-0.2,0.3-0.4,0.5-0.4
				C24.7,139.6,24.8,139.9,24.8,140.1z"/>
			<path class="st11" d="M21.8,139.6c0,0.2-0.3,0.4-0.5,0.4c-0.2,0-0.4-0.3-0.4-0.5c0-0.2,0.3-0.4,0.5-0.4
				C21.7,139.2,21.9,139.4,21.8,139.6z"/>
			<path class="st11" d="M27.8,140.6c0,0.2-0.3,0.4-0.5,0.4c-0.2,0-0.4-0.3-0.4-0.5c0-0.2,0.3-0.4,0.5-0.4
				C27.7,140.1,27.8,140.3,27.8,140.6z"/>
			<path class="st11" d="M30.8,141c0,0.2-0.3,0.4-0.5,0.4c-0.2,0-0.4-0.3-0.4-0.5c0-0.2,0.3-0.4,0.5-0.4
				C30.6,140.6,30.8,140.8,30.8,141z"/>
			<path class="st11" d="M36.7,142c0,0.2-0.3,0.4-0.5,0.4c-0.2,0-0.4-0.3-0.4-0.5c0-0.2,0.3-0.4,0.5-0.4
				C36.6,141.5,36.7,141.7,36.7,142z"/>
			<path class="st11" d="M33.7,141.5c0,0.2-0.3,0.4-0.5,0.4c-0.2,0-0.4-0.3-0.4-0.5c0-0.2,0.3-0.4,0.5-0.4
				C33.6,141,33.8,141.3,33.7,141.5z"/>
			<path class="st11" d="M39.7,142.4c0,0.2-0.3,0.4-0.5,0.4c-0.2,0-0.4-0.3-0.4-0.5c0-0.2,0.3-0.4,0.5-0.4
				C39.5,142,39.7,142.2,39.7,142.4z"/>
			<path class="st11" d="M42.6,142.9c0,0.2-0.3,0.4-0.5,0.4c-0.2,0-0.4-0.3-0.4-0.5c0-0.2,0.3-0.4,0.5-0.4
				C42.5,142.4,42.7,142.6,42.6,142.9z"/>
			<path class="st11" d="M48.6,143.8c0,0.2-0.3,0.4-0.5,0.4c-0.2,0-0.4-0.3-0.4-0.5c0-0.2,0.3-0.4,0.5-0.4
				C48.4,143.3,48.6,143.6,48.6,143.8z"/>
			<path class="st11" d="M45.6,143.3c0,0.2-0.3,0.4-0.5,0.4c-0.2,0-0.4-0.3-0.4-0.5c0-0.2,0.3-0.4,0.5-0.4
				C45.5,142.9,45.6,143.1,45.6,143.3z"/>
			<path class="st11" d="M51.5,144.3c0,0.2-0.3,0.4-0.5,0.4c-0.2,0-0.4-0.3-0.4-0.5c0-0.2,0.3-0.4,0.5-0.4
				C51.4,143.8,51.6,144,51.5,144.3z"/>
			<path class="st11" d="M54.5,144.7c0,0.2-0.3,0.4-0.5,0.4c-0.2,0-0.4-0.3-0.4-0.5c0-0.2,0.3-0.4,0.5-0.4
				C54.4,144.3,54.5,144.5,54.5,144.7z"/>
			<path class="st11" d="M57.5,145.2c0,0.2-0.3,0.4-0.5,0.4c-0.2,0-0.4-0.3-0.4-0.5c0-0.2,0.3-0.4,0.5-0.4
				C57.3,144.7,57.5,145,57.5,145.2z"/>
		</g>
	</g>
</g>
</svg>
